<svg viewBox="22.5 49.36904761904759 1350.0000000000002 987.3809523809523" fill="none" xmlns="http://www.w3.org/2000/svg" xmlns:xlink="http://www.w3.org/1999/xlink" overflow="visible" width="1350.0000000000002px" height="987.3809523809523px"><g id="Master/Spot Illustrations/Super Idea"><ellipse id="Oval" opacity="0.5" cx="550" cy="1008.5" rx="394" ry="23.5" fill="#C9C9C9"/><g id="Background" opacity="0.5" transform="translate(36 63) scale(1 1)"><g id="Background/Blob 3"><path id="Fill 1" fill-rule="evenodd" clip-rule="evenodd" d="M584.044 49.6678C632.423 49.5025 680.263 54.0379 726.644 68.6819C740.727 73.1285 754.763 78.0528 768.201 84.1255C782.658 90.6587 795.795 99.7501 808.51 109.284C825.226 121.816 840.111 136.27 852.863 152.809C865.451 169.135 874.531 187.066 877.405 207.826C879.23 221.019 878.326 233.862 873.727 246.332C865.151 269.586 853.558 290.972 834.91 307.936C820.197 321.32 805.604 334.837 790.945 348.281C774.303 363.543 758.429 379.525 744.837 397.623C734.141 411.865 725.227 427.035 721.208 444.624C720.325 448.49 719.525 452.418 719.203 456.359C717.752 474.095 726.221 487.06 740.185 496.51C751.407 504.104 764.462 507.357 777.95 507.166C806.008 506.768 834.067 506.017 862.109 504.967C900.983 503.513 939.837 501.397 978.764 502.276C1027.69 503.379 1076.29 507.35 1123.89 519.536C1149.23 526.023 1173.71 534.794 1196.35 548.158C1206.29 554.026 1215.77 560.584 1223.59 569.096C1228.19 574.1 1232.49 579.575 1235.91 585.428C1242.51 596.733 1243.23 608.839 1238.67 621.177C1234.14 633.419 1226.66 643.743 1217.75 653.102C1203.35 668.21 1185.99 679.027 1167.24 687.831C1144.17 698.67 1120.03 706.635 1095.4 712.841C1055.15 722.982 1014.72 732.438 974.306 741.905C908.514 757.315 842.646 772.398 776.856 787.816C731.249 798.503 685.432 808.094 639.035 814.668C603.315 819.73 567.397 822.437 531.3 821.409C500.552 820.534 470.702 815.175 442.6 801.988C429.671 795.92 417.896 788.214 408.04 777.827C373.395 741.326 395.904 697.145 418.482 661.531C422.739 654.819 427.544 648.429 431.443 641.524C434.125 636.775 436.319 631.546 437.603 626.256C440.246 615.371 436.162 607.17 426.189 602.105C418.588 598.245 410.38 596.607 401.895 596.21C381.896 595.277 362.104 597.514 342.54 601.122C301.703 608.656 260.952 616.669 220.21 624.71C188.298 631.007 156.187 632.246 123.864 629.289C120.799 629.008 117.662 628.557 114.763 627.582C85.8678 617.864 59.8118 603.495 38.5855 581.148C19.8745 561.448 9.50705 537.656 3.94628 511.48C-1.76774 484.586 -1.36272 457.591 2.22283 430.44C7.13168 393.261 18.0185 358.083 35.7711 325.018C46.1799 305.631 58.3924 287.54 74.2695 272.2C100.009 247.328 125.148 221.751 152.024 198.159C196.406 159.2 247.392 130.516 301.586 107.444C355.693 84.4111 411.936 68.7645 469.928 59.1809C502.024 53.8763 534.282 50.3921 566.818 49.686C572.558 49.5609 578.302 49.6678 584.044 49.6678" fill="#F1ECE8"/></g></g><g id="Decoration" transform="translate(-9 183) scale(1 1)"><g id="Decoration/Scribbles"><path id="Fill 1" fill-rule="evenodd" clip-rule="evenodd" d="M856.044 580.832C854.228 577.016 854.231 577.052 850.313 577.217C849.245 577.26 848.164 577.025 847.091 576.894C844.316 576.554 841.809 575.328 838.783 575.495C835.73 575.663 832.398 574.688 829.563 573.392C827.796 572.585 826.398 572.415 824.554 572.49C818.014 572.757 811.806 576.392 805.042 574.374C804.442 574.194 803.651 574.703 802.941 574.839C798.821 575.621 794.529 575.761 790.831 578.106C785.97 576.71 781.901 579.924 777.359 580.428C772.741 580.942 768.803 582.905 765.397 586.122C764.409 587.056 762.86 587.856 761.54 587.9C756.326 588.07 752.686 591.198 748.919 594.132C747.235 595.443 745.38 596.681 744.109 598.34C742.404 600.569 741.246 603.207 739.751 605.607C737.517 609.198 739.593 613.831 743.834 614.546C746.985 615.079 750.171 615.439 753.287 616.121C756.756 616.881 760.115 618.766 763.663 616.207C764.139 615.865 765.315 616.502 766.169 616.67C767.032 616.84 768.317 617.439 768.697 617.082C772.006 613.982 775.508 615.943 778.991 616.385C781.064 616.648 784.45 617.358 785.026 616.455C786.401 614.293 787.598 615.496 789.062 615.436C792.626 615.285 796.323 615.251 799.686 614.239C802.762 613.313 806.116 612.017 809.079 612.167C810.111 612.219 811.372 612.178 812.17 611.645C814.888 609.824 817.66 609.021 820.875 610.06C821.505 610.264 822.6 610.334 822.926 609.971C825.54 607.041 829.38 608.024 832.546 606.893C835.277 605.919 838.739 606.527 841.104 605.127C843.883 603.484 846.513 602.863 849.577 602.705C851.098 602.627 853.316 602.115 853.919 601.058C855.328 598.586 857.634 599.223 859.525 598.734C863.254 597.769 867.117 597.329 870.856 596.398C872.419 596.01 873.808 594.926 875.278 594.16C871.734 592.301 871.204 587.671 867.16 587.605C866.82 587.599 866.296 586.869 866.188 586.401C864.94 580.989 860.673 581.102 856.044 580.832M926.373 468.226C928.58 467.317 930.442 466.672 932.182 465.789C933.242 465.25 934.736 464.503 934.97 463.58C936.187 458.779 938.801 454.869 941.857 451.104C943.366 449.244 942.733 446.436 941.019 445.844C936.657 444.339 932.564 439.95 927.268 443.633C926.712 444.02 925.556 443.737 924.742 443.522C922.817 443.012 920.689 442.718 919.092 441.662C917.196 440.407 914.877 443.443 913.432 440.756C910.695 441.953 908.332 439.688 905.748 439.891C899.77 440.36 893.885 441.905 887.805 441.303C886.823 441.206 885.522 441.529 884.795 442.155C880.582 445.777 875.372 445.85 870.304 446.704C866.283 447.382 862.272 448.422 858.441 449.807C855.28 450.951 853.576 455.287 849.262 454.157C847.741 458.571 841.829 456.769 839.981 460.718C833.671 461.67 831.352 466.339 830.178 471.219C828.855 472.595 827.367 470.668 826.285 472.954C825.069 475.526 820.796 476.565 822.427 480.703C822.449 480.758 822.152 480.913 822.041 481.051C818.745 485.111 818.348 490.175 817.309 494.996C817.1 495.957 817.357 497.199 817.822 498.092C819.99 502.256 822.289 506.353 824.591 510.447C824.83 510.873 825.348 511.321 825.809 511.42C832.218 512.793 837.632 517.71 844.702 516.729C846.447 516.487 848.225 516.454 849.955 516.137C852.921 515.591 855.704 514.534 858.852 516.141C860.945 517.211 863.434 517.849 865.638 515.114C866.935 513.503 869.419 512.701 871.51 511.904C876.36 510.056 881.406 508.686 886.161 506.632C889.627 505.135 892.813 502.943 896.016 500.893C898.214 499.487 900.299 497.879 902.308 496.21C905.474 493.581 908.609 490.908 911.608 488.093C913.533 486.287 914.836 483.379 917.049 482.426C920.437 480.962 921.543 478.663 921.531 475.599C928.546 473.881 928.395 472.8 926.373 468.226M1003.98 466.412C1005.58 470.357 1007.04 474.9 1009.25 479.039C1010.58 481.513 1012.74 483.4 1011.49 486.614C1011.2 487.341 1011.48 488.518 1011.9 489.256C1014.66 494.084 1013.54 499.352 1013.87 504.476C1014.38 512.172 1010.83 518.845 1008.86 525.916C1008.72 526.401 1008.36 526.979 1007.94 527.204C1005.27 528.629 1005.31 531.089 1005.35 532.504C1003.31 534.65 1001.74 536.145 1000.35 537.793C997.254 541.484 994.256 545.257 991.188 548.973C990.879 549.348 990.356 549.815 989.953 549.797C985.45 549.6 985.175 552.702 985.175 556.16C981.895 556.941 979.775 560.59 975.827 559.545C974.332 561.617 972.825 563.679 971.351 565.766C971.051 566.19 970.879 566.704 970.568 567.338C967.654 568.154 964.377 567.479 961.865 570.518C959.982 572.795 955.566 571.922 953.752 575.235C953.465 575.758 952.553 575.971 951.899 576.256C947.823 578.025 943.935 579.866 940.511 583.005C938.212 585.115 934.577 586.305 931.389 586.707C929.543 586.938 928.861 586.923 927.908 588.662C926.547 591.143 925.624 591.096 922.566 590.49C912.9 594.928 904.083 598.977 894.636 603.315C893.686 609.289 892.733 615.611 891.655 621.912C891.088 625.233 890.215 628.502 889.652 631.823C889.308 633.856 886.969 633.845 886.22 636.039C885.323 638.669 884.747 642.335 881.256 643.623C880.977 643.725 880.749 644.169 880.642 644.5C878.511 651.092 873.193 655.212 868.691 659.968C868.234 660.453 867.852 661.416 867.4 661.44C862.139 661.702 859.515 665.828 856.08 668.835C854.849 669.914 852.828 670.092 851.602 671.173C848.244 674.129 844.574 676.629 840.664 678.692C837.04 680.605 833.085 681.882 829.389 683.673C825.698 685.462 822.184 687.612 818.516 689.454C817.359 690.034 815.961 690.15 814.664 690.435C813.976 690.587 813.03 690.392 812.607 690.788C808.345 694.774 802.422 695.168 797.554 697.831C796.095 698.63 794.556 700.17 792.625 698.397C792.306 698.102 791.241 698.383 790.647 698.665C784.535 701.564 778.422 703.586 771.364 703.752C765.588 703.889 759.901 706.658 754.115 708.013C750.485 708.862 746.738 709.193 743.064 709.874C741.149 710.228 739.285 710.854 737.392 711.324C733.576 712.269 730.026 713.997 725.714 712.502C723.381 711.694 720.303 712.525 717.69 713.149C713.931 714.047 710.172 714.09 706.361 714.234C702.443 714.384 698.325 714.426 694.686 715.664C688.572 717.746 682.285 715.879 676.217 717.31C675.599 717.455 674.791 716.577 674.02 716.365C673.152 716.126 672.227 716.051 671.323 716.022C671.03 716.013 670.628 716.613 670.439 716.535C662.618 713.314 654.108 713.421 646.037 711.434C645.801 711.376 645.667 710.9 645.301 710.33C646.935 708.093 649.534 708.145 651.924 707.776C654.862 707.326 657.902 707.567 660.593 705.717C661.433 705.138 662.988 705.666 664.205 705.552C667.562 705.239 671.114 705.438 674.222 704.368C679.692 702.484 685.047 701.178 690.835 702.322C693.161 702.784 697.073 701.534 699.16 699.943C701.912 702.247 704.624 702.158 708.145 701.1C714.441 699.208 721.038 697.469 727.529 697.4C731.251 697.36 734.86 697.504 738.423 696.46C740.349 695.896 742.113 694.688 744.056 694.302C746.679 693.782 748.963 692.81 752.2 693.692C755.505 694.594 760.229 693.031 763.331 691.012C765.557 689.564 767.365 691.344 768.641 690.333C771.099 688.387 774.025 688.529 776.674 687.589C778.392 686.978 779.862 686.67 781.719 686.682C783.972 686.697 786.328 685.762 788.472 684.847C792.756 683.019 796.868 680.785 801.166 678.998C803.26 678.127 805.683 678.075 807.837 677.311C811.539 675.999 815.288 674.69 818.753 672.877C822.75 670.787 826.364 667.969 830.334 665.821C832.775 664.499 835.589 663.879 838.209 662.877C843.198 660.97 848.374 659.442 851.654 654.612C852.32 653.631 854.182 653.545 855.322 652.789C858.128 650.925 861.137 645.949 862.431 642.797C862.998 641.415 864.932 640.595 867.05 638.861C867.187 638.611 864.621 636.297 868.152 635.886C871.028 635.55 874.204 631.174 874.614 628.269C874.81 626.89 874.939 625.217 875.769 624.262C879.492 619.983 878.6 614.488 879.946 609.599C880.056 609.196 879.589 608.635 879.283 607.884C876.042 608.905 872.617 609.441 869.743 610.997C862.978 614.662 855.488 615.387 848.248 617.19C845.299 617.924 842.113 618.753 839.746 620.502C836.809 622.67 832.702 620.989 830.309 624.039C825.136 622.753 820.481 625.254 815.604 626.087C810.524 626.953 805.372 627.261 800.438 629.166C797.545 630.284 794.106 630.937 791.087 630.525C787.723 630.067 784.729 631.186 781.619 631.229C775.231 631.317 768.728 632.318 762.428 630.237C761.923 630.071 761.342 630.005 760.815 630.058C749.992 631.158 749.993 631.163 740.054 627.231C734.259 628.19 732.119 621.305 726.819 621.01C726.153 620.973 725.533 619.402 724.966 618.495C724.271 617.383 723.646 616.227 723.005 615.081C722.751 614.629 722.218 614.033 722.345 613.713C724.203 609.026 722.695 603.406 726.353 599.226C726.706 598.821 727.142 598.368 727.242 597.878C727.877 594.721 729.59 592.463 732.127 590.415C736.218 587.113 739.929 583.343 743.812 579.782C745.725 578.028 749.091 578.314 750.117 575.307C754.756 576.925 756.629 570.46 761.088 571.553C763.771 567.459 768.818 568.471 772.513 566.377C775.208 564.849 778.885 565.139 782.049 564.326C784.767 563.627 787.376 562.513 790.822 561.307C791.203 561.48 792.474 562.059 793.745 562.637C793.717 562.341 793.69 562.045 793.663 561.749C796.11 561.031 798.529 559.872 801.013 559.706C804.246 559.489 807.409 559.177 810.622 558.712C813.905 558.236 817.387 559.298 820.793 559.462C824.798 559.656 828.832 559.394 832.822 559.717C837.789 560.118 842.744 560.316 847.581 562.271C849.566 563.073 852.261 562.88 854.507 563.827C855.486 564.24 856.522 564.537 857.464 565.021C863.639 568.187 870.443 569.875 876.442 573.617C878.621 574.977 878.853 576.195 878.952 578.161C884.975 577.587 884.644 585.154 891.91 585.973C895.438 585.42 901.19 583.985 906.414 580.841C906.717 580.658 907.09 580.57 907.443 580.491C910.386 579.82 913.684 579.77 916.18 578.328C918.642 576.908 920.666 574.956 923.733 574.653C924.849 574.541 925.982 573.587 926.907 572.785C928.796 571.15 930.525 570.046 933.37 569.784C936.248 569.52 939.001 567.231 941.671 565.602C943.905 564.238 945.945 562.556 948.046 560.983C948.309 560.786 948.5 560.108 948.599 560.134C952.638 561.192 953.951 556.706 957.212 555.852C958.92 555.403 960.059 552.787 961.759 550.793C964.446 552.692 966.362 550.281 968.475 548.375C969.93 547.062 971.517 545.888 972.899 544.506C973.853 543.55 974.519 542.316 975.381 541.262C976.021 540.477 976.637 539.526 977.489 539.085C981.969 536.766 986.383 534.618 987.158 528.669C987.346 527.223 989.195 525.811 990.556 524.73C996.385 520.105 999.394 514.378 998.314 506.764C998.126 505.43 998.144 503.629 998.883 502.679C1001.71 499.04 999.496 495.089 999.483 491.463C999.471 488.459 996.719 485.472 995.207 482.466C994.722 481.502 993.979 480.508 993.945 479.508C993.858 476.957 992.015 475.853 990.48 474.336C989.294 473.164 988.726 471.384 987.583 470.153C984.446 466.776 981.387 463.245 977.789 460.425C976.567 459.467 974.557 459.249 973.526 457.628C973.342 457.339 972.946 456.936 972.707 456.972C967.457 457.752 964.874 452.817 960.666 451.402C960.337 451.291 959.964 451.313 959.089 451.213C956.474 455.368 953.781 459.755 950.972 464.066C949.347 466.555 947.433 468.858 945.835 471.364C944.396 473.622 943.545 476.328 941.837 478.325C938.795 481.881 935.311 485.057 931.992 488.374C931.35 489.015 930.152 489.472 930.01 490.176C929.184 494.266 925.347 495.037 922.725 497.141C922.049 497.684 921.092 498.311 920.96 499.026C920.2 503.164 916.421 504.505 913.784 506.777C911.121 509.073 908.446 511.454 904.714 512.375C902.596 512.896 900.745 514.667 898.88 516.02C896.048 518.074 893.593 520.729 889.735 520.948C888.913 520.995 888.148 521.751 887.326 522.108C883.123 523.936 879.397 527.223 874.319 526.402C868.737 530.276 861.14 528.445 855.747 532.952C855.13 533.468 853.918 533.758 853.172 533.531C851.44 533.003 849.886 531.754 848.142 531.435C846.323 531.101 844.307 531.848 842.484 531.523C839.86 531.052 837.35 529.464 834.758 529.382C829.8 529.224 825.712 527.88 821.721 524.72C817.998 521.773 814.053 519.217 810.51 515.906C807.174 512.787 807.406 508.695 805.532 505.288C804.595 503.584 803.943 501.691 803.383 499.818C802.723 497.608 801.285 495.703 803.242 492.957C804.496 491.201 803.773 488.06 804.014 485.548C804.216 483.446 804.757 481.577 805.757 479.543C808.513 473.939 810.826 468.158 815.124 463.45C815.617 462.91 815.422 461.793 815.725 461.015C816.051 460.184 816.807 458.705 817.004 458.764C819.972 459.644 820.661 457.442 821.765 455.597C822.181 454.903 823.093 454.097 823.81 454.064C826.708 453.936 828.122 451.858 829.974 450.132C832.259 448.002 834.044 444.923 837.836 444.962C838.276 444.967 838.917 444.517 839.134 444.104C840.913 440.725 844.352 440.668 847.414 439.689C849.965 438.872 852.675 437.93 854.71 436.293C856.86 434.563 858.427 432.271 861.665 433.361C861.948 433.457 862.485 433.343 862.664 433.127C866.036 429.032 871.05 430.061 875.382 429.169C881.287 427.955 887.284 427.167 893.264 426.358C895.183 426.097 897.175 426.418 899.128 426.35C900.614 426.298 902.048 427.264 903.661 425.745C904.438 425.012 906.673 425.833 908.249 425.941C911.438 426.158 914.16 427.956 917.963 426.403C920.84 425.229 925.01 427.214 928.602 427.803C932.123 428.38 935.63 429.055 939.164 429.532C942.696 430.01 946.375 429.887 949.196 432.613C951.544 432.21 952.586 430.796 953.093 428.622C954.279 423.548 955.681 418.526 956.873 413.453C957.585 410.425 957.381 407.162 959.52 404.522C959.891 404.066 959.954 402.945 959.652 402.429C957.798 399.265 960.696 396.906 961.351 394.341C961.828 392.465 962.555 391.24 961.819 389.11C961.115 387.071 961.192 384.497 961.717 382.352C963.014 377.056 963.064 371.879 961.867 366.577C961.44 364.69 961.722 362.645 961.659 360.673C961.505 355.794 960.519 351.086 959.212 346.375C957.751 341.105 960.494 336.52 965.566 334.986C966.209 334.793 967.27 334.731 967.646 335.105C971.182 338.606 976.159 340.743 975.247 347.63C974.596 352.56 976.458 357.825 977.212 362.94C977.291 363.472 977.744 364.24 977.537 364.482C974.946 367.509 976.407 371.061 976.742 374.139C977.419 380.376 975.5 386.621 977.165 392.805C977.425 393.768 977.193 394.949 976.915 395.953C975.679 400.418 974.235 404.827 973.083 409.311C972.251 412.547 971.514 415.843 971.173 419.159C970.691 423.84 969.805 428.174 966.767 432.063C964.353 435.152 966.036 439.616 969.944 440.786C973.829 441.95 977.491 443.231 980.12 446.519C980.324 446.775 980.736 446.927 981.077 447C983.698 447.56 985.701 448.822 987.423 451.03C989.112 453.195 991.467 454.844 993.565 456.678C994.481 457.478 995.398 458.365 996.475 458.875C998.328 459.755 999.791 460.59 1000.41 462.916C1000.76 464.247 1002.64 465.171 1003.98 466.412" fill="black"/><path id="Combined Shape" fill-rule="evenodd" clip-rule="evenodd" d="M240.807 171.169C240.221 170.856 239.635 170.543 239.048 170.232C239.159 170.028 239.27 169.824 239.381 169.621C238.837 169.554 238.247 169.546 237.657 169.538C236.366 169.52 235.076 169.502 234.262 168.869C231.733 166.91 228.901 165.63 226.07 164.35C224.764 163.759 223.458 163.169 222.182 162.512C218.95 160.848 215.928 160.371 212.705 162.217C211.293 165.843 211.669 168.477 214.775 171.688C216.572 173.544 218.56 174.362 220.52 175.168C221.016 175.373 221.511 175.576 222 175.796C225.725 177.464 228.838 179.963 231.96 182.47C234.239 184.3 236.523 186.133 239.052 187.649C240.749 188.667 242.578 189.521 244.416 190.379C248.712 192.386 253.056 194.415 255.882 198.608C258.158 198.335 259.018 199.96 259.574 201.011C259.721 201.288 259.846 201.525 259.971 201.677C261.029 201.699 261.979 201.689 262.853 201.68C264.587 201.662 266.024 201.647 267.414 201.892C270.931 202.508 274.337 202.384 278.254 201.76C277.639 200.565 277.191 199.321 276.755 198.108C275.662 195.069 274.637 192.22 271.207 190.811C270.436 190.494 269.795 189.663 269.291 188.932C267.278 186.014 265.31 184.868 261.212 183.999C259.83 183.705 258.221 183.227 257.298 182.271C256.328 181.264 255.077 180.629 253.821 179.992C251.84 178.986 249.848 177.975 248.933 175.493C248.661 174.756 247.526 174.344 246.38 173.929C245.825 173.727 245.266 173.525 244.803 173.284C243.466 172.588 242.137 171.879 240.807 171.169ZM269.432 248.629L269.43 248.63C264.895 250.292 260.5 251.902 255.389 249.526C253.129 248.476 250.709 247.773 248.074 247.007L248.074 247.007L248.074 247.007C246.82 246.643 245.518 246.265 244.161 245.828C244.064 245.41 243.751 244.059 243.435 242.701C239.821 242.887 237.04 241.162 234.313 239.471C233.892 239.21 233.471 238.949 233.049 238.697C232.551 238.398 232.058 238.092 231.567 237.787L231.567 237.787C228.889 236.122 226.255 234.485 222.892 234.21C221.37 234.087 219.756 233.222 218.483 232.289C215.455 230.07 212.333 228.794 208.446 228.51C206.981 228.403 205.599 227.459 204.195 226.501C203.356 225.928 202.51 225.351 201.633 224.943C199.984 224.176 198.266 223.558 196.471 222.912L196.471 222.912C195.661 222.62 194.835 222.323 193.992 222.005C193.927 221.779 193.878 221.5 193.824 221.197C193.689 220.436 193.526 219.519 193.015 218.881C190.534 215.784 192.432 212.963 194.164 211.076C195.278 209.862 197.497 209.554 199.525 209.272C199.93 209.215 200.328 209.16 200.707 209.099C201.807 208.921 203.331 209.233 204.164 209.924C207.048 212.314 210.406 213.166 213.833 214.034L213.833 214.035C214.638 214.239 215.447 214.444 216.254 214.67C216.854 214.838 217.451 215.016 218.048 215.195C219.943 215.761 221.838 216.328 223.833 216.561C224.354 216.621 225.155 216.799 225.304 217.148C226.741 220.507 229.608 221.236 232.561 221.987C233.129 222.132 233.699 222.277 234.263 222.442C235.547 222.816 236.693 223.655 237.842 224.496L237.842 224.496C238.412 224.913 238.982 225.331 239.571 225.693C239.862 225.872 240.15 226.095 240.437 226.318C241.742 227.332 243.032 228.334 244.563 225.087C247.073 230.173 250.781 231.824 255.104 233.094C258.565 234.11 261.797 235.889 264.52 238.795C264.841 239.137 265.147 239.459 265.438 239.766L265.44 239.768C267.985 242.449 269.447 243.989 270.752 248.149C270.31 248.307 269.87 248.469 269.432 248.629ZM184.791 274.388C185.024 271.074 187.289 269.149 189.848 268.114C191.976 267.252 194.568 267.294 196.947 267.342C202.213 267.451 207.477 267.753 212.732 268.126C213.395 268.172 214.037 268.446 214.683 268.721C215.206 268.943 215.732 269.167 216.274 269.273C216.411 269.3 216.55 269.327 216.69 269.355C217.948 269.607 219.303 269.879 220.45 269.563C224.575 268.425 228.472 268.793 232.415 270.322C233.98 270.929 235.707 271.171 237.393 271.408L237.665 271.446C238.513 271.566 239.383 271.605 240.25 271.644L240.25 271.644C241.703 271.709 243.15 271.774 244.475 272.22C245.571 272.588 246.687 272.925 247.804 273.262L247.804 273.262C252.913 274.806 258.047 276.357 261.459 280.961C261.385 281.201 261.336 281.428 261.293 281.624L261.293 281.625C261.218 281.971 261.164 282.22 261.034 282.269C260.047 282.648 259.067 283.053 258.087 283.457C253.161 285.491 248.237 287.524 242.563 286.237C241.85 286.075 241.071 286.232 240.285 286.39C239.811 286.486 239.336 286.581 238.87 286.609L238.827 286.611C237.851 286.669 236.826 286.729 235.9 286.49C234.91 286.235 233.932 285.923 232.954 285.612L232.954 285.612C231.297 285.085 229.643 284.558 227.945 284.31C227.281 284.213 226.519 284.787 225.63 285.457C225.185 285.792 224.708 286.151 224.195 286.462C223.832 286.291 223.465 286.11 223.095 285.928C220.182 284.494 217.022 282.938 212.992 284.585C211.312 285.272 209.148 284.881 207.074 284.506L207.074 284.506C206.514 284.404 205.96 284.304 205.425 284.227C204.806 284.137 204.317 283.141 204.313 283.069L204.321 283.07C204.316 283.063 204.313 283.063 204.313 283.069L188.419 281.117C187.477 279.371 186.21 277.022 184.791 274.388Z" fill="#D08F52"/><path id="Combined Shape_2" fill-rule="evenodd" clip-rule="evenodd" d="M737.303 204.197C742.184 197.492 745.158 190.534 744.912 182.644C744.714 182.491 744.573 182.369 744.466 182.275L744.465 182.275L744.465 182.275C744.299 182.13 744.214 182.057 744.125 182.051C743.424 182.009 742.717 181.982 742.016 182.014C736.968 182.236 736.137 183.061 735.361 188.303C735.266 188.947 735.088 189.581 734.911 190.214C734.698 190.973 734.486 191.73 734.417 192.502C734.051 196.579 734.219 200.57 737.303 204.197ZM763.786 222.086C761.225 216.559 759.373 211.346 761.42 205.361C762.033 203.569 762.34 201.672 762.669 199.646C762.824 198.687 762.984 197.699 763.184 196.679C763.528 196.599 763.903 196.446 764.302 196.285C765.653 195.737 767.275 195.08 768.886 196.707C770.922 198.764 771.333 201.277 770.577 204.109C770.192 205.548 769.893 207.018 769.592 208.493L769.592 208.493L769.592 208.494C768.623 213.245 767.642 218.054 763.786 222.086ZM626.042 272.465C622.794 267.616 620.423 262.519 621.688 256.27C621.958 254.933 622.147 253.58 622.336 252.227L622.336 252.227C622.486 251.154 622.636 250.08 622.827 249.015C623.237 246.726 624.057 244.756 626.989 245.189C629.644 245.581 630.881 247.193 630.828 250.133C630.807 251.287 630.814 252.444 630.821 253.602V253.603C630.838 256.356 630.855 259.109 630.498 261.812C630.168 264.303 629.449 266.743 628.729 269.182L628.729 269.182L628.729 269.182C628.413 270.256 628.096 271.33 627.813 272.408L626.042 272.465ZM700.156 264.577C698.981 261.261 697.946 258.34 696.65 254.679C695.812 255.517 694.806 256.136 693.837 256.732C691.52 258.157 689.417 259.451 690.335 263.286C690.475 263.874 690.175 264.562 689.872 265.257C689.715 265.617 689.557 265.979 689.459 266.33C689.173 267.356 688.871 268.38 688.57 269.403L688.57 269.403L688.57 269.403L688.57 269.404L688.57 269.404L688.57 269.404L688.57 269.404L688.569 269.404L688.569 269.404L688.569 269.405L688.569 269.405L688.569 269.405L688.569 269.405L688.569 269.405L688.569 269.406L688.569 269.406L688.569 269.406L688.569 269.406L688.569 269.406L688.569 269.406L688.569 269.407L688.569 269.407L688.569 269.407L688.569 269.407L688.569 269.407L688.569 269.408L688.569 269.408L688.569 269.408L688.569 269.408L688.568 269.408L688.568 269.408L688.568 269.409L688.568 269.409L688.568 269.409L688.568 269.409L688.568 269.409L688.568 269.41L688.568 269.41L688.568 269.41L688.568 269.41L688.568 269.41C687.775 272.102 686.982 274.795 686.461 277.538C686.206 278.876 686.411 280.301 686.605 281.65L686.605 281.65C686.69 282.238 686.772 282.811 686.814 283.356C691.382 284.196 693.337 281.822 694.573 278.972C696.062 275.535 697.371 272.019 698.624 268.654L698.624 268.653L698.625 268.65L698.628 268.644L698.628 268.643C699.144 267.257 699.65 265.896 700.156 264.577ZM746.36 281.96C746.177 281.913 746.004 281.868 745.843 281.835C743.725 286.337 741.914 290.712 743.138 295.711C743.372 296.669 743.22 298.14 742.619 298.817C739.92 301.86 740.361 305.203 740.8 308.536C740.982 309.919 741.165 311.301 741.122 312.659C741.099 313.399 741.322 314.146 741.574 314.992C741.701 315.416 741.835 315.865 741.948 316.35C745.657 314.535 747.66 311.693 748.799 308.624C751.469 301.429 753.507 294.04 752.496 286.178C752.137 283.381 751.011 282.35 747.767 282.217C747.278 282.197 746.792 282.072 746.36 281.96ZM835.184 344.253C832.995 339.815 831.905 336.145 833.125 331.169L833.277 330.55C834.516 325.51 835.803 320.275 835.766 314.852C835.753 312.885 836.598 310.912 837.457 308.907C837.848 307.992 838.243 307.071 838.56 306.14C838.711 306.128 838.871 306.114 839.038 306.1L839.268 306.081L839.269 306.081L839.27 306.081C839.934 306.024 840.695 305.959 841.456 305.913C845.01 305.697 845.752 306.565 845.946 310.043C846.18 314.262 844.82 318.06 843.46 321.857C842.83 323.618 842.2 325.379 841.728 327.181C841.602 327.664 841.452 328.132 841.303 328.597C840.774 330.248 840.259 331.854 840.886 333.896C841.765 336.756 839.848 339.534 835.184 344.253ZM692.462 391.016C697.002 394.447 697.801 396.953 696.588 401.364C694.92 407.43 693.255 413.516 692.066 419.686C691.421 423.031 689.804 425.508 687.847 427.922C687.633 427.834 687.429 427.772 687.251 427.718L687.251 427.718C686.931 427.621 686.693 427.548 686.625 427.399C684.619 422.945 684.507 413.141 685.745 408.8C686.8 405.103 687.416 401.21 687.637 397.37C687.785 394.784 689.327 393.562 690.991 392.244L690.991 392.244C691.481 391.855 691.983 391.458 692.462 391.016ZM686.906 301.387C693.923 302.486 693.928 306.765 691.962 311.704C691.758 312.217 691.548 312.725 691.339 313.232C689.993 316.492 688.681 319.672 689.068 323.512C689.189 324.718 688.235 326.039 687.287 327.351L687.287 327.351C686.878 327.917 686.47 328.481 686.151 329.033C685.289 330.523 684.41 332.003 683.401 333.701L683.398 333.706L683.397 333.708L683.388 333.724L683.383 333.731C682.904 334.538 682.395 335.395 681.845 336.325C678.472 328.682 677.654 322.211 681.588 315.561C682.739 313.615 683.692 311.105 683.539 308.938C683.311 305.701 684.468 303.519 686.906 301.387ZM752.126 372.136C752.126 370.328 752.005 368.613 751.891 366.995C751.656 363.644 751.45 360.708 752.405 358.218C753.322 355.827 753.867 353.365 754.409 350.915C754.985 348.311 755.558 345.72 756.573 343.245C756.973 342.272 757.604 341.174 758.447 340.661C759.384 340.094 760.863 339.675 761.782 340.031C762.725 340.395 763.972 341.844 763.887 342.698C763.76 343.966 763.658 345.239 763.555 346.511C763.123 351.881 762.689 357.254 760.474 362.348C759.148 365.396 756.93 367.513 754.303 370.022L754.303 370.022L754.303 370.023L754.3 370.026L754.299 370.026C753.601 370.694 752.873 371.388 752.126 372.136ZM839.589 389.784C836.758 396.404 835.674 402.723 840.842 409.474C847.52 401.245 848.024 391.971 848.519 382.86L848.519 382.855C848.585 381.628 848.652 380.403 848.733 379.185C845.928 377.791 844.469 378.37 842.962 380.256C841.55 382.024 841.096 384.075 840.645 386.108C840.367 387.364 840.09 388.613 839.589 389.784ZM595.915 450.601C598.573 455.095 598.886 459.88 597.529 464.866C597.026 466.715 597.054 468.652 597.082 470.588C597.128 473.701 597.173 476.811 595.011 479.548C590.859 478.198 587.375 472.658 588.985 468.515C589.979 465.958 589.513 464.108 588.832 461.876C586.883 455.493 588.747 452.479 595.915 450.601ZM647.024 504.875C646.926 508.452 646.819 512.326 651.46 514.828C651.897 513.772 652.295 512.763 652.679 511.792C653.482 509.758 654.219 507.889 655.116 506.1C656.919 502.502 656.799 498.731 656.678 494.964C656.617 493.073 656.557 491.183 656.74 489.316C657.053 486.125 654.13 484.657 651.089 486.039C650.275 486.408 649.572 487.018 649.092 487.433L649.092 487.434C648.929 487.575 648.792 487.694 648.686 487.773C648.686 488.453 648.703 489.062 648.719 489.622C648.75 490.719 648.776 491.627 648.656 492.516C648.478 493.828 648.227 495.138 647.976 496.446C647.521 498.822 647.066 501.194 647.051 503.572C647.048 504 647.036 504.435 647.024 504.875ZM714.172 536.696C713.97 535.982 713.735 535.311 713.51 534.668C713.041 533.328 712.616 532.114 712.631 530.904C712.668 527.69 713.017 524.423 713.725 521.289L713.805 520.933C714.577 517.523 715.326 514.215 714.779 510.636C714.36 507.901 715.666 507.056 718.268 507.653C721.631 508.424 723.381 510.701 724.322 513.853C721.599 517.977 721.078 522.685 721.042 527.535C721.006 532.279 719.678 534.184 714.172 536.696ZM654.455 284.46C654.076 284.628 653.702 284.793 653.328 284.917C652.908 286.517 652.426 288.097 651.948 289.665C650.838 293.3 649.747 296.874 649.501 300.506C649.47 300.964 649.424 301.44 649.377 301.928V301.928L649.377 301.928L649.377 301.929C649.052 305.297 648.671 309.247 652.727 311.834C652.939 311.585 653.152 311.338 653.366 311.091C655.285 308.876 657.189 306.677 657.429 303.629C657.761 299.399 659.378 295.691 661.301 292.028C663.162 288.48 662.633 287.42 659.527 284.78C657.547 283.097 655.959 283.797 654.455 284.46ZM773.621 394.12L773.622 394.12C774.087 395.353 774.559 396.603 774.311 397.687C772.954 403.613 771.276 409.484 769.334 415.247C768.901 416.534 767.96 417.65 766.861 418.952C766.308 419.608 765.715 420.311 765.127 421.107C764.735 420.65 764.313 420.245 763.921 419.869L763.921 419.869C763.15 419.129 762.495 418.501 762.411 417.803C762.341 417.214 762.253 416.627 762.166 416.04L762.166 416.039C761.716 413.014 761.267 409.996 763.1 406.899C764.02 405.346 764.449 403.516 764.88 401.675L764.88 401.675C765.153 400.509 765.428 399.339 765.828 398.232C766.846 395.42 767.967 392.5 773.057 392.461C773.198 392.999 773.409 393.558 773.621 394.12ZM564.582 338.754C568.998 329.209 573.185 320.158 569.635 309.233C565.684 310.442 562.764 312.94 562.718 315.865C562.685 317.952 562.176 319.799 561.669 321.636C561.397 322.621 561.126 323.603 560.929 324.617C560.837 325.092 560.73 325.577 560.622 326.066C560.183 328.049 559.728 330.103 560.199 331.868C560.376 332.529 560.489 333.228 560.606 333.946C560.968 336.166 561.36 338.574 563.722 340.616C564.008 339.993 564.295 339.373 564.582 338.754ZM803.866 362.603C800.114 357.272 800.113 351.756 803.448 334.458C808.742 333.634 811.255 335.79 810.765 341.484C810.348 346.342 809.559 351.233 808.262 355.924C807.813 357.548 806.672 358.979 805.483 360.47C804.933 361.16 804.372 361.862 803.866 362.603ZM714.13 304.54C714.667 302.981 715.208 301.409 715.78 299.831C715.559 299.596 715.346 299.347 715.131 299.097C714.658 298.546 714.18 297.989 713.606 297.561C711.028 295.638 706.169 297.082 705.846 300.253C705.493 303.725 704.246 306.844 703.014 309.926C702.343 311.603 701.677 313.268 701.162 314.974L701.653 316.106C702.419 317.874 703.219 319.719 704.274 322.154C704.974 321.36 705.7 320.637 706.399 319.941C707.86 318.484 709.204 317.145 709.944 315.53C711.563 311.997 712.834 308.305 714.13 304.54ZM789.261 445.934C790.829 442.101 789.777 438.942 787.944 435.349C783.806 436.081 781.859 438.209 781.671 442.041C781.6 443.467 781.493 445.056 780.834 446.259C777.687 451.999 779.358 457.18 782.485 463.218C783.146 462.279 783.868 461.465 784.562 460.682C786.225 458.805 787.728 457.11 787.842 454.317C787.957 451.495 788.212 448.501 789.261 445.934ZM747.548 468.582C747.018 467.135 746.356 465.865 745.73 464.665C744.376 462.068 743.197 459.808 743.919 456.827C744.246 455.473 744.142 453.891 743.805 452.52C742.496 447.196 744.925 443.697 749.145 440.63C752.469 443.385 755.268 445.839 752.497 450.623C751.626 452.127 751.326 454.613 751.934 456.203C753.273 459.704 751.727 461.918 749.982 464.416C749.108 465.668 748.184 466.991 747.548 468.582ZM809.657 398.27C809.744 396.928 809.837 395.518 809.953 394.011C809.949 394.001 809.941 393.975 809.928 393.934L809.928 393.933C809.842 393.663 809.559 392.771 809.188 391.917C809.117 391.754 809.049 391.583 808.98 391.41L808.979 391.409L808.979 391.407L808.979 391.407L808.978 391.406L808.978 391.405L808.977 391.403L808.976 391.401C808.497 390.199 807.972 388.881 806.299 389.416C805.071 389.808 803.988 390.851 803.025 391.792C802.697 392.112 802.591 392.67 802.488 393.217C802.45 393.417 802.413 393.615 802.365 393.8C802.316 393.989 802.267 394.178 802.218 394.368L802.048 395.022L802.047 395.023C801.616 396.681 801.185 398.338 800.809 400.008C800.591 400.974 800.298 401.928 800.004 402.882L800.004 402.883L800.004 402.883L800.004 402.883L800.004 402.883L800.004 402.883L800.004 402.884L800.004 402.884L800.004 402.884L800.004 402.884L800.004 402.884L800.004 402.884L800.004 402.885L800.004 402.885L800.004 402.885L800.004 402.885L800.003 402.885L800.003 402.886L800.003 402.886L800.003 402.886L800.003 402.886L800.003 402.886L800.003 402.886L800.003 402.887L800.003 402.887L800.003 402.887L800.003 402.887C799.216 405.446 798.429 408.006 799.097 410.791C799.653 413.116 801.37 414.022 803.56 413.097C806.59 411.819 808.527 409.503 808.958 406.283C809.299 403.732 809.468 401.158 809.657 398.27ZM652.472 446.162C652.534 448.516 652.599 450.964 652.008 453.522C652.859 453.427 653.62 453.408 654.273 453.391H654.274H654.274C655.436 453.36 656.254 453.339 656.621 452.921C656.89 452.616 657.169 452.311 657.449 452.005C659.581 449.67 661.815 447.225 660.738 443.598C659.804 440.45 660.941 438.111 662.759 436.26C662.636 435.746 662.544 435.261 662.457 434.803L662.457 434.803L662.457 434.803C662.279 433.865 662.123 433.042 661.761 432.322C660.863 430.533 659.633 428.676 657.273 429.154C654.771 429.661 654.144 431.733 654.174 434.046C654.178 434.312 654.211 434.596 654.244 434.881C654.319 435.528 654.395 436.179 654.127 436.62C652.3 439.641 652.384 442.806 652.472 446.162ZM613.394 321.484C605.154 312.327 604.177 301.108 611.262 294.248C611.556 294.552 611.909 294.842 612.262 295.132L612.262 295.132L612.262 295.133L612.262 295.133L612.262 295.133L612.262 295.133L612.262 295.133L612.262 295.133L612.262 295.133L612.263 295.133L612.263 295.133L612.263 295.133L612.263 295.133L612.263 295.133L612.263 295.133L612.263 295.133L612.263 295.133L612.263 295.133L612.263 295.133L612.263 295.133L612.263 295.133L612.263 295.133L612.263 295.133L612.263 295.133C613.028 295.762 613.792 296.391 613.957 297.15C615.64 304.906 616.715 312.729 614.43 320.58C614.377 320.761 614.181 320.9 613.911 321.092C613.758 321.2 613.582 321.325 613.394 321.484ZM726.59 384.228C722.726 389.146 724.494 393.499 727.336 398.281C731.959 396.483 734.351 393.835 733.7 388.919C733.533 387.656 734.084 386.251 734.603 384.931C734.696 384.694 734.789 384.459 734.876 384.228C736.75 379.242 736.435 378.235 731.379 374.915L729.453 376.281L728.055 377.272L726.712 378.225C726.712 379.139 726.796 380.009 726.873 380.8C727.019 382.309 727.138 383.531 726.59 384.228ZM657.08 208.871C662.569 205.984 664.144 206.483 664.02 212.413C664.004 213.181 664.004 213.959 664.003 214.742C664.002 219.438 664 224.313 660.596 228.423C659.916 229.243 659.661 230.416 659.356 231.824L659.356 231.824C659.2 232.548 659.029 233.334 658.781 234.166C653.724 228.137 654.902 222.13 656.073 216.154C656.55 213.721 657.026 211.293 657.08 208.871ZM819.962 272.501C818.556 279.051 818.534 285.583 821.93 292.288C822.334 291.486 822.7 290.722 823.05 289.99C823.776 288.476 824.437 287.098 825.228 285.799C827.568 281.961 827.93 277.702 828.291 273.457L828.291 273.456C828.4 272.172 828.51 270.889 828.673 269.62C828.8 268.636 827.393 266.998 826.303 266.469C825.528 266.092 823.734 266.741 823.034 267.512C821.731 268.944 820.352 270.684 819.962 272.501ZM824.929 473.265L822.401 474.344C821.519 474.721 820.597 475.114 819.709 475.494C816.14 472.545 816.744 469.226 817.337 465.964C817.517 464.971 817.697 463.984 817.757 463.014C818.01 458.964 819.527 455.746 823.928 454.555C827.955 455.903 827.663 459.343 827.208 462.572C826.873 464.952 826.318 467.301 825.729 469.792C825.464 470.916 825.191 472.068 824.929 473.265ZM748.644 503.815L748.009 502.56C742.056 505.671 741.537 510.431 741.039 515C740.876 516.497 740.715 517.973 740.365 519.365C739.555 522.593 744.104 526.163 746.025 524.372C747.734 522.779 749.168 520.397 749.681 518.127C750.302 515.375 750.472 512.521 750.608 510.238C750.657 509.406 750.702 508.65 750.762 508.002C749.911 506.317 749.24 504.991 748.644 503.815ZM786.826 516.698C785.162 513.335 785.916 510.001 786.659 506.719C787.21 504.284 787.755 501.877 787.302 499.506C787.679 499.101 788.035 498.693 788.384 498.292C789.145 497.419 789.874 496.581 790.724 495.891C792.68 494.303 794.49 494.759 795.463 497.103C797.715 502.535 795.202 515.489 786.826 516.698ZM701.147 461.891C707.224 462.032 708.736 463.431 708.278 468.894C708.261 469.101 708.244 469.308 708.227 469.516C708.212 469.698 708.198 469.88 708.184 470.062C707.765 475.325 707.34 480.675 702.861 484.953C702.647 484.795 702.402 484.651 702.159 484.508C701.635 484.201 701.117 483.897 700.919 483.452C699.144 479.438 699.281 471.335 701.147 461.891ZM675.598 368.555C676.196 365.991 676.79 363.444 677.695 360.98C677.229 360.795 676.847 360.642 676.516 360.509L676.512 360.508C675.942 360.279 675.526 360.112 675.107 359.954C669.933 358.003 668.276 359.121 668.047 364.61C667.988 366.032 667.921 367.53 667.444 368.843C666.018 372.769 667.305 376.323 668.724 379.852C668.938 380.384 669.422 380.807 669.934 381.255C670.179 381.469 670.43 381.689 670.662 381.929C673.474 377.662 674.542 373.082 675.598 368.555ZM700.464 347.191L700.498 347.141C701.358 345.852 702.197 344.596 703.128 343.202C704.162 343.616 705.444 344.129 706.852 344.693L708.092 345.19C707.926 346.678 707.785 348.15 707.645 349.608L707.645 349.609L707.645 349.61L707.645 349.611C707.299 353.213 706.961 356.728 706.283 360.175C706.039 361.414 705.084 362.514 704.063 363.691C703.575 364.252 703.072 364.832 702.624 365.452C700.791 364.583 699.372 363.911 697.385 362.97C697.488 362.413 697.552 361.83 697.616 361.244L697.616 361.244L697.616 361.243L697.616 361.243L697.616 361.243C697.759 359.936 697.904 358.616 698.488 357.533C700.056 354.624 700.523 351.909 698.941 349.473L699.596 348.492L700.464 347.191ZM647.519 347.005C647.414 343.836 646.042 341.864 642.252 341.719C635.427 349.811 635.088 355.561 641.13 361.755C646.943 358.43 647.715 352.939 647.519 347.005ZM632.64 409.058C634.541 403.585 636.081 399.153 637.815 394.163C639.342 394.681 640.721 395.148 642.351 395.7L642.357 395.702L644.149 396.31C643.935 397.368 643.729 398.408 643.526 399.433C643.057 401.805 642.603 404.101 642.087 406.384C641.878 407.31 641.603 408.222 641.327 409.134L641.327 409.134C640.979 410.289 640.63 411.443 640.417 412.623C639.946 415.234 638.396 416.281 635.973 416.425C633.217 414.942 633.002 412.444 632.838 410.547C632.789 409.984 632.745 409.473 632.64 409.058ZM730.292 415.201C730.388 412.542 728.938 410.398 725.187 410.619C724.93 411.059 724.619 411.509 724.298 411.975L724.298 411.975C723.556 413.051 722.759 414.207 722.44 415.481C722.222 416.353 721.962 417.226 721.7 418.102C720.642 421.646 719.571 425.233 721.284 428.949C721.809 430.088 723.191 431.713 724.024 431.626C725.302 431.493 726.878 430.325 727.571 429.15C729.953 425.104 730.111 420.473 730.266 415.958V415.958L730.276 415.669C730.281 415.513 730.287 415.357 730.292 415.201ZM700.412 205.785C700.943 205.749 701.451 205.696 701.941 205.644C702.974 205.536 703.932 205.436 704.873 205.517C707.679 205.76 709.886 207.965 709.184 210.612C708.927 211.582 708.693 212.564 708.457 213.551L708.457 213.552L708.457 213.552L708.457 213.553L708.456 213.554L708.456 213.554C707.335 218.256 706.184 223.078 702.423 227.262C698.188 222.172 698.987 216.947 699.783 211.749V211.749V211.748V211.748V211.748L699.783 211.748L699.783 211.747C700.088 209.753 700.392 207.763 700.412 205.785ZM727.282 256.801L728.695 260.154C732.253 255.363 733.088 250.157 733.914 245.01C734.24 242.981 734.564 240.961 735.053 238.979C734.358 238.439 733.64 237.881 732.931 237.33L732.135 236.71L731.501 236.217C731.074 236.479 730.635 236.73 730.193 236.983L730.193 236.983C729.135 237.59 728.065 238.204 727.119 238.971C726.375 239.574 725.791 240.635 725.582 241.589C725.194 243.352 724.929 245.143 724.639 247.097L724.639 247.098L724.639 247.098L724.639 247.098L724.639 247.099L724.639 247.099L724.639 247.099L724.639 247.1L724.639 247.101L724.639 247.101C724.519 247.909 724.395 248.744 724.257 249.617C725.137 251.707 726.145 254.1 727.282 256.801ZM675.164 243.58C677.392 250.649 676.711 256.891 670.116 266.232C666.063 262.106 666.631 257.305 667.187 252.606C667.32 251.488 667.451 250.376 667.52 249.28C667.688 246.598 671.838 243.854 675.164 243.58ZM600.754 363.288C599.65 368.536 598.523 373.888 602.442 379.453C606.536 374.38 608.329 369.227 608.668 363.223C609.026 356.869 607.71 355.411 601.708 357.584C601.557 359.475 601.157 361.375 600.754 363.288ZM852.902 467.856C849.62 464.248 848.925 460.536 850.678 456.305C851.284 454.841 851.763 453.313 852.151 451.776C852.815 449.142 854.959 447.036 856.745 447.414C858.284 447.741 860.931 451.187 860.308 452.987C859.866 454.267 859.553 455.612 859.237 456.968C858.3 460.999 857.341 465.122 852.902 467.856ZM605.356 423.977C604.992 425.222 604.631 426.457 604.17 427.65C604.439 428.123 604.703 428.568 604.956 428.995L604.956 428.996C605.479 429.877 605.959 430.687 606.367 431.533C607.858 434.625 609.334 434.967 611.435 432.4C612.293 431.351 612.877 429.945 613.188 428.609C613.64 426.665 613.961 424.69 614.291 422.651C614.43 421.794 614.571 420.925 614.725 420.043C613.523 418.126 612.245 416.087 610.892 413.926C607.443 416.834 606.389 420.442 605.356 423.977ZM786.558 263.722C786.151 263.21 785.793 262.809 785.491 262.47C784.966 261.883 784.608 261.483 784.454 261.016C782.714 255.751 783.235 250.546 785.196 245.453C786.006 243.348 788.177 242.425 790.54 243.143C793.011 243.893 793.014 245.25 792.29 247.686C791.887 249.044 791.703 250.461 791.518 251.883C791.206 254.291 790.892 256.71 789.506 258.871C788.951 259.737 788.422 260.621 787.757 261.731C787.404 262.32 787.012 262.973 786.558 263.722ZM778.417 309.677C783.452 306.755 787.053 296.449 785.045 290.485C784.76 290.465 784.472 290.439 784.183 290.414L784.182 290.414C781.561 290.181 778.824 289.938 777.944 293.443L777.891 293.653C776.552 298.988 775.186 304.431 778.417 309.677ZM575.944 414.643C575.564 414.133 575.143 413.639 574.723 413.144C573.782 412.037 572.84 410.93 572.352 409.651C571.366 407.064 570.802 404.23 570.578 401.459C570.385 399.065 571.96 397.857 573.522 396.659C574.226 396.119 574.927 395.581 575.463 394.938C578.982 395.122 580.075 398.059 579.964 400.161C579.786 403.517 579.097 406.846 578.408 410.175C578.129 411.528 577.849 412.881 577.603 414.236L576.932 414.4C576.603 414.481 576.274 414.562 575.944 414.643ZM734.818 345.335L735.279 345.129C735.463 344.506 735.664 343.883 735.866 343.262C737.166 339.249 738.445 335.303 734.65 331.61C730.855 331.272 728.234 333.38 727.454 336.538C726.677 339.676 728.104 342.516 729.576 345.444C729.879 346.048 730.185 346.656 730.473 347.271C732.239 346.484 733.562 345.895 734.818 345.335Z" fill="#A1483A"/></g></g><g id="Master/Character/Standing" transform="translate(172 63) scale(1 1)"><g id="Master/Character/Standing"><g id="Bottom/Standing" transform="translate(39 389) scale(1 1)"><g id="Bottom/Standing/Crossed legs"><path id="Fill" fill-rule="evenodd" clip-rule="evenodd" d="M101 519.009L117.455 548.029C117.455 548.029 131.939 564.983 154.437 564.983C176.935 564.983 199.279 565.696 204.402 557.863C209.524 550.03 192.936 539.519 188.048 539.519C183.161 539.519 161.818 527.875 159.965 524.943C158.112 522.011 153.437 501.997 153.437 501.997L172.765 470.976C172.765 470.976 226.803 475.628 235.564 461.144C244.326 446.66 258.442 328.654 258.442 328.654L264.147 314.311L297.506 451.825L312.844 459.148L309.362 486.253L306.364 551.371C306.364 551.371 313.36 565.04 348.343 563.039C383.327 561.037 428.964 563.039 442.516 540.768C455.789 522.011 350.342 506 350.342 506L352.608 466.973C352.608 466.973 407.313 467.027 423.642 441.005C423.642 439.57 401.633 356.091 401.633 356.091L357.191 205.599L337.47 152.019L345.518 124.317C345.518 124.317 355.998 67.9239 353.732 55.142C351.467 42.36 351.169 9.614 348.343 3.9252C345.518 -1.7636 236.482 0.792387 236.482 0.792387C236.482 0.792387 216.251 39.8406 214.881 55.142C213.512 70.4433 213.512 109.886 214.881 120.687C210.957 133.76 177.45 270.724 177.45 270.724C177.45 270.724 121.33 433.767 115.668 439.964C110.006 446.161 130.83 451.825 130.83 451.825L111.567 488.988L102.186 506L101 519.009Z" fill="white"/><path id="Stroke" fill-rule="evenodd" clip-rule="evenodd" d="M438.036 542.373C434.046 547.81 428.449 551.065 422.163 552.532C413.952 554.449 405.559 555.57 397.43 557C395.1 552.046 395.713 549.048 398.574 546.276C399.945 544.948 402.025 544.658 403.76 543.921C415.894 538.756 427.713 536.654 440.825 534C441.59 537.79 439.702 540.101 438.036 542.373M392 558.492C391.324 558.783 389.367 559.111 387.941 559.303C375.706 560.943 363.417 561.322 350.847 560.75C349.503 556.915 348.359 553.649 347 549.772C362.249 548.495 377.136 547.246 392 546C392 546 387.961 547.956 392 558.492M341.882 543.399C334.805 533.453 324.524 529.314 313.054 527.174C312.295 527.033 312.438 527.022 311 526.627C311.523 521.424 311.124 516.395 311.666 511C313.351 512.007 314.678 512.689 315.885 513.539C324.005 519.253 332.894 522.061 342.934 521.078C344.956 520.88 347.454 520.901 349.063 521.895C359.615 528.414 371.372 529.834 383.359 530.48C384.53 530.544 385.707 530.51 386.881 530.492C398.891 530.299 399.803 529.843 407.826 519.829C417.367 522.138 427.273 523.934 437 529.672C429.681 531.493 423.353 533.078 417.02 534.641C408.498 536.745 400.076 539.555 391.427 540.762C378.092 542.625 364.601 543.387 351.175 544.609C349.424 544.77 347.644 545.131 345.925 544.951C344.511 544.802 342.587 544.391 341.882 543.399M320.358 559.335C311.852 557.413 308.372 552.292 309.092 543.543C309.41 539.677 309.846 535.82 310.223 532.001C327.657 531.891 342.142 544.808 346 560.806C337.092 561.164 328.641 561.205 320.358 559.335M346 504.516C345.806 507.699 345.607 510.97 345.361 515C339.866 512.479 337.361 509.302 338.139 506.559C338.85 504.05 340.971 503.422 346 504.516M311.021 493.827C311.268 485.107 312.157 476.355 312.663 467C323.927 472.7 334.521 478.653 348 478.566C347.245 485.463 346.554 491.785 345.871 498.031C333.073 498.504 325.724 505.061 338.967 516C334.684 514.665 328.519 514.383 325.171 513.035C322.848 512.098 320.802 510.487 318.606 509.224C312.634 505.788 310.778 502.369 311.021 493.827M351.365 508C356.022 509.408 360.728 510.832 366 512.427C364.223 515.938 362.666 519.009 361.152 522C349.984 518.471 348.274 514.89 351.365 508M384 515.086C382.01 518.594 380.343 521.532 378.376 525C374.462 524.365 370.563 523.734 366 522.994C367.979 519.248 369.542 516.291 371.28 513C375.455 513.685 379.371 514.327 384 515.086M388.422 516C393.293 516.87 397.488 517.619 402 518.425C398.113 527.376 390.73 526.132 383 525.666C385.042 522.025 386.609 519.232 388.422 516M295.306 498.005C300.423 498.333 304.675 501.376 306 505.963C299.414 506.274 295.255 504.623 293.224 500.841C292.49 499.473 293.66 497.9 295.306 498.005M250.83 368.059C246.128 398.136 240.455 428.026 233.948 457.766C233.316 460.652 231.853 462.114 229.609 463.463C219.529 469.518 208.411 470.877 196.948 470.996C180.578 471.165 165.378 466.453 150.644 459.975C141.362 455.894 132.274 451.369 123.152 446.937C121.098 445.939 119.263 444.489 117 443.036C117.835 440.714 118.509 438.718 119.266 436.755C131.534 404.899 144.049 373.135 156.03 341.172C172.702 296.699 184.725 250.881 195.04 204.565C200.127 181.725 206.022 159.064 211.574 136.328C211.985 134.637 212.731 131.583 213.522 129C214.251 131.078 214.692 132.931 214.927 133.88C221.504 160.38 227.843 186.94 234.703 213.366C237.288 223.325 237.324 233.445 238.295 243.51C240.62 267.594 242.535 291.72 244.986 315.79C246.646 332.086 248.946 348.317 250.921 364.582C251.06 365.723 251.007 366.922 250.83 368.059M157.704 489.179C156.853 486.388 154.172 484.909 152.188 484.7C149.855 484.454 147.159 485.201 145.015 486.282C143.019 487.287 141.542 489.295 139.686 491C131.867 487.485 125.214 477.659 122 472.514C122 472.514 124.225 468.09 125.346 465C141.782 471.848 141.782 471.848 167 474.375C163.932 479.127 160.592 484.705 157.704 489.179M156 522.348C153.188 523.811 150.558 525.178 147.055 527C146.268 525.065 144.944 523.048 144 518.538C147.589 517.962 150.512 517.492 153.576 517C154.429 518.883 155.117 520.402 156 522.348M171 536.212C163.004 538.205 157.017 536.414 151 530.879C154.011 529.328 156.465 528.064 158.534 527C162.685 530.067 166.388 532.804 171 536.212M144 493.903C145.795 490.72 147.666 488.808 151.25 489.015C156.16 491.705 153.386 494.464 151.422 498C148.912 496.614 146.636 495.358 144 493.903M153 512.131C149.986 512.692 142.945 514 142.945 514C140.21 505.142 140.894 501.475 141.79 499.969C142.196 499.291 142.992 498.921 143.776 499.014C151.035 499.872 151.521 506.018 153 512.131M194 545.788C192.579 545.788 191.151 545.7 189.737 545.802C181.021 546.43 172.293 546.972 163.594 547.79C150.339 549.035 132.416 544.982 123.727 529.136C121.835 525.687 120.428 521.57 120.22 517.684C119.722 508.391 117.324 499.772 113 491.184C115.095 487.412 117.31 483.425 119.767 479C122.764 482.669 125.071 486.002 127.899 488.812C130.765 491.66 134.925 494.86 138.457 497.723C137.183 499.16 137.208 503.897 137.782 507.472C138.82 513.934 139.691 520.604 142.051 526.635C146.794 538.746 159.124 544.99 171.507 541.192C173.602 540.549 175.935 539.698 175.935 539.698C177.868 540.355 188.545 542.996 194 545.788M201.802 550.369C202.711 557.526 200.504 560.258 194.975 561.285C181.587 563.771 168.118 563.014 154 562.337C155.871 556.198 159.059 553.111 164.562 552.245C177.38 550.225 187.965 549.483 201.802 550.369M129.176 557.034C124.236 553.923 119.463 548.1 115 541.088C116.064 538.149 117.181 535.06 118.65 531C126.601 544.479 138.259 550.728 153 552.846C151.202 556.039 149.715 559.563 148.34 562C143.364 561.589 136.223 561.472 129.176 557.034ZM112.138 535C101.384 520.219 99.4686 509.563 109.909 496C115.689 509.074 116.708 521.766 112.138 535M109.191 467.537C108.948 467.102 108.97 466.534 109.075 465.926C109.277 464.735 110.411 463.892 111.679 464.011C112.273 464.068 112.81 464.187 113.174 464.49C115.381 466.333 117.82 468.314 116.732 472C113.411 471.416 110.686 470.21 109.191 467.537M422.851 518.737C411.535 515.89 400.013 513.874 388.589 511.452C377.55 509.112 366.53 506.69 355.499 504.317C353.989 503.992 352.031 503.64 351.286 502.726C351.286 502.726 350.93 500.057 351.094 498.426C352.07 488.766 353.233 479.126 354.375 469.033C357.431 469.033 359.928 469.1 362.42 469.022C374.533 468.647 386.542 467.546 398.084 463.488C406.633 460.481 414.419 456.355 420.717 449.516C425.314 444.523 426.401 439.057 424.823 432.749C422.791 424.613 420.929 416.429 418.663 408.358C408.33 371.538 398.082 334.691 387.408 297.969C379.075 269.309 370.515 240.705 361.372 212.297C356.177 196.153 349.78 180.385 343.568 164.59C341.365 158.985 340.961 153.995 342.296 147.88C346.413 129.023 349.501 109.935 352.791 90.902C355.227 76.8171 356.378 62.6193 355.125 48.3215C354.239 38.2076 353.193 28.1065 352.22 17.999C351.663 12.2053 351.11 6.41163 350.495 7.22302e-07H350.432C348.607 -0.00107397 347.043 1.19721 346.429 2.91887C346.345 3.15638 346.252 3.39389 346.151 3.63569C346.108 3.73779 346.056 3.83989 346.009 3.94306C346.024 3.93876 346.038 3.93553 346.053 3.93124C346.797 10.7104 347.539 16.6524 348.085 22.6116C349.154 34.2763 350.64 45.9378 350.941 57.6273C351.167 66.3538 350.231 75.1814 349.046 83.8585C347.041 98.5528 344.438 113.165 342.059 127.807C341.906 128.746 341.607 132.007 341.122 133.6C340.028 132.236 337.659 128.321 337.028 127.311C330.731 117.222 325.823 107.837 319.679 97.6575C318.393 95.5253 317.789 92.9697 316.943 90.5839C314.869 84.7322 312.837 78.8665 310.635 72.5677C314.143 71.853 317.318 71.234 320.48 70.5537C322.383 70.1453 324.356 69.852 326.116 69.09C326.299 69.0105 326.461 68.8826 326.608 68.7214C327.548 67.6929 327.183 66.0099 325.972 65.3221C325.688 65.1598 325.4 65.004 325.106 64.8589C324.808 64.7117 324.339 64.875 323.957 64.9406C318.974 65.7993 314 66.7063 309.009 67.5156C306.31 67.953 305.459 69.7789 305.588 72.1185C305.66 73.4371 306.275 74.744 306.739 76.0229C323.049 120.952 340.052 165.642 355.465 210.876C367.288 245.572 377.364 280.879 387.735 316.056C396.892 347.119 405.473 378.354 414.109 409.567C416.501 418.209 418.084 427.071 420.234 435.783C421.167 439.566 420.315 442.592 417.887 445.536C412.467 452.109 405.277 455.858 397.516 458.719C388.101 462.188 378.271 463.779 368.316 464.058C352.708 464.496 337.097 463.975 321.924 459.827C315.571 458.091 309.477 455.389 303.303 453.029C300.156 451.825 298.558 449.503 297.873 446.063C289.137 402.219 277.997 358.947 266.711 315.713C252.37 260.781 237.914 205.88 223.676 150.923C221.232 141.491 219.076 131.918 217.752 122.277C214.966 102.005 212.716 81.6553 215.877 61.1587C217.7 49.3296 220.651 37.8454 225.621 26.9297C227.302 23.2349 235.258 6.37724 236.876 2.91995C236.882 2.91995 236.887 2.91995 236.892 2.91887C236.673 2.31167 236.397 1.71951 236.085 1.13703C235.492 0.0268681 233.903 0.00644886 233.246 1.07792L233.23 1.10479C224.246 15.6508 213.478 44.8707 211.132 61.6488C209.091 76.2475 209.354 90.8655 210.905 105.475C211.59 111.929 211.482 118.176 209.837 124.59C203.098 150.862 196.14 177.1 190.343 203.587C178.76 256.503 163.835 308.381 144.416 358.941C134.201 385.536 123.781 412.053 113.474 438.614C111.22 444.423 111.218 444.504 116.459 448.072C119.132 449.894 121.996 451.434 124.893 453.173C123.096 457.165 120.948 462.185 119.218 466.033C118.029 462.242 116.435 461.317 114.736 460.127C112.308 458.427 109.649 458.265 107.036 459.851C104.588 461.338 102.941 464.576 104.024 467.449C104.933 469.862 106.687 472.1 108.518 473.972C109.94 475.427 112.058 476.2 114.247 477.501C112.92 480.258 111.797 482.925 110.394 485.435C107.823 490.034 105.122 494.562 102.412 499.08C96.5603 508.835 96.6729 518.649 101.899 528.608C107.475 539.235 114.679 548.666 122.805 557.427C126.375 561.278 130.736 563.583 135.963 564.416C154.155 567.315 172.426 567.597 190.744 566.142C193.627 565.913 196.541 565.257 199.293 564.349C204.483 562.637 206.797 558.381 207.858 553.373C208.854 548.669 205.428 546.214 202.367 543.887C200.07 542.142 197.434 540.731 194.763 539.625C191.173 538.139 187.361 537.2 183.718 535.83C163.649 528.289 161.724 526.677 155.822 506.498C155.712 506.124 155.446 505.748 155.473 505.39C155.586 503.893 155.425 502.243 156.005 500.934C160.532 490.726 167.615 482.14 172.79 473.628C182.779 474.226 191.694 475.136 200.615 475.2C211.046 475.276 221.096 473.167 230.427 468.077C235.092 465.532 237.694 462.49 238.916 456.755C246.36 421.801 252.383 386.603 258.102 351.343C259.597 342.127 261.468 329.62 263.042 320.417C264.203 323.077 264.822 326.831 265.234 328.463C270.287 348.521 275.509 368.54 280.281 388.665C285.1 408.979 289.517 429.39 293.966 449.791C294.558 452.508 295.547 454.372 298.163 455.548C301.681 457.131 305.045 459.058 308.815 461.014C308.12 472.972 307.426 484.913 306.698 497.462C303.989 495.961 302.231 494.707 300.276 493.979C298.309 493.246 296.154 492.699 294.072 492.664C288.478 492.569 285.923 496.341 287.996 501.548C289.895 506.316 293.8 508.827 298.479 510.235C300.846 510.948 303.295 511.383 305.744 511.952C305.744 514.779 305.838 517.301 305.727 519.816C305.325 528.785 304.85 537.752 304.411 546.718C304.051 554.067 307.565 559.279 314.072 561.914C318.497 563.705 323.423 564.992 328.162 565.128C343.356 565.568 358.58 566.003 373.772 565.402C389.185 564.793 395.319 563.813 406.82 561.927C414.137 560.726 422.952 557.745 429.782 554.658C436.097 551.803 441.335 547.698 444.608 541.461C447.762 535.449 445.377 528.144 439.262 525.214C433.957 522.672 428.509 520.161 422.851 518.737Z" fill="black"/></g></g><g id="Head" transform="translate(195 0) scale(1 1)"><g id="Head/Short 3"><path id="Path" fill-rule="evenodd" clip-rule="evenodd" d="M130.015 89.9812L135.217 89.6745C151.343 88.7649 160.098 88.8349 161.482 89.8844C178.494 112.89 184.576 135.585 179.73 157.97C178.691 162.771 162.771 165.741 131.971 166.88L131.033 166.914L134.421 198.824C134.797 200.3 135 201.871 135 203.5C135 212.06 129.403 219 122.5 219C115.596 219 110 212.06 110 203.5C110 202.639 110.056 201.795 110.165 200.972L108.534 200.973L108.458 198.172C107.621 168.403 106.148 152.179 104.04 149.5C79.8546 149.5 79.8546 137.359 81.1796 130.747C82.5046 124.136 96.417 121.438 98.7701 121.438C95.5672 89.9476 103.703 91.4943 130.015 89.9812Z" fill="white"/><path id="Stroke" fill-rule="evenodd" clip-rule="evenodd" d="M181.663 47.7888C174.684 45.0718 168.495 46.6828 163.176 51.8738C162.848 52.1942 162.502 52.4964 162.014 52.9229L162.014 52.9231C161.735 53.1662 161.411 53.4496 161.017 53.7998C160.442 52.2278 160.076 51.2268 159.71 50.2258C157.961 45.4458 154.966 41.6398 150.579 39.0658C142.21 34.1548 133.771 38.3468 132.5 47.9688C132.402 48.7075 132.299 49.4457 132.196 50.1839C131.922 52.1441 131.647 54.1045 131.478 56.0738C131.145 59.9478 129.182 62.4928 125.559 63.7618C123.758 64.3931 121.945 64.996 120.133 65.5988L120.133 65.5989L120.132 65.599C116.78 66.714 113.429 67.829 110.147 69.1238C109.38 69.4267 108.61 69.7276 107.84 70.0287C102.701 72.0384 97.5314 74.0602 92.7691 76.7658C85.5121 80.8888 80.8171 87.3918 79.4261 95.7688C77.7301 105.987 81.3279 115.008 86.1356 123.644C84.7562 124.589 83.4605 125.707 82.2498 126.993C80.0338 129.346 79.0428 132.164 79.0018 135.42C78.8868 144.368 84.1658 150.422 93.3438 151.563C95.1454 151.788 96.9643 151.875 98.9292 151.97C99.6188 152.003 100.326 152.037 101.057 152.079C101.359 152.447 101.674 152.823 101.996 153.204C102.026 153.489 102.054 153.761 102.082 154.024C102.199 155.138 102.298 156.081 102.366 157.025C102.762 162.514 103.544 170.918 104.309 179.138C104.983 186.381 105.644 193.481 106.016 198.316C106.037 198.589 106.048 198.881 106.06 199.182C106.137 201.124 106.228 203.418 108.937 203.014C111.064 202.697 110.747 200.834 110.463 199.17C110.388 198.727 110.314 198.298 110.291 197.916C109.889 191.481 108.997 181.665 108.15 172.342C107.711 167.512 107.284 162.814 106.943 158.787C107.292 159.169 107.626 159.532 107.939 159.872C108.288 160.251 108.539 160.146 108.869 160.008C109.157 159.888 109.506 159.742 110.034 159.872C110.167 159.537 110.311 159.249 110.437 158.998C110.663 158.547 110.827 158.219 110.751 157.961C110.539 157.242 110.357 156.494 110.176 155.743C109.668 153.644 109.155 151.527 107.939 149.97C107.39 149.267 106.561 148.774 105.615 148.377C105.559 148.089 105.505 147.799 105.453 147.505C104.647 147.505 103.894 147.52 103.178 147.534C103.166 147.534 103.155 147.534 103.144 147.535C102.558 147.355 101.978 147.177 101.435 146.979C100.963 146.807 97.7359 146.514 97.5219 146.979C97.4767 147.077 97.477 147.201 97.5121 147.343C95.1323 147.142 92.7375 146.919 90.4668 146.292C86.1528 145.101 84.1158 141.778 83.4178 137.481C82.7568 133.409 84.4108 130.397 87.5628 128.066C90.6948 125.752 94.1318 124.253 98.1388 124.291C98.9818 124.299 99.8268 124.185 100.713 124.057C101.503 123.943 101.97 123.101 101.64 122.375C101.027 121.026 100.527 120.359 99.6971 120.068C101.921 119.834 104.108 120.055 105.711 120.81C106.356 121.113 106.39 121.101 106.859 120.928C107.12 120.831 107.515 120.685 108.224 120.517C109.252 119.48 109.252 118.88 109.039 117.786C108.466 114.838 107.811 111.908 107.155 108.977C106.662 106.771 106.169 104.566 105.711 102.353C104.27 95.3908 104.874 94.2688 111.373 91.6198C111.553 91.5465 111.734 91.4716 111.917 91.3963L111.917 91.3963C113.257 90.8421 114.643 90.2687 116.035 90.1798C120.734 89.8778 125.456 89.6718 130.162 89.7688C134.961 89.8679 139.759 90.0328 144.557 90.1978L144.558 90.1978L144.558 90.1978C149.708 90.3749 154.858 90.552 160.009 90.6475C160.274 91.1274 160.668 91.6664 161.202 92.3455C168.182 101.216 174.978 112.37 177.579 123.677C180.18 134.983 180.534 144.768 178.181 155.417C177.593 158.077 176.278 159.547 173.617 159.983C171.055 160.402 168.498 160.85 165.942 161.298L165.941 161.298C161.354 162.102 156.767 162.905 152.158 163.544C142.589 164.869 132.995 165.017 123.427 163.266C123.396 163.26 123.364 163.254 123.33 163.248L123.232 163.229C122.181 163.034 119.924 162.614 119.715 163.112C119.307 164.077 120.231 166.377 120.755 167.298C121.912 169.333 123.27 171.34 124.914 172.994C125.918 174.004 127.147 174.903 128.232 175.698L128.232 175.698C129.614 176.71 130.763 177.551 130.921 178.234C131.524 180.844 133.624 196.64 133.723 199.282C133.811 201.664 135.869 201.517 137.713 201.131C138.883 200.887 135.831 181.505 135.543 180.185C134.994 177.661 134.402 175.148 133.768 172.453L133.768 172.453L133.767 172.451C133.492 171.282 133.209 170.08 132.918 168.828C133.76 168.828 134.523 168.83 135.232 168.831C136.625 168.835 137.814 168.838 139.003 168.825C151.401 168.676 163.529 166.54 175.618 163.993C179.301 163.216 181.393 161.258 182.1 157.64C182.204 157.107 182.352 156.582 182.501 156.058L182.501 156.057C182.649 155.533 182.798 155.009 182.902 154.476C187.399 131.431 180.694 111.102 167.705 92.3455C167.414 91.9256 166.833 91.3229 166.156 90.6734C171.403 90.4192 176.449 88.814 181.204 86.4288C189.996 82.0188 194.81 73.2818 193.471 63.5368C192.465 56.2168 188.779 50.5578 181.663 47.7888Z" fill="black"/></g></g><g id="Body" transform="translate(28 114) scale(1 1)"><g id="Body/Namaste"><path id="Fill" fill-rule="evenodd" clip-rule="evenodd" d="M141.563 167.082L127.214 157.865C127.214 157.865 194.242 89.8545 254.82 87.2957C315.398 84.7369 356.003 104.319 356.003 104.319L398.839 127.041L437.657 154.441L436.085 167.082L457.396 193.876L476.402 222.887C476.402 222.887 478 230.023 478 233.383C478 236.742 468.502 254.213 402.416 239.771C336.331 225.328 392.301 245.525 392.301 245.525L396.592 252.033C396.592 252.033 394.447 266.049 394.447 268.929C394.447 271.808 353.675 279.332 353.675 279.332C353.675 279.332 239.996 288.668 203.536 279.332C194.419 276.997 203.536 245.525 203.536 245.525L196.329 243.369C196.329 243.369 145.739 261.952 120.367 258.368C94.9958 254.783 108.953 219.286 108.953 219.286L148.546 169.028L141.563 167.082Z" fill="white"/><path id="Stroke" fill-rule="evenodd" clip-rule="evenodd" d="M202.878 274.573C206.472 275.197 207.717 276.644 211.085 276.943C218.139 277.568 225.223 277.843 232.283 278.405C242.783 279.241 253.264 280.814 263.77 280.977C284.282 281.293 304.806 281.012 325.258 278.921C344.962 276.906 364.622 274.697 383.623 268.698C384.384 268.458 392.206 265.399 392.206 265.399C392.206 265.399 390.788 254.151 392.206 253.669C390.48 252.92 387.069 250.652 386.326 250.321C367.257 241.84 356.214 237.1 337.216 228.462C332.092 226.131 319.422 220.023 314.679 218.45C310.615 217.49 305.386 216.699 301.308 215.805C296.025 214.648 292.099 211.672 289.258 207.161C286.216 202.328 284.388 197.039 283.382 191.437C282.788 188.137 282.053 184.863 281.444 181.565C279.801 187.111 277.789 192.56 276.329 198.153C274.248 206.121 270.622 213.328 264.143 218.319C256.105 224.509 247.768 230.497 238.906 235.389C226.87 242.034 214.216 247.559 201.608 253.669L202.878 274.573ZM309.795 175.071C310.013 177.029 311.589 180.025 308.402 180.466C305.372 180.885 305.695 177.578 305.395 175.62C304.463 169.522 303.951 163.357 302.911 157.281C302.367 154.102 301.452 150.853 300.001 147.994C297.839 143.735 294.85 144.039 292.449 148.22C294.146 150.91 296.488 153.297 297.274 156.118C299.506 164.136 301.105 172.33 302.945 180.456C303.024 180.806 303.053 181.231 303.005 181.518C302.772 182.884 302.061 183.259 301.416 183.401C300.591 183.583 299.608 183.103 299.236 182.347C298.612 181.08 298.386 179.608 298.07 178.203C296.674 172.011 295.437 165.781 293.86 159.638C293.22 157.142 292.299 154.501 289.628 153.308C288.217 158.84 286.862 164.095 285.55 169.361C285.334 170.229 285.1 171.18 285.236 172.036C286.506 180.092 287.472 188.223 289.28 196.161C291.294 205.004 296.702 210.268 306.133 212.386C319.207 215.322 331.97 219.647 344.86 223.396C353.921 226.031 362.878 229.093 372.049 231.253C384.563 234.201 397.203 236.65 409.851 238.98C421.441 241.117 432.972 244.14 444.892 243.487C451.93 243.103 459.061 242.687 465.919 241.213C474.215 239.429 477.332 233.306 473.915 225.528C470.797 218.424 467.186 211.355 462.656 205.093C452.957 191.689 441.938 179.345 429.586 168.263C427.869 166.723 426.142 165.194 424.218 163.478C408.161 171.33 392.09 178.371 378.428 191.065C392.972 194.674 406.947 197.318 420.579 200.967C422.795 201.561 422.466 204.896 420.172 204.948C420.156 204.948 420.141 204.949 420.124 204.949C418.703 204.967 417.26 204.608 415.852 204.296C402.914 201.436 390.063 198.092 377.027 195.792C360.732 192.916 344.254 191.077 327.872 188.695C326.713 188.525 325.547 188.416 324.382 188.295C321.448 187.992 319.885 186.864 319.119 183.657C317.267 175.904 314.841 168.285 312.483 160.663C311.703 158.14 310.509 155.704 307.239 154.006C308.157 161.476 309.038 168.267 309.795 175.071ZM142.114 180.508C131.4 190.969 119.855 206.168 111.74 218.688C108.833 223.173 106.798 228.41 105.299 233.573C103.215 240.758 106.163 249.447 111.785 252.388C115.856 254.518 120.629 256.417 125.103 256.45C137.246 256.54 149.423 255.901 161.198 252.202C174.881 247.902 188.92 244.551 202.249 239.363C220.679 232.188 238.48 223.416 256.772 215.867C265.062 212.446 269.158 206.317 271.64 198.335C274.972 187.613 278.575 176.973 281.785 166.216C283.4 160.804 285.577 155.312 283.588 149.307C280.953 148.075 278.281 153.079 275.85 158.362C272.439 165.774 269.516 173.41 266.33 180.928C265.629 182.582 264.835 184.239 263.791 185.683C263.431 186.182 262.01 186.387 261.385 186.084C260.806 185.803 260.429 184.683 260.362 183.899C260.308 183.26 260.854 182.575 261.12 181.905C266.13 169.335 269.783 156.106 279.228 145.696C275.973 144.096 274.88 143.87 272.862 146.146C270.248 149.093 267.768 152.349 266.064 155.875C262.671 162.894 259.807 170.172 256.817 177.381C256.37 178.459 255.983 179.524 255.193 180.232C253.983 181.317 251.898 180.41 251.991 178.788C251.997 178.694 252.011 178.603 252.038 178.515C255.577 166.496 260.827 155.218 266.957 144.254C262.859 142.872 253.07 153.361 251.642 162.562C250.277 171.355 248.882 180.145 247.631 188.954C246.801 194.801 246.864 194.902 241.085 195.265C233.475 195.743 225.8 195.678 218.26 196.668C202.611 198.722 187.031 201.307 171.427 203.702C170.146 203.898 168.859 204.301 167.567 204.274C165.766 204.236 164.475 202.477 164.861 200.717C164.91 200.497 164.965 200.279 165.029 200.067C165.568 198.282 167.398 197.392 169.11 198.13C170.19 198.596 171.187 198.982 172.117 198.86C177.082 198.207 181.983 197.062 187.239 196.041C184.446 188.184 179.295 182.989 172.566 179.385C166.497 176.136 160.203 173.258 150.915 170.692C146.18 175.615 146.984 174.648 142.114 180.508ZM287.175 145.961C287.967 145.33 289.828 145.655 290.064 145.391C293.088 140.307 299.938 140.203 304.003 145.573C304.796 146.682 306.136 148.965 306.136 148.965C312.29 149.793 315.059 154.03 316.636 158.909C319.244 166.982 321.597 175.137 324.146 183.544C324.504 183.647 325.181 183.927 325.884 184.026C340.453 186.067 355.035 188.025 369.587 190.176C370.866 190.365 373.033 190.553 373.033 190.553C373.431 189.864 374.471 188.721 375.283 187.916C380.716 182.532 386.607 177.766 393.517 174.323C403.424 169.385 413.221 164.227 423.154 159.347C426.004 157.948 430.929 156.97 434.63 155.675C431.557 152.655 427.437 150.075 424.623 147.868C402.937 130.866 379.431 116.893 353.989 106.276C345.621 102.785 337.084 99.693 328.569 96.57C327.523 96.1867 324.637 95.2953 324.637 95.2953C324.637 95.2953 323.239 95.9297 321.989 96.826C314.527 102.174 305.982 105.182 296.938 106.6C286.108 108.3 275.632 106.502 265.296 103.17C259.532 101.312 253.641 99.4964 249.794 94.6433C248.808 93.3999 247.063 91.1627 247.063 91.1627C247.063 91.1627 243.605 91.5702 241.75 91.7234C229.589 92.7298 218.386 97.0104 207.572 102.195C179.349 115.727 154.351 134.101 130.658 154.356C129.777 155.109 127.901 156.927 126.837 158.21C133.984 160.149 141.822 161.26 148.472 162.946C167.672 167.816 184.017 175.766 192.137 194.312C208.637 192.878 226.377 191.66 242.988 190.216C243.223 188.306 243.433 186.531 243.661 184.758C244.379 179.173 245.144 173.592 245.816 168C247.146 156.91 252.201 148.328 261.604 141.903C265.03 139.561 269.224 139.939 272.181 141.942C272.181 141.942 274.062 140.314 278.82 141.2C281.619 141.896 282.309 143.824 282.73 144.165C282.73 144.165 286.244 144.188 287.175 145.961V145.961ZM313.172 96.0093C310.077 94.4829 307.66 93.3236 305.275 92.1009C303.986 91.4398 301.884 90.8261 300.561 89.7629C299.877 89.2125 298.674 88.6104 298.897 87.463C299.078 85.9881 301.108 85.8626 301.798 85.9593C307.327 86.7399 313.339 87.4852 319.308 88.8024C343.22 95.9499 366.049 105.806 387.909 117.809C406.599 128.071 423.467 141.016 440.094 154.273C443.627 157.089 444.387 160.935 442.581 164.541C441.395 166.91 438.589 169.867 438.589 169.867C438.589 169.867 443.464 175.439 445.719 177.85C452.786 185.404 459.582 193.296 465.692 201.632C470.274 207.882 473.946 214.879 477.416 221.846C483.876 234.816 475.946 244.288 464.915 246.278C451.323 248.731 437.807 248.566 424.28 246.187C417.125 244.93 410.019 243.386 402.882 242.017C401.331 241.719 399.743 241.615 397.619 241.354C398.142 243.831 398.549 263.408 398.955 265.331C399.962 270.093 399.391 268.676 394.751 270.396C372.054 278.814 348.364 282.022 324.441 284.132C297.254 286.53 270.037 287.096 242.81 285.164C229.571 284.225 216.373 282.686 203.158 281.41C202.229 281.32 201.305 281.183 200.394 280.981C196.928 280.209 196.108 263.88 196.264 260.22C196.453 255.742 197.275 251.291 197.907 246.142C195.295 246.836 193.578 247.244 191.89 247.748C183.887 250.136 175.827 252.359 167.907 254.999C154.482 259.474 140.656 260.891 126.62 261.137C120.624 261.242 115.095 259.669 109.985 256.713C102.411 252.334 98.6256 241.975 100.84 232.329C102.282 226.047 104.73 220.145 108.63 215.06C116.254 205.124 124.159 195.405 131.987 185.628C133.795 183.37 135.76 181.238 137.934 178.725C135.782 177.31 133.848 176.043 131.919 174.767C127.584 171.901 124.07 168.368 122.179 163.369C120.803 159.735 121.147 156.635 124.292 154.09C135.026 145.404 145.495 136.365 156.544 128.102C173.162 115.673 190.847 104.928 209.632 95.9718C222.499 89.8361 235.963 86.9646 250.093 86.2644C257.332 85.9049 264.532 84.7769 271.764 84.1859C272.159 84.1528 272.563 84.2307 272.972 84.3655C274.345 84.8162 274.893 86.5176 274.067 87.7038C273.802 88.0863 273.502 88.4143 273.139 88.6336C268.985 91.128 264.002 92.637 256.871 94.3558C281.052 104.052 295.1 106.278 313.172 96.0093Z" fill="black"/></g></g><g id="Face" transform="translate(324 111) scale(1 1)"><g id="Face/Pleased"><path id="Stroke" fill-rule="evenodd" clip-rule="evenodd" d="M35.4866 14.8885C36.9436 12.6355 38.2716 12.2575 40.4296 13.9855C44.6016 17.3275 44.9366 17.1125 48.8136 13.2605C49.5526 12.5265 51.0986 11.7685 51.8656 12.0665C53.7236 12.7885 52.9736 14.3975 52.3126 15.7225C50.3496 19.6615 45.9636 21.5925 41.8076 20.2415C40.9053 19.9485 39.8645 19.4017 38.7817 18.8328L38.7817 18.8328C38.2421 18.5492 37.692 18.2603 37.1436 17.9945C37.7049 19.7228 37.4042 20.9233 37.096 22.1537L37.0786 22.2235C35.8346 27.2055 29.9976 29.3515 25.8846 26.2795C25.2076 25.7725 24.5756 24.4985 24.8186 23.6325C25.1286 22.5285 25.7836 22.4145 26.5806 22.4845C27.3127 22.5482 27.9072 22.695 28.4477 22.8286L28.4477 22.8286C28.6543 22.8796 28.853 22.9287 29.0486 22.9705C30.5936 23.3015 32.3706 23.1855 32.4876 21.4455C32.5766 20.1355 32.6986 18.3105 31.6416 17.5985C30.9401 17.1257 29.621 17.0569 28.3499 16.9907C27.4973 16.9462 26.6662 16.9029 26.0576 16.7395C26.0216 16.7295 25.9856 16.7185 25.9486 16.7065C24.3666 16.1875 23.8726 14.0095 25.1636 12.9575C25.2506 12.8865 25.3416 12.8255 25.4396 12.7755C27.7566 11.5925 32.9626 12.3615 35.4866 14.8885ZM8.97966 21.9144C5.62865 21.8944 3.07466 20.3084 1.07666 17.7624C0.158655 16.5934 -0.732345 15.0524 0.935655 14.0304C1.56965 13.6419 2.88581 14.1868 3.88993 14.6025C3.97388 14.6372 4.05565 14.6711 4.13466 14.7034C4.49283 14.8504 4.76999 15.1771 5.05174 15.5093C5.25692 15.7513 5.46453 15.996 5.70766 16.1764C8.13566 17.9764 10.2687 17.9764 12.6457 16.1424C13.0044 15.865 13.3234 15.5269 13.6408 15.1904L13.6408 15.1904C14.0798 14.7251 14.5157 14.2631 15.0497 13.9694C15.7017 13.6114 17.0657 13.6084 17.3927 13.8574C18.2627 14.5184 18.2627 16.0124 17.8747 16.6634C15.9057 19.9684 13.0497 22.0384 8.97966 21.9144ZM19.179 37.3615C20.823 38.0515 22.672 38.2095 24.386 37.7215C24.848 37.5895 25.293 37.4005 25.709 37.1055C26.718 36.3905 28.029 34.9185 27.877 33.9985C27.5844 32.2152 25.9977 32.6037 24.6211 32.9408C24.5341 32.9621 24.4479 32.9832 24.363 33.0035C19.821 34.0925 18.87 33.6605 16.736 29.6055C16.561 29.2735 16.4173 28.9155 16.2741 28.5588C16.0089 27.898 15.7455 27.2418 15.289 26.7645C14.81 26.2635 13.689 26.0895 12.946 26.2355C12.482 26.3265 11.935 27.2535 11.859 27.8595C11.401 31.4875 15.124 35.6605 19.179 37.3615Z" fill="black"/></g></g></g></g><g id="Super idea"><path id="Path Copy" fill-rule="evenodd" clip-rule="evenodd" d="M867.065 365.395C882.659 302.917 921.043 258.915 981.151 234.611L981.201 234.592C995.592 229.411 1009.25 226.292 1022.96 225.057C1084.85 219.483 1137.79 240.578 1180.31 287.756C1206.66 316.983 1222.42 351.958 1227.17 391.71C1234.84 455.831 1215.76 510.894 1170.48 555.366C1166.21 559.557 1163.58 564.613 1162.43 570.824C1161.76 574.43 1161.54 577.469 1161.76 579.86C1161.91 581.529 1161.72 583.104 1161.54 584.627C1161.33 586.318 1161.14 587.914 1161.44 589.501C1161.87 591.832 1162.11 594.213 1162.34 596.514C1162.6 599.067 1162.86 601.704 1163.39 604.205C1164.88 611.195 1166.53 618.279 1168.12 625.13C1169.33 630.333 1170.58 635.713 1171.75 641.021C1172.43 644.101 1173.33 646.235 1175.9 648.022C1180.68 651.348 1181.53 655.18 1178.66 660.448C1177.58 662.426 1177.71 664.022 1178.27 665.956C1179.79 671.261 1181.22 676.707 1182.45 681.396C1183.63 685.898 1182.61 688.614 1178.69 691.418C1177.96 691.944 1177.33 692.829 1176.81 693.622C1176.12 694.664 1175.47 695.783 1174.84 696.864C1173.62 698.969 1172.35 701.144 1170.71 703.037C1164.51 710.214 1159.31 715.796 1154.34 720.603C1148.65 726.106 1142.38 731.64 1135.18 737.521C1132.45 739.746 1129.54 741.423 1126.44 742.551C1120.99 744.535 1114.98 744.817 1108.48 743.385L1107.43 743.158C1106.22 742.9 1104.97 742.63 1103.74 742.276C1086.75 737.369 1071.63 728.094 1058.77 714.706C1055.71 711.512 1054.04 707.651 1053.68 702.902C1053.23 697.036 1052.55 691.075 1051.89 685.313C1051.61 682.907 1051.34 680.503 1051.08 678.096C1050.97 677.098 1050.6 675.436 1050.24 674.48C1050.04 674.336 1049.77 674.131 1049.44 673.851C1045.91 670.874 1045.59 669.197 1047.83 665.304C1047.99 665.019 1048.2 664.736 1048.4 664.459C1048.52 664.302 1048.68 664.085 1048.77 663.936C1048.72 663.02 1048.58 661.188 1048.37 660.194C1047.96 658.267 1047.56 656.382 1047.11 654.51C1044.62 643.963 1041.38 631.835 1034.4 621.371C1025.72 608.338 1015.37 600.735 1002.77 598.127C1000.5 597.657 998.346 596.974 995.973 596.194C938.731 577.393 898.167 539.194 875.408 482.658C860.003 444.389 857.196 404.936 867.065 365.395V365.395Z" fill="white" fill-opacity="0.666248"/><path id="Fill 4" fill-rule="evenodd" clip-rule="evenodd" d="M1084.39 394.655C1097.32 388.174 1105.75 371.834 1102.63 358.707C1102.14 356.627 1101.26 354.553 1100.16 352.868C1099.1 351.237 1097.82 350.319 1096.45 350.215C1095.93 350.174 1095.39 350.254 1094.86 350.447C1093.97 350.771 1093.08 351.421 1092.23 352.374C1091.11 353.637 1090.06 355.321 1089.11 357.377C1085.05 366.173 1082.9 383.666 1084.39 394.655M983.424 385.217C981.526 382.836 979.591 380.946 977.672 379.597C975.937 378.378 974.246 378.001 972.784 378.504C972.763 378.512 972.741 378.518 972.72 378.526C971.247 379.062 970.088 380.506 969.45 382.599C968.483 385.782 968.974 388.959 970.834 391.546C973.446 395.181 976.006 398.066 978.659 400.366C983.61 404.659 989.377 407.772 996.23 409.841C992.606 399.395 988.609 391.727 983.424 385.217M1036.64 613.408C1036.65 613.055 1036.66 612.713 1036.64 612.409C1035.55 595.034 1032.53 577.578 1029.8 562.581L1027.49 549.977C1023.07 525.766 1018.65 501.554 1014.26 477.338C1010.72 457.769 1006.47 439.89 1001.29 422.682C1000.52 420.129 999.319 418.871 996.713 417.876C990.901 415.659 985.197 412.975 979.756 409.895C973.55 406.382 968.629 401.71 965.132 396.007C962.388 391.531 961.401 386.934 962.198 382.341C963.075 377.29 965.936 373.484 970.044 371.901C974.012 370.388 978.484 371.219 982.326 374.221C985.371 376.602 988.355 379.829 991.194 383.817C996.622 391.438 1000.89 400.027 1003.87 409.347C1004.87 412.45 1006.4 413.722 1009.33 413.886C1010.25 413.939 1011.16 414.088 1012.03 414.234C1012.39 414.294 1012.76 414.355 1013.12 414.408C1025.19 416.156 1038.14 414.818 1053.87 410.2C1062.35 407.709 1070.14 404.146 1077.03 399.607C1077.03 397.862 1077.02 396.145 1077.01 394.449C1076.97 390.119 1076.94 386.028 1077.07 381.874C1077.39 371.729 1078.85 363.809 1081.68 356.951C1083.45 352.665 1085.56 349.209 1087.96 346.681C1090.41 344.102 1093.53 342.792 1096.73 342.994C1100.14 343.209 1103.3 345.06 1105.63 348.209C1106.51 349.4 1107.28 350.832 1108.05 352.714C1112.05 362.501 1111.2 372.699 1105.53 383.024C1102.46 388.615 1097.98 393.642 1091.84 398.392C1090.11 399.727 1088.34 401.029 1086.62 402.288C1086.03 402.72 1085.45 403.149 1084.87 403.577C1084.87 403.65 1084.87 403.719 1084.87 403.787C1084.88 404.313 1084.88 404.727 1084.92 405.119C1086.36 418.629 1089.21 432.137 1093.62 446.412C1098.35 461.694 1104.37 477.77 1112.04 495.558C1123.4 521.913 1135.21 544.463 1148.16 564.494C1152.55 571.29 1156.75 578.233 1159.91 583.522L1160.17 583.938C1160.83 584.99 1161.73 586.429 1161.36 587.957C1161.15 588.821 1160.58 589.531 1159.67 590.065L1159.03 590.442L1158.36 590.114C1157.44 589.66 1156.76 589.202 1156.05 588.717C1155.55 588.38 1155.04 588.033 1154.39 587.654L1154.08 587.468L1153.27 586.069C1152.09 584.025 1150.88 581.912 1149.56 579.945C1128.62 548.715 1110.71 513.648 1096.33 475.714C1090.47 460.29 1084.01 441.912 1080.42 422.554C1079.75 418.897 1079.15 415.254 1078.52 411.397C1078.32 410.19 1078.12 408.966 1077.92 407.72C1053.68 420.081 1030.85 424.439 1008.24 421.02C1008.38 421.634 1008.49 422.156 1008.62 422.675C1009.7 426.993 1010.85 431.376 1011.97 435.616C1014.41 444.882 1016.93 454.463 1018.8 464.029C1023.5 488.091 1027.94 512.618 1032.24 536.337C1033.78 544.826 1035.31 553.315 1036.86 561.801C1039.77 577.677 1042.68 594.628 1043.66 611.972C1043.67 612.25 1043.71 612.554 1043.75 612.868C1043.91 614.271 1044.11 616.018 1043.02 617.255C1042.37 617.989 1041.4 618.365 1040.14 618.366C1039.09 618.366 1038.24 618.049 1037.63 617.422C1036.57 616.329 1036.61 614.709 1036.64 613.408" fill="black"/><path id="Fill 1" fill-rule="evenodd" clip-rule="evenodd" d="M1167.15 695.82C1163.01 697.099 1158.88 698.404 1154.75 699.708C1147.02 702.148 1139.03 704.671 1131.12 706.977C1112.41 712.43 1096.96 715.471 1082.5 716.551C1078.66 716.837 1074.7 716.561 1071.2 716.316C1071 716.303 1070.81 716.282 1070.62 716.257C1081.03 725.022 1091.62 731.032 1102.78 734.538C1104.94 735.215 1107.12 735.754 1109.36 736.293C1117.88 738.346 1125.34 736.701 1131.54 731.399L1133.57 729.669C1138.58 725.398 1143.76 720.981 1148.51 716.326C1152.96 711.975 1157.25 707.286 1161.4 702.752C1162.78 701.235 1164.17 699.718 1165.57 698.211L1166.32 697.404C1166.83 696.859 1167.42 696.229 1168.04 695.547C1167.7 695.647 1167.4 695.741 1167.15 695.82V695.82ZM1036.47 611.91C1036.83 612.336 1037.19 612.762 1037.56 613.184C1042.82 608.353 1049.11 605.564 1054.63 603.467C1082.17 592.987 1105.5 588.25 1128.06 588.545C1136.91 588.662 1143.77 587.216 1150.28 583.846C1153.37 582.253 1154.47 581.137 1154.52 578.052C1154.59 573.335 1155.65 568.637 1156.68 564.664C1157.99 559.62 1160.61 555.14 1164.49 551.346C1211.32 505.499 1229.6 449.308 1218.83 384.337C1212.67 347.166 1195.52 313.132 1169.25 285.913C1142.58 258.275 1108.83 240.208 1071.65 233.668C1041.61 228.383 1012.8 230.687 985.827 240.506C981.437 242.104 977.094 243.902 972.803 245.897C919.777 270.558 886.267 312.487 873.203 370.518C864.458 409.367 868.243 449.323 884.152 486.069C900.015 522.713 926.428 552.728 960.535 572.87C975.081 581.46 989.941 587.632 1004.7 591.215C1016.21 594.005 1026.01 600.102 1034.69 609.854C1035.29 610.531 1035.88 611.221 1036.47 611.91V611.91ZM1061.38 681.882C1064.4 680.131 1067.24 678.479 1070.29 677.126C1072.7 676.054 1075.12 675.049 1077.54 674.108C1070.86 675.237 1064.55 675.823 1058.5 675.882C1058.36 675.883 1058.18 675.874 1057.97 675.857C1058.11 677.065 1058.26 678.322 1058.42 679.588C1058.57 680.836 1058.73 682.095 1058.87 683.332C1059.72 682.847 1060.56 682.361 1061.38 681.882V681.882ZM1155.49 647.585L1154.65 647.393C1154.23 647.303 1154.11 647.303 1154.12 647.298C1154.06 647.367 1153.84 647.452 1153.66 647.567C1153.32 647.78 1152.85 648.07 1152.16 648.435C1140.16 654.856 1127.13 660.307 1112.06 665.164C1126.66 663.236 1141.35 663.614 1156.04 666.31C1158.2 666.706 1159.74 666.517 1161.2 665.669C1161.73 665.358 1162.27 665.053 1162.81 664.748C1164.08 664.025 1165.4 663.278 1166.63 662.481C1167.35 662.01 1168.05 661.417 1168.79 660.787C1168.96 660.647 1169.13 660.505 1169.3 660.362C1169.26 660.191 1169.22 660.021 1169.19 659.85C1168.99 658.921 1168.8 658.043 1168.53 657.221C1167.87 655.272 1167.2 652.361 1166.92 651.083C1163.74 649.47 1159.19 648.431 1155.49 647.585V647.585ZM1154.2 589.843C1153.11 590.374 1152.05 590.887 1150.59 591.486C1151.93 591.98 1153.26 592.548 1154.59 593.202L1154.32 589.787C1154.28 589.805 1154.24 589.825 1154.2 589.843V589.843ZM1046.5 616.307C1048.37 616.302 1050.22 616.015 1052.17 615.713C1052.93 615.595 1053.69 615.476 1054.45 615.376C1059.06 614.765 1063.95 614.075 1068.66 612.943C1086.43 608.663 1103.26 602.37 1117.97 596.292C1090.26 598.363 1066.18 604.878 1044.61 616.126C1045.34 616.237 1046.09 616.31 1046.5 616.307V616.307ZM1131.1 615.558L1131.55 615.536C1132.09 615.507 1132.69 615.474 1133.31 615.56C1144.22 614.64 1147.31 611.592 1152.41 606.553C1153.94 605.04 1154.64 603.762 1154.49 602.754C1154.33 601.709 1153.21 600.646 1151.17 599.594C1145.04 596.431 1139.77 595.915 1134.18 597.95C1133.98 598.021 1133.79 598.096 1133.59 598.173C1117.12 604.663 1100.65 610.602 1084.63 615.818C1069.93 620.607 1057.36 623.737 1043.98 623.412C1044.81 625.273 1045.67 627.204 1046.52 629.125C1047.47 631.276 1048.42 633.415 1049.32 635.434C1072.84 623.171 1099.61 616.668 1131.1 615.558V615.558ZM1126.2 622.741C1106.78 622.61 1068.2 632.346 1055.83 640.819C1058.01 641.29 1058.92 641.208 1060.67 641.048C1066.05 640.556 1072.29 639.924 1078.31 638.633C1096.31 634.778 1113.24 628.181 1126.2 622.741V622.741ZM1060.97 655.253C1066.25 652.936 1071.24 650.751 1076.5 649.01C1102.29 640.501 1126.19 637.338 1149.56 639.336C1153.71 639.69 1158.46 637.055 1160.39 633.333C1161.55 631.083 1161.3 629.902 1159.42 628.651C1157.22 627.193 1154.54 625.932 1151.67 625.004C1146.56 623.35 1142.12 623.323 1137.6 624.968C1136.71 625.289 1135.83 625.673 1134.94 626.123C1117.28 635 1098.21 641.604 1076.66 646.313C1070.4 647.681 1062.13 649.003 1052.7 647.477L1055.18 657.763C1057.14 656.932 1059.08 656.081 1060.97 655.253V655.253ZM1058.32 668.791C1088.01 667.344 1116.94 656.76 1141.84 645.979C1141.8 645.978 1141.76 645.976 1141.71 645.974C1126.75 645.432 1110.91 647.231 1093.3 651.473C1084.32 653.638 1072.62 656.887 1061.85 662.832C1061.36 663.103 1060.88 663.392 1060.4 663.679C1059.82 664.026 1059.24 664.374 1058.64 664.696C1056.81 665.684 1056.62 666.608 1056.92 667.78C1057.07 668.387 1057.67 668.822 1058.32 668.791V668.791ZM1065.03 689.358C1066.85 689.619 1068.73 689.889 1070.55 689.971C1081.45 690.468 1091.9 688.474 1100.68 686.459C1116.88 682.736 1132.62 677.811 1147.47 671.823C1146.41 671.724 1145.46 671.642 1144.88 671.593C1128.3 670.191 1111.8 671.534 1095.83 675.589C1087.75 677.642 1079.18 680.133 1071.21 684.419C1069.17 685.521 1067.15 686.8 1065.19 688.038C1064.62 688.403 1064.04 688.77 1063.45 689.135C1063.98 689.208 1064.51 689.283 1065.03 689.358V689.358ZM1151.81 617.353C1155.05 617.879 1157.17 618.698 1159.24 619.634L1157.69 612.746C1156.17 614.455 1154.19 616.013 1151.81 617.353V617.353ZM1069.27 705.883C1074.82 702.337 1081.09 701.175 1087.16 700.052L1087.36 700.016C1098.41 697.968 1109.69 696.199 1120.6 694.487C1124.54 693.869 1128.47 693.253 1132.41 692.621C1136.56 691.956 1140.71 691.302 1144.86 690.648C1152.97 689.369 1161.36 688.048 1169.59 686.662C1171.42 686.354 1171.63 686.321 1175.4 684.875C1175.16 684.59 1174.89 684.309 1174.66 684.052C1174.47 683.855 1174.3 683.669 1174.14 683.497C1170.88 679.845 1166.52 677.166 1160.4 675.069C1159.73 674.838 1158.47 674.995 1157.36 675.464C1142.48 681.651 1128.98 686.348 1116.1 689.827C1103.75 693.162 1090.54 696.472 1076.75 697.097C1071.59 697.331 1066.1 697.383 1060.24 695.515C1060.31 696.211 1060.37 696.891 1060.44 697.558C1060.74 700.703 1060.99 703.418 1061.53 706.111C1061.79 707.468 1062.77 709.11 1064 710.297C1064.56 710.832 1065.12 711.36 1065.68 711.879C1065.67 711.856 1065.67 711.83 1065.66 711.806C1065.15 708.52 1067.73 706.871 1069.27 705.883V705.883ZM1083.5 708.808C1097.76 708.042 1111.68 704.833 1125.29 701.016C1111.3 702.705 1097.16 704.814 1083.5 708.808V708.808ZM1162.65 641.64L1164.67 642.247L1164.26 640.155L1162.65 641.64ZM1167.73 670.294L1172.99 673.165L1171.38 667.913L1167.73 670.294ZM867.065 365.395C882.659 302.917 921.043 258.915 981.151 234.611L981.201 234.592C995.592 229.411 1009.25 226.292 1022.96 225.057C1084.85 219.483 1137.79 240.578 1180.31 287.756C1206.66 316.983 1222.42 351.958 1227.17 391.71C1234.84 455.831 1215.76 510.894 1170.48 555.366C1166.21 559.557 1163.58 564.613 1162.43 570.824C1161.76 574.43 1161.54 577.469 1161.76 579.86C1161.91 581.529 1161.72 583.104 1161.54 584.627C1161.33 586.318 1161.14 587.914 1161.44 589.501C1161.87 591.832 1162.11 594.213 1162.34 596.514C1162.6 599.067 1162.86 601.704 1163.39 604.205C1164.88 611.195 1166.53 618.279 1168.12 625.13C1169.33 630.333 1170.58 635.713 1171.75 641.021C1172.43 644.101 1173.33 646.235 1175.9 648.022C1180.68 651.348 1181.53 655.18 1178.66 660.448C1177.58 662.426 1177.71 664.022 1178.27 665.956C1179.79 671.261 1181.22 676.707 1182.45 681.396C1183.63 685.898 1182.61 688.614 1178.69 691.418C1177.96 691.944 1177.33 692.829 1176.81 693.622C1176.12 694.664 1175.47 695.783 1174.84 696.864C1173.62 698.969 1172.35 701.144 1170.71 703.037C1164.51 710.214 1159.31 715.796 1154.34 720.603C1148.65 726.106 1142.38 731.64 1135.18 737.521C1132.45 739.746 1129.54 741.423 1126.44 742.551C1120.99 744.535 1114.98 744.817 1108.48 743.385L1107.43 743.158C1106.22 742.9 1104.97 742.63 1103.74 742.276C1086.75 737.369 1071.63 728.094 1058.77 714.706C1055.71 711.512 1054.04 707.651 1053.68 702.902C1053.23 697.036 1052.55 691.075 1051.89 685.313C1051.61 682.907 1051.34 680.503 1051.08 678.096C1050.97 677.098 1050.6 675.436 1050.24 674.48C1050.04 674.336 1049.77 674.131 1049.44 673.851C1045.91 670.874 1045.59 669.197 1047.83 665.304C1047.99 665.019 1048.2 664.736 1048.4 664.459C1048.52 664.302 1048.68 664.085 1048.77 663.936C1048.72 663.02 1048.58 661.188 1048.37 660.194C1047.96 658.267 1047.56 656.382 1047.11 654.51C1044.62 643.963 1041.38 631.835 1034.4 621.371C1025.72 608.338 1015.37 600.735 1002.77 598.127C1000.5 597.657 998.346 596.974 995.973 596.194C938.731 577.393 898.167 539.194 875.408 482.658C860.003 444.389 857.196 404.936 867.065 365.395V365.395Z" fill="black"/><path id="Fill 6" fill-rule="evenodd" clip-rule="evenodd" d="M715.776 339.222C713.542 308.827 724.81 285.527 749.271 269.969C760.544 262.797 773.957 257.716 790.276 254.433C795.512 253.38 800.767 252.575 805.898 252.041C812.221 251.384 818.549 251.119 824.706 251.251C830.849 251.384 836.998 251.916 842.984 252.833C848.951 253.748 854.922 255.071 860.732 256.766C866.52 258.456 872.31 260.562 877.946 263.027C883.559 265.483 889.171 268.363 894.627 271.587C897.345 273.194 900.084 274.921 902.768 276.721C904.106 277.619 905.459 278.554 906.789 279.5C907.432 279.957 908.063 280.425 908.689 280.904C908.931 281.088 909.191 281.247 909.45 281.409C909.893 281.684 910.395 281.996 910.852 282.416C911.05 282.598 911.234 282.791 911.419 282.984C911.578 283.15 911.735 283.317 911.908 283.47C911.945 283.503 911.989 283.536 912.035 283.571C912.314 283.785 912.737 284.109 912.967 284.648C913.536 285.982 913.207 287.506 912.13 288.53C911.1 289.511 909.629 289.753 908.369 289.138C908.363 289.135 907.934 288.895 907.604 288.71L907.308 288.543C905.945 287.849 904.758 286.912 903.61 286.007C903.061 285.575 902.513 285.142 901.948 284.741C878.619 268.162 853.217 259.327 826.45 258.483C798.406 257.597 774.923 263.027 754.656 275.081C734.802 286.89 724.079 304.31 722.786 326.852C721.722 345.388 726.376 363.577 736.618 380.912C748.821 401.568 765.509 418.743 787.634 433.42C808.595 447.325 832.434 458.294 860.513 466.95C911.602 482.699 965.11 492.538 1024.1 497.027C1072.06 500.68 1119.65 499.335 1159.87 497.54C1162.46 497.425 1165.04 497.307 1167.62 497.187C1187.72 496.262 1208.51 495.305 1229.02 496.15C1262.56 497.533 1291.44 505.13 1317.29 519.378C1327.47 524.985 1335.67 531.039 1342.36 537.886C1345.16 540.753 1347.47 544.102 1349.71 547.343C1350.19 548.033 1350.67 548.724 1351.15 549.408C1352.36 551.129 1352.81 552.59 1352.52 553.877C1352.38 554.527 1351.96 555.442 1350.8 556.109C1350.57 556.242 1350.34 556.348 1350.11 556.431C1349.47 556.664 1348.85 556.699 1348.25 556.533C1346.89 556.154 1346.17 554.864 1345.59 553.826C1345.45 553.569 1345.31 553.314 1345.16 553.083C1340.79 546.301 1338.14 543.419 1335.09 540.785L1333.61 539.643C1327.36 534.816 1320.89 529.824 1314.03 525.857C1298.67 516.971 1281.71 510.818 1262.18 507.045C1245.66 503.853 1228.1 502.531 1208.51 503.003C1193.2 503.373 1177.64 503.983 1162.58 504.572C1152.76 504.958 1142.6 505.355 1132.6 505.682C1059.65 508.07 999.668 504.373 943.829 494.048C908.253 487.469 870.288 479.393 833.692 464.971C803.943 453.248 781.349 439.934 762.588 423.07C742.747 405.236 729.481 386.729 722.033 366.493C718.556 357.572 716.451 348.396 715.776 339.222" fill="#BD8CE9"/><path id="Fill 8" fill-rule="evenodd" clip-rule="evenodd" d="M1249.56 373.076C1242.65 375.591 1235.24 377.331 1227.35 378.279C1225.5 378.502 1223.77 378.481 1222.21 378.217C1220.84 377.988 1219.59 376.323 1219.53 375.121C1219.46 373.851 1220.56 372.452 1221.61 371.884C1222.41 371.457 1223.26 371.444 1224.02 371.433C1224.26 371.43 1224.5 371.428 1224.73 371.407C1241.05 369.849 1255.36 364.442 1267.24 355.334C1289.27 338.446 1302.9 314.672 1307.76 284.674C1310.75 266.26 1307.31 248.317 1297.56 231.344C1288.66 215.856 1276.39 202.824 1260.03 191.504C1239.95 177.605 1216.7 168.356 1188.94 163.226C1164.9 158.785 1138.4 157.686 1105.55 159.767C1095.86 160.381 1086 161.074 1076.47 161.745C1059.75 162.921 1042.46 164.137 1025.43 164.969C990.433 166.678 956.959 162.722 925.935 153.209C927.569 154.854 929.272 156.529 930.943 158.175C934.43 161.606 937.725 164.847 940.278 167.671C940.472 167.886 940.657 168.11 940.835 168.342C942.162 170.083 941.544 172.063 940.247 173.12C938.725 174.362 936.614 174.193 935.338 172.729C935.209 172.58 935.08 172.438 934.947 172.307C927.175 164.624 919.344 156.744 911.771 149.124L910.534 147.88C910.419 147.764 910.314 147.636 910.217 147.494C909.323 146.18 909.483 144.326 910.6 143.084C911.965 141.566 913.82 140.657 916.439 140.212C921.942 139.284 927.439 138.322 932.937 137.36C937.042 136.642 941.148 135.924 945.256 135.219C946.586 134.991 948.241 134.706 949.856 134.882C951.134 135.022 952.612 136.378 952.839 137.621C953.082 138.939 951.993 140.637 950.931 141.164C949.858 141.696 948.715 141.876 947.608 142.051L946.963 142.155C940.684 143.232 934.402 144.296 928.12 145.361L925.264 145.846C925.886 146.069 926.512 146.287 927.132 146.486C949.501 153.652 974.219 157.469 1002.7 158.155C1022.94 158.643 1043.46 157.08 1063.31 155.569C1068.19 155.197 1073.06 154.826 1077.94 154.483L1082.73 154.145C1106.75 152.442 1131.6 150.681 1156.18 152.184C1187 154.07 1213.01 159.856 1235.69 169.874C1261.93 181.465 1281.76 196.688 1296.31 216.414C1310.52 235.685 1316.89 254.902 1315.77 275.162C1314.02 306.872 1301.41 333.914 1278.29 355.533C1270.02 363.264 1260.41 369.128 1249.56 373.076" fill="#BD8CE9"/></g></g></svg>