<svg viewBox="-45 49.36904761904759 1305.0000000000002 1032.2619047619048" fill="none" xmlns="http://www.w3.org/2000/svg" xmlns:xlink="http://www.w3.org/1999/xlink" overflow="visible" width="1305.0000000000002px" height="1032.2619047619048px"><g id="Master/Spot Illustrations/Emails"><ellipse id="Oval" opacity="0.5" cx="676" cy="1038.5" rx="520" ry="23.5" fill="#C9C9C9"/><g id="Background" opacity="0.5" transform="translate(36 63) scale(1 1)"><g id="Background/Blob 2"><path id="Fill 1" fill-rule="evenodd" clip-rule="evenodd" d="M660.366 870.58C623.682 871.709 587.077 870.577 550.556 867.002C515.26 863.546 480.306 858.328 446.481 847.802C379.717 827.025 315.451 800.56 255.285 765.826C179.95 722.338 123.968 661.587 85.8052 585.651C69.6638 553.532 56.3125 520.455 47.8679 485.651C42.3742 463.007 40.4069 440.148 43.3897 417.021C44.0474 411.923 45.0504 406.773 46.7099 401.902C53.9121 380.76 64.2954 361.248 79.3028 344.088C91.275 330.397 105.69 319.943 122.962 313.414C152.051 302.416 182.145 294.63 208.115 277.477C240.363 256.178 265.306 227.339 294.558 202.794C325.219 177.069 356.684 152.489 390.13 130.137C453.492 87.7934 521.041 53.2225 595.159 31.2519C632.394 20.2152 670.09 11.1215 708.715 5.91914C732.313 2.74065 756.065 1.31268 779.889 0.460928C847.511 -1.95765 913.852 4.99632 978.472 24.7725C1021.12 37.8221 1061.54 55.3875 1097.95 80.706C1130.35 103.234 1157.96 130.115 1178.17 163.513C1187.48 178.899 1194.54 195.146 1197.49 212.873C1202.85 245.158 1193.89 273.408 1171.75 298.029C1157.88 313.446 1141.04 325.16 1122.44 334.714C1102.64 344.885 1081.49 351.83 1060.29 358.645C1034.78 366.846 1009.35 375.256 984.922 386.183C971.193 392.324 957.759 399.032 945.948 408.216C941.012 412.055 936.347 416.475 932.545 421.34C926.165 429.503 926.295 438.077 932.799 446.108C936.307 450.44 940.495 454.637 945.255 457.592C957.404 465.132 969.782 472.418 982.55 478.937C1007.58 491.716 1033.1 503.611 1058.12 516.424C1079.89 527.573 1100.88 539.996 1119.27 555.999C1138.36 572.607 1154.11 591.651 1164.41 614.48C1173.6 634.835 1177.08 655.938 1172.49 677.938C1169.68 691.388 1163.7 703.53 1155.81 714.878C1143.85 732.101 1128.56 746.293 1111.84 759.177C1089.72 776.23 1065.03 789.07 1039.24 800.174C985.937 823.131 930.42 839.261 873.184 850.23C840.483 856.496 807.606 861.687 774.475 865.263C745.24 868.417 715.886 870.135 686.463 870.56C677.767 870.687 669.066 870.58 660.366 870.58" fill="#F1ECE8"/></g></g><g id="Decoration" transform="translate(156 211) scale(1 1)"><g id="Decoration/Nature 1"><path id="Bush" fill-rule="evenodd" clip-rule="evenodd" d="M795.92 634.831C817.754 629.946 839.097 625.114 860.482 620.475C862.646 620.008 865.16 620.36 867.356 620.932C911.308 632.419 956.526 636.592 1001.12 644.335C1005.27 645.055 1008.37 645.833 1010.9 650.107C1015.37 657.677 1025.51 659.55 1032.43 655.194C1040.05 650.399 1043.38 638.603 1039.21 631.238C1034.68 623.243 1018.5 621.321 1012.27 628.139C1010.74 629.823 1009.67 631.938 1007.75 634.812C967.547 628.391 926.974 621.914 886.4 615.436C886.302 614.638 886.205 613.842 886.108 613.043C896.502 609.157 906.957 605.421 917.274 601.34C927.584 597.264 937.858 593.066 947.961 588.51C958.329 583.837 968.603 578.92 978.671 573.642C988.48 568.499 998.108 562.978 1007.57 557.225C1017.28 551.325 1026.7 544.944 1036.61 538.536C1037.64 538.923 1038.95 539.462 1040.29 539.91C1046.89 542.107 1053.22 541.525 1058.34 536.724C1063.84 531.572 1063.82 524.672 1062.36 517.913C1060.98 511.575 1054.4 507.183 1047.11 507.087C1040.16 506.995 1033.58 511.791 1031.21 518.695C1031.02 519.246 1030.72 519.852 1030.8 520.388C1032.03 529.329 1025.64 532.903 1019.55 536.995C997.467 551.822 974.369 564.817 950.176 575.871C947.57 577.062 944.888 578.088 942.584 579.047C949.689 551.689 956.715 524.621 964.041 496.407C978.283 490.462 993.78 483.815 1009.47 477.641C1011.74 476.745 1014.99 477.834 1017.66 478.487C1027.55 480.899 1036.72 475.573 1039.55 465.998C1041.52 459.353 1037.17 448.905 1027.67 448.043C1015.43 446.932 1009.41 450.88 1007.46 462.923C1007.28 464.055 1007.12 465.19 1006.86 466.96C993.571 472.547 980.182 478.178 964.847 484.627C967.973 473.572 965.618 463.01 974.286 455.162C978.531 451.315 978.845 445.771 977.373 440.44C976.06 435.685 973.155 432.185 968.02 430.949C962.602 429.644 958.141 431.409 954.571 435.285C948.193 442.208 948.644 452.069 955.421 458.872C956.221 459.674 957.102 460.394 958.039 461.238C951.63 502.035 943.858 542.379 929.363 581.146C927.796 585.337 924.97 586.828 921.391 588.303C885.079 603.284 847.563 614.11 808.875 620.927C806.086 621.418 803.285 621.834 799.572 622.434C800.146 619.39 800.476 617.199 800.978 615.048C804.898 598.279 808.691 581.476 812.925 564.786C813.802 561.337 815.613 557.371 818.275 555.254C840.877 537.292 863.799 519.736 886.55 501.964C889.703 499.501 892.579 498.457 896.893 498.982C905.457 500.023 913.544 493.614 915.923 485.308C917.664 479.236 915.535 470.222 906.407 470.089C902.658 470.036 898.766 469.209 895.197 469.956C889.052 471.244 885.674 476.23 885.345 483.794C885.201 487.13 885.103 489.793 882 492.106C862.127 506.927 842.418 521.966 822.646 536.924C822.187 537.269 821.632 537.489 820.076 538.337C832.338 486.367 844.416 435.171 856.621 383.44C858.331 382.559 860.395 381.587 862.373 380.461C872.443 374.72 873.954 360.534 865.337 352.877C860.226 348.337 846.502 349.017 840.756 354.097C834.746 359.411 834.102 368.419 839.447 375.54C841.174 377.843 843.432 379.747 845.873 382.271C837.804 416.717 829.701 451.317 821.225 487.507C814.345 478.483 808.379 470.74 802.499 462.931C788.46 444.285 774.579 425.516 760.349 407.015C757.372 403.143 756.388 400.113 758.144 395.207C761.493 385.851 756.813 377.141 748.2 375.144C743.324 374.012 738.632 374.797 735.613 379.103C731.878 384.425 729.401 390.365 730.049 397.111C730.827 405.241 735.093 409.584 743.192 408.96C747.547 408.623 749.796 410.393 751.935 413.246C772.585 440.797 793.149 468.408 813.864 495.908C816.707 499.685 817.694 503.176 816.414 507.953C799.659 570.511 787.187 634.224 766.061 695.605C765.149 698.254 764.168 700.879 762.745 704.834C761.346 701.799 760.385 700.108 759.759 698.301C752.379 677.058 745.182 655.751 737.594 634.582C736.062 630.304 736.482 626.857 738.389 623.007C747.059 605.501 755.607 587.934 764.134 570.358C766.071 566.365 768.394 563.217 772.689 561.066C779.402 557.707 782.948 549.432 781.693 542.655C780.716 537.372 778.025 535.007 772.757 534.918C770.727 534.883 768.697 535.011 766.667 535.07C753.444 535.451 747.218 547.068 754.14 558.472C754.736 559.453 755.498 560.336 756.59 561.819C748.23 578.209 739.808 594.724 730.746 612.491C729.192 609.182 728.099 607.262 727.36 605.213C720.232 585.431 713.203 565.614 706.044 545.843C704.53 541.66 703.887 537.973 705.687 533.385C708.646 525.848 705.274 518.115 698.677 513.539C693.711 510.097 688.696 510.322 683.882 513.266C679.186 516.141 677.495 520.948 678.324 526.176C679.322 532.455 682.357 538.451 688.136 540.913C693.559 543.222 695.319 546.964 696.999 551.765C710.99 591.741 725.114 631.67 739.18 671.62C744.513 686.772 749.576 702.028 755.235 717.058C757.009 721.77 757.056 725.833 755.48 730.482C752.11 740.427 749.159 750.515 746.07 760.555C743.207 769.867 743.617 773.195 747.688 774.364C751.327 775.41 753.421 772.84 756.118 764.077C769.339 721.134 782.565 678.194 795.92 634.831" fill="#BD8CE9"/><path id="Large leaf" fill-rule="evenodd" clip-rule="evenodd" d="M307.368 628.371C294.518 606.523 283.682 584.111 275.159 560.442C270.093 559.766 265.273 559.299 260.519 558.457C233.283 553.641 211.627 539.351 194.492 518.2C186.145 507.896 178.778 496.76 171.427 485.696C162.418 472.136 153.922 458.235 145.132 444.528C142.762 440.833 139.833 437.262 142.38 432.614C144.083 429.511 148.877 429.038 155.15 431.625C170.784 438.071 185.319 446.541 199.171 456.203C220.624 471.169 237.474 490.647 253.14 511.289C255.436 514.314 257.874 517.235 260.287 520.171C260.61 520.567 261.169 520.769 262.004 521.311C257.175 491.559 252.391 462.1 247.44 431.605C241.826 429.072 235.024 426.406 228.593 423.033C199.646 407.852 177.275 385.646 161.237 357.373C153.354 343.476 147.116 328.642 140.165 314.218C139.461 312.754 138.728 311.233 138.427 309.659C137.7 305.826 140.58 303.078 144.197 304.598C149.178 306.689 154.049 309.201 158.621 312.082C193.688 334.188 220.654 363.728 239.449 400.708C241.157 404.072 243.055 407.339 245.889 412.53C245.967 409.009 246.131 407.368 246.02 405.747C244.967 390.556 243.676 375.377 242.877 360.172C242.569 354.353 240.694 349.435 236.539 345.679C228.895 338.772 221.403 331.547 213.005 325.65C185.717 306.482 164.813 282.033 149.993 252.25C146.849 245.928 143.5 239.709 140.336 233.395C138.861 230.448 137.424 227.346 139.933 224.241C142.697 220.818 146.318 221.604 149.656 222.884C160.681 227.112 170.538 233.474 179.502 241.002C197.199 255.868 214.333 271.365 227.811 290.381C230.897 294.736 233.661 299.32 237.225 303.576C236.235 283.459 233.585 263.69 229.945 243.699C210.713 240.412 198.01 227.409 184.914 214.604C168.61 198.662 154.745 180.324 136.824 165.981C132.477 162.501 133.001 158.381 137.849 155.632C142.16 153.186 146.793 153.73 151.359 154.755C161.84 157.112 171.267 161.881 180.143 167.775C193.881 176.895 205.146 188.611 215.209 201.559C216.862 203.687 218.513 205.815 221.32 209.43C220.671 205.942 220.475 204.06 219.956 202.271C218.975 198.88 217.612 195.589 216.757 192.169C214.139 181.713 209.107 173.996 198.437 169.296C185.978 163.81 177.802 152.765 169.91 141.942C164.471 134.485 159.106 126.974 153.704 119.49C152.91 118.389 151.544 117.383 151.391 116.208C151.1 113.984 150.653 110.857 151.844 109.617C153.08 108.331 156.535 107.973 158.39 108.736C162.367 110.375 165.987 112.921 169.666 115.234C175.18 118.696 180.619 122.277 187.046 126.422C186.428 124.058 186.28 122.337 185.554 120.909C181.361 112.688 177.349 104.349 172.678 96.3986C165.289 83.8253 160.339 70.4103 157.492 56.1805C155.466 46.0504 153.638 35.8794 151.749 25.7232C151.452 24.1218 151.192 22.4985 151.111 20.8754C150.974 18.0767 151.099 14.7994 154.293 14.1899C156.607 13.7484 159.999 14.2889 161.611 15.7881C165.134 19.0664 168.357 22.9282 170.771 27.0932C181.354 45.3289 188.607 64.7957 192.555 85.6114C195.639 101.875 199.646 117.971 203.614 134.052C204.632 138.182 207.057 141.965 209.6 147.602C210.273 144.04 210.746 142.122 210.986 140.179C213.072 123.189 215.11 106.192 217.187 89.202C217.382 87.5892 217.548 85.9295 218.071 84.41C220.341 77.8203 226.975 76.035 231.301 81.5208C234.723 85.8626 237.706 91.2292 238.845 96.5761C243.797 119.788 240.038 141.596 224.996 160.42C220.033 166.633 219.311 171.963 222.337 179.031C225.533 186.502 227.66 194.431 230.289 202.147C230.952 204.093 231.747 205.994 232.813 208.78C234.117 206.872 234.955 205.854 235.568 204.716C244.962 187.298 254.293 169.846 263.719 152.447C266.43 147.44 269.357 142.549 272.265 137.65C273.51 135.553 274.725 133.362 276.356 131.587C280.407 127.183 285.794 127.72 288.133 133.169C289.804 137.062 290.732 141.5 290.949 145.747C291.556 157.701 288.151 168.992 282.973 179.52C273.334 199.113 261.733 217.46 245.248 232.187C240.543 236.389 239.502 240.804 240.467 247.263C243.921 270.38 246.409 293.642 249.281 316.846C249.533 318.875 249.926 320.888 251.362 323.036C251.981 320.518 252.674 318.015 253.208 315.479C260.574 280.406 274.08 247.622 290.46 215.927C291.943 213.055 294.064 210.495 296.013 207.882C297.843 205.429 299.894 203.274 303.465 204.069C307.119 204.883 307.937 207.785 308.29 210.808C310.155 226.749 312.011 242.677 309.583 258.759C305.94 282.894 297.557 305.508 287.415 327.503C281.17 341.044 274.107 354.205 267.575 367.616C260.156 382.846 257.84 398.811 258.442 415.843C258.794 425.783 258.84 435.752 259.801 445.681C259.931 447.016 260.232 448.334 260.76 451.493C261.846 448.353 262.564 446.861 262.874 445.291C267.254 423.181 271.547 401.053 275.951 378.948C276.582 375.78 277.22 372.471 278.659 369.634C281.538 363.961 287.04 363.176 291.209 367.994C293.819 371.009 295.873 374.711 297.391 378.425C302.25 390.321 305.218 402.742 306.342 415.555C310.104 458.402 303.88 499.555 284.848 538.393C281.899 544.414 281.452 549.736 283.954 556.133C290.672 573.307 297.633 590.319 307.98 606.116C307.811 604.483 307.766 602.825 307.458 601.219C303.725 581.795 303.485 562.287 306.458 542.78C311.082 512.432 315.939 482.123 320.749 451.804C321.522 446.936 322.322 441.496 328.049 440.225C334.501 438.793 337.07 444.2 339.462 448.718C346.662 462.333 350.852 476.967 352.565 492.205C356.89 530.643 355.037 568.735 345.169 606.278C342.261 617.339 338.555 628.087 332.613 637.958C331.928 639.094 331.656 640.478 331.06 642.112C346.601 661.133 364.844 677.163 385.243 691.067C385.656 690.124 386.112 689.59 385.991 689.29C373.364 658.067 370.916 625.473 373.159 592.308C373.986 580.113 375.257 567.939 376.662 555.792C380.066 526.371 383.632 496.968 387.232 467.569C387.792 463.004 388.351 458.326 389.811 454.005C392.659 445.574 399.749 443.582 406.28 449.629C410.18 453.24 413.453 457.808 416.077 462.47C427.106 482.046 433.902 503.221 439.005 525.019C446.897 558.725 449.081 592.702 444.428 627.069C441.628 647.749 435.601 667.389 424.845 685.327C420.827 692.029 415.633 698.027 410.585 704.876C418.141 709.601 426.057 712.715 434.515 714.446C437.8 715.119 441.358 715.283 441.4 719.725C441.433 723.157 437.45 725.556 432.48 724.086C424.184 721.629 416.139 718.316 408.015 715.291C405.525 714.364 403.121 713.205 401.234 712.391C396.216 719.799 392.221 727.252 386.79 733.445C361.836 761.911 329.79 776.447 292.37 778.498C277.534 779.311 262.457 778.289 247.66 776.618C228.236 774.424 208.975 770.788 189.654 767.706C187.257 767.324 184.76 766.881 182.597 765.859C177.403 763.404 176.956 758.295 181.459 754.853C182.312 754.202 183.327 753.742 184.313 753.288C207.491 742.634 230.458 731.479 253.922 721.492C277.76 711.345 302.778 704.503 328.394 700.838C342.287 698.849 356.556 699.498 370.657 698.981C372.494 698.913 374.337 698.99 376.757 699.003C360.897 685.067 345.581 671.611 330.056 657.971C298.327 670.68 266.052 668.826 234.403 656.471C212.933 648.091 192.196 637.834 171.108 628.468C162.67 624.721 154.145 621.175 145.718 617.407C142.031 615.76 137.511 614.217 138.152 609.098C138.761 604.239 143.26 603.317 147.242 602.219C184.936 591.818 221.996 594.068 258.552 607.565C275.102 613.676 291.968 619.027 307.368 628.371" fill="#A1483A"/></g></g><g id="Emails"><g id="Plane 2"><path id="Fill 1" fill-rule="evenodd" clip-rule="evenodd" d="M1067.46 935.978C1069.44 935.76 1071.26 935.666 1073.04 935.347C1105.04 929.633 1137.09 924.243 1169.46 921.068C1175.94 920.433 1182.35 919.251 1188.82 918.579C1148.58 917.834 1108.37 917.091 1067.46 916.334V935.978ZM1020.33 910.976C1089.54 912.296 1157.91 913.601 1226.29 914.905C1179.69 886.96 1133.1 859.018 1086.18 830.887C1079.04 839.531 1072.08 847.952 1064.86 856.688C1067.26 857.717 1068.91 858.46 1070.58 859.137C1086.06 865.398 1101.55 871.646 1117.03 877.902C1118.38 878.446 1119.87 878.815 1121 879.658C1121.01 879.664 1121.01 879.67 1121.02 879.676C1122.46 880.783 1121.99 883.057 1120.33 883.793C1120.11 883.893 1119.88 883.986 1119.66 884.07C1119.2 884.239 1118.59 883.995 1118.05 883.928C1096.42 881.25 1074.79 878.614 1053.18 875.841C1051.31 875.602 1049.37 875.55 1049.37 875.55C1049.37 875.55 1045.28 881.232 1043.61 883.377C1043.61 883.377 1035.02 893.426 1023.55 906.758C1022.29 908.216 1021.98 908.407 1020.33 910.976V910.976ZM1062.3 916.428C1047.35 915.351 1032.27 916.418 1016.45 915.055C1014.56 914.892 1013.44 912.881 1014.28 911.179C1014.64 910.463 1014.99 909.847 1015.43 909.305C1025.19 897.331 1035.09 885.47 1044.81 873.465C1046.9 870.878 1049.33 870.012 1052.44 870.417C1054.74 870.717 1057.04 871.048 1059.45 871.382C1059.45 867.194 1059.58 863.429 1059.41 859.677C1059.3 857.14 1060.11 855.206 1061.74 853.285C1068.44 845.383 1075 837.365 1081.63 829.404C1085.18 825.139 1085.22 825.114 1090.11 828.04C1118.01 844.747 1145.9 861.471 1173.79 878.194C1191.71 888.937 1209.63 899.67 1227.53 910.449C1229.76 911.793 1232.83 912.701 1231.8 916.426C1230.77 920.176 1227.69 919.077 1225.08 919.338C1214.6 920.389 1204.13 921.519 1193.66 922.7C1178.86 924.37 1164.02 925.787 1149.29 927.894C1126.64 931.133 1104.06 934.867 1081.46 938.394C1077.33 939.038 1073.22 939.831 1069.08 940.314C1064.56 940.839 1062.33 938.702 1062.3 934.095C1062.27 928.325 1062.3 922.553 1062.3 916.428V916.428Z" fill="#A1483A"/><path id="Combined Shape" fill-rule="evenodd" clip-rule="evenodd" d="M1110.02 912.687C1080.24 912.118 1050.36 911.548 1020.33 910.976C1021.68 908.881 1022.13 908.367 1022.93 907.459C1023.11 907.253 1023.31 907.027 1023.55 906.758C1035.02 893.426 1043.61 883.377 1043.61 883.377C1045.28 881.232 1049.38 875.55 1049.38 875.55C1049.38 875.55 1051.31 875.602 1053.18 875.841C1069.72 877.962 1086.26 880.004 1102.81 882.045C1107.89 882.672 1112.97 883.299 1118.05 883.928C1118.21 883.948 1118.37 883.983 1118.54 884.019C1118.94 884.104 1119.34 884.188 1119.66 884.07C1119.88 883.986 1120.11 883.893 1120.33 883.793C1121.99 883.057 1122.46 880.783 1121.02 879.676C1121.02 879.67 1121.01 879.664 1121 879.658C1120.18 879.045 1119.17 878.682 1118.16 878.321C1117.78 878.186 1117.4 878.05 1117.03 877.902C1111.11 875.508 1105.18 873.116 1099.26 870.723C1089.7 866.863 1080.14 863.002 1070.58 859.137C1069.48 858.691 1068.39 858.216 1067.08 857.65C1066.41 857.357 1065.68 857.039 1064.86 856.688C1072.08 847.952 1079.04 839.531 1086.18 830.887C1103.7 841.393 1121.18 851.873 1138.63 862.336C1167.9 879.889 1197.1 897.396 1226.3 914.905C1187.58 914.167 1148.88 913.428 1110.02 912.687ZM1069.34 935.793C1068.73 935.85 1068.1 935.907 1067.47 935.978V916.334C1085.01 916.658 1102.42 916.98 1119.76 917.301C1142.86 917.728 1165.84 918.153 1188.82 918.579C1185.7 918.903 1182.59 919.346 1179.49 919.788C1176.15 920.264 1172.81 920.739 1169.46 921.068C1137.09 924.243 1105.04 929.633 1073.04 935.347C1071.84 935.563 1070.62 935.675 1069.34 935.793Z" fill="white"/></g><g id="Mail 1"><path id="Combined Shape_2" fill-rule="evenodd" clip-rule="evenodd" d="M1044.48 596.665C1041.91 596.854 1040.23 599.17 1040.2 601.75C1040.12 611.075 1039.58 613.279 1039.1 615.194C1039.02 615.557 1038.93 615.91 1038.85 616.299C1038.7 617.308 1038.54 618.316 1038.39 619.325C1034.3 646.51 1030.2 673.689 1027.71 701.083C1027.05 708.316 1026.46 715.559 1026.03 722.809C1025.75 727.553 1027.32 728.943 1032.43 729.3C1033.51 729.376 1034.6 729.372 1035.68 729.33C1041.3 729.112 1046.91 728.871 1052.52 728.631C1061.67 728.24 1070.81 727.849 1079.96 727.552C1084.53 727.404 1089.11 727.362 1093.69 727.319C1099.28 727.267 1104.88 727.216 1110.46 726.971C1130.6 726.088 1150.74 725.108 1170.88 724.127C1180.12 723.676 1189.37 723.226 1198.62 722.785C1203.77 722.54 1205.33 721.306 1206.11 716.074C1206.73 711.95 1207.18 707.785 1207.41 703.623C1207.65 699.167 1207.84 694.707 1208.02 690.248C1208.26 684.362 1208.5 678.477 1208.89 672.601C1209.73 659.786 1210.64 646.974 1211.55 634.163C1212.28 623.968 1213 613.774 1213.69 603.577C1213.97 599.478 1214.04 595.34 1213.84 591.239C1213.71 588.637 1211.58 587.342 1209.17 588.333C1207.52 589.011 1205.73 589.664 1203.97 589.741C1196.75 590.058 1189.53 590.272 1182.31 590.486C1180.27 590.547 1178.23 590.607 1176.2 590.67C1168.35 590.91 1160.51 591.129 1152.67 591.347C1134.55 591.852 1116.43 592.356 1098.32 593.133C1085.36 593.688 1072.42 594.638 1059.47 595.587C1054.49 595.953 1049.51 596.318 1044.53 596.661C1044.51 596.663 1044.49 596.664 1044.48 596.665Z" fill="white"/><path id="Fill 3" fill-rule="evenodd" clip-rule="evenodd" d="M1048.31 601.318C1072.37 625.164 1098.45 646.225 1124.17 667.725C1150.23 643.234 1175.91 619.097 1202.39 594.208C1150.42 596.036 1099.42 595.972 1048.31 601.318M1209.68 594.991C1208.08 596.085 1207.45 596.409 1206.95 596.876C1183.04 619.213 1159.14 641.554 1135.26 663.924C1133.29 665.778 1131.63 667.986 1129.59 669.764C1124.93 673.829 1124.62 673.791 1120 670.013C1114.22 665.298 1108.39 660.656 1102.75 655.784C1084.6 640.095 1066.53 624.316 1048.43 608.57C1047.38 607.665 1046.35 606.754 1044.93 605.513C1039.1 645.329 1032.5 684.472 1030.48 724.799C1032.93 724.799 1034.7 724.856 1036.47 724.79C1049.36 724.301 1062.24 723.773 1075.13 723.286C1104.36 722.179 1133.6 721.129 1162.83 719.975C1174.26 719.524 1185.7 718.863 1197.13 718.287C1201.2 718.082 1201.36 717.988 1201.92 714.005C1202.4 710.589 1202.84 707.157 1203.07 703.716C1204.7 678.699 1206.31 653.679 1207.86 628.655C1208.53 617.81 1209.04 606.955 1209.68 594.991M1040.2 601.75C1040.23 599.17 1041.91 596.854 1044.48 596.665C1044.49 596.664 1044.51 596.663 1044.53 596.661C1062.45 595.427 1080.37 593.902 1098.32 593.133C1124.27 592.02 1150.24 591.466 1176.2 590.67C1185.46 590.385 1194.72 590.148 1203.97 589.741C1205.73 589.664 1207.52 589.011 1209.17 588.333C1211.58 587.342 1213.71 588.637 1213.84 591.239C1214.04 595.34 1213.97 599.478 1213.69 603.577C1212.14 626.588 1210.4 649.588 1208.89 672.601C1208.21 682.929 1207.98 693.286 1207.41 703.623C1207.18 707.785 1206.73 711.95 1206.11 716.074C1205.33 721.306 1203.77 722.54 1198.62 722.785C1169.24 724.186 1139.85 725.683 1110.46 726.971C1100.31 727.416 1090.12 727.223 1079.96 727.552C1065.2 728.031 1050.44 728.756 1035.68 729.33C1034.6 729.372 1033.51 729.376 1032.43 729.3C1027.32 728.943 1025.75 727.553 1026.03 722.809C1026.46 715.559 1027.05 708.316 1027.71 701.083C1030.29 672.673 1034.6 644.493 1038.85 616.299C1039.35 613.86 1040.1 612.845 1040.2 601.75" fill="black"/><path id="Fill 13" fill-rule="evenodd" clip-rule="evenodd" d="M673.346 522.476C711.51 522.822 747.635 530.937 781.471 548.679C801.093 558.967 818.256 572.612 834.642 587.392C849.209 600.531 863.709 613.798 878.976 626.092C900.582 643.49 924.919 655.877 952.062 662.393C959.412 664.157 966.882 665.404 974.394 666.233C978.199 666.654 982.016 666.968 985.837 667.19C989.265 667.392 993.283 666.927 996.525 668.203C997.726 668.676 997.992 669.833 997.192 670.86C996.476 671.78 995.079 671.883 994.01 671.853C989.653 671.736 985.29 671.632 980.944 671.332C938.604 668.406 902.08 651.422 869.805 624.678C857.081 614.135 844.931 602.886 832.739 591.719C815.516 575.944 797.3 561.6 776.343 551.035C751.406 538.463 724.998 531.059 697.191 528.578C649.077 524.286 603.096 532.129 559.384 552.811C555.783 554.516 552.361 556.603 548.889 558.571C547.549 559.33 545.96 560.149 545.187 558.452C544.809 557.622 545.644 555.608 546.535 554.956C549.01 553.145 551.715 551.592 554.48 550.246C580.64 537.518 608.021 528.716 636.996 525.437C649.07 524.071 661.227 523.441 673.346 522.476" fill="black"/></g><g id="Mail 2"><path id="Combined Shape_3" fill-rule="evenodd" clip-rule="evenodd" d="M373.402 287.651L328.632 380.274C319.546 377.968 310.466 375.933 301.426 373.907C282.058 369.566 262.868 365.265 244.17 358.42C267.103 338.87 352.432 292.011 373.402 287.651ZM376.324 292.399C376.737 291.609 377.201 290.724 377.736 289.689C388.789 328.806 399.576 366.983 410.465 405.52L412.685 413.378C413.249 415.375 412.253 417.486 410.348 418.305C409.425 418.703 408.482 419.097 407.528 419.465C401.349 421.849 395.161 424.208 388.973 426.567C375.993 431.515 363.014 436.462 350.127 441.64C339.235 446.016 328.429 450.604 317.623 455.191C310.715 458.124 303.808 461.057 296.878 463.934C294.09 465.091 291.179 465.958 288.273 466.824C287.521 467.048 286.769 467.272 286.02 467.501C283.419 468.295 281.39 467.539 280.188 464.961C279.65 463.808 279.078 462.668 278.507 461.528C277.366 459.251 276.225 456.975 275.354 454.599C264.848 425.962 254.447 397.285 244.047 368.608C243.849 368.064 243.599 367.443 243.334 366.788C242.803 365.471 242.214 364.012 241.883 362.743C242.809 362.743 244.121 363.188 244.557 363.347C260.165 369.055 276.313 372.716 292.459 376.376C296.672 377.331 300.885 378.286 305.088 379.278C311.801 380.861 318.528 382.396 325.281 383.796C330.148 384.806 331.085 384.32 333.533 379.866C335.37 376.525 337.07 373.105 338.737 369.674C345.814 355.102 352.883 340.525 359.951 325.948C364.772 316.007 369.592 306.067 374.415 296.128C374.972 294.981 375.563 293.852 376.324 292.399Z" fill="white"/><path id="Fill 5" fill-rule="evenodd" clip-rule="evenodd" d="M328.631 380.274C343.775 348.943 358.461 318.56 373.401 287.651C352.431 292.011 267.102 338.87 244.169 358.42C271.595 368.461 300.081 373.027 328.631 380.274M377.735 289.689C376.216 292.628 375.274 294.358 374.414 296.128C362.518 320.642 350.64 345.165 338.736 369.674C337.069 373.105 335.369 376.525 333.532 379.866C331.084 384.32 330.147 384.806 325.28 383.796C318.527 382.396 311.8 380.861 305.087 379.278C284.775 374.487 264.237 370.545 244.556 363.347C244.12 363.188 242.808 362.743 241.882 362.743C242.378 364.644 243.452 366.97 244.046 368.608C254.446 397.285 264.847 425.962 275.353 454.599C276.66 458.165 278.575 461.505 280.187 464.961C281.389 467.539 283.418 468.295 286.019 467.501C289.663 466.388 293.368 465.391 296.877 463.934C314.649 456.555 332.273 448.813 350.126 441.64C369.158 433.994 388.39 426.849 407.527 419.465C408.481 419.097 409.424 418.703 410.347 418.305C412.252 417.486 413.248 415.375 412.684 413.378C401.039 372.164 389.539 331.463 377.735 289.689M237.307 362.549C236.47 359.955 237.385 357.12 239.565 355.482C239.698 355.382 239.832 355.285 239.967 355.189C276.278 329.57 314.805 307.821 355.225 289.407C360.171 287.153 365.291 285.249 370.42 283.437C378.265 280.666 379.957 281.525 382.241 289.369C385.945 302.089 389.572 314.834 393.141 327.592C399.302 349.615 405.35 371.67 411.549 393.682C413.072 399.093 415.023 404.383 416.724 409.746C417.327 411.643 417.884 413.57 418.264 415.521C418.779 418.172 417.798 420.13 415.189 421.157C412.825 422.087 410.509 423.146 408.116 423.989C377.282 434.846 347.192 447.533 317.254 460.617C309.115 464.173 300.709 467.127 292.377 470.223C290.015 471.1 287.503 471.647 285.015 472.095C281.387 472.75 278.552 471.368 276.865 468.074C274.881 464.199 272.713 460.369 271.219 456.3C260.584 427.338 250.09 398.323 239.581 369.314C238.788 367.126 238.069 364.909 237.307 362.549" fill="black"/><path id="Fill 15" fill-rule="evenodd" clip-rule="evenodd" d="M129.346 520.627C115.748 520.132 102.551 517.58 89.3463 515.091C77.1703 512.796 65.0403 510.45 52.4523 511.116C34.9163 512.043 18.4603 519.822 6.17926 532.374C-6.04674 544.868 -14.7217 559.502 -18.6087 576.886C-19.0827 579.006 -19.2007 581.22 -19.8377 583.281C-19.8927 583.459 -19.9957 583.621 -20.1327 583.773C-21.0927 584.849 -22.9517 584.592 -23.5887 583.298C-23.6787 583.114 -23.7357 582.929 -23.7427 582.742C-23.8177 580.77 -23.6107 578.733 -23.1697 576.803C-17.7367 552.965 -5.03874 533.731 14.5613 519.328C28.0803 509.394 43.7743 505.577 60.3903 506.709C70.3173 507.385 80.2053 509.043 90.0263 510.75C104.343 513.238 118.589 516.266 133.233 515.528C163.2 514.021 189.338 503.908 208.814 480.215C216.52 470.84 223.105 460.541 230.173 450.644C231.438 448.871 232.527 446.973 233.779 445.189C234.846 443.669 235.637 440.952 238.153 442.576C240.326 443.98 238.572 445.939 237.626 447.296C229.325 459.213 221.404 471.434 212.454 482.848C197.205 502.296 176.35 512.828 152.527 517.714C144.921 519.273 137.08 519.689 129.346 520.627" fill="black"/></g><g id="Plane 1"><path id="Fill 7" fill-rule="evenodd" clip-rule="evenodd" d="M529.815 185.48C517.211 173.425 504.65 161.323 491.941 149.379C490.978 148.473 488.986 148.138 487.57 148.317C474.065 150.017 460.582 151.883 447.094 153.708C441.521 154.462 435.962 155.346 430.371 155.902C430.243 155.915 430.113 155.914 429.983 155.902C427.804 155.706 426.852 152.802 428.506 151.371C428.598 151.291 428.695 151.219 428.798 151.157C432.203 149.088 435.791 147.314 439.347 145.501C449.681 140.235 460.033 135.004 471.135 129.376C461.408 120.572 452.057 112.109 442.716 103.654C401.642 131.378 363.107 161.428 324.077 191.842C393.279 189.702 461.543 187.591 529.815 185.48M318.726 197.811C315.567 197.856 314.094 193.863 316.59 191.928C316.609 191.913 316.628 191.899 316.647 191.884C321.544 188.118 326.401 184.301 331.277 180.507C366.845 152.829 402.683 125.516 439.841 99.9814C440.573 99.4794 441.312 98.9884 442.338 98.2954C444.264 99.7454 446.237 101.016 447.962 102.564C456.89 110.574 465.666 118.754 474.694 126.647C477.327 128.949 477.64 131.386 476.999 134.414C476.291 137.759 475.805 141.732 475.076 145.438C481.681 145.015 483.573 144.544 487.581 143.567C489.999 142.977 492.018 143.067 494.038 145.021C508.407 158.918 522.888 172.701 537.318 186.538L537.329 186.548C538.231 187.397 537.814 188.927 536.6 189.172C534.631 189.57 531.848 189.751 529.886 189.815C501.558 190.741 473.227 191.573 444.896 192.425C421.47 193.129 398.04 193.742 374.617 194.556C360.28 195.054 345.951 195.806 331.623 196.553C327.821 196.751 324.045 197.408 320.247 197.738C319.74 197.782 319.232 197.803 318.726 197.811" fill="#A1483A"/><path id="Path" fill-rule="evenodd" clip-rule="evenodd" d="M529.815 185.48C517.211 173.425 504.65 161.323 491.941 149.379C490.978 148.473 488.986 148.138 487.57 148.317C474.065 150.017 460.582 151.883 447.094 153.708C441.521 154.462 435.962 155.346 430.371 155.902C430.243 155.915 430.113 155.914 429.983 155.902C427.804 155.706 426.852 152.802 428.506 151.371C428.598 151.291 428.695 151.219 428.798 151.157C432.203 149.088 435.791 147.314 439.347 145.501C449.681 140.235 460.033 135.004 471.135 129.376C461.408 120.572 452.057 112.109 442.716 103.654C401.642 131.378 363.107 161.428 324.077 191.842C393.279 189.702 461.543 187.591 529.815 185.48" fill="white"/></g><g id="Speech 2"><path id="Fill 9" fill-rule="evenodd" clip-rule="evenodd" d="M202.278 813.077C202.616 810.805 203.148 808.56 203.468 806.286C205.34 792.976 207.414 779.691 208.93 766.342C209.511 761.23 211.773 758.224 216.133 755.807C228.04 749.21 239.894 742.49 251.52 735.412C267.636 725.598 283.616 715.552 299.468 705.312C305.576 701.367 310.948 696.366 315.137 690.314C325.032 676.017 323.739 658.34 302.486 650.774C294.669 647.991 286.525 647.433 278.303 647.816C260.776 648.633 244.429 654.072 228.474 660.836C206.819 670.015 186.789 682.174 167.257 695.132C152.587 704.863 138.178 714.993 123.73 725.056C114.141 731.735 108.54 740.933 106.857 752.554C104.726 767.262 111.669 779.308 125.693 784.314C129.226 785.576 133.102 786.231 136.859 786.431C143.622 786.792 150.261 785.61 156.667 783.348C161.805 781.536 166.953 779.738 172.026 777.755C174.514 776.782 176.141 777.082 177.647 779.256C179.01 781.225 180.94 784.221 182.348 786.159C188.906 795.194 195.622 804.113 202.278 813.077M173.886 781.887C168.697 783.771 163.951 785.564 159.158 787.217C149.937 790.394 140.506 791.968 130.761 790.357C115.122 787.772 103.571 776.606 102.373 761.57C101.256 747.555 104.806 734.533 116.531 725.633C147.936 701.796 180.263 679.308 215.737 661.772C230.768 654.342 246.398 648.482 262.909 645.241C274.959 642.876 287.052 642.302 299.126 645.115C305.774 646.664 311.87 649.393 316.948 654.074C323.389 660.012 326.233 667.306 325.303 676.094C324.446 684.202 321.171 691.323 315.472 696.888C309.529 702.691 303.176 708.237 296.342 712.931C271.631 729.907 245.317 744.266 219.281 759.056C215.616 761.139 213.726 763.423 213.208 767.672C211.408 782.45 209.261 797.187 207.159 811.926C206.792 814.504 207.291 817.985 204.003 818.809C201.051 819.55 199.701 816.52 198.23 814.582C191.088 805.192 184.067 795.706 177.013 786.247C176.045 784.95 175.125 783.618 173.886 781.887" fill="#BD8CE9"/><path id="Path_2" fill-rule="evenodd" clip-rule="evenodd" d="M202.278 813.077C202.617 810.805 203.148 808.56 203.469 806.286C205.34 792.976 207.414 779.691 208.931 766.342C209.511 761.23 211.773 758.224 216.133 755.807C228.041 749.21 239.894 742.49 251.52 735.412C267.637 725.598 283.617 715.552 299.468 705.312C305.577 701.367 310.948 696.366 315.138 690.314C325.033 676.017 323.74 658.34 302.486 650.774C294.67 647.991 286.526 647.433 278.303 647.816C260.776 648.633 244.43 654.072 228.474 660.836C206.819 670.015 186.79 682.174 167.258 695.132C152.587 704.863 138.179 714.993 123.731 725.056C114.141 731.735 108.541 740.933 106.857 752.554C104.726 767.262 111.669 779.308 125.693 784.314C129.226 785.576 133.103 786.231 136.86 786.431C143.622 786.792 150.261 785.61 156.667 783.348C161.806 781.536 166.954 779.738 172.026 777.755C174.514 776.782 176.141 777.082 177.648 779.256C179.01 781.225 180.941 784.221 182.348 786.159C188.907 795.194 195.622 804.113 202.278 813.077" fill="white"/><path id="Combined Shape_4" fill-rule="evenodd" clip-rule="evenodd" d="M345.464 643.961C344.849 644.408 344.053 644.606 343.335 644.357C342.264 643.983 341.715 642.898 342.194 641.807C342.613 640.854 343.383 640.001 344.148 639.263C349.116 634.475 354.118 629.723 359.133 624.986L359.227 624.897C359.854 624.304 360.546 623.648 361.319 623.436C362.046 623.238 363.267 623.383 363.671 623.872C364.096 624.389 364.001 625.545 363.779 626.32C363.628 626.847 363.14 627.298 362.68 627.723C362.589 627.808 362.498 627.892 362.412 627.975C357.166 632.996 351.911 638.011 346.64 643.007C346.255 643.372 345.83 643.694 345.464 643.961ZM346.414 684.352C346.601 682.401 348.996 681.341 350.523 682.568C350.532 682.574 350.539 682.58 350.546 682.586C356.569 687.546 362.536 692.571 368.474 697.633C369.127 698.19 369.674 699.039 369.912 699.856C370.078 700.423 369.822 701.362 369.402 701.78C369.036 702.144 368.298 702.186 367.668 702.222C367.604 702.226 367.541 702.229 367.48 702.233C367.171 702.254 366.793 701.995 366.525 701.77C360.134 696.4 353.752 691.021 347.383 685.627C346.976 685.282 346.375 684.768 346.41 684.382C346.411 684.376 346.411 684.37 346.412 684.364L346.412 684.364L346.414 684.352ZM374.215 663.456C374.692 663.457 375.162 663.302 375.543 663.015C375.6 662.971 375.659 662.927 375.719 662.883C376.362 662.402 377.089 661.859 377.178 661.225C377.443 659.335 375.759 659.173 374.362 659.039C374.309 659.034 374.257 659.029 374.205 659.024C373.65 658.97 373.089 658.994 372.528 659.018C372.186 659.033 371.845 659.048 371.504 659.045C369.636 659.026 367.767 659.005 365.898 658.983C362.725 658.946 359.551 658.909 356.377 658.889C356.008 658.886 355.635 658.874 355.26 658.861C353.992 658.818 352.71 658.775 351.553 659.122C351.233 659.218 350.955 659.457 350.697 659.764C349.817 660.815 350.034 662.481 351.259 663.094C351.439 663.185 351.622 663.245 351.807 663.255C354.694 663.431 357.592 663.437 360.49 663.443C361.196 663.444 361.903 663.446 362.609 663.45C365.336 663.464 368.062 663.461 370.959 663.458C372.019 663.457 373.101 663.456 374.215 663.456Z" fill="#BD8CE9"/></g><g id="Speech 1"><path id="Path_3" fill-rule="evenodd" clip-rule="evenodd" d="M1187.87 358.655C1184.43 364.669 1181.05 370.672 1177.57 376.616C1176.38 378.645 1175.13 380.701 1173.57 382.436C1171.26 384.996 1168.92 384.831 1166.66 382.167C1165.73 381.07 1164.94 379.806 1164.3 378.515C1161.06 372.02 1157.68 365.585 1154.8 358.933C1153.45 355.814 1151.72 354.104 1148.41 353.146C1122.34 345.59 1097.54 334.905 1073.72 321.947C1064.6 316.991 1055.85 311.416 1048.2 304.363C1044.22 300.688 1040.31 296.761 1037.18 292.369C1026.42 277.285 1029.86 260.326 1045.63 250.661C1060.12 241.786 1076.07 239.066 1092.77 241.172C1124.66 245.191 1154.35 256.21 1182.97 270.367C1190.12 273.905 1197 277.99 1204.04 281.766C1210.82 285.407 1216.48 290.499 1222.28 295.461C1236.13 307.3 1236.62 334.122 1220.33 347.163C1211.93 353.883 1202.17 356.805 1191.76 358.183C1190.51 358.349 1189.26 358.488 1187.87 358.655" fill="white"/><path id="Fill 11" fill-rule="evenodd" clip-rule="evenodd" d="M1170.18 379.394C1171.37 377.812 1172.32 376.77 1173.01 375.576C1176.19 370.07 1179.46 364.607 1182.36 358.957C1184.11 355.552 1186.21 353.9 1190.3 353.663C1200.06 353.096 1209.12 350.114 1217.06 344.067C1231.62 332.969 1231.44 308.644 1219.18 298.81C1213.39 294.163 1207.68 289.259 1201.33 285.489C1172.89 268.605 1142.63 256.002 1110.33 248.622C1097.54 245.7 1084.63 243.648 1071.45 245.939C1061.85 247.608 1052.76 250.604 1044.91 256.573C1036.03 263.33 1033.1 272.926 1037.38 283.191C1039.16 287.452 1041.99 291.444 1045.02 294.972C1051.6 302.613 1059.62 308.735 1068.4 313.545C1080.96 320.43 1093.63 327.266 1106.75 332.982C1120.53 338.989 1134.84 343.826 1149.05 348.804C1153.86 350.489 1157.15 352.899 1159.06 357.794C1161.23 363.358 1164.15 368.636 1166.84 373.991C1167.71 375.727 1168.88 377.311 1170.18 379.394M1187.87 358.655C1184.43 364.669 1181.05 370.672 1177.57 376.616C1176.38 378.645 1175.13 380.701 1173.57 382.436C1171.26 384.996 1168.92 384.831 1166.66 382.167C1165.73 381.07 1164.94 379.806 1164.3 378.515C1161.06 372.02 1157.68 365.585 1154.8 358.933C1153.45 355.814 1151.72 354.104 1148.41 353.146C1122.34 345.59 1097.54 334.905 1073.72 321.947C1064.6 316.991 1055.85 311.416 1048.2 304.363C1044.22 300.688 1040.31 296.761 1037.18 292.369C1026.42 277.285 1029.86 260.326 1045.63 250.661C1060.12 241.786 1076.07 239.066 1092.77 241.172C1124.66 245.191 1154.35 256.21 1182.97 270.367C1190.12 273.905 1197 277.99 1204.04 281.766C1210.82 285.407 1216.48 290.499 1222.28 295.461C1236.13 307.3 1236.62 334.122 1220.33 347.163C1211.93 353.883 1202.17 356.805 1191.76 358.183C1190.51 358.349 1189.26 358.488 1187.87 358.655" fill="#BD8CE9"/><path id="Combined Shape_5" fill-rule="evenodd" clip-rule="evenodd" d="M1045.82 179.394C1045.06 180.225 1044.85 181.433 1045.15 182.521C1045.26 182.896 1045.34 183.227 1045.43 183.559C1046.09 186.264 1046.75 188.97 1047.41 191.676C1049.02 198.297 1050.63 204.918 1052.29 211.528C1052.77 213.451 1053.5 215.321 1054.24 217.164C1054.83 218.607 1055.93 219.899 1057.5 218.809C1058.19 218.332 1058.49 216.572 1058.24 215.576C1055.91 206.219 1053.48 196.889 1051.04 187.558C1050.64 186.027 1050.24 184.496 1049.84 182.965C1049.8 182.789 1049.76 182.607 1049.71 182.423C1049.55 181.695 1049.37 180.939 1048.93 180.438C1048.3 179.724 1047.17 178.882 1046.42 179.014C1046.2 179.052 1046.01 179.195 1045.82 179.394ZM1012.38 196.741C1010.97 194.295 1014.59 192.109 1016.14 194.469C1016.17 194.518 1016.21 194.569 1016.24 194.619L1016.3 194.711C1021.05 201.999 1025.78 209.31 1030.48 216.632C1030.69 216.963 1030.91 217.295 1031.12 217.627C1033.07 220.65 1035.01 223.677 1036.78 226.804C1037.28 227.697 1037.47 229.48 1036.94 230.096C1035.71 231.506 1034.3 230.632 1033.32 229.373C1032.44 228.23 1031.64 227.013 1030.86 225.792C1024.81 216.318 1018.76 206.841 1012.75 197.346C1012.62 197.147 1012.5 196.946 1012.38 196.741ZM986.597 216.93C987.392 216.388 988.451 216.446 989.282 216.932C989.853 217.266 990.39 217.593 990.87 217.989C1000.23 225.702 1009.57 233.43 1018.88 241.2C1020.12 242.234 1021.3 243.423 1022.2 244.744C1022.58 245.296 1022.48 246.868 1022.07 247.117C1021.34 247.566 1020.19 247.487 1019.25 247.391C1018.94 247.361 1018.66 247.068 1018.38 246.776C1018.25 246.644 1018.12 246.511 1017.99 246.402C1015.72 244.514 1013.45 242.627 1011.18 240.74L1011.18 240.739L1011.18 240.737C1004.12 234.873 997.071 229.009 990.04 223.118C988.666 221.967 987.391 220.667 986.25 219.287C985.908 218.872 985.934 217.816 986.228 217.305C986.312 217.158 986.44 217.037 986.597 216.93Z" fill="#BD8CE9"/></g></g><g id="Master/Character/Standing" transform="translate(378 78) scale(1 1)"><g id="Master/Character/Standing"><g id="Bottom/Standing" transform="translate(39 389) scale(1 1)"><g id="Bottom/Standing/Leggings"><path id="Fill" fill-rule="evenodd" clip-rule="evenodd" d="M352.345 2.97003C352.068 1.15552 349.512 0.382457 352.345 0.0497309C355.28 -0.295985 353.303 1.21248 353.613 2.97003C355.161 11.7238 356.64 20.4916 358.001 29.2764C359.018 35.837 361.673 43.2014 366.082 48.0544C384.906 68.7744 405.012 91.3419 423.507 112.357C447.267 139.358 474.614 165.118 492.764 196.014C494.503 198.975 496.05 202.625 497.477 205.76C501.021 213.551 503.322 223.075 501.163 231.17C498.25 242.093 493.906 252.463 489.177 262.683C467.392 309.747 442.095 354.84 413.334 398.026C402.766 413.897 392.244 429.872 382.984 446.511C377.374 456.589 374.249 467.989 376.136 480.073C377.167 486.675 379.865 492.258 385.066 496.381C388.608 499.189 392.531 501.521 396.326 504.002C399.82 506.287 403.592 508.207 406.856 510.777C415.464 517.556 418.277 527.042 415.151 537.569C414.738 538.958 414.221 540.319 413.696 541.672C411.519 547.275 411.503 547.346 405.683 546.758C397.186 545.898 388.68 545.085 380.225 543.912C376.662 543.417 373.18 542.178 369.729 541.066C361.082 538.282 356.202 532.144 354.758 523.352C353.943 518.397 353.585 511.973 353.052 506.972C352.642 506.919 352.724 507.355 352.345 508.259C350.181 513.825 348.018 519.39 345.85 524.953C345.191 526.645 344.546 528.342 343.843 530.015C341.433 535.766 339.498 537.015 334.557 536.061C328.974 534.986 325.226 531.337 325.281 526.294C325.343 520.494 325.937 514.701 326.286 508.905C327.601 487.066 332.631 466.249 343.037 446.834C350.836 432.28 358.417 417.61 366.082 402.985C366.918 401.39 367.663 399.75 368.581 397.864C367.452 396.875 366.682 396.157 364.605 394.621C359.525 391.317 360.487 389.697 361.421 385.432C363.867 374.263 365.875 362.997 368.445 351.859C376.859 315.396 386.999 279.43 400.222 244.378C401.37 241.334 402.357 238.227 403.432 235.117C361.295 192.482 330.582 142.467 305.591 88.3064C305.194 91.2549 304.748 94.1965 304.413 97.1511C302.73 111.942 301.833 126.87 299.239 141.499C295.187 164.358 290.523 187.139 285.153 209.727C277.853 240.426 269.695 270.924 261.891 301.505C255.556 326.33 251.261 351.615 248.583 377.092C247.047 391.701 244.698 406.224 242.71 420.785C241.948 426.361 241.085 431.924 240.467 437.514C240.322 438.822 240.773 440.313 241.329 441.551C242.069 443.193 243.217 444.646 244.125 446.219C249.29 455.174 254.788 463.961 259.476 473.158C263.246 480.555 268.123 486.466 275.537 490.321C279.888 492.582 284.073 495.165 288.315 497.632C297.234 502.816 302.57 510.363 303.608 520.756C304.022 524.905 304.581 529.039 304.955 533.191C305.194 535.841 303.877 537.187 301.164 537.395C284.248 538.696 267.408 539.166 250.747 534.846C242.276 532.649 236.485 527.932 233.922 519.491C232.394 514.456 230.896 509.413 229.362 504.38C229.058 503.385 228.687 502.412 227.905 501.383C227.712 501.13 227.31 501.223 227.254 501.536C227.108 502.348 226.954 503.16 226.875 503.98C226.145 511.568 225.693 519.193 224.662 526.74C224.002 531.571 221.972 533.138 219.104 533.329C212.502 533.77 206.626 528.791 206.128 522.205C206.124 522.158 206.121 522.112 206.118 522.065C205.392 511.197 204.463 500.335 204.076 489.454C203.385 470.037 202.996 450.609 202.554 431.185C202.329 421.238 202.117 410.22 201.984 400.58C192.121 396.887 191.479 397.33 192.22 384.556C192.969 371.69 193.508 358.813 194.088 345.939C195.118 323.084 196.112 300.228 197.115 277.373C197.965 257.963 198.768 238.551 199.668 219.143C200.626 198.467 201.772 177.8 202.643 157.12C203.194 144.076 204.545 131.024 202.665 117.96C200.26 101.25 197.588 84.5644 195.769 67.7882C193.665 48.3562 195.236 29.3178 204.901 11.6853C206.46 8.84366 207.889 9.93177 209.583 9.14142C210.772 8.58587 210.964 7.84448 210.771 9.14142C210.608 10.1816 210.115 8.20818 209.583 9.14142L352.345 2.97003Z" fill="white"/><path id="Stroke" fill-rule="evenodd" clip-rule="evenodd" d="M240.071 403.574C229.677 411.722 218.636 412.518 206.665 411.434C206.665 412.193 206.658 412.894 206.652 413.554C206.639 414.894 206.628 416.07 206.677 417.243C206.731 418.589 206.727 419.792 206.721 421.074C206.713 423.24 206.703 425.632 206.979 429.325C206.992 436.321 207.472 439.209 207.472 439.209C207.548 439.814 210.011 440.043 213.572 440.373C215.413 440.544 217.547 440.742 219.797 441.034C224.873 441.691 230.582 441.723 236.135 441.5C237.961 430.502 238.811 419.643 239.726 407.956C239.84 406.509 239.954 405.049 240.071 403.574ZM360.044 423.697L360.044 423.697C356.768 429.711 353.514 435.684 350.585 441.592C357.458 444.871 374.644 452.413 375.79 452.494C383.646 439.87 396.099 417.675 398.139 413.483C388.396 413.308 377.436 412.438 369.767 405.297C366.713 411.456 363.367 417.598 360.044 423.697ZM348.664 446.066C348.372 446.601 348.059 447.173 347.732 447.769C347.03 449.052 346.264 450.451 345.506 451.854C333.061 474.88 330.448 500.105 329.224 525.606C328.996 530.354 331.166 532.346 336.386 532.459C337.379 532.481 338.282 531.88 338.679 530.969L338.715 530.886C339.244 529.667 339.793 528.402 340.282 527.114C341.872 522.926 343.451 518.734 345.031 514.542L345.034 514.534L345.037 514.526L345.04 514.517L345.043 514.509L345.046 514.501L345.049 514.493L345.052 514.484L345.056 514.476C346.985 509.356 348.914 504.236 350.861 499.124C350.999 498.763 351.114 498.371 351.231 497.975C351.74 496.251 352.274 494.439 354.729 494.732C357.529 495.064 357.419 497.03 357.315 498.906C357.287 499.402 357.26 499.891 357.286 500.343C357.447 503.02 357.557 505.701 357.667 508.383L357.667 508.384C357.863 513.129 358.058 517.874 358.53 522.59C359.355 530.831 364.017 536.457 372.099 538.366C380.001 540.232 388.054 541.501 396.085 542.75C398.778 543.17 401.52 543.279 404.166 543.385H404.168L404.176 543.385C405.34 543.432 406.485 543.477 407.6 543.548C414.513 530.579 412.108 520.564 400.6 512.932C399.185 511.994 397.702 511.159 396.219 510.324L396.218 510.323C394.858 509.557 393.497 508.791 392.188 507.944C391.82 507.707 391.453 507.47 391.085 507.232L391.079 507.229L391.073 507.225L391.073 507.225L391.073 507.225L391.073 507.224L391.072 507.224L391.072 507.224L391.072 507.224L391.071 507.224L391.071 507.224L391.071 507.223L391.071 507.223L391.07 507.223L391.07 507.223L391.07 507.223C387.942 505.206 384.802 503.181 381.926 500.841C375.75 495.818 372.414 489.201 371.312 481.254C370.317 474.067 371.226 467.152 373.027 460.251C373.234 459.455 373.526 458.677 373.784 457.989L373.784 457.988C374.013 457.377 374.216 456.837 374.309 456.419C370.104 454.709 365.938 453.034 361.753 451.35L361.747 451.347L361.694 451.326L361.664 451.314L361.654 451.31L361.649 451.308L361.645 451.306C357.361 449.583 353.055 447.851 348.664 446.066ZM218.097 530.513C218.756 530.648 219.413 530.253 219.596 529.605C219.621 529.516 219.646 529.428 219.672 529.339L219.718 529.177L219.718 529.176L219.719 529.176L219.719 529.175C220.049 528.022 220.381 526.861 220.498 525.68C220.916 521.501 221.281 517.318 221.646 513.134L221.646 513.133L221.646 513.129L221.647 513.126C221.928 509.9 222.21 506.673 222.516 503.448C222.55 503.089 222.583 502.729 222.616 502.369C222.866 499.659 223.117 496.933 223.78 494.321C224.506 492.469 225.706 492.12 226.885 491.914C228.133 491.988 229.225 492.925 229.712 493.87C231.203 496.771 232.176 499.978 233.116 503.078L233.116 503.079L233.116 503.079L233.116 503.08L233.116 503.08L233.116 503.08L233.116 503.081L233.116 503.081C233.407 504.039 233.694 504.987 233.993 505.912C234.13 506.339 234.268 506.765 234.406 507.192C235.532 510.669 236.658 514.148 237.529 517.697C239.501 525.731 244.623 530.028 252.316 531.754C263.162 534.191 274.087 535.586 285.21 534.975C288.633 534.787 292.05 534.521 295.558 534.247C297.163 534.122 298.787 533.996 300.439 533.875C300.241 532.301 300.059 530.79 299.882 529.322L299.88 529.309L299.88 529.307C299.503 526.175 299.15 523.239 298.705 520.317C297.669 513.505 294.343 508.049 288.579 504.231C288.418 504.124 288.258 504.017 288.097 503.91C287.896 503.777 287.696 503.643 287.496 503.51L287.495 503.509C284.835 501.736 282.155 499.948 279.281 498.613C266.676 492.759 258.153 483.458 252.611 470.587C249.99 464.501 246.445 458.813 243.042 453.354C241.561 450.978 240.107 448.645 238.767 446.341C232.207 445.944 225.933 445.566 219.778 445.195C215.625 444.944 211.525 444.697 207.427 444.449C207.352 445.125 207.371 446.062 207.39 447.011L207.395 447.293C207.447 449.976 207.491 452.659 207.535 455.343C207.664 463.192 207.793 471.041 208.118 478.883C208.711 493.209 209.443 507.534 210.402 521.84C210.865 529.087 212.242 529.358 217.032 530.301C217.37 530.367 217.724 530.437 218.097 530.513ZM345.211 526.613L345.1 526.9C344.57 528.271 344.04 529.642 343.473 530.997C341.068 536.753 339.139 538.003 334.21 537.05C328.64 535.974 324.9 532.321 324.955 527.273C324.998 523.302 325.289 519.335 325.579 515.367C325.713 513.534 325.848 511.7 325.957 509.866C327.269 488.004 332.289 467.166 342.668 447.73C348.28 437.222 353.779 426.652 359.278 416.082L359.281 416.076C361.405 411.995 363.528 407.914 365.657 403.837C366.215 402.768 366.733 401.679 367.289 400.509C367.564 399.932 367.848 399.335 368.15 398.711C368.024 398.6 367.901 398.491 367.781 398.385L367.781 398.385L367.78 398.384C366.834 397.548 366.021 396.829 364.184 395.465C359.576 392.458 359.951 390.844 360.758 387.366C360.838 387.019 360.923 386.653 361.008 386.266C362.073 381.382 363.056 376.479 364.038 371.576C365.304 365.256 366.57 358.937 368.015 352.659C376.407 316.159 386.524 280.155 399.714 245.067C400.492 242.996 401.196 240.897 401.904 238.786L401.904 238.786L401.904 238.785L401.904 238.785L401.904 238.785L401.904 238.784L401.905 238.784L401.905 238.784L401.905 238.783L401.905 238.783L401.905 238.783L401.905 238.782L401.905 238.782L401.906 238.781C402.238 237.788 402.572 236.793 402.915 235.797C360.881 193.119 330.244 143.053 305.313 88.8366C305.188 89.7704 305.058 90.7037 304.928 91.637L304.928 91.6377L304.928 91.6384L304.928 91.6391L304.928 91.6398L304.928 91.6405L304.928 91.6413L304.928 91.642L304.927 91.6427L304.927 91.6434L304.927 91.6441L304.927 91.6448L304.927 91.6455L304.927 91.6462C304.647 93.6589 304.367 95.6718 304.138 97.6904C303.607 102.37 303.155 107.064 302.703 111.758C301.725 121.913 300.747 132.069 298.978 142.083C294.935 164.965 290.282 187.771 284.926 210.381C279.771 232.138 274.186 253.793 268.602 275.449C266.298 284.381 263.995 293.314 261.721 302.254C255.401 327.104 251.116 352.415 248.445 377.918C247.385 388.041 245.935 398.122 244.486 408.203C243.841 412.686 243.197 417.169 242.586 421.656C242.363 423.292 242.132 424.928 241.9 426.563L241.9 426.565C241.342 430.506 240.784 434.448 240.349 438.402C240.204 439.711 240.654 441.204 241.209 442.442C241.671 443.471 242.292 444.426 242.915 445.383L242.915 445.383C243.287 445.955 243.659 446.527 243.998 447.116C245.5 449.729 247.03 452.328 248.561 454.927L248.561 454.928C252.28 461.244 255.999 467.56 259.312 474.082C263.072 481.486 267.937 487.403 275.334 491.263C278.522 492.926 281.621 494.762 284.719 496.599L284.721 496.6L284.724 496.602C285.841 497.264 286.958 497.926 288.08 498.58C296.978 503.77 302.301 511.325 303.336 521.729C303.518 523.557 303.727 525.382 303.937 527.207C304.204 529.528 304.47 531.85 304.68 534.177C304.918 536.829 303.604 538.177 300.898 538.385C284.022 539.688 267.225 540.158 250.603 535.833C242.153 533.634 236.377 528.913 233.82 520.463C233.14 518.215 232.466 515.966 231.793 513.716L231.792 513.714L231.791 513.712L231.791 513.71L231.79 513.707L231.789 513.705L231.789 513.703L231.786 513.693L231.785 513.692L231.78 513.675L231.774 513.656L231.774 513.654C230.943 510.88 230.112 508.107 229.27 505.337C228.967 504.341 228.597 503.365 227.816 502.336C227.626 502.083 227.223 502.176 227.168 502.489L227.126 502.725C226.994 503.459 226.861 504.194 226.79 504.936C226.554 507.396 226.347 509.86 226.141 512.323C225.709 517.467 225.277 522.611 224.582 527.719C223.924 532.555 221.9 534.123 219.037 534.315C212.452 534.757 206.591 529.773 206.093 523.179L206.09 523.134C206.088 523.102 206.085 523.07 206.083 523.038C205.886 520.071 205.673 517.104 205.461 514.137L205.461 514.136C204.894 506.225 204.328 498.315 204.047 490.395C203.459 473.853 203.091 457.302 202.723 440.753L202.723 440.746C202.659 437.852 202.595 434.959 202.529 432.065C202.304 422.109 202.093 411.08 201.96 401.429C201.471 401.245 201.006 401.072 200.561 400.907C192.06 397.744 191.516 397.542 192.22 385.388C192.847 374.579 193.327 363.761 193.807 352.943C193.899 350.873 193.99 348.803 194.083 346.733C194.892 328.731 195.677 310.728 196.463 292.725L196.463 292.724L196.463 292.709C196.676 287.838 196.889 282.967 197.102 278.097C197.389 271.531 197.67 264.965 197.952 258.399C198.503 245.534 199.055 232.669 199.649 219.807C200.037 211.412 200.455 203.017 200.874 194.623L200.874 194.623C201.487 182.323 202.101 170.024 202.618 157.72C202.727 155.124 202.868 152.527 203.008 149.93C203.575 139.467 204.142 128.998 202.64 118.521C202.068 114.534 201.481 110.55 200.894 106.565C199.018 93.8277 197.142 81.089 195.761 68.2974C193.661 48.8455 195.227 29.7876 204.87 12.1371L205.093 11.7285C206.456 9.22695 206.794 8.60696 208.4 7.85419C209.586 7.29908 210.917 8.29228 210.725 9.59054C210.563 10.6318 210.071 11.665 209.539 12.5992C199.363 30.4878 197.913 49.8807 200.268 69.7227C201.342 78.7728 202.634 87.8055 204.102 96.8077C205.876 93.5464 208.733 92.6858 211.58 91.8282L211.58 91.8281L211.58 91.8281C212.827 91.4523 214.073 91.0771 215.224 90.5007C215.809 90.2086 216.507 90.0127 217.195 89.8198C218.361 89.493 219.495 89.1751 219.984 88.4133C221.462 86.1064 223.351 86.041 225.43 85.9691L225.431 85.969C225.731 85.9587 226.034 85.9482 226.341 85.9308C230.861 85.6747 232.3 87.08 231.561 91.3769C231.439 92.0844 231.343 92.7965 231.243 93.5368L231.243 93.5371C231.196 93.8852 231.148 94.2395 231.096 94.6025C230.519 95.1072 229.963 95.5861 229.424 96.0502L229.423 96.0511L229.422 96.0513C228.289 97.0273 227.232 97.938 226.208 98.8854C224.528 100.443 222.556 101.541 220.568 102.647L220.568 102.647C218.199 103.965 215.807 105.296 213.86 107.435C212.596 108.824 210.212 109.189 207.699 109.574C207.247 109.643 206.792 109.713 206.338 109.789C206.455 110.439 206.574 111.089 206.693 111.739C208.851 123.477 209.555 135.28 208.448 147.027C206.39 168.863 205.377 190.751 204.363 212.639C203.971 221.111 203.579 229.583 203.126 238.051C203.897 237.78 204.838 237.697 205.96 237.77C206.818 237.826 207.781 237.806 208.549 237.478C210.073 236.825 211.656 236.312 213.238 235.798C216.838 234.631 220.438 233.463 223.355 230.649C226.367 227.741 232.909 228.975 235.782 232.643C236.219 233.199 236.579 233.813 236.98 234.497L236.98 234.497L236.98 234.498C237.177 234.833 237.383 235.184 237.613 235.553C236.049 238.178 233.995 239.603 231.88 241.07C231.527 241.315 231.173 241.561 230.819 241.813C226.335 245.016 221.379 247.08 216.425 249.143L216.424 249.143C214.994 249.739 213.563 250.334 212.145 250.957C209.455 252.138 206.896 251.172 204.354 250.212L204.353 250.212C203.742 249.981 203.132 249.751 202.521 249.551C201.474 270.062 200.586 290.583 199.699 311.104L199.699 311.104L199.699 311.106L199.699 311.106C199.333 319.566 198.967 328.025 198.59 336.484C198.395 340.855 198.206 345.227 198.02 349.599C198.914 349.032 199.977 348.495 201.215 347.969C202.06 347.609 202.789 346.978 203.519 346.347C203.852 346.059 204.185 345.771 204.529 345.509C204.702 345.377 204.876 345.206 205.05 345.034L205.051 345.034L205.051 345.033L205.051 345.033L205.051 345.033L205.051 345.033L205.052 345.033L205.052 345.033L205.052 345.032C205.418 344.671 205.783 344.312 206.13 344.329C209.753 344.51 211.239 342.075 212.679 339.716L212.679 339.716C213.178 338.898 213.672 338.09 214.247 337.402C215.872 335.461 217.036 333.132 218.142 330.917L218.143 330.917C218.612 329.979 219.07 329.061 219.55 328.202C226.184 328.468 227.773 332.849 229.387 337.301C229.494 337.595 229.601 337.888 229.709 338.182C227.753 344.021 223.1 347.341 218.428 350.675C217.285 351.491 216.14 352.308 215.034 353.163C213.452 354.385 211.935 355.691 210.419 356.997L210.418 356.997L210.416 356.999C209.802 357.528 209.189 358.056 208.571 358.579C208.386 358.736 208.21 358.933 208.036 359.128C207.702 359.505 207.371 359.877 206.979 359.952C204.255 360.477 201.514 360.917 198.809 361.35L198.809 361.351L198.808 361.351L198.793 361.353L198.767 361.357L198.722 361.364L198.647 361.377C198.27 361.437 197.894 361.497 197.519 361.558C197.438 363.517 197.356 365.477 197.275 367.436C196.981 374.54 196.687 381.643 196.382 388.745C196.121 394.82 196.963 396.423 202.753 397.457C215.312 399.7 227.965 399.752 241.103 398.386C241.414 396.348 241.759 394.331 242.101 392.325C242.838 388.01 243.565 383.749 243.937 379.457C245.556 360.792 248.513 342.398 252.29 324.167C251.432 324.576 250.52 324.922 249.598 325.272L249.597 325.272C249.048 325.48 248.495 325.69 247.949 325.915C247.122 325.225 246.285 324.531 245.443 323.833C243.342 322.091 241.209 320.322 239.107 318.516L239.061 318.476C238.126 317.674 237.124 316.813 236.558 315.762C234.817 312.522 232.054 310.817 228.675 310.072C227.474 300.717 227.831 299.756 234.118 295.192L240.338 299.413C238.875 303.803 242.475 306.165 245.212 307.761C248.78 309.842 251.566 312.555 254.168 315.407C257.538 300.191 261.425 285.076 265.526 269.998C275.873 231.956 285.143 193.648 292.567 154.913C296.403 134.895 298.438 114.648 299.867 94.3327C299.967 92.9141 300.055 91.494 300.143 90.0739L300.143 90.0721L300.143 90.0717C300.358 86.5955 300.573 83.119 300.965 79.6627C301.18 77.7613 301.79 75.6629 302.899 74.1526C305.49 70.6212 308.325 67.2676 311.159 63.9173L311.159 63.9172L311.161 63.9149C311.612 63.3812 312.063 62.8475 312.514 62.3132C313.443 61.21 314.623 60.0147 316.165 61.448C317.831 62.9972 316.336 65.0733 315.378 66.4045L315.378 66.4047C315.206 66.6436 315.051 66.8586 314.935 67.0422C314.156 68.2742 313.583 68.9007 312.743 69.818C312.182 70.431 311.502 71.1739 310.563 72.3142C309.466 73.645 308.563 74.6604 307.841 75.4723L307.841 75.4728L307.841 75.4731C305.164 78.4838 304.974 78.697 306.621 81.8211C307.319 83.1453 308.182 84.7262 309.097 86.4028C311.038 89.9591 313.214 93.9461 314.553 96.8262C317.358 102.859 320.248 108.836 323.231 114.751C322.972 113.623 322.864 112.449 323.001 111.181C327.712 110.413 332.206 110.135 336.245 112.036C338.399 113.05 340.135 112.325 341.785 111.636C342.443 111.361 343.087 111.092 343.739 110.941C351.18 109.218 353.248 109.747 356.285 116.255C356.511 116.742 356.847 117.177 357.234 117.678C357.43 117.933 357.64 118.205 357.855 118.509C348.407 123.178 338.64 124.27 328.39 124.746C347.455 160.814 370.186 194.458 398.234 224.596C398.578 224.965 398.92 225.338 399.262 225.711C400.891 227.487 402.53 229.273 404.411 230.732C407.562 233.176 407.702 235.833 406.456 239.349C405.431 242.241 404.4 245.132 403.368 248.023C399.027 260.186 394.685 272.352 390.83 284.67C389.233 289.772 387.669 294.889 386.143 300.022C386.682 300.04 387.336 300.112 388.148 300.202L388.149 300.202C388.548 300.246 388.985 300.295 389.465 300.343C389.597 300.356 389.73 300.37 389.865 300.384L390.059 300.405C392.49 300.665 395.324 300.968 398.286 298.929C402.788 295.827 408.439 293.497 415.016 295.699C415.016 296.423 415.046 297.105 415.075 297.755V297.756C415.137 299.145 415.193 300.384 414.929 301.551C414.555 303.203 413.881 305.403 412.626 306.132C411.334 306.883 410.084 307.729 408.832 308.576L408.832 308.576C405.245 311.003 401.646 313.438 396.986 313.679C395.503 313.755 394.021 313.94 392.541 314.125C390.499 314.381 388.459 314.636 386.42 314.605C384.617 314.578 383.271 313.858 382.466 312.681C375.585 336.96 369.618 361.546 365.027 386.314C365.005 386.419 364.983 386.521 364.961 386.62L364.937 386.729L364.913 386.841L364.863 387.064L364.813 387.29L364.811 387.297L364.811 387.298C364.534 388.534 364.388 389.186 364.571 389.727C364.775 390.332 365.392 390.798 366.698 391.784C367.123 392.105 367.621 392.482 368.202 392.936C371.275 395.692 375.044 397.99 378.77 400.262L378.773 400.264C379.925 400.966 381.073 401.666 382.194 402.376C382.724 402.624 383.25 402.875 383.776 403.124C389.352 405.775 394.791 408.36 401.729 407.782C404.768 403.058 407.858 398.335 410.958 393.598L410.959 393.597L410.96 393.595L410.961 393.594L410.962 393.592L410.963 393.591C416.395 385.288 421.858 376.94 427.128 368.463C427.039 368.448 426.95 368.433 426.86 368.419L426.758 368.402C426.612 368.378 426.466 368.355 426.32 368.331C423.215 367.833 419.966 367.311 417.647 364.246C416.464 362.682 414.941 361.383 413.414 360.081C412.23 359.07 411.043 358.058 410.009 356.917C408.951 355.749 408.369 354.091 407.816 352.515L407.814 352.512L407.721 352.246C407.684 352.141 407.648 352.038 407.611 351.935C407.258 350.946 406.986 349.92 406.715 348.896C406.293 347.299 405.871 345.707 405.144 344.265C404.11 342.217 404.585 340.934 405.814 339.391C407.114 337.759 408.669 337.29 410.597 337.892C413.04 338.655 415.374 339.597 416.683 342.038C416.731 342.128 416.782 342.216 416.834 342.303L416.838 342.311L416.886 342.391C416.9 342.417 416.915 342.443 416.93 342.469L416.953 342.51C420.507 348.91 425.291 354.039 431.862 357.463C432.353 357.719 432.811 358.041 433.252 358.401C452.849 325.671 470.984 292.131 486.36 257.17C490.15 248.551 493.153 239.558 496.064 230.589C497.756 225.367 498.051 219.705 496.107 214.493L495.907 213.956L495.906 213.955C493.569 207.685 491.13 201.144 487.711 195.66C486.401 193.559 485.067 191.479 483.711 189.419L483.284 190.156C482.448 191.597 481.593 193.072 480.732 194.559C474.232 194.226 468.056 195.638 462.051 197.988C461.889 198.052 461.727 198.134 461.565 198.215C461.223 198.388 460.881 198.56 460.538 198.561C452.793 198.565 445.191 197.79 438.849 192.739C433.817 188.73 433.705 188.468 431.881 184.203L431.755 183.91L431.65 183.664C432.172 183.298 432.688 182.905 433.206 182.509C434.387 181.608 435.584 180.696 436.915 180.069C439.151 179.017 441.3 178.537 443.942 180.249C447.545 182.582 451.743 182.835 455.922 183.088L455.923 183.088C457.164 183.163 458.403 183.237 459.625 183.366C460.798 183.49 461.988 183.72 463.099 184.104C463.328 184.183 463.55 184.264 463.768 184.344C465.634 185.027 467.192 185.598 469.308 183.476C470.425 182.357 472.44 182.124 474.44 181.892C475.272 181.796 476.102 181.7 476.864 181.54C477.299 181.449 477.736 181.367 478.177 181.289C462.801 159.403 445.136 139.693 427.704 120.243L427.704 120.243L427.703 120.242L427.703 120.242L427.703 120.242L427.703 120.242L427.702 120.241L427.702 120.241C419.399 110.977 411.148 101.771 403.224 92.4179C402.91 92.4834 402.653 92.489 402.449 92.3881C399.665 91.0113 397.184 92.0449 394.798 93.0387C394.055 93.3481 393.321 93.6536 392.591 93.8814C390.395 94.5665 388.786 94.5555 387.071 93.5103C384.719 92.078 382.564 91.953 379.991 93.1692C378.106 94.0594 375.897 94.4315 374.058 92.3361C373.48 91.6789 372.549 91.3185 371.634 90.9645L371.633 90.9643C371.325 90.8448 371.018 90.726 370.727 90.5967C366.622 88.7733 364.647 84.2004 366.327 80.0456C367.046 78.2642 368.088 77.275 370.476 77.8401C370.813 77.9197 371.149 78.0029 371.486 78.0861C374.536 78.8405 377.608 79.6001 380.912 77.6941C381.641 77.2735 382.753 77.6336 383.92 78.0118C384.966 78.3505 386.057 78.7038 386.958 78.5243C388.641 78.1894 390.118 78.2063 391.447 78.5166C383.717 69.7019 375.845 61.4197 367.881 53.0407C366.397 51.4795 364.91 49.915 363.42 48.343C358.575 43.2319 355.431 36.7416 354.361 29.7772C354.269 29.1784 354.176 28.5796 354.082 27.981C353.969 28.1378 353.852 28.2926 353.738 28.4431L353.737 28.4438L353.735 28.4464C353.624 28.5937 353.516 28.7368 353.417 28.8733C350.614 32.7625 346.692 34.9303 342.598 37.193L342.596 37.1938L342.591 37.1963L342.588 37.198C342.116 37.4592 341.641 37.7217 341.165 37.9882C335.816 40.986 330.118 42.8321 324.426 44.6765L324.426 44.6765C321.508 45.6222 318.59 46.5674 315.722 47.6671C312.89 48.7538 310.802 47.3084 308.413 45.6548C307.899 45.2993 307.372 44.9342 306.82 44.5825C306.902 43.8449 306.906 43.0718 306.911 42.3185C306.92 40.7162 306.929 39.2035 307.676 38.3122L307.897 38.0478C310.06 35.4648 312.387 32.6858 316.184 32.15C317.321 31.9893 318.448 31.7498 319.575 31.5103C320.37 31.3413 321.165 31.1723 321.965 31.0308C327.676 30.0176 332.866 27.6511 337.887 24.8695C338.819 24.3524 339.73 23.6673 340.417 22.8611L340.495 22.7696C345.108 17.3548 345.127 17.3333 352.133 16.4928C352.172 16.5384 352.21 16.5842 352.247 16.6302C351.555 12.4065 350.866 8.18251 350.224 3.95101C350.188 3.71165 350.14 3.45571 350.091 3.19094C349.763 1.44539 349.364 -0.683786 351.817 -0.972986C354.136 -1.2462 354.247 0.604332 354.346 2.26013C354.372 2.69558 354.397 3.11757 354.462 3.48391C356.007 12.2467 357.482 21.0235 358.839 29.8172C359.853 36.3846 363.202 41.4926 367.6 46.3506C386.38 67.0918 405.093 87.895 423.541 108.931C426.66 112.487 429.879 116.125 433.159 119.832C454.811 144.303 479.133 171.79 494.857 198.651C496.178 200.909 497.24 203.324 498.301 205.734L498.301 205.735L498.301 205.735L498.301 205.736L498.301 205.736C498.632 206.488 498.963 207.239 499.301 207.985C502.837 215.783 502.563 223.743 500.408 231.846C497.502 242.781 493.169 253.162 488.452 263.392C466.719 310.504 441.484 355.643 412.794 398.873C402.251 414.76 391.755 430.752 382.517 447.408C376.922 457.496 373.804 468.907 375.687 481.005C376.715 487.612 379.407 493.201 384.595 497.328C387.269 499.456 390.161 501.311 393.051 503.164C393.979 503.759 394.907 504.354 395.827 504.958C397.07 505.773 398.349 506.542 399.626 507.311C401.932 508.699 404.236 510.085 406.33 511.74C414.919 518.525 417.725 528.021 414.606 538.559C414.194 539.95 413.679 541.312 413.154 542.665L413.141 542.697C410.983 548.276 410.956 548.345 405.161 547.757C404.207 547.661 403.253 547.564 402.299 547.468C394.776 546.709 387.25 545.95 379.765 544.909C376.683 544.479 373.661 543.489 370.668 542.508C370.21 542.358 369.752 542.208 369.296 542.06C360.67 539.273 355.802 533.127 354.361 524.328C353.823 521.045 353.485 517.119 353.163 513.388C352.999 511.481 352.839 509.625 352.659 507.931C352.386 507.896 352.331 508.078 352.213 508.472C352.154 508.668 352.079 508.918 351.954 509.22L350.509 512.949C348.832 517.276 347.155 521.605 345.475 525.931L345.339 526.282L345.211 526.613ZM277.57 21.8881C278.793 30.3068 272.271 32.4283 265.323 31.8531C263.18 31.6758 261.075 30.7874 259.001 29.9114C258.431 29.6709 257.863 29.4313 257.298 29.2076C255.508 28.5 253.738 27.7329 251.969 26.966C248.923 25.6452 245.878 24.3252 242.733 23.3114C241.049 22.7685 239.603 21.8474 238.147 20.9191C236.244 19.7063 234.321 18.4811 231.822 18.0704C227.402 17.3452 226.416 12.1802 229.009 8.44541C230.144 6.81008 231.498 5.93991 233.602 6.49002C234.18 6.64098 234.758 6.7887 235.336 6.93629C240.021 8.13326 244.673 9.32164 248.827 12.1612C250.416 13.2469 252.606 13.5659 254.66 13.8651L254.66 13.8651L254.66 13.8651L254.66 13.8651L254.66 13.8652L254.661 13.8653L254.661 13.8653L254.662 13.8654L254.662 13.8654L254.662 13.8654L254.662 13.8654L254.662 13.8655C254.931 13.9046 255.197 13.9434 255.46 13.9835C255.681 14.0175 255.903 14.0499 256.123 14.0822C258.589 14.4436 260.941 14.7882 262.645 17.0882C263.029 17.6057 263.867 17.8025 264.681 17.9935L264.681 17.9936C264.973 18.0621 265.261 18.1298 265.525 18.2114C268.511 19.1359 271.503 20.0445 274.455 20.9414L274.456 20.9416C275.5 21.2585 276.538 21.574 277.57 21.8881ZM399.873 126.343L399.769 126.365C397.821 126.783 396.116 127.148 394.44 127.508C392.942 131.138 393.722 134.043 394.571 137.211L394.63 137.431C395.326 140.031 395.319 142.821 395.313 145.61C395.31 146.81 395.307 148.011 395.36 149.197C395.368 149.375 395.378 149.622 395.276 149.727C393.4 151.637 393.429 153.957 393.459 156.321C393.484 158.28 393.509 160.269 392.451 162.081C391.042 164.494 391.615 167.263 392.172 169.96L392.173 169.96L392.173 169.96L392.173 169.961L392.173 169.961L392.173 169.961L392.173 169.962L392.173 169.962L392.173 169.964C392.401 171.067 392.627 172.159 392.713 173.209C394.294 174.241 395.628 175.112 396.972 175.988C399.15 175.012 401.25 174.071 402.822 173.367C403.05 172.797 403.243 172.259 403.425 171.751L403.427 171.747L403.427 171.746C403.799 170.711 404.127 169.796 404.613 168.975C406.354 166.035 407.946 163.213 407.064 159.494C406.75 158.173 407.427 156.499 407.99 155.105L408.019 155.033C408.157 154.691 408.303 154.353 408.448 154.017C409.434 151.734 410.372 149.561 408.338 146.991C407.615 146.076 407.599 144.044 408.076 142.853C409.059 140.398 408.781 138.395 407.522 136.152C406.178 133.759 404.979 131.284 403.802 128.853L403.802 128.853C403.307 127.831 402.816 126.816 402.319 125.819L399.873 126.343ZM440.217 271.615C437.683 262.569 441.725 256.212 447.377 250.599C449.596 248.396 449.997 245.896 450.22 243.105C450.503 239.551 451.115 236.441 455.015 234.558C459.027 232.623 463.572 234.159 464.181 238.542C464.319 239.535 464.305 240.549 464.291 241.563C464.277 242.536 464.264 243.509 464.384 244.464C464.495 245.339 464.841 246.183 465.236 247.147C465.429 247.615 465.632 248.112 465.826 248.654C461.806 250.52 460.099 254.215 458.364 257.967C457.587 259.65 456.803 261.344 455.804 262.89C455.175 263.861 454.462 264.858 453.565 265.558C452.799 266.157 451.972 266.686 451.147 267.214C450.001 267.947 448.857 268.679 447.882 269.594C445.694 271.648 443.346 272.213 440.217 271.615ZM247.396 145.02C250.445 146.114 253.123 147.073 255.562 147.948L259.294 149.286C259.856 150.64 260.407 151.974 260.952 153.292C262.585 157.242 264.158 161.048 265.769 164.837C266.11 165.636 266.597 166.585 267.292 166.987C270.032 168.574 270.434 171.17 270.834 173.755C271.033 175.04 271.232 176.322 271.717 177.475C272.172 178.556 271.659 180.046 271.137 181.561C270.898 182.256 270.657 182.956 270.507 183.624C270.441 183.662 270.368 183.715 270.291 183.772C270.106 183.908 269.892 184.065 269.664 184.091C269.116 184.152 268.539 184.269 267.959 184.386L267.959 184.386C266.566 184.668 265.162 184.953 264.118 184.47C260.769 182.923 258.794 179.426 257.856 176.215C256.384 171.18 253.399 167.211 250.429 163.262C250.256 163.032 250.082 162.801 249.909 162.57C247.508 159.371 246.255 155.921 245.83 152.202C245.682 150.909 246.094 149.551 246.602 147.875C246.862 147.018 247.148 146.077 247.396 145.02Z" fill="black"/></g></g><g id="Head" transform="translate(195 0) scale(1 1)"><g id="Head/Hat"><path id="Path" fill-rule="evenodd" clip-rule="evenodd" d="M106.458 41.2919L127.925 54.8379L142.123 69.9843L180.438 53.7053L198.409 52.579L200.272 58.8899L191.437 69.9843L162.353 87.8829C178.931 101.366 185.648 117.562 182.507 136.474C179.634 153.764 163.195 164.965 133.189 170.077L132.275 170.231L135.43 201.026C135.801 202.443 136 203.945 136 205.5C136 214.06 129.956 221 122.5 221C115.045 221 109 214.06 109 205.5C109 204.181 109.144 202.901 109.414 201.679L109.381 201.679L108.976 197.959C105.755 168.754 103.1 152.826 101.013 150.175C76.8283 150.175 80.1304 134.877 81.4554 128.266C81.6151 127.469 81.8402 126.792 82.124 126.209L52.6303 137.985L36.8787 143.291L34.7959 137.985L62.7021 111.412L69.8471 103.625L62.7021 93.6761L54.7647 69.9843L58.7808 61.0243V61.0243L67.7932 58.8899V58.8899H75.0902L94.0332 41.2919H106.458Z" fill="white"/><path id="Stroke" fill-rule="evenodd" clip-rule="evenodd" d="M130.367 60.5773C130.928 61.0582 131.492 61.5424 132.061 62.0291C111.425 72.8049 91.4654 83.2271 71.0533 93.8855L66.2585 96.3891C65.6176 94.7634 64.9553 93.1536 64.2955 91.5496C61.5623 84.9058 58.8708 78.363 57.9065 71.2091C57.7155 69.7911 57.7805 68.2841 58.0335 66.8731C58.7105 63.0941 60.8325 61.3421 64.8515 61.2481C67.0235 61.1971 69.2275 61.2531 71.3715 61.5691C75.6825 62.2041 78.6525 60.4471 81.0525 56.9931C82.8065 54.4701 84.7825 52.0691 86.8875 49.8271C92.9255 43.3951 100.215 42.0101 108.262 45.3001C116.49 48.6626 123.109 54.3452 130.367 60.5773ZM38.1805 140.608C37.1705 140.714 36.5125 139.572 37.0985 138.743C37.8455 137.684 38.4805 136.794 39.1995 135.978C48.7485 125.138 59.6245 115.83 71.7485 107.981C72.1487 107.722 72.5831 107.516 73.0174 107.309C73.2387 107.204 73.4599 107.099 73.6765 106.987C78.6016 104.442 83.5099 101.863 88.4182 99.2836C99.5881 93.4138 110.758 87.544 122.124 82.0821C138.793 74.0721 155.794 66.7351 172.799 59.4531C177.295 57.5285 182.214 56.4959 187.05 55.4806C187.366 55.4144 187.68 55.3483 187.995 55.2821C189.752 54.9121 191.575 54.8571 193.448 54.8381C195.682 54.8151 197.346 57.0321 196.555 59.1211C195.933 60.7631 194.915 62.0701 193.821 63.2541C191.123 66.1751 188.297 69.1281 185.038 71.3511C178.445 75.8461 171.771 80.3361 164.698 83.9901C128.706 102.582 92.1395 119.973 54.5855 135.217C50.8594 136.73 47.0178 137.962 43.1787 139.193C42.0043 139.569 40.8301 139.946 39.6595 140.33C39.2145 140.476 38.7445 140.549 38.1805 140.608ZM40.9595 144.579C44.4335 143.548 47.9165 142.512 51.3005 141.224C56.054 139.413 61.0415 137.407 65.9247 135.444C67.6295 134.758 69.3216 134.077 70.9865 133.412C71.1355 134.314 71.1783 134.573 71.2383 134.828C71.2626 134.93 71.2896 135.033 71.3275 135.176C73.9815 145.254 80.7285 151.911 89.8335 156.057C93.4244 157.693 97.6117 158.194 101.636 158.675C101.911 158.708 102.186 158.741 102.461 158.774C102.672 158.8 102.875 158.806 103.069 158.795C103.295 161.682 103.52 164.569 103.744 167.457L103.746 167.476L103.746 167.478C104.527 177.526 105.308 187.575 106.181 197.616C106.283 198.784 106.66 199.929 107.103 201.166C107.716 202.878 110.301 202.827 110.711 201.057C110.88 200.331 110.783 199.598 110.687 198.871L110.687 198.871C110.656 198.637 110.625 198.403 110.603 198.171C109.649 188.059 108.713 177.944 107.883 167.822C107.552 163.787 107.376 159.74 107.2 155.694C107.166 154.932 107.133 154.17 107.099 153.409C106.854 147.966 106.461 147.591 101.093 147.899C100.759 147.918 100.424 147.941 100.088 147.964C98.7859 148.055 97.476 148.146 96.2039 147.986C95.9828 147.959 95.7609 147.931 95.5385 147.904L95.5359 147.904L95.5358 147.904C93.2438 147.622 90.8948 147.333 88.7899 146.513C80.1359 143.141 78.6769 134.088 85.8879 128.255C87.4807 126.967 89.389 126.048 91.292 125.132C92.0091 124.787 92.7255 124.442 93.4239 124.078C93.97 123.794 94.5458 123.554 95.1204 123.314L95.1206 123.314C96.0591 122.923 96.9942 122.534 97.7899 121.953C97.8852 121.884 97.9725 121.795 98.0519 121.691C98.2108 121.623 98.3684 121.554 98.5248 121.486C99.2795 122.299 99.7964 123.06 100.272 123.76C100.812 124.556 101.299 125.273 102.022 125.9C106.049 129.395 109.406 129.061 112.713 124.931C112.815 124.803 112.921 124.674 113.027 124.544C113.625 123.815 114.252 123.05 114.479 122.204C116.411 114.993 121.782 112.966 128.413 112.665C129.449 112.618 130.482 112.417 131.51 112.217C131.733 112.174 131.956 112.131 132.179 112.089C139.115 110.79 145.614 108.401 150.206 102.805C152.895 99.5281 155.628 97.3391 160.101 97.1831C162.028 97.1155 164.444 95.8824 165.643 94.3819C169.071 99.276 175.797 109.18 177.485 112.22C184.2 124.313 182.594 135.723 174.755 146.409C164.523 160.358 150.262 167.576 133.318 169.833C132.158 169.988 130.989 170.077 129.82 170.166C128.634 170.256 127.448 170.347 126.27 170.506C125.947 170.55 125.6 170.577 125.246 170.605C123.525 170.74 121.641 170.889 121.52 173.013C121.469 173.91 121.592 174.234 122.001 174.738C122.489 175.338 123.078 175.842 123.722 176.271C124.208 176.595 124.765 176.986 125.312 177.37L125.313 177.37C126.326 178.082 127.304 178.769 127.732 178.958C130.392 180.627 130.421 180.744 131.77 186.175L131.772 186.186C131.863 186.552 131.96 186.942 132.064 187.359C132.688 189.854 132.805 190.74 132.987 192.112C133.116 193.088 133.278 194.309 133.677 196.529L133.727 196.808C134.184 199.356 134.679 202.125 136.772 201.619C138.855 201.201 138.497 199.262 138.189 197.593C138.152 197.391 138.116 197.193 138.084 197.003C137.729 194.854 137.351 192.709 136.971 190.565C136.28 186.652 135.584 182.739 134.872 178.732L134.868 178.71L134.197 174.938C134.694 174.819 135.139 174.709 135.551 174.607L135.555 174.606L135.555 174.606C136.365 174.406 137.045 174.238 137.73 174.095C146.696 172.208 155.13 168.955 162.867 164.034C170.493 159.185 176.807 152.979 181.287 145.078C187.438 134.227 188.327 123.203 182.445 111.824C180.041 107.172 170.176 92.6324 166.779 88.3056C166.789 88.2344 166.8 88.1633 166.811 88.0921C167.431 87.7445 168.106 87.3907 168.81 87.0212C170.449 86.1608 172.25 85.2158 173.913 84.0691C174.219 83.8577 174.525 83.6464 174.832 83.435C181.24 79.0146 187.656 74.5886 193.811 69.8311C197.424 67.0391 200.064 63.2121 201.44 58.7511C202.912 53.9791 200.826 50.7501 195.86 50.4481C192.809 50.2621 189.68 50.5271 186.65 50.9971C177.423 52.4271 168.828 55.8831 160.351 59.6401C156.589 61.3067 152.842 63.0031 149.009 64.7381C147.281 65.5203 145.535 66.3104 143.764 67.1091C143.183 66.544 142.617 65.9882 142.06 65.4409C140.894 64.2954 139.766 63.1868 138.613 62.1061C130.778 54.7671 122.795 47.5691 113.154 42.6461C100.889 36.3841 90.3565 38.0361 82.0385 48.7731C77.2415 54.9641 72.6125 58.1461 64.4945 57.0681C58.1345 56.2221 53.9825 60.6811 53.5655 67.2391C53.3725 70.2671 53.4765 73.5251 54.3935 76.3741C56.3213 82.361 58.5365 88.2569 60.7513 94.1517C61.4076 95.8985 62.0638 97.6452 62.7125 99.3941C63.3058 100.993 63.9711 102.565 64.6405 104.147C64.9471 104.871 65.2547 105.598 65.5565 106.33C64.9451 106.812 64.3718 107.249 63.8296 107.662C62.7516 108.484 61.7968 109.211 60.9105 110.015C60.1341 110.719 59.3575 111.423 58.5809 112.127C51.1592 118.856 43.7376 125.585 36.4175 132.423C34.7185 134.01 33.3005 136.007 32.1325 138.033C29.5725 142.476 31.4635 145.425 36.6835 145.282C38.1165 145.242 39.5825 144.987 40.9595 144.579Z" fill="black"/></g></g><g id="Body" transform="translate(28 114) scale(1 1)"><g id="Body/Bomber"><path id="Fill" fill-rule="evenodd" clip-rule="evenodd" d="M347.422 97.1375C357.676 98.3652 367.911 99.7771 378.123 101.315C387.003 102.653 393.47 107.571 397.572 115.541C405.144 130.254 412.766 144.944 420.149 159.752C428.018 175.536 436.05 191.259 443.238 207.356C449.544 221.478 454.389 236.149 455.649 251.819C456.828 266.488 455.213 280.597 448.127 293.639C441.32 306.168 431.607 315.36 417.013 317.841C408.287 319.325 399.562 318.465 391.264 315.456C382.067 312.121 372.767 308.829 364.061 304.426C344.466 294.517 325.194 283.968 305.83 273.604C300.428 270.714 300.527 270.632 296.218 274.822C282.375 288.278 268.003 301.098 251.294 310.948C241.745 316.576 232.004 321.869 220.987 324.157C212.512 325.917 204.42 324.977 196.734 320.817C188.865 316.559 182.789 310.458 178.011 302.953C170.254 290.767 166.044 277.296 163.749 263.158C159.558 237.329 159.435 211.305 160.713 185.278C161.391 171.469 163.131 157.727 166.871 144.335C166.968 143.984 167.047 143.628 167.128 143.273C170.998 126.285 180.955 115.574 198.118 111.063C213.767 106.951 229.556 103.846 245.529 101.522C247.177 101.283 252.091 100.755 252.039 100.326C251.817 98.4623 251.472 98.5585 251.743 96.5237C251.922 95.1729 254.409 93.7109 255.951 93.1271C261.534 91.0162 273.888 87.4925 272.953 87.4925C278.116 90.6778 284.335 90.8115 289.537 90.0159C295.383 89.1218 300.496 89.1218 306.62 83.2016C312.676 82.4837 318.551 83.7894 324.323 85.4387C326.415 86.0365 327.434 87.7899 327.599 90.0159C327.73 91.7833 328.137 93.4145 327.589 95.6135C334.24 96.1412 341.171 96.3895 347.422 97.1375Z" fill="white"/><path id="Stroke" fill-rule="evenodd" clip-rule="evenodd" d="M364.666 207.597C364.77 208.059 365.297 208.474 367.16 208.488C373.467 208.451 379.666 207.561 385.654 205.399C385.894 205.313 386.161 205.232 386.44 205.147C388.254 204.595 390.549 203.897 388.716 200.729C384.927 201.834 380.659 203.041 376.436 204.236L376.435 204.237L376.43 204.238C372.302 205.406 368.217 206.562 364.666 207.597ZM311.206 133C311.59 133.164 313.082 131.284 313.627 129.999C314.47 128.744 315.455 127.231 316.11 125.884C319.852 118.186 322.538 110.131 323.769 101.638C324.209 98.6005 324.527 95.5304 324.647 92.4652C324.742 90.0219 323.584 88.3206 320.149 88.2305C318.85 94.9467 317.27 102.747 315.688 110.561L315.687 110.568L315.686 110.571C314.102 118.391 312.516 126.225 311.206 133ZM312.636 87.126C311.783 87.126 311.045 87.7338 310.879 88.5729C310.605 89.96 310.342 91.3377 310.081 92.7067L310.08 92.7095L310.08 92.7098C309.292 96.8347 308.518 100.881 307.522 104.871C305.943 111.197 306.091 117.487 307.051 123.819C307.102 124.151 307.224 124.788 307.376 125.577L307.376 125.578C307.706 127.292 308.174 129.727 308.346 131.324C309.08 128.736 310.161 123.635 310.474 122.069C310.797 120.446 311.127 118.813 311.457 117.175L311.458 117.174L311.458 117.172C312.286 113.071 313.12 108.937 313.887 104.829C314.444 101.856 314.969 98.8759 315.44 95.8879C315.671 94.4259 315.889 92.9609 316.092 91.4949C316.165 90.9667 316.283 90.4172 316.399 89.8744L316.399 89.8742C316.562 89.1124 316.722 88.364 316.752 87.7068L312.636 87.126ZM279.919 134.904C281.729 135.69 282.212 135.725 282.439 135.439C280.831 132.974 278.871 130.324 276.87 127.618C273.831 123.507 270.698 119.269 268.555 115.359C266.128 110.931 264.136 106.263 262.141 101.588C261.264 99.5321 260.386 97.4748 259.47 95.4362C254.485 97.395 254.645 97.901 255.75 101.399C255.847 101.706 255.952 102.037 256.061 102.394C259.786 114.588 267.128 124.32 276.512 132.654C277.2 133.265 278.005 133.744 278.81 134.223L278.81 134.223C279.184 134.446 279.557 134.668 279.919 134.904ZM286.01 133.454C281.222 118.607 277.237 107.184 271.587 91.4548C270.232 91.8623 268.751 92.288 267.333 92.6953L267.332 92.6955C266.026 93.0708 264.774 93.4305 263.726 93.7459C267.276 106.587 279.049 125.361 286.01 133.454ZM374.595 211.581C373.304 211.581 372.135 211.599 371.029 211.616H371.029C366.186 211.69 362.564 211.746 355.317 210.192C354.469 210.194 353.409 210.735 352.338 211.282C352.039 211.435 351.74 211.587 351.445 211.729C349.054 213.283 348.087 214.022 347.098 214.777L347.098 214.777L347.098 214.777C346.204 215.46 345.291 216.157 343.29 217.484C348.858 219.021 354.385 220.617 360.002 222.24C365.806 223.917 371.706 225.622 377.849 227.317C376.841 222.446 376.001 218.383 375.136 214.198L374.595 211.581ZM305.89 142.498L299.403 143.775L292.957 145.044C292.957 146.379 292.991 147.722 293.024 149.068V149.068C293.098 152.027 293.173 155 292.891 157.938C292.1 166.218 291.164 174.483 290.228 182.749L290.228 182.752L290.227 182.76C289.774 186.762 289.321 190.764 288.884 194.768C288.678 196.661 288.526 198.559 288.364 200.577L288.363 200.584C288.286 201.545 288.206 202.534 288.118 203.563L288.418 203.523C295.264 202.62 301.196 201.837 304.81 195.772C306.049 193.694 307.988 192.593 310.751 192.774C312.211 192.869 314.854 193.768 314.854 193.768C315.699 192.019 318.8 187.879 319.534 187.051C319.534 187.051 318.4 184.666 317.776 183.112L317.548 182.543C313.013 171.256 309.14 161.616 307.322 149.551C307.238 148.995 307.142 148.433 307.023 147.883C306.812 146.906 306.652 146.087 306.508 145.354C306.301 144.294 306.129 143.415 305.89 142.498ZM328.334 205.584L328.342 205.591C332.19 208.707 336.043 211.827 339.72 214.79C347.652 208.672 355.992 205.715 365.435 203.697C371.149 202.477 376.748 200.687 382.335 198.9C383.487 198.531 384.639 198.163 385.791 197.8C387.098 197.388 388.305 196.665 389.555 195.916L389.648 195.86C390.887 195.119 391.184 193.436 390.257 192.328C388.522 190.25 385.26 190.517 382.141 191.662C378.464 193.012 374.792 194.375 371.121 195.738C368.673 196.646 366.225 197.555 363.776 198.46C363.603 198.524 363.429 198.593 363.256 198.662C361.945 199.184 360.608 199.716 359.297 198.059C359.721 196.323 361.075 195.898 362.415 195.478C362.752 195.372 363.088 195.266 363.408 195.141C365.398 194.359 367.389 193.582 369.381 192.805L369.389 192.802L369.389 192.802C374.489 190.813 379.588 188.823 384.656 186.756C384.814 186.692 384.975 186.629 385.137 186.565L385.137 186.565C386.055 186.204 387.026 185.822 387.76 185.12C388.753 184.17 388.332 182.528 387.014 182.147C384.901 181.537 382.806 181.892 380.805 182.312C375.504 183.426 370.215 184.602 364.927 185.779L364.925 185.779L364.923 185.78C360.135 186.845 355.347 187.911 350.549 188.929C346.837 189.718 343.066 190.316 339.291 190.674C338.307 190.767 336.871 189.859 336.289 188.98C335.932 188.441 336.531 186.827 337.173 186.139C338.429 184.793 339.761 183.517 341.093 182.241L341.093 182.241C342.253 181.13 343.413 180.019 344.524 178.86C345.562 177.777 346.497 176.594 347.528 175.29C347.73 175.035 347.935 174.776 348.145 174.512C348.535 174.022 348.198 173.276 347.572 173.279C337.706 173.33 323.516 184.233 317.141 196.534C320.753 199.445 324.541 202.512 328.334 205.584ZM336.291 105.667C335.742 106.434 335.27 107.091 334.849 107.677L334.844 107.684C334.045 108.797 333.431 109.652 332.822 110.512C331.362 112.572 329.907 114.637 328.452 116.701C324.988 121.617 321.523 126.533 317.986 131.394C317.134 132.564 316.167 133.653 315.202 134.742C313.993 136.103 312.786 137.463 311.809 138.976C311.389 139.625 310.995 140.072 310.705 140.4C310.316 140.841 310.115 141.068 310.295 141.285C311.861 150.874 314.277 162.372 317.733 172.253C318.94 175.704 320.582 178.975 322.514 182.076C322.626 182.255 322.741 182.445 322.859 182.648C324.756 180.922 326.179 179.962 327.874 178.817C328.242 178.569 328.623 178.312 329.024 178.037C332.995 174.106 337.711 171.478 343.032 169.968C344.744 169.483 346.605 169.189 348.369 169.298C351.465 169.492 353.108 171.803 351.816 174.58C350.863 176.627 349.321 178.422 347.807 180.184C347.551 180.482 347.296 180.779 347.045 181.076L346.882 181.269C345.538 182.858 343.595 185.157 341.642 187.068C342.901 187.336 343.854 186.991 344.491 186.76C344.672 186.695 344.828 186.638 344.958 186.608C352.723 184.796 360.473 182.923 368.222 181.042C368.549 180.963 368.87 180.92 369.168 180.88C369.871 180.786 370.447 180.709 370.686 180.201C370.686 180.201 370.688 177.778 370.681 176.783C370.656 173.203 370.641 169.623 370.626 166.043C370.589 157.426 370.552 148.809 370.385 140.194C370.349 138.365 369.615 136.115 368.399 134.819C361.821 127.796 355.164 120.824 348.167 114.228C345.874 112.067 343.207 110.304 340.375 108.433L340.375 108.433C339.043 107.553 337.675 106.648 336.291 105.667ZM270.125 208.883L270.126 208.883C273.425 208.025 276.77 207.156 280.725 206.098C280.866 206.061 281.02 206.021 281.183 205.978L281.183 205.978C282.394 205.662 284.088 205.219 284.214 204.883C284.214 204.883 284.532 202.524 284.711 201.029C285.564 193.898 286.246 186.983 286.928 180.055L286.928 180.054C287.541 173.834 288.155 167.604 288.895 161.2C289.374 157.063 289.518 152.124 289.537 147.943C289.494 146.196 289.501 144.455 289.501 144.455C289.187 144.312 288.834 144.064 288.366 143.735C287.809 143.345 287.089 142.84 286.079 142.262C282.442 140.801 278.88 138.786 275.811 136.346C267.763 129.948 261.516 121.944 256.52 112.951C255.853 111.749 255.121 110.583 254.276 109.235L254.276 109.235C253.85 108.555 253.394 107.829 252.903 107.029C252.276 107.794 251.711 108.469 251.194 109.088L251.193 109.088C250.196 110.281 249.371 111.266 248.6 112.292C239.423 124.508 233.262 139.692 228.363 154.049C228.563 154.813 229.57 156.956 230.744 159.454L230.744 159.454L230.744 159.454C232.246 162.65 234.02 166.425 234.727 168.637C236.4 172.27 237.951 175.624 239.437 178.841L239.438 178.844L239.439 178.846C243.892 188.481 247.772 196.877 252.674 207.813C253.165 208.908 253.711 209.98 254.297 211.128L254.298 211.129C254.579 211.681 254.869 212.25 255.167 212.849C261.066 211.237 265.552 210.072 270.125 208.883ZM308.676 269.477L308.677 269.478L308.678 269.478C309.579 270.173 310.319 270.744 311.123 271.2L312.414 271.932C332.983 283.604 353.564 295.282 375.352 304.552C383.497 308.018 391.912 311.12 400.485 313.235C413.911 316.545 425.764 312.433 436.262 302.64C441.804 297.47 444.225 291.945 447.156 284.976C452.555 272.14 451.842 259.197 449.728 245.774C446.851 227.512 440.799 212.135 432.842 195.535C428.729 186.955 424.42 178.469 420.111 169.984L420.11 169.983C418.904 167.608 417.698 165.233 416.496 162.856C413.505 156.939 410.495 151.031 407.485 145.124L407.485 145.124C403.029 136.377 398.573 127.631 394.176 118.854C390.244 111.005 382.652 105.675 373.96 104.6C368.48 103.921 363.334 103.083 358.183 102.243L358.182 102.243C353.195 101.43 348.203 100.617 342.9 99.9474C341.836 99.8122 340.701 99.8272 339.655 100.047L338.078 102.883C338.796 103.527 340.078 104.247 341.127 104.837C341.436 105.011 341.726 105.174 341.975 105.32C347.807 108.74 352.924 112.96 357.579 117.927C361.51 122.119 366.31 126.689 370.585 130.457C370.63 130.357 370.647 130.027 370.666 129.67V129.669C370.688 129.247 370.713 128.786 370.787 128.623C371.573 126.888 374.15 127.417 374.199 129.322C374.21 129.743 374.248 130.224 374.292 130.781L374.292 130.781C374.42 132.425 374.601 134.738 374.309 138.164C374.01 141.679 374.048 145.227 374.087 148.77C374.097 149.779 374.108 150.787 374.111 151.795C374.125 156.344 374.194 160.894 374.354 165.439C374.463 168.53 374.642 171.618 374.824 174.78C374.907 176.202 374.99 177.64 375.068 179.1C376.429 179.1 377.398 178.935 378.294 178.782L378.294 178.782C379.017 178.659 379.692 178.544 380.488 178.53C381.368 178.514 382.104 178.428 382.822 178.345L382.822 178.345C383.731 178.239 384.611 178.136 385.721 178.183C391.247 178.955 394.414 181.617 391.047 187.406C390.896 187.664 390.638 188.22 390.638 188.22C394.216 190.492 395.72 194.329 393.206 198.398C393.101 198.568 392.971 198.821 392.854 199.05L392.854 199.05C392.694 199.363 392.556 199.631 392.534 199.586L392.531 199.565C392.531 199.574 392.532 199.581 392.534 199.586C393.444 205.704 389.763 207.771 385.24 209.177C383.72 209.649 382.198 210.118 380.499 210.641L380.484 210.646L379.345 210.996C378.955 211.116 378.556 211.24 378.144 211.367C378.446 212.888 378.729 214.38 379.007 215.849L379.007 215.851L379.007 215.852C379.748 219.762 380.456 223.504 381.419 227.177C381.746 228.422 383.496 229.578 384.855 230.203C386.428 230.928 388.062 231.518 389.697 232.108C391.134 232.628 392.572 233.147 393.969 233.758C394.736 234.093 395.374 234.723 396.012 235.354L396.013 235.354C396.302 235.64 396.592 235.927 396.894 236.185C396.512 236.927 395.682 237.322 394.866 237.154L394.849 237.15C393.845 236.943 392.843 236.736 391.883 236.404C389.968 235.744 388.066 235.044 386.164 234.345L386.163 234.344L386.163 234.344C383.299 233.291 380.435 232.237 377.529 231.317C369.238 228.691 360.906 226.187 352.534 223.841C352.109 223.722 351.594 223.526 351.052 223.32C349.561 222.754 347.869 222.11 347.298 222.773C342.979 227.802 339.289 232.822 335.677 237.735C328.893 246.963 322.386 255.814 312.51 263.644C311.902 264.126 311.065 264.861 310.148 265.665L310.148 265.665C309.161 266.533 308.081 267.481 307.095 268.281C307.688 268.715 308.204 269.113 308.676 269.477ZM249.485 104.467C248.026 104.467 246.726 104.695 245.865 104.846C245.774 104.862 245.688 104.877 245.607 104.891C235.429 106.634 222.253 109.263 212.181 111.499C205.409 113.004 202.76 113.888 197.47 115.654L197.47 115.654C196.422 116.004 195.271 116.388 193.964 116.818C185.739 119.528 178.465 125.023 175.266 133.059C173.589 137.272 172.072 141.583 170.93 145.967C167.249 160.106 164.649 174.342 163.815 188.912C162.355 214.448 163.324 239.833 167.622 265.04C169.939 278.624 174.423 291.517 182.57 302.769C193.054 317.244 209.671 325.42 230.82 316.475C241.91 311.785 250.608 306.314 260.376 299.292C289.84 278.11 313.763 252.569 333.567 222.377C336.354 218.126 336.152 216.233 332.235 213.036C326.652 208.479 320.94 204.082 315.23 199.686L315.229 199.685L315.209 199.67C314.595 199.196 313.98 198.723 313.365 198.25C312.908 197.898 312.41 197.599 311.883 197.313C310.375 196.497 308.478 196.75 307.294 197.994C307.059 198.241 306.853 198.499 306.691 198.782C304.262 203.006 300.268 204.653 295.763 205.68C291.878 206.566 288.005 207.506 284.184 208.64C282.927 209.013 281.67 209.385 280.413 209.757L280.364 209.772C269.05 213.124 257.733 216.476 246.515 220.13C243.982 220.956 241.58 222.18 239.175 223.405L239.175 223.406C237.686 224.164 236.197 224.923 234.674 225.589L234.648 225.601C233.101 226.263 231.865 224.188 233.175 223.129C235.387 221.344 237.877 220.057 240.308 218.8L240.309 218.799C241.653 218.104 242.98 217.419 244.232 216.663C244.112 216.06 243.571 214.694 243.144 213.617L243.144 213.616C242.94 213.101 242.762 212.652 242.668 212.383C237.23 196.764 232.271 182.816 226.641 167.267C224.831 162.267 222.76 157.361 220.69 152.455C219.719 150.155 218.748 147.856 217.804 145.546C217.763 145.446 217.719 145.345 217.676 145.243C217.643 145.167 217.611 145.091 217.579 145.015C216.818 143.229 218.945 142.34 220.309 143.718C222.232 145.659 225.345 149.415 225.854 150.129C227.063 147.262 228.08 144.724 229.034 142.345L229.034 142.345C231.025 137.377 232.736 133.106 235.329 127.994C239.237 120.29 242.908 113.796 249.485 104.467ZM327.588 95.6135C329.941 95.8001 332.329 95.9519 334.709 96.1031C339.058 96.3794 343.382 96.6541 347.422 97.1375C357.675 98.3652 367.91 99.7771 378.123 101.315C387.002 102.653 393.47 107.571 397.572 115.541C398.893 118.108 400.215 120.674 401.538 123.241C407.796 135.384 414.053 147.528 420.149 159.752C421.389 162.24 422.634 164.727 423.878 167.214L423.89 167.237C430.537 180.518 437.186 193.805 443.238 207.356C449.544 221.478 454.388 236.149 455.648 251.819C456.828 266.488 455.213 280.597 448.127 293.639C441.32 306.168 431.607 315.36 417.014 317.841C408.286 319.325 399.562 318.465 391.265 315.456C390.746 315.268 390.227 315.08 389.707 314.892L389.707 314.891C381.019 311.746 372.275 308.58 364.061 304.426C348.853 296.735 333.838 288.659 318.824 280.582L318.822 280.582L318.821 280.581C314.492 278.252 310.163 275.923 305.829 273.604C305.719 273.545 305.612 273.488 305.507 273.432C302.991 272.084 301.724 271.405 300.572 271.563C299.403 271.724 298.353 272.745 296.238 274.802L296.217 274.822C282.375 288.278 268.003 301.098 251.293 310.947C241.744 316.576 232.003 321.869 220.986 324.157C212.511 325.917 204.419 324.977 196.733 320.817C188.864 316.559 182.788 310.458 178.01 302.953C170.254 290.767 166.043 277.296 163.749 263.158C159.557 237.329 159.435 211.305 160.713 185.278C161.391 171.469 163.13 157.727 166.871 144.335C166.955 144.033 167.024 143.727 167.094 143.421L167.127 143.273C170.997 126.285 180.955 115.574 198.117 111.063C213.768 106.951 229.556 103.846 245.528 101.522C245.853 101.475 246.305 101.417 246.822 101.35L246.822 101.35C248.922 101.079 252.081 100.671 252.039 100.326C251.964 99.6967 251.875 99.291 251.8 98.9511L251.8 98.951C251.654 98.2843 251.563 97.8715 251.742 96.5237C251.922 95.1729 254.408 93.7109 255.951 93.1271C261.533 91.0162 267.204 89.0896 272.952 87.4925C276.127 86.6103 277.132 87.4073 278.116 90.6778C278.669 92.5154 279.103 94.3883 279.538 96.2618L279.538 96.2619C279.884 97.7573 280.231 99.253 280.638 100.731C282.332 106.885 284.048 113.033 285.763 119.181L285.764 119.183C287.322 124.769 288.881 130.356 290.424 135.946C291.093 138.372 292.291 140.774 293.009 140.702C296.552 140.346 305.362 139.352 305.143 138.398C305.502 138.037 305.146 133.987 304.956 132.066C304.711 129.582 304.375 127.105 304.039 124.629C303.592 121.333 303.145 118.038 302.912 114.726C302.316 106.204 302.035 97.6552 301.8 89.1127C301.689 85.0782 302.893 83.6442 306.62 83.2016C312.676 82.4837 318.55 83.7894 324.323 85.4387C326.415 86.0365 327.433 87.7899 327.599 90.0159C327.628 90.4089 327.671 90.7952 327.714 91.1825L327.714 91.1829C327.864 92.5371 328.015 93.9037 327.588 95.6135ZM275.325 194.53C275.22 194.546 275.115 194.593 275.022 194.643C274.23 195.057 273.993 195.207 273.911 196.48C273.854 197.366 275.493 197.889 275.907 197.916C276.02 197.924 276.17 197.9 276.338 197.847C277.624 197.446 277.801 195.706 276.694 194.938C276.247 194.629 275.75 194.466 275.325 194.53ZM275.714 201.376C272.936 201.43 270.847 199.447 270.773 196.684C270.701 193.968 272.872 191.268 275.121 191.276C277.67 191.285 280.659 193.874 280.837 196.227C281.047 199.023 278.767 201.316 275.714 201.376ZM280.253 165.649C280.075 165.688 279.882 165.709 279.707 165.655C277.738 165.046 277.7 163.808 278.067 162.849C278.134 162.676 278.549 162.099 279.344 161.972C280.95 161.714 281.994 163.352 282.109 163.936C282.257 164.698 281.425 165.397 280.253 165.649ZM279.709 168.753C282.491 168.95 284.76 167.024 284.829 164.411C284.903 161.619 282.215 159.256 279.015 159.298C276.525 159.331 274.79 161.247 274.862 163.884C274.932 166.448 277.04 168.565 279.709 168.753Z" fill="black"/></g></g><g id="Face" transform="translate(324 111) scale(1 1)"><g id="Face/Sunglasses"><path id="Stroke" fill-rule="evenodd" clip-rule="evenodd" d="M35.8973 14.6801C34.7013 14.5141 33.4873 14.5151 32.2923 14.6871L27.7873 15.0701C27.6739 15.5234 27.5656 15.9821 27.4567 16.4429C26.9282 18.6809 26.3878 20.9691 25.2003 22.9361C23.8553 25.1611 21.9783 27.3631 19.4853 28.0071C17.5203 28.5151 15.0933 28.6461 13.4293 27.0661C12.3993 26.0891 11.4523 24.8931 10.8553 23.6141C9.17325 20.0111 9.09425 16.1561 10.1463 12.4151C11.8153 6.4781 18.2623 4.4861 24.3713 8.1621C25.7713 9.0041 26.8553 10.0991 27.7253 11.8091C27.9048 12.1632 29.5697 11.9866 31.3334 11.7994C32.0948 11.7187 32.8746 11.6359 33.5613 11.5931C34.9543 11.5061 38.4773 10.8941 38.4773 10.8941C38.8505 10.4066 38.9931 10.103 39.1358 9.79889C39.2719 9.50912 39.4081 9.21899 39.7443 8.7691C43.6193 3.5791 49.6323 6.4181 51.9143 11.2681C54.0273 15.7591 52.1863 23.1871 48.1303 26.1251C47.0003 26.9441 45.5343 27.5671 44.1593 27.7201C42.7873 27.8741 41.2983 27.7301 41.2983 27.7301C40.414 28.2546 39.0932 29.7625 38.1713 30.815C37.9963 31.0147 37.8358 31.198 37.6953 31.3551C36.6173 32.5621 35.3433 33.6081 34.0633 34.6051C33.7763 34.8281 32.9123 34.7151 32.6423 34.4381C32.3633 34.1501 32.2523 33.3221 32.4693 32.9951C33.3643 31.6401 34.3693 30.3481 35.4133 29.1001C36.022 28.3719 36.6577 27.6642 37.2932 26.9569C38.3601 25.7692 39.4263 24.5824 40.3633 23.3001C41.3023 22.0161 41.9683 20.4571 42.4303 18.9231C42.9033 17.3491 42.1353 15.9301 40.5263 15.5031C39.0638 15.1164 37.5525 14.9082 36.0415 14.7L35.8973 14.6801ZM16.4812 39.8989C16.4122 39.8949 16.3422 39.8889 16.2732 39.8829C15.4759 39.8104 14.6944 39.6252 13.9153 39.4407C13.6741 39.3836 13.4332 39.3265 13.1922 39.2729C11.9842 39.0039 10.7802 38.7159 9.59116 38.3699C7.28816 37.7009 5.38315 36.3139 4.17215 34.2059C3.75815 33.4869 3.31815 32.2939 3.63415 31.7429C4.24906 30.6707 5.11738 31.144 5.91266 31.5774C6.08609 31.672 6.25605 31.7646 6.41915 31.8389C10.3322 33.6229 14.2422 35.4149 18.1072 37.2999C18.1792 37.3339 18.2452 37.3809 18.3072 37.4359C18.7252 37.8069 19.4272 38.4659 19.2262 39.0989C18.9312 40.0349 17.2252 39.9479 16.4812 39.8989ZM13.0522 42.3459C15.4962 42.9659 18.0602 43.0899 20.5192 42.5319C20.9172 42.4419 21.2972 42.3319 21.6642 42.1889C24.4792 41.0909 24.8802 38.0419 22.5762 36.1529C21.8892 35.5899 21.0772 35.1499 20.2692 34.7659C15.9524 32.7195 11.6232 30.6983 7.29361 28.6769C6.88812 28.4876 6.48263 28.2982 6.07715 28.1089C4.85415 27.5379 3.57315 26.9769 2.08915 27.6179C0.553155 28.2809 -0.241845 29.9889 0.0651547 31.6339C0.830155 35.7379 3.04815 38.9499 6.97615 40.4999C8.97816 41.2889 11.0722 41.8439 13.0522 42.3459Z" fill="black"/></g></g></g></g></g></svg>