<svg width="509" height="401" viewBox="0 0 509 401" fill="none" xmlns="http://www.w3.org/2000/svg">
<path fill-rule="evenodd" clip-rule="evenodd" d="M128.728 222.836C131.587 244.279 134.446 265.722 137.306 287.164L139.615 304.48C139.906 306.666 139.631 310.976 140.741 312.932C141.133 313.622 142.164 313.949 142.922 314.356C145.531 315.757 148.141 317.158 150.75 318.558C172.819 330.406 194.889 342.254 216.958 354.102C238.139 365.473 259.319 376.844 280.499 388.214C282.691 389.391 286.236 392.461 288.602 391.652C290.852 390.883 293.15 388.987 295.192 387.791C299.112 385.494 303.031 383.197 306.951 380.9C330.67 367.001 354.387 353.102 378.106 339.203C387.892 333.469 397.677 327.734 407.463 322C410.14 320.431 412.818 318.862 415.496 317.293C416.896 316.472 417.078 316.501 417.629 315.108C419.69 309.901 420.644 303.936 422.102 298.533C423.709 292.579 425.316 286.625 426.923 280.671C427.639 278.014 427.303 277.671 426.134 275.106C423.822 270.03 421.509 264.954 419.197 259.878C414.064 248.612 408.932 237.346 403.799 226.08C401.723 221.524 396.723 218.319 393.124 214.968L337.237 162.939C335.818 161.618 334.398 160.296 332.979 158.975C332.745 166.917 331.175 175.456 333.477 183.129C337.256 195.721 341.033 208.313 344.811 220.905C346.637 226.992 348.463 233.078 350.289 239.164C350.628 240.295 352.694 244.779 352.142 245.774C351.836 246.325 349.227 246.883 348.662 247.098C346.234 248.021 343.807 248.945 341.379 249.868C334.615 252.441 327.851 255.015 321.087 257.587C315.004 259.902 308.92 262.216 302.837 264.53C300.774 265.315 298.351 266.768 296.172 266.647C294.223 266.539 292.007 265.574 290.121 265.088C286.806 264.235 283.49 263.38 280.174 262.526C273.661 260.849 267.147 259.172 260.634 257.494C253.306 255.606 247.118 250.063 240.851 245.96C230.08 238.908 219.308 231.855 208.537 224.803C206.071 223.189 206.062 222.268 205.079 219.32C202.871 212.695 200.662 206.07 198.454 199.446C197.275 195.909 195.824 192.357 194.934 188.735C193.465 182.759 192.594 176.572 191.43 170.529C191.08 168.706 190.728 166.883 190.378 165.059C185.867 166.89 181.356 168.721 176.844 170.552C176.19 170.817 173.004 171.608 172.721 172.258C172.542 172.669 173.489 174.533 173.625 174.934C177.365 186.011 181.106 197.088 184.847 208.165C186.023 211.65 187.2 215.134 188.376 218.619C185.565 214.201 182.753 209.782 179.941 205.364C177.732 212.795 175.523 220.225 173.313 227.656C168.092 221.631 162.87 215.606 157.648 209.582C155.841 215.606 154.033 221.631 152.226 227.656C146.602 220.225 140.979 212.795 135.355 205.364C134.687 209.242 134.018 213.119 133.35 216.997C133.148 218.167 133.188 221.525 132.409 222.451C131.767 223.214 129.92 222.836 128.728 222.836Z" fill="#FF5678"/>
<path fill-rule="evenodd" clip-rule="evenodd" d="M148.014 6.71362C162.491 5.27553 177.496 9.34277 189.918 16.6687C203.259 24.5363 215.659 33.8143 227.585 43.6898L228.913 44.7932C234.227 49.2283 239.568 53.9298 244.105 59.1262C249.313 65.0906 253.696 72.1557 258.276 78.6243C259.553 75.421 261.231 72.3924 263.037 69.4596L263.162 69.2663C264.319 67.5403 267.856 63.7706 267.215 61.9891C266.78 60.7805 265.201 60.8745 264.278 60.2046C263.112 59.3569 262.344 57.9628 261.709 56.7037C260.242 53.7895 259.593 50.5188 260.187 47.289C261.162 41.9909 265.024 37.9014 270.007 36.041C275.724 33.9058 280.983 36.0349 284.871 40.4763C285.714 35.8162 285.916 30.7784 288.124 26.4901C290.345 22.1747 294 18.4111 297.901 15.5879C298.216 16.256 298.9 17.0609 299.52 16.6651C300.09 16.3006 299.159 15.7072 299.261 15.4843C299.668 14.6079 299.781 14.6639 300.471 14.2376L300.673 14.1083C303.277 12.4016 305.846 12.4332 308.716 11.5855L309.025 11.4912C316.519 9.12287 325.287 9.85848 332.806 11.9117C340.261 13.9468 346.347 17.9273 351.951 23.1356C352.948 24.0622 354.394 25.005 355.028 26.2395C355.533 27.2239 355.261 28.215 355.995 28.962C356.337 29.3108 357.082 28.8096 357.519 29.1072C358.281 29.6259 358.066 30.4248 358.422 31.1483C359.043 32.4117 359.653 32.9039 359.004 34.3691C359.695 34.6059 360.41 34.4312 360.918 33.907C361.264 34.9854 362.482 36.1265 362.55 37.2495C362.593 37.9725 361.526 39.4346 361.83 39.91C363.991 39.2961 363.728 41.9319 363.983 43.6031C364.307 45.737 365.322 47.9149 365.3 50.082C365.28 51.9924 365.022 53.2672 365.461 55.1776L365.586 55.7289C365.95 57.3586 366.194 58.7905 365.884 60.5191C364.253 59.9365 365.276 61.4896 364.949 62.3933C364.294 64.1971 363.86 62.4548 362.442 63.347C366.188 63.5326 365.751 65.8509 365.639 69.0494L365.306 70.375C365.292 70.4362 365.286 70.4684 365.291 70.4575L365.281 70.4911C364.78 72.2125 364.752 82.4306 361.085 79.08L360.972 78.9731L361.675 82.9259L361.441 82.801C359.838 81.9649 360.569 82.8657 359.919 83.6853L359.872 83.741C359.555 84.1031 359.489 84.4863 359.054 84.8243C358.61 85.1683 357.91 84.9647 357.494 85.3707C355.657 87.1648 357.156 89.7054 354.369 91.0333C351.051 92.6153 348.372 94.445 345.366 96.5928C344.969 96.8766 344.556 97.2368 344.128 97.4646L343.834 97.6495C343.476 98.4165 343.121 98.5339 342.768 98.0026C342.546 97.6079 342.298 97.5868 342.025 97.9403L341.973 98.011L341.426 98.4653C340.834 98.596 340.35 99.4635 339.751 98.6273L339.874 98.4719C340.722 97.4306 342.131 96.2893 341.074 94.8824C340.24 97.5592 335.553 96.4572 333.573 96.5362C330.266 96.6681 328.268 97.5983 325.381 95.4078C324.374 94.6444 323.262 93.1238 321.848 93.3841C320.543 93.6239 319.185 95.3794 318.18 96.1108C315.31 98.2002 311.664 99.5931 309.423 102.449C325.946 106.049 342.45 110.277 358.127 116.704C371.853 122.331 384.828 130.099 397.356 137.992C409.914 145.904 422.254 154.885 433.166 164.948C438.729 170.078 444.584 175.061 449.709 180.637C454.167 185.488 458.038 190.901 461.944 196.205L462.53 197C470.897 208.318 478.725 220.432 482.711 234.056C480.723 234.439 471.381 234.175 471.318 237.166C469.269 234.601 464.898 235.596 462.05 235.324L459.6 235.09C456.731 234.814 453.833 234.513 451.009 234.085C443.904 233.008 436.864 230.448 430.447 227.216L429.914 226.945C424.658 224.253 416.446 219.601 414.628 213.476C413.699 210.348 416.085 207.649 418.075 205.534C419.36 204.168 422.638 201.781 422.092 199.552C423.625 200.334 423.884 199.066 425.024 198.301C426.17 197.53 427.421 197.151 428.721 196.268C431.542 194.352 434.394 193.106 437.344 191.533C438.19 191.082 438.791 190.271 439.357 189.751C439.683 189.452 439.405 189.028 440.194 188.669C440.742 188.42 441.308 188.783 441.849 188.684C444.045 188.285 444.949 185.992 443.342 184.196C440.827 181.384 434.318 186.19 431.773 187.469C426.082 190.331 420.719 193.882 415.969 198.134L415.497 198.561C411.657 202.071 408.149 206.221 407.167 211.474C406.142 216.96 409.562 221.86 413.243 225.606C414.954 227.349 417.013 228.912 419.263 229.887C420.513 230.428 421.269 230.562 422.309 231.409C423.379 232.28 424.162 233.112 425.404 233.814C431.233 237.108 437.787 239.362 444.268 240.959C450.577 242.513 457.724 243.936 464.249 243.43C466.01 243.293 468.733 244.008 470.395 243.425C473.18 242.448 471.149 240.222 470.328 238.504C471.207 238.703 471.937 239.303 472.313 240.12C472.959 239.615 473.678 239.154 474.206 238.515L474.58 238.986C474.812 239.276 475.03 239.526 475.359 239.792C475.632 240.012 476.331 239.495 476.506 239.641C477.732 240.667 477.109 242.011 479.258 242.486C479.039 240.609 481.652 241.982 482.373 242.395C482.524 241.831 482.493 241.278 482.281 240.733L482.54 241.013C483.435 241.96 483.425 241.683 484.291 240.668C484.376 242.502 486.513 241.658 487.471 242.696C488.473 243.781 488.241 246.088 488.468 247.407C489.387 252.73 490.978 257.577 490.737 263.08C490.17 276.042 491.341 288.922 487.646 301.566C486.381 305.898 483.95 311.012 479.813 313.301C474.8 316.075 471.837 311.186 469.749 307.303L469.197 308.443C465.685 315.738 461.783 324.407 455.293 329.383C451.744 332.105 447.815 331.142 445.751 327.169C444.952 325.63 444.486 323.968 444.47 322.244C444.457 320.893 445.117 318.851 444.249 317.632C440.75 324.317 437.061 330.633 432.369 336.528L431.239 337.931C427.313 342.836 423.693 347.95 418.397 351.511L418.127 351.691C415.587 353.363 412.672 354.735 410.045 352.371C407.845 350.39 407.009 347.039 406.808 344.202C406.307 337.162 409.078 330.336 410.705 323.612C399.274 329.103 389.397 337.167 378.752 343.954C359.864 355.996 339.668 365.888 320.447 377.391L318.59 378.509C313.623 381.52 308.496 384.279 303.742 387.627C299.729 390.455 295.08 395.379 290.283 396.73C288.165 397.325 286.399 396.056 284.528 395.207C282.402 394.243 280.187 393.397 277.976 392.644C275.513 391.804 273.069 391.561 270.527 391.201L269.215 391.01C267.765 390.785 266.302 390.413 265.794 388.831L265.322 389.147C264.708 389.547 264.136 389.833 263.347 389.667C262.941 389.332 262.691 388.899 262.596 388.368L261.642 388.741C259.879 388.666 259.685 388.388 257.96 387.833C256.865 387.482 255.581 387.638 254.552 387.458C253.917 387.347 253.804 387.07 253.09 387.015C251.696 386.911 250.869 388.073 249.813 386.489C249.031 387.329 246.969 386.648 245.807 386.336C244.856 386.081 244.493 385.728 243.771 385.198L243.417 384.941C242.622 384.357 242.977 384.52 242.157 384.531C242.014 384.533 240.832 385.075 240.41 385.117L240.084 385.145C239.384 385.194 238.738 385.156 238.156 384.79C237.41 384.322 237.564 383.426 236.397 383.243C235.721 383.138 235.173 383.757 234.578 383.705C233.653 383.626 233.952 383.466 233.162 383.056C233.192 382.258 232.961 381.983 232.469 382.229C232.081 382.312 231.691 382.381 231.298 382.437C230.808 382.347 230.247 382.716 229.742 382.56C228.789 382.266 228.562 381.258 227.674 380.974C227.109 380.794 226.468 380.884 225.827 381.047L225.645 381.095L225.24 381.785C225.222 381.678 225.206 381.577 225.191 381.48L225.158 381.236L224.612 381.399C223.206 381.803 222.069 381.918 222.154 379.303L222.161 379.139C221.848 379.385 221.518 379.471 221.169 379.398C220.931 378.287 222.095 377.942 220.775 377.03L220.565 377.256C218.868 379.054 219.22 377.689 217.705 377.23C217.148 377.061 214.198 377.598 213.704 378.139C214.134 377.202 213.189 374.191 211.946 374.12C210.39 374.03 211.042 376.494 210.762 377.478C210.086 376.765 209.089 376.069 208.604 375.194C208.474 374.959 208.913 374.312 208.785 374.132C207.77 372.702 207.045 373.229 205.943 374.219C206.282 374.498 206.661 374.705 207.078 374.84C206.949 375.106 205.04 374.329 204.795 374.244C204.408 374.161 204.045 374.245 203.707 374.497L203.379 373.694C203.199 373.533 203.174 372.629 203.078 372.38L202.971 372.429C202.401 372.704 200.901 373.627 200.523 373.033L200.993 372.574C201.703 371.865 201.72 371.66 200.608 370.881L199.226 370.699C198.902 370.647 198.673 369.984 198.353 369.807L198.335 370.248C198.311 370.972 198.335 371.838 198.749 372.394C198.119 372.005 197.506 371.34 196.797 371.095C196.389 370.954 195.599 371.224 195.262 370.992C193.958 370.096 194.979 368.359 193.507 367.451L193.395 367.959C193.281 368.496 193.129 369.271 193.192 369.303L193.07 369.237C192.593 368.972 191.66 368.353 191.631 368.408C191.786 368.109 191.732 367.426 191.673 367.103C190.628 367.321 189.715 367.92 188.795 368.425C189.207 367.608 190.631 365.559 189.962 364.63C188.911 363.166 188.308 365.134 188.116 366.076L187.805 365.171C187.303 363.758 187.205 364.092 185.29 364.405L185.162 364.425C183.943 364.616 181.996 364.746 180.949 363.895C180.381 363.432 180.023 362.474 179.481 361.922C178.692 361.117 178.057 361.158 177.678 359.892C177.346 360.721 175.438 361.626 174.592 361.276C173.348 360.761 173.725 359.186 173.672 358.077L173.438 358.396C172.872 359.146 171.905 360.243 171.787 358.603C171.17 359.631 162.289 358.337 161.909 357.172C162.155 357.147 162.366 357.112 162.548 357.067L162.6 357.053L162.566 356.901C162.408 356.132 162.164 354.157 161.357 354.123L161.274 354.126C161.296 354.605 161.826 356.79 161.053 356.963L160.827 356.401C160.458 355.512 159.964 354.56 158.922 354.413C158.218 354.314 157.263 355.313 156.628 355.062C155.552 354.636 156.165 352.609 154.581 354.306C153.388 352.213 150.513 352.914 148.508 352.386L147.854 352.214C147.018 351.989 146.078 351.701 145.421 351.245C144.953 350.922 144.281 349.796 143.901 349.61C142.744 349.041 141.474 349.305 140.354 348.548C140.274 348.159 140.103 347.817 139.843 347.52C139.381 347.485 138.918 347.475 138.456 347.488C137.61 346.839 137.503 345.761 136.884 344.945L136.838 345.1C136.489 346.346 136.414 348.149 134.62 347.25C134.124 347.002 134.307 346.114 133.903 345.821C133.146 345.275 133.011 345.529 132.08 345.41L131.439 345.331C127.892 344.905 123.986 344.601 120.845 342.558C119.725 341.829 119.11 340.483 118.001 340.18C117.759 340.114 117.279 340.965 116.956 340.926C116.406 340.859 116.205 340.147 115.66 339.88C115.341 339.723 114.418 339.854 113.91 339.745C113.106 339.572 112.084 339.233 111.388 338.76C110.183 337.941 109.961 336.872 109.38 335.599C108.886 336.161 108.91 336.984 108.773 337.668C107.338 337.192 104.369 333.622 103.308 336.287C102.603 335.658 101.874 334.43 100.895 334.198C100.262 334.049 100.356 334.69 100.071 334.703C99.3335 334.739 98.6345 334.749 97.8639 334.618C96.6776 334.418 96.1389 333.794 95.1912 333.474C94.1254 333.113 93.7873 333.132 92.6552 332.718C91.9003 332.441 91.3225 331.677 90.5464 331.425C89.1818 330.981 88.1726 331.669 87.3399 330.272C85.992 331.925 84.4621 330.059 82.825 330.094L82.7132 330.099L83.1892 327.47C80.8927 328.668 80.7553 330.514 78.8898 327.731L78.7981 327.593V329.26C76.07 327.997 73.3888 327.978 71.2589 325.7L70.9209 327.126C70.1039 326.191 69.7382 324.98 69.0296 323.975C67.9885 324.833 69.0363 325.496 69.4568 326.295C68.1301 325.007 66.7666 325.692 65.2055 325.43C63.68 325.174 63.6426 324.43 62.8419 323.449C61.3284 321.597 58.5454 322.984 57.5717 320.522L57.1857 320.768C56.2771 321.356 55.3085 321.997 54.1772 321.833L54.6652 320.202C54.0006 320.251 53.9988 321.196 53.4457 321.339C52.8065 321.504 51.1441 320.606 50.6368 320.349C51.0453 320.03 52.1485 318.777 51.9816 318.245C51.6105 317.056 50.7754 318.969 50.6784 319.039L50.4506 319.203C49.7447 319.7 49.5388 319.723 48.7582 319.779L48.2123 319.821C47.3483 319.895 46.4066 319.549 46.212 320.741C45.0606 318.8 44.2243 318.363 42.0209 319.009C42.1511 317.527 39.8513 319.307 38.865 319.188C37.1846 318.983 37.0719 317.604 36.764 316.235C35.3433 316.845 34.6528 316.184 33.7431 316.303C33.0526 316.393 33.155 317.207 32.2525 316.887C30.986 316.437 31.6807 314.734 29.9671 314.62C30.5407 314.99 30.9125 315.606 30.9974 316.279L30.8612 316.254C30.0442 316.126 28.5087 316.171 28.7579 314.965C27.8192 316.421 26.1525 316.251 24.6226 315.928L23.2833 315.628C22.6148 315.475 22.1209 315.327 21.5392 314.881C21.0223 314.484 20.6361 313.109 19.9179 313L19.8119 313.075C19.597 313.221 19.1098 313.53 18.8707 313.513C18.3779 313.478 17.6175 313.149 17.1451 312.989C16.5956 312.803 16.1094 312.691 15.6298 312.427C15.3515 312.273 15.4696 311.686 15.1587 311.591C14.2904 311.327 13.6488 312.45 12.7625 312.192C11.7762 311.906 11.6406 310.357 11.3056 309.578C8.80459 310.931 7.17902 308.346 6.45902 306.248C5.54682 303.593 7.23566 302.431 8.13099 300.097L7.62583 300.422C6.60104 301.066 5.16527 301.834 4.11165 301.196C2.55717 300.253 3.4049 298.783 4.37494 297.954C6.53915 296.102 10.8543 295.489 13.5072 294.809C18.2899 293.583 23.2245 292.022 28.0078 291.066C28.8061 290.907 28.6832 291.146 29.5821 290.799C30.1184 290.592 30.6221 290.052 31.1818 289.811C33.2725 288.909 35.7868 288.51 37.9751 287.947C47.6357 285.465 57.9368 283.298 67.8752 282.421C70.5697 282.184 73.3544 282.211 76.023 281.913C78.1082 281.681 80.0947 280.879 82.1764 280.564C85.1666 280.111 88.2039 279.844 91.2152 279.565C93.4674 279.355 95.7355 279.68 97.9725 279.594L98.4529 279.568L98.4252 279.565C97.3443 279.387 99.9587 277.276 100.473 279.67L100.495 279.782C101.247 277.268 104.935 277.771 106.905 277.827C108.245 277.866 109.383 277.592 110.547 277.402C111.507 277.246 112.773 277.231 114.002 277.062L114.935 276.92C117.815 276.496 128.329 275.134 127.835 277.739L128.261 277.571C130.593 276.677 131.539 276.636 131.194 273.782L131.172 273.611C130.683 269.942 130.324 266.279 130.016 262.584C129.29 253.866 128.49 245.162 127.284 236.494L127.194 235.856C126.704 232.456 126.042 229.09 123.889 226.317C121.531 223.28 118.691 220.777 116.5 217.578C111.755 210.652 108.248 202.975 105.35 195.121C99.7745 180.018 94.8062 164.41 90.9068 148.79L90.4966 147.147C89.6087 143.577 88.7429 139.961 88.2123 136.333C87.6701 132.623 87.8056 129.019 86.8724 125.356C84.913 117.662 84.3087 109.833 84.6238 101.9C85.6722 75.4933 96.4041 47.2191 113.926 27.3817L114.475 26.7644C123.474 16.7098 134.152 8.09105 148.014 6.71362ZM331.498 200.877C328.051 193.933 312.492 203.631 308.5 205.984L308.383 206.053C299.553 211.228 291.299 217.442 283.75 224.346C277.262 230.282 271.419 236.927 266.154 243.965C264.674 245.945 263.247 247.966 261.904 250.042C260.843 251.682 260.021 253.917 258.77 255.379C256.739 257.757 253.171 255.443 250.493 254.623C242.218 252.086 233.825 248.314 226.259 244.107C222.439 241.981 218.893 239.339 214.879 237.566C212.139 236.356 209.398 235.987 206.885 234.341C202.867 231.711 198.614 229.67 194.673 226.846C191.497 224.569 188.101 222.588 185.004 220.203C183.213 218.824 181.139 215.817 179.008 215.092C176.733 214.318 177.637 216.946 177.84 218.676L177.883 219.097C178.241 222.924 178.643 234.28 172.297 231.968C169.19 230.837 166.437 227.702 164.414 225.175C162.197 222.407 161.388 218.525 158.718 216.143L158.662 217.356C158.48 221.862 158.222 230.198 152.889 230.327C149.118 230.418 145.619 226.56 143.572 223.84C140.793 220.149 138.905 215.904 136.722 211.859C136.259 216.135 135.986 220.473 135.295 224.721C134.704 228.358 133.577 231.254 134.137 234.993C135.38 243.286 136.383 251.591 137.282 259.927L138.306 269.485C139.512 280.66 140.816 291.893 142.818 302.911L143.109 304.483C143.538 306.767 144.172 308.963 146.388 310.045C147.478 310.577 148.73 310.661 149.833 311.162C151.176 311.772 152.168 312.803 153.344 313.666C155.966 315.59 159.059 316.546 161.987 317.88C164.773 319.148 167.175 321.043 169.887 322.439C176.016 325.593 182.066 328.372 187.909 332.081C193.4 335.567 198.871 339.142 204.438 342.505L210.041 345.893C219.841 351.816 229.635 357.661 239.882 362.843C252.155 369.051 264.807 374.728 277.423 380.197C280.549 381.552 283.736 382.811 286.795 384.314L287.097 384.464C289.388 385.62 291.104 386.769 293.555 385.208C296.01 383.643 297.875 381.176 300.208 379.418C302.835 377.439 305.553 375.57 308.289 373.745C319.675 366.149 331.348 358.635 343.5 352.32L348.69 349.624C359.471 344.016 370.062 338.403 380.343 331.748C386.202 327.955 392.088 324.196 398.085 320.623C400.049 319.453 402.011 318.278 403.969 317.098L407.114 315.198C408.95 314.111 410.989 313.293 412.344 315.582L412.869 316.415C416.37 308.014 419.227 299.157 421.899 290.46C423.051 286.711 422.127 283.792 420.511 280.358C418.755 276.628 417.238 272.8 415.556 269.036C412.023 261.129 407.126 253.917 403.445 246.176C402.741 244.693 402.034 244.85 401.327 243.555C401.014 242.983 401.124 242.169 400.758 241.594C400.477 241.154 399.936 241.458 399.693 241.078C398.823 239.715 399.572 235.569 396.701 236.893L397.13 234.863C396.476 234.78 395.333 234.935 394.908 234.284C394.664 233.911 395.514 233.626 395.503 233.349C395.439 231.753 394.946 230.651 393.483 230.38C393.257 230.624 392.985 230.781 392.666 230.854C392.31 230.744 391.984 230.58 391.688 230.361C390.784 230.154 389.972 229.607 388.978 229.436C388.571 229.471 388.174 229.429 387.786 229.31C387.299 229.046 387.092 229.247 387.164 229.914C386.368 229.961 386.603 230.504 385.484 229.726L385.356 230.02C384.577 231.741 383.991 231.938 385.079 233.958C369.019 241.332 353.374 249.551 337.411 257.125C329.822 260.725 321.859 263.445 314.041 266.492C310.349 267.931 306.708 269.704 302.93 270.882L302.064 271.147C301.089 271.452 300.327 271.761 299.55 272.637C298.814 273.468 299.268 274.733 297.969 273.238L297.759 275.723C299.556 275.525 299.522 277.809 299.014 278.968C298.939 279.139 298.354 278.942 298.16 279.422C297.997 279.826 298.008 280.633 298.038 281.105L298.047 281.225C298.216 283.311 298.667 281.851 299.573 283.357C300.35 284.645 299.588 287.446 299.795 288.892C300.041 290.614 299.997 291.703 299.656 293.429C300.311 294.303 300.214 294.79 299.365 294.891C298.92 294.997 298.623 295.264 298.472 295.693C298.123 296.325 298.174 296.502 298.371 297.146C298.745 297.16 299.06 297.301 299.314 297.571C299.468 298.039 299.53 298.518 299.5 299.005C299.661 300.181 299.188 301.459 299.086 302.626C298.857 305.201 298.98 307.77 298.612 310.343C298.344 309.813 297.987 309.349 297.545 308.951C297.225 310.131 297.013 311.339 296.77 312.537C300.907 311.556 296.6 319.935 296.39 321.391C296.172 322.91 296.9 324.067 296.835 325.532C296.77 327.014 296.093 328.348 296.106 329.897C296.135 333.119 295.462 336.379 295.561 339.573L295.57 339.732C295.701 341.352 297.007 346.06 294.74 346.359C291.93 346.73 292.049 339.361 291.87 337.727C291.218 331.772 290.008 325.895 289.729 319.898C289.427 313.431 289.217 306.895 289.087 300.42C288.95 293.583 289.084 286.576 289.741 279.768C289.984 277.248 291.256 273.929 290.883 271.434C290.616 269.64 289.187 268.999 287.677 268.22C281.84 265.21 275.288 263.248 269.043 261.282C266.835 260.587 260.759 259.833 259.753 257.389C261.213 257.248 261.238 256.181 262.236 255.497C262.776 255.128 263.312 255.63 263.656 255.13C263.844 254.856 263.687 253.677 263.818 253.221C264.014 252.538 264.572 251.587 265.055 251.072C265.713 250.371 266.511 250.581 266.77 250.38C267.722 249.637 268.213 247.939 268.696 246.883C269.579 244.956 271.55 242.989 272.022 240.915L272.071 240.668L272.287 240.856C272.623 241.136 273.236 241.62 273.43 241.615L273.461 241.609C273.499 241.591 273.677 240.255 273.771 240.088C274.332 239.087 275.325 237.918 276.121 237.086C277.503 235.643 279.807 234.806 279.71 232.463C280.145 232.831 280.643 233.063 281.203 233.159C281.159 232.759 281.03 232.388 280.817 232.045C283.166 231.973 282.751 230.332 284.011 229.249C284.514 228.817 285.955 228.738 286.884 228.065C288.843 226.642 289.902 224.303 291.92 222.943C293.233 222.058 294.596 221.306 295.909 220.418L296.468 220.028C297.241 219.471 298.128 218.965 298.822 218.313C299.387 217.78 299.722 216.845 300.247 216.42C300.839 215.942 300.933 216.57 301.542 216.3C302.357 215.938 303.453 215.36 304.146 214.799C305.297 213.866 306.28 210.993 306.97 213.202L307.517 211.177L308.737 211.167C309.162 210.816 309.433 210.289 309.879 209.964C311.1 209.075 312.756 208.896 314.096 208.163L314.658 207.851C315.914 207.147 317.383 206.266 318.397 205.489C319.075 204.97 319.859 203.804 320.754 203.636C320.033 205.574 323.113 203.375 323.71 203.055C326.157 201.745 328.637 200.699 331.498 200.877ZM225.992 380.505C226.149 380.112 224.969 378.874 225.13 380.946L225.158 381.236L225.486 381.139L225.645 381.095L225.992 380.505ZM213.778 372.396L213.768 372.532C213.707 373.145 213.465 374.286 214.209 374.509L215.207 374.37C214.785 373.674 214.286 373.029 213.778 372.396ZM184.319 360.85L181.912 362.199L182.285 362.339C183.356 362.727 183.439 362.564 184.319 360.85ZM163.27 353.367C161.722 354.059 163.89 356.143 162.811 356.975L162.776 356.999L162.843 356.975C164.227 356.444 163.187 355.084 163.264 353.47L163.27 353.367ZM482.866 245.038C477.52 254.756 469.587 262.921 460.787 269.558C458.747 271.096 456.689 272.159 454.484 273.421C452.55 274.529 450.959 276.124 449.111 277.359C444.611 280.367 439.629 282.978 434.785 285.398C432.94 286.32 430.326 286.916 428.672 288.169C426.831 289.564 426.484 291.8 426.045 293.959C425.056 298.832 423.851 303.558 422.401 308.306L422.086 309.323C420.251 315.193 418.547 321.101 416.677 326.959L415.906 329.372C414.42 334.056 413.035 338.848 413.035 343.783C415.92 343.494 418.23 340.355 420.102 338.304L420.367 338.019C423.434 334.773 425.966 331.306 428.31 327.511C432.971 319.968 437.205 312.279 441.344 304.443C442.71 301.858 444.585 296.054 447.478 294.753C450.446 293.418 452.171 297.579 452.74 299.858C454.41 306.543 451.926 313.605 451.014 320.219C457.978 315.143 461.225 305.99 464.358 298.32C465.255 296.123 466.209 293.944 467.061 291.73C467.637 290.233 468.025 287.862 469.497 286.902C472.386 285.018 474.076 289.574 474.579 291.66C475.518 295.558 474.57 299.374 474.901 303.227C475.238 307.152 478.258 302.69 479.15 301.258C484.674 292.383 484.455 279.28 484.771 269.187C484.901 265.062 485.14 260.909 485.01 256.783C484.883 252.757 483.733 248.942 482.866 245.038ZM100.359 330.251C98.5002 329.011 98.9756 330.747 99.5865 330.731L100.359 330.251ZM84.9033 328.485C85.3998 327.1 85.069 326.636 83.9104 327.094C83.7411 328.234 84.0725 328.697 84.9033 328.485ZM295.595 327.461L295.84 325.94L293.67 326.486L295.595 327.461ZM74.7908 324.459C74.1082 324.915 73.3551 325.144 73.5677 326.16L73.863 326.068C74.7227 325.793 74.7286 325.679 74.7908 324.459ZM57.0215 321.125C57.3179 322.731 58.6344 323.108 60.0334 323.391C60.8354 323.553 61.1258 323.853 61.5234 324.554L56.413 323.397L57.0215 321.125ZM42.315 316.133L42.2274 316.016C42.017 315.749 41.5145 315.16 41.3509 315.345C40.9298 315.82 41.9107 317.875 42.1029 318.312C42.3662 316.425 43.8972 317.549 45.0461 317.801L46.0228 317.28C45.054 316.554 43.3206 314.099 42.315 316.133ZM34.0055 317.403C33.5592 316.402 34.1635 316.827 34.7047 317.296L35.3358 317.862L35.2597 317.898C34.7205 318.128 34.3178 317.994 34.0511 317.495L34.0055 317.403ZM297.832 313.183C297.137 313.344 297.583 314.488 296.626 314.13C296.675 314.148 297.025 316.145 297.09 316.377C297.774 315.394 298.081 314.374 297.832 313.183ZM294.712 311.935C293.798 312.497 293.871 313.47 294.43 314.159C295.092 313.482 294.807 312.867 294.712 311.935ZM295.994 277.609C293.214 276.055 294.02 278.135 294.791 278.04L295.994 277.609ZM433.401 118.489C436.808 115.908 439.645 120.779 441.91 122.11C441.751 122.016 442.838 122.154 443.175 122.326C443.104 122.29 444.411 123.328 444.425 123.311L444.421 123.303L444.743 123.624C445.96 124.883 446.909 126.388 448.083 127.701L448.41 128.054C449.551 129.246 450.765 130.395 451.835 131.652C453.078 133.116 453.63 134.855 454.759 136.369C456.062 138.116 457.399 139.118 458.351 141.043L458.491 141.339C459.227 142.971 460.276 143.307 461.338 144.55C462.314 145.691 462.409 147.699 463.205 148.502L464.236 149.535C465.491 150.797 466.63 152.003 467.679 153.723C468.74 155.463 470.027 156.941 471.171 158.618C472.102 159.981 472.345 161.513 473.169 162.871C473.79 163.896 474.6 164.755 475.201 165.809C475.718 166.716 476.153 167.642 476.74 168.51C476.465 169.319 476.711 169.668 477.477 169.557L478.028 169.991C478.947 171.637 479.444 173.136 480.594 174.695C481.864 176.416 482.849 178.263 483.73 180.209C484.636 182.212 485.156 184.364 486.038 186.356C486.724 187.906 488.61 189.008 487.581 190.821C490.445 190.851 487.947 191.817 488.063 192.454C488.257 193.522 489.475 193.963 489.901 194.867C490.009 195.095 490.309 196.325 490.456 196.789C490.606 197.26 490.418 200.814 490.543 200.896C491.201 201.331 491.831 200.422 492.406 200.282C492.828 201.2 494.424 202.887 494.334 203.913C494.242 204.962 492.742 205.213 493.005 206.335C493.209 207.2 497.363 208.043 495.956 210.077C495.598 210.594 494.441 210.043 494.186 210.782C493.686 212.231 496.54 212.494 497.094 213.165C498.086 214.368 497.283 216.168 497.77 217.53C498.109 218.477 499.125 219.274 499.805 220.047L499.562 220.051C497.821 220.103 498.751 220.749 499.179 221.978C499.542 223.021 499.645 224.156 499.799 225.244L499.824 225.395C500.071 226.787 501.056 228.976 499.214 228.076L500.524 229.66C501.192 230.06 501.259 230.543 500.725 231.109L500.896 232C501.126 233.145 501.357 233.726 502.573 234.462C502.115 234.997 502.721 238.225 502.871 239.272L502.894 239.441C503.104 241.248 503.688 242.97 504.058 244.745C504.863 248.613 504.044 252.709 505.371 256.48C505.902 257.988 504.973 259.564 504.185 260.781C503.029 257.825 502.967 254.572 502.711 251.45C502.434 248.054 501.74 244.768 500.868 241.479C499.523 236.406 498.204 231.747 496.257 226.887C495.006 223.765 493.647 220.69 492.359 217.583C491.446 215.379 491.35 212.825 490.023 210.946C488.511 208.804 487.183 206.259 486.365 203.673C486.128 202.927 486.207 201.789 485.84 201.13C485.63 200.751 484.782 200.352 484.679 200.099C481.628 192.591 476.581 186.017 472.53 179.053C469.206 173.336 465.363 167.96 461.848 162.355L461.1 161.151C457.204 154.81 452.912 148.802 449.02 142.469C447.456 139.924 444.521 137.074 443.752 134.155C443.472 133.094 443.659 132.76 443.275 132.08C442.692 131.049 441.808 131.555 441.978 130.03C440.31 131.309 438.304 126.847 437.653 125.924C437.05 127.131 434.257 124.268 433.72 123.688C432.468 122.336 431.609 119.846 433.401 118.489ZM325.226 220.431C323.447 220.281 321.63 221.79 320.158 222.692L320.007 222.783C317.579 224.221 315.201 225.685 312.883 227.299C308.805 230.139 304.774 233.081 301.145 236.487L300.551 237.05C296.476 240.939 286.872 250.855 292.452 255.858C296.134 259.16 304.046 258.156 306.685 253.973C307.783 255.311 310.841 254.224 311.987 253.181C312.583 252.638 312.521 251.672 312.889 251.301L313.248 250.94C313.734 250.463 313.331 250.984 314.322 250.876L314.434 250.862C315.311 250.739 315.416 251.19 316.15 250.555C316.705 250.074 316.493 249.378 317.198 248.935C317.794 248.561 318.349 249.232 318.972 248.658C319.528 248.145 319.463 247.065 319.631 246.385C320.286 246.314 320.2 247.024 320.084 247.43C321.364 246.718 321.585 246.017 320.719 244.788C322.789 245.886 325.098 243.175 325.679 241.444C325.948 240.646 326.089 238.688 324.894 238.655C324.793 238.306 325.364 237.8 325.29 237.067C325.221 236.39 324.847 235.5 324.42 234.947C323.718 234.036 322.896 233.658 321.776 233.499C319.126 233.125 316.347 234.399 313.679 234.399L317.006 232.606L315.552 232.186C315.919 231.506 317.886 231.772 318.532 231.417C319.533 230.867 319.736 229.449 321.078 229.62C322.73 229.83 323.344 229.087 323.007 227.509C324.071 227.614 324.742 226.789 325.719 226.588C326.296 226.47 326.91 226.688 327.493 226.574C328.485 226.38 331.397 225.092 332.139 224.296C333.725 222.591 331.283 222.288 330.026 222.105C328.288 221.852 326.877 220.571 325.226 220.431ZM318.031 239.363L318.094 239.366C320.477 239.626 317.497 242.101 316.355 242.991L315.328 243.774C310.618 247.35 304.021 252.212 297.989 250.8C299.34 248.36 301.816 247.428 303.841 245.71C305.275 244.494 306.624 242.16 308.847 243.177L308.82 242.909C308.623 240.705 309.407 242.727 310.355 242.328C310.941 242.081 311.799 240.6 312.281 241.285L312.325 241.356C313.106 242.758 316.879 239.378 318.031 239.363ZM482.643 238.153L482.58 238.591C482.465 239.309 482.35 239.385 481.578 239.9L481.534 239.434C481.444 238.371 481.567 238.349 482.643 238.153ZM306.465 237.982C307.171 238.523 306.133 239.249 305.761 239.481L305.271 239.807C305.371 239.051 305.827 238.388 306.465 237.982ZM362.81 237.411C364.334 236.833 359.552 236.036 359.567 236.827C359.584 237.721 362.285 237.61 362.81 237.411ZM308.683 237.376L308.574 235.036L308.639 235.049C309.216 235.148 311.634 235.27 310.44 236.21C309.87 236.622 309.285 237.012 308.683 237.376ZM379.781 218.433L380.573 220.694C379.46 220.234 378.303 219.191 377.147 220.24C378.225 221.149 376.942 221.991 376.048 222.169C375.491 222.144 374.947 222.051 374.413 221.892C373.964 222.008 373.834 222.288 374.024 222.731C374.141 223.259 373.998 223.704 373.598 224.066C373.033 224.289 372.466 224.507 371.897 224.72C371.191 225.017 370.524 225.403 369.801 225.663C367.482 226.495 365.002 226.503 362.739 227.54L362.534 227.635C360.691 228.513 358.953 229.716 357.794 227.177C356.532 228.54 355.485 230.333 353.341 230.059L353.898 231.026C354.923 232.774 356.754 235.545 358.423 234.517C360.192 233.426 362.655 233.097 364.652 232.568C366.951 231.959 369.27 231.175 371.647 230.991C373.729 230.83 374.151 230.583 375.933 229.722C377.695 228.87 379.937 228.696 381.894 228.351L382.603 228.218C384.466 227.853 390.915 226.477 389.818 224.565C389.207 223.5 385.433 224.326 385.84 222.287C386.477 222.698 387.17 222.849 387.92 222.74C387.493 221.276 386.114 219.391 384.534 219.034L384.697 219.23C385.145 219.785 386.043 221.039 385.528 221.444C384.148 222.532 384.047 219.303 383.696 218.869C383.087 219.443 383.197 220.864 382.138 220.944C381.971 220.956 380.332 218.667 379.781 218.433ZM100.716 140.453L100.548 140.4C99.2707 139.983 96.0289 138.685 95.0978 139.924C94.4266 140.817 95.2165 143.198 95.4171 144.137C96.3414 148.461 97.823 152.665 99.1973 156.86C101.385 163.538 103.175 170.345 105.34 177.034C107.757 184.502 110.282 191.958 113.437 199.151L114.165 200.791C116.708 206.575 119.184 213.633 124.526 217.349L124.559 217.197C124.88 215.544 124.714 211.01 127.323 211.688C129.495 212.251 129.561 216.971 130.086 218.685C133.744 218.047 129.814 198.518 131.103 195.355C133.385 189.755 139.043 202.327 141.146 207.349L141.931 209.263C142.773 211.274 149.964 225.198 152.648 219.664C154.6 215.638 152.664 209.091 152.002 204.725L151.928 204.226C151.619 202.274 150.76 198.281 152.213 196.796C153.423 195.561 153.847 196.705 154.691 197.555C156.004 198.877 157.481 198.932 158.038 201.14C159.283 206.076 161.037 210.162 163.782 214.453L164.953 216.259C166.944 219.314 169.454 222.88 172.96 223.791C172.96 220.062 172.896 216.311 172.69 212.588L172.651 211.973C172.49 209.569 172.239 207.007 173.878 205.025C178.018 200.02 182.714 208.703 186.418 210.345C181.451 202.876 178.831 194.15 175.375 185.947C171.539 176.842 167.251 167.943 163.607 158.754C162.631 156.292 162.071 151.544 159.442 150.304C158.143 149.69 156.072 149.855 154.705 149.69C152.596 149.436 150.488 149.175 148.382 148.899C139.952 147.794 131.592 146.321 123.213 144.896C115.671 143.613 108.057 142.662 100.716 140.453ZM459.585 205.859C458.07 202.987 452.78 204.243 450.174 204.286L450.044 204.287C445.599 204.289 441.049 204.758 437.067 206.887L436.743 207.063C433.797 208.68 429.17 211.823 431.576 215.517C433.487 218.453 437.657 219.983 440.945 221.081L441.635 221.31C443.562 221.948 449.857 223.795 451.164 222.104C452.976 223.986 456.052 222.651 457.714 222.299C457.765 222.288 458.243 222.729 458.575 222.673C459.385 222.537 459.896 221.728 460.197 221.055C460.665 220.012 460.534 217.294 460.109 216.214C459.136 213.748 455.224 212.924 452.788 212.791L452.469 212.777C451.331 212.739 449.441 212.813 449.439 214.377C449.437 215.845 451.667 216.311 452.67 216.918C451.823 218.72 440.72 214.781 439.853 213.153C440.41 213.319 441.328 212.288 441.834 212.177C442.332 212.067 443.489 212.259 444.072 212.228C447.004 212.07 449.874 212.077 452.802 212.326C457.262 212.703 461.839 213.743 466.303 213.743C465.876 212.289 465.544 210.719 464.772 209.399L464.575 209.057C464.334 208.646 464.027 208.162 463.683 207.953C463.387 207.774 462.749 208.261 462.65 208.194C461.765 207.597 460.605 203.874 459.585 205.859ZM377.15 209.908C376.787 209.926 376.491 210.639 376.449 210.636C376.213 210.619 375.694 210.935 375.383 210.932C374.778 210.926 374.416 210.197 373.92 210.275C373.158 210.395 373.448 211.201 372.847 211.427C372.385 211.601 371.922 211.477 371.702 211.502C371.479 211.528 371.13 211.071 370.507 211.322C370.167 211.459 370.263 212.3 369.834 212.489C368.112 213.25 368.005 211.918 368.209 210.728C367.641 211.501 365.89 212.717 366.595 213.859L366.476 213.827C365.446 213.527 363.495 212.549 363.851 214.476L363.622 214.318C362.381 213.452 362.121 213.028 360.61 214.027C363.469 215.417 359.315 215.535 358.255 215.568C357.935 215.578 357.008 215.504 356.794 215.549C355.989 215.718 355.542 216.45 354.882 216.634C353.12 217.126 354.038 216.007 352.567 215.874C352.853 218.903 350.148 215.882 349.253 217.656C348.683 218.788 348.551 221.099 349.351 222.163C350.262 223.376 351.413 223.055 352.812 222.825C355.927 222.313 358.327 220.017 361.392 219.5C362.384 219.333 363.218 219.769 364.1 219.715L364.783 220.168C365.063 219.801 365.397 219.492 365.785 219.239C367.394 218.436 368.894 217.812 370.652 217.38C373.898 216.582 379.105 216.833 381.686 214.466C380.259 213.762 379.022 212.902 378.092 211.583C377.898 211.306 377.681 209.883 377.15 209.908ZM192.672 208.391C192.102 209.952 193.492 211.108 191.285 210.483L191.025 210.406L191.889 211.373L192.813 212.653C190.457 213.267 194.282 215.352 195.087 215.947L195.123 215.975C196.338 216.914 198.598 219.608 200.392 219.336L200.519 219.311L197.82 208.425C196.257 211.057 194.647 209.705 192.672 208.391ZM467.053 213.15C466.103 214.1 469.194 215.187 469.404 213.814L467.053 213.15ZM364.361 198.145C363.878 198.33 363.438 199.724 362.947 200.082C362.704 200.259 361.86 200.084 361.528 200.18C360.798 200.39 360.323 201.008 359.656 201.328L359.062 201.622C358.563 201.862 358.088 202.026 357.479 201.855C357.058 201.737 357.274 200.783 356.625 200.932C355.125 201.277 355.546 203.356 353.783 203.377C352.442 203.393 351.956 201.602 350.441 202.002C351.898 202.663 351.997 204.169 350.272 204.339C349.347 204.43 348.753 203.453 347.768 203.865C347.018 204.178 347.209 205.659 346.254 205.806C344.91 206.014 345.745 204.102 345.051 203.514L344.998 203.77C344.545 206.146 344.967 209.458 347.594 209.596C349.488 209.695 352.554 208.096 354.334 207.537C356.524 206.85 358.677 206.28 360.93 205.911L361.547 205.816C362.745 205.641 369.064 205.031 369.153 203.049C369.166 202.741 368.119 202.936 368.082 202.71C368.002 202.219 368.272 202.232 368.352 201.768C368.551 200.614 370.038 200.189 368.041 199.362C368.799 201.004 365.106 200.59 365.106 199.262C365.613 199.71 365.935 199.64 366.074 199.051C365.847 198.977 364.262 198.183 364.361 198.145ZM194.552 193.657C194.115 195.37 194.905 197.793 192.768 198.573C192.49 198.675 189.368 198.482 189.372 198.497C189.597 199.185 188.393 199.817 188.314 200.577C188.239 201.31 188.943 202.768 189.322 203.421L189.374 203.508C190.709 205.726 190.885 204.691 192.466 203.868C194.317 202.905 196.759 203.566 196.565 200.59C196.479 199.273 195.556 198.224 195.237 196.992C194.966 195.945 195.433 194.467 194.552 193.657ZM163.91 200.976L166.553 203.638C165.949 204.186 164.545 203.031 163.999 202.733L163.945 202.706C163.089 202.29 163.423 201.51 163.91 200.976ZM237.075 145.503C229.633 139.742 218.487 147.549 211.965 151.691L210.952 152.336C206.803 155.007 196.178 162.337 202.149 166.597C202.59 165.393 204.093 164.629 205.109 163.898L205.238 163.803C205.622 163.515 206.476 163.075 206.722 162.63C206.885 162.333 206.722 161.724 206.861 161.405L206.887 161.359L206.886 161.365C206.936 161.505 209.424 160.349 209.342 160.425L209.334 160.431L209.479 160.352C211.397 159.249 212.993 157.518 214.775 156.192L215.111 155.949C216.568 154.923 218.087 153.99 219.616 153.074L221.327 152.054C224.504 150.178 228.626 148.02 232.38 148.734C237.7 149.747 237.081 156.511 236.36 160.555L236.336 160.691C235.378 165.974 233.533 171.214 231.225 176.056C229.054 180.606 226.304 184.853 223.243 188.851C221.814 190.717 220.337 192.597 218.72 194.303C217.733 195.344 215.386 197.075 215.727 198.788C216.153 198.685 216.449 198.431 216.616 198.025L216.784 198.269C217.736 199.702 218.057 201.044 219.9 199.184C220.505 198.574 220.908 197.733 221.524 197.096C222.415 196.175 222.638 196.514 223.315 195.243C223.762 194.406 223.8 193.766 224.423 193.048C224.73 192.695 225.411 192.499 225.8 191.999C226.787 190.729 227.865 189.389 228.856 188.082C227.06 188.082 231.248 184.312 231.767 183.494L231.886 183.292C232.595 182.023 235.024 176.899 233.198 176.611L233.559 176.06C235.137 173.634 236.085 171.93 236.832 168.899C237.553 165.973 239.085 163.939 239.132 160.816C239.174 158.011 239.444 155.338 239.128 152.593L239.062 152.078C238.767 150.002 238.949 146.953 237.075 145.503ZM334.279 199.073C333.446 198.756 331.154 197.208 330.328 198.443C329.333 199.929 331.844 199.251 332.152 199.527C332.996 200.282 333.593 199.547 334.279 199.073ZM353.963 186.203C353.599 186.598 353.27 187.575 352.875 187.835L352.13 188.325C350.916 189.136 350.524 189.577 350.62 191.455C349.957 191.121 349.123 190.226 348.378 190.151C347.567 190.07 347.461 190.789 346.931 190.804C346.95 190.804 346.663 191.561 346.385 191.66C345.789 191.874 345.16 190.477 344.828 190.247C344.161 191.259 342.574 191.326 341.596 191.852C341.581 192.447 342.27 192.658 342.304 193.187C342.33 193.602 342.043 193.618 342.038 193.896C342.021 194.782 341.553 195.982 342.37 196.98C343.408 198.247 344.806 197.727 346.08 197.168L346.524 196.972C348.389 196.153 354.152 192.155 355.738 195.052C356.521 192.917 359.084 192.45 361.071 192.838C360.137 190.585 358.684 189.333 356.353 188.894L355.675 188.769C354.284 188.502 353.66 188.228 353.963 186.203ZM211.967 170.365L211.923 170.075C211.52 167.675 210.293 166.901 208.032 168.104C205.362 169.525 202.476 171.896 200.597 174.253C199.607 175.493 199.02 176.954 198.064 178.204C197.191 179.345 196.021 179.776 197.026 181.375C195.079 179.895 193.473 183.962 191.895 184.684C189.817 185.636 185.5 185.113 183.88 186.627C182.86 187.579 183.181 189.464 184.001 190.505C185.198 192.027 186.182 191.437 187.843 191.051L189.392 190.697C192.109 190.054 194.046 189.293 193.617 185.836C195.425 186.911 197.006 186.767 198.754 185.854L198.918 185.766C199.936 185.21 201.867 184.468 202.69 183.739C203.931 182.642 203.438 181.514 204.869 180.53C206.501 179.41 208.01 178.613 209.508 177.188C210.115 176.611 209.739 176.163 210.149 175.551C210.384 175.2 211.162 175.196 211.398 174.822C212.137 173.651 212.144 171.685 211.967 170.365ZM484.652 185.059L484.417 185.365C483.83 186.146 484.041 186.101 484.464 187.129L484.542 186.937C484.863 186.19 485.276 185.674 484.652 185.059ZM343.207 177.09C340.433 176.521 338.303 181.077 338.967 183.283C340.022 186.788 347.046 182.757 349.318 182.206C347.879 181.458 348.602 179.387 347.167 178.574C346.526 178.212 345.325 178.397 344.586 178.046C344.057 177.795 343.889 177.23 343.207 177.09ZM196.387 168.704C193.123 167.822 192.057 173.317 191.607 175.284C190.705 173.588 190.852 170.56 188.894 169.607L188.743 169.54L188.482 171.353C186.999 169.943 186.762 171.612 186.114 172.554C185.036 174.123 184.205 174.381 182.608 173.97C182.189 173.985 181.792 174.088 181.418 174.278C182.004 173.183 182.342 173.13 183.544 173.339C183.068 170.204 179.717 174.518 178.097 174.393L180.187 180.03L180.821 179.763C183.35 178.681 185.819 177.515 188.601 177.363C189.592 177.309 190.865 177.909 191.681 177.675C192.631 177.402 192.141 175.605 193.386 177.537C193.953 175.994 200.051 169.693 196.387 168.704ZM202.785 176.218C202.706 176.294 202.939 177.449 201.716 177.699C201.632 177.023 201.989 176.53 202.785 176.218ZM411.671 157.256C410.062 155.697 403.741 159.201 401.864 159.877C394.589 162.495 386.955 163.771 379.414 165.357C376.113 166.051 373.49 167.49 370.362 168.599C369.122 169.038 367.851 169.016 366.636 169.431C365.706 169.749 366.074 170.321 364.938 170.082C365.401 170.179 362.727 171.738 362.851 171.283C362.4 172.936 365.678 173.245 366.857 173.211C367.566 173.191 369.007 172.796 369.804 172.65C370.82 172.464 371.551 172.639 371.851 171.361C374.918 173.609 380.567 171.706 383.895 170.94C388.349 169.915 392.938 168.567 397.272 167.118C399.098 166.507 400.943 166.014 402.781 165.47L403.699 165.192C404.573 164.922 405.928 164.656 406.63 164.04C407.271 163.478 406.4 162.673 407.645 162.218C408.779 161.804 409.877 162.846 411.138 162.356C412.897 161.671 412.932 161.096 412.818 159.666C412.832 159.839 411.501 157.09 411.671 157.256ZM334.647 167.859C334.935 168.797 334.962 170.86 335.737 171.55C336.207 171.969 338.46 172.277 338.46 171.042C338.459 169.395 335.957 168.188 334.647 167.859ZM197.509 166.239C197.703 166.048 195.016 166.549 196.074 167.667C196.556 167.194 197.033 166.718 197.509 166.239ZM163.389 69.5458C160.613 68.6144 157.605 69.1223 154.805 69.6464L154.908 69.9098C155.448 71.2608 156.11 72.4703 155.154 73.8739L155.097 73.6852C154.814 72.6829 154.863 71.7727 153.595 72.0936C152.318 72.4177 152.789 74.3956 151.62 74.9716C151.578 74.4486 151.42 73.9631 151.146 73.516C150.934 74.4547 150.746 76.7211 151.522 77.5182C152.598 78.6237 153.365 77.323 153.884 78.9274C154.074 79.5154 153.706 81.5023 153.381 82.0445C152.839 82.9482 152.78 82.4765 151.598 82.9759C150.205 83.5657 150.247 84.3146 149.175 85.3044C147.674 86.6913 145.21 87.4745 143.412 88.3981C139.249 90.538 135.007 92.4918 130.743 94.4221C122.104 98.334 113.384 101.546 104.178 103.815L103.224 104.046C101.907 104.36 90.9887 105.642 92.6631 107.47C94.8472 109.855 99.2702 110.64 101.125 107.431C102.306 108.737 103.669 107.537 104.942 107.109C106.356 106.633 106.992 106.804 108.437 106.971C109.592 107.105 110.852 107.205 112.006 106.988C113.013 106.8 113.815 105.851 114.536 105.659C114.89 105.565 115.612 106.049 116.104 105.889C116.425 105.783 116.525 105.392 116.797 105.301C118.137 104.849 119.067 104.346 120.576 104.141C123.578 103.733 125.814 101.907 126.333 98.8195C129.476 103.375 133.708 94.6414 136.348 97.2073C136.603 95.9626 138.133 96.5374 138.91 95.7066C137.885 95.1427 140.632 93.963 141.919 94.9131L141.891 94.4674C141.743 91.8491 142.133 94.0271 142.659 93.9034C145.342 93.2726 147.4 91.1586 150.238 90.6158L150.732 90.5186C152.625 90.1303 151.983 89.9867 152.147 87.5269C153.655 89.1229 152.945 91.6315 153.172 93.6239C153.5 96.5079 154.428 99.2792 154.647 102.176C154.858 104.969 154.59 107.724 155.746 110.349C156.6 112.288 157.348 114.041 158.037 116.031C158.484 117.325 159.924 118.691 160.172 119.963C160.315 120.694 159.713 121.379 159.863 122.099C160.088 123.174 161.005 123.986 161.401 125.016C162.127 126.905 162.262 128.953 163.027 130.847C163.523 132.074 165.006 134.127 164.059 135.429L162.933 134.228C163.458 135.911 164.037 138.627 164.895 140.111L165.061 140.393C165.665 141.394 165.817 141.262 166.786 140.003C167.868 142.626 170.493 143.383 170.575 146.575C170.651 149.457 169.018 150.987 166.182 150.987L167.489 153.419C168.505 155.314 169.503 157.224 170.375 159.182C171.352 161.378 172.027 163.765 173.393 165.767C174.776 167.793 175.418 167.353 177.509 166.564L177.645 166.514C180.099 165.598 182.501 164.772 185.059 164.165C186.367 163.853 187.856 163.849 188.525 162.563C189.293 161.085 188.406 157.661 188.233 156.01L188.219 155.86C187.699 149.523 186.696 143.245 185.695 136.969C183.595 123.795 183.312 110.403 181.08 97.2706L180.701 95.0465C179.897 90.3727 178.955 85.4906 177.096 81.2017C176.542 79.9226 175.893 78.6677 175.079 77.5326C174.431 76.6284 173.007 75.5843 172.819 74.4221C172.402 71.84 175.789 72.1225 176.184 70.0561C175.544 70.6682 174.478 69.7139 173.236 70.5242C171.706 71.5225 171.307 72.5063 169.232 72.1936C167.113 71.8737 165.396 70.2187 163.389 69.5458ZM199.482 165.909L198.906 163.745L198.728 164.02C198.199 164.857 198.306 164.945 199.482 165.909ZM196.928 143.749C194.612 147.455 188.63 151.779 190.821 156.771C191.579 156.195 190.48 154.91 191.038 154.594C192.61 155.355 191.524 153.652 191.978 153.389C192.117 153.308 193.345 152.95 193.204 153.128L193.631 152.58C194.811 151.049 196.264 148.984 196.778 147.204L196.837 146.983C197.121 145.836 198.061 144.789 196.928 143.749ZM301.026 36.8603C298.599 36.288 294.357 42.0102 292.778 43.6019C289.252 47.159 286.123 51.0661 282.873 54.8698L280.888 57.1809C274.265 64.9287 268.065 72.8334 262.908 81.6945C262.3 82.7379 261.774 83.7115 261.653 84.9255C261.564 85.8232 261.957 86.7606 261.657 87.6547C261.137 89.2072 259.72 89.1548 258.832 90.4712L258.585 90.8402C256.785 93.5584 254.335 97.8094 254.393 100.961C254.52 107.835 254.144 114.658 255.568 121.435C256.799 127.291 258.78 133.047 261.373 138.439L261.645 138.997C265.69 147.158 271.939 154.259 281.34 155.842C285.567 156.554 289.894 156.312 293.129 153.222C296.901 149.618 299.489 143.87 301.547 139.112L302.16 137.692C303.074 135.551 303.959 133.249 303.911 130.946C303.847 127.882 303.97 125.047 304.14 121.973C304.481 115.845 301.7 109.918 304.362 103.964C300.237 104.614 295.896 103.64 291.912 102.614C292.477 109.679 294.895 116.547 297.514 123.106L297.94 124.166C298.442 125.408 302.055 132.805 299.518 132.836C297.931 132.855 296.623 129.227 296.039 128.164C294.789 125.885 293.403 123.691 292.246 121.358C289.579 115.986 287.837 110.267 287.205 104.31L287.149 103.751C286.839 100.462 286.201 97.8248 284.473 94.9818L283.904 94.0442C282.527 91.7632 281.28 89.5399 280.709 86.8594L280.654 86.5926C280.19 84.2907 279.435 79.0509 281.138 77.3387C282.358 76.112 282.665 77.8188 283.039 79.0954C283.661 81.2179 283.783 83.4513 284.43 85.5689L284.614 86.161C284.916 87.1042 285.308 88.1222 285.98 88.8114C286.795 89.6476 287.914 89.7759 288.729 90.6091C289.669 91.5695 289.916 93.013 290.885 93.9829C291.694 94.7932 292.861 95.3035 293.917 95.6752C296.12 96.4512 298.533 96.6271 300.852 96.4982C306.358 96.1914 310.705 93.347 314.885 89.9943L315.396 89.5813C316.809 88.4306 322.449 84.9875 322.117 82.897C319.292 83.4464 316.672 78.4394 318.578 76.3211C319.666 75.1107 320.85 75.994 322.055 76.7163C322.684 77.0941 323.328 77.3429 323.784 77.9544C324.297 78.6442 324.104 79.7383 324.853 80.2769C326.738 77.4971 328.465 74.6137 330.342 71.8309L330.489 71.6202C331.718 69.898 333.701 68.1322 332.255 66.0617C330.804 63.9843 327.791 62.2788 325.688 60.7837L325.458 60.6185C322.899 58.7538 320.254 57.0242 317.637 55.2445C313.445 52.3967 309.896 48.8698 306.819 44.852C305.653 43.3302 304.598 41.78 303.639 40.1251C303.059 39.1244 302.311 37.1634 301.026 36.8603ZM230.518 118.051C228.409 116.481 225.528 117.757 223.457 118.789L223.323 118.856C217.659 121.694 212.421 125.888 208.155 130.574L207.812 130.955C204.66 134.481 200.302 138.043 198.875 142.74L198.787 143.048C198.664 143.498 198.346 147.093 199.978 145.304L200.043 144.539C200.101 143.921 200.196 143.121 200.325 142.902C200.728 142.217 201.389 141.663 202.016 141.156L202.354 140.884C204.017 139.53 205.556 138.471 206.998 136.893C207.832 135.98 208.928 135.297 209.667 134.435C209.742 134.349 210.137 133.364 210.468 132.979C211.832 131.393 213.601 130.377 215.014 128.798L215.311 128.45C216.065 127.528 216.761 127.214 217.58 126.552C217.988 126.223 218.376 125.805 218.791 125.45C218.882 125.373 219.521 125.76 219.593 125.666C219.718 125.368 219.731 125.066 219.629 124.759C219.716 124.257 220.006 124.109 220.498 124.313C220.825 123.992 221.803 123.573 222.313 123.106C223.493 122.026 224.814 121.342 226.284 120.737L227.076 120.42C228.386 119.909 230.038 119.405 230.855 120.834C231.279 121.575 230.508 124.574 231.325 124.894L231.429 124.622C232.21 122.502 232.543 119.558 230.518 118.051ZM365.903 124.845C365.473 124.593 365.129 124.693 364.87 125.145C363.35 124.976 361.841 125.259 360.372 125.635C357.613 126.341 355.022 127.58 352.392 128.655L351.243 129.119C347.566 130.624 342.595 133.052 341.147 136.866C339.523 141.144 344.044 141.887 346.967 143.23C347.321 143.572 347.718 143.856 348.158 144.078C348.454 143.995 348.709 143.839 348.922 143.61C349.789 143.745 350.302 144.345 351.224 144.616C352.554 145.009 354.305 144.757 355.725 144.803L355.987 144.816C357.488 144.911 368.399 146.374 367.798 143.495C369.698 146.78 376.543 144.203 379.217 143.516C381.172 143.013 383.214 143.137 384.64 141.853L384.802 141.704C385.905 140.672 387.788 138.666 388.357 141.386C391.39 139.533 387.058 136.743 385.157 136.502C382.772 136.198 380.305 137.399 377.989 137.899L377.723 137.954C376.367 138.214 360.578 139.822 360.827 138.086C360.834 138.041 366.336 136.765 366.963 136.607C369.683 135.923 372.491 134.892 375.251 134.434L375.65 134.373C377.509 134.109 379.268 134.061 377.976 131.548L377.85 131.311C376.979 129.728 376.782 130.665 375.223 130.717C375.001 130.24 374.642 130.035 374.146 130.101L374.045 130.118C373.456 130.208 372.882 130.354 372.323 130.558C370.974 130.957 369.63 131.429 368.299 131.883C365.751 132.753 363.248 133.732 360.916 135.089L360.423 135.38C356.698 137.596 352.996 140.204 348.756 137.33C350.123 135.428 352.858 135.243 354.762 134.141C355.646 133.629 356.503 132.561 357.533 132.336L357.809 132.428C358.069 132.513 358.443 132.622 358.598 132.601C361.236 132.249 363.625 130.814 366.186 130.176C367.036 129.964 370.132 129.886 370.54 128.945C371.157 127.521 368.069 126.678 367.23 126.033C366.681 125.757 366.239 125.361 365.903 124.845ZM390.475 135.034C388.9 137.597 391.563 137.002 392.526 138.312C393.132 137.868 390.688 135.94 390.475 135.034ZM161.36 134.411C159.339 134.494 160.718 137.536 161.491 135.604C161.537 135.197 161.493 134.799 161.36 134.411ZM342.163 116.608C339.886 116.333 337.306 118.473 335.433 119.625L335.279 119.719C330.294 122.695 325.565 126.053 321.057 129.705L320.307 130.317C319.645 130.862 317.212 133.579 319.515 134.349C319.001 134.178 321.625 133.234 321.585 133.262C323.572 131.88 325.76 131.09 327.853 129.842C330.034 128.541 331.924 126.844 333.951 125.328C336.417 123.481 339.371 122.373 341.829 120.57C342.184 120.31 342.484 119.783 342.867 119.592C343.204 119.424 344.296 119.33 344.434 119.098C345.174 117.855 343.144 116.728 342.163 116.608ZM379.473 130.607L379.255 131.362L378.335 131.232L378.36 131.279C378.658 131.813 380.653 134.841 381.108 132.705C381.312 131.742 379.611 131.402 379.481 130.688L379.473 130.607ZM159.117 131.342C159.4 131.754 159.691 132.159 159.99 132.559C160.857 133.644 161.953 133.601 162.084 132.057C160.985 133.07 160.159 131.553 159.117 131.342ZM159.19 123.96C158.536 123.366 158.062 123.642 157.954 124.566C157.841 125.536 160.929 128.775 161.457 127.415C160.726 126.741 159.722 126.01 159.224 125.116C159.086 124.869 159.407 124.157 159.19 123.96ZM154.202 107.757L152.968 105.195L152.942 105.495C152.81 107.163 153.009 107.43 154.202 107.757ZM152.017 107.037V104.382L151.793 104.564C150.26 105.831 150.288 106.253 151.797 106.939L152.017 107.037ZM126.079 100.521L125.693 101.882C126.313 102.181 127.073 101.051 127.438 100.729L126.079 100.521ZM149.231 92.9039C149.231 93.7984 149.023 94.9148 149.564 95.7206L149.651 95.8391L150.077 95.3716C150.3 94.4601 150.09 93.4226 149.231 92.9039ZM345.182 92.2261C344.645 91.9195 344.176 92.1858 343.78 93.0244C341.477 95.2511 344.337 94.1878 345.182 92.2261ZM300.877 87.6126C302.781 87.8006 308.618 91.3859 305.474 93.2077C303.881 94.1307 300.908 92.9294 299.732 91.7425C298.504 90.5021 298.523 87.6078 300.877 87.6126ZM312.404 76.8484C312.959 75.5386 313.44 69.6754 315.694 71.0358C318.733 72.8709 315.908 81.5578 314.789 83.7562C313.253 86.7758 306.423 89.1368 305.808 84.1448C305.554 82.0747 306.392 78.6714 308.676 78.0503C310.745 77.4876 311.473 79.0419 312.404 76.8484ZM182.82 33.6691C181.45 33.7136 179.821 33.9179 178.543 34.4119C177.405 34.8511 176.945 35.9494 175.977 36.3705C176.261 36.2473 174.888 35.8659 174.864 35.8442C174.303 35.7897 173.321 36.3392 172.781 36.5181C170.828 37.1664 168.877 37.8176 166.949 38.534C163.338 39.875 159.761 41.3426 156.225 42.8693C149.508 45.7706 142.968 49.177 136.556 52.7085L135.426 53.3329C123.025 60.2046 108.931 68.3716 100.691 80.2582C98.1557 83.9166 102.746 85.2547 105.569 85.5917L105.767 85.6141C107.81 85.831 113.33 87.7914 113.87 84.5706C114.937 86.4479 118.298 84.9002 119.876 84.2013C120.538 83.9085 121.534 83.9127 122.12 83.6043C122.937 83.1753 122.62 82.3216 123.401 82.0192C123.935 81.8126 124.015 82.4644 124.635 82.3385C125.102 82.2439 125.505 81.824 125.966 81.7264L126.067 81.7103C127.064 81.5843 131.964 81.5975 129.013 80.3648C129.898 79.5913 131.124 79.5069 131.955 78.6502C132.507 79.1165 132.579 79.6401 132.171 80.2196C133.823 80.0829 136.776 78.5008 138.165 77.6977C139.493 76.9296 139.408 76.2199 140.208 75.0674C140.858 74.1325 141.878 73.3527 142.711 72.5502L142.915 72.3491L143.123 74.9282C144.712 74.8222 144.353 73.4323 144.407 72.2689C146.698 72.5262 148.537 71.4538 149.961 69.8187C150.381 69.3355 150.214 68.3758 151.085 68.33C151.542 68.3059 152.233 69.39 152.366 69.4684L152.377 69.4707L152.677 69.3464C153.05 69.1956 153.62 68.9774 153.581 69.0452L153.569 69.0586C154.345 68.3794 154.128 63.9806 155.616 66.9342L155.74 67.1902C156.747 66.4365 156.953 65.7756 157.383 65.0671C157.815 64.3538 158.135 64.117 159.03 63.379C160.622 62.065 160.967 59.5473 163.063 58.7472C162.849 59.4268 162.137 60.0961 162.359 60.8793C164.465 60.1052 164.386 55.9367 163.764 54.2589C162.724 51.4598 159.534 51.9243 157.126 52.5021C153.511 53.3684 150.437 55.4246 147.135 57.0356L146.851 57.171C144.566 58.2366 140.985 59.4334 140.48 62.1927L141.64 61.7256C143.15 61.1152 144.523 60.5102 145.809 59.378C146.413 58.8454 147.052 57.6098 147.97 57.5483C148.202 57.5327 148.693 57.7917 148.802 57.7574L149.583 57.513C151.398 56.9574 154.349 56.1827 155.503 57.2127C155.68 56.8224 155.846 55.8897 156.328 55.697C157.528 55.2174 156.619 56.0229 157.377 56.2584C158.447 56.5904 159.365 57.1513 160.478 57.6062C160.168 58.7105 159.581 57.6116 159.102 57.7532C158.478 57.9375 158.044 58.1303 157.448 58.5659C156.173 59.4979 155.193 60.6299 153.812 61.4716C151.636 62.797 148.093 64.0875 146.778 66.4208C146.177 67.4884 146.787 68.2294 145.449 68.5535C145.256 68.6005 145.073 67.7378 144.767 67.7384C144.205 67.74 143.79 67.9412 143.272 68.1238L143.096 68.1836C141.605 68.6656 140.19 69.3699 138.932 70.3139C138.038 70.9857 137.029 72.6316 135.864 72.825L135.885 72.6201C135.999 71.2221 135.269 72.0944 133.927 72.6807L131.528 73.6944C129.603 74.5053 127.677 75.3192 125.719 76.0494C123.638 76.8254 121.516 77.475 119.389 78.1095L118.477 78.3809C116.244 79.0448 113.977 79.7069 111.671 80.0624C110.625 80.2233 109.634 80.2739 108.579 80.26C108.271 80.2564 107.98 80.0766 107.699 80.0063L107.558 79.9817L107.488 79.9741L107.476 79.9855C107.411 80.0401 107.279 80.1142 107.047 80.2129L106.84 80.2968C106.449 80.0178 105.647 78.7791 106.263 78.3634C106.512 78.4442 106.732 78.5755 106.921 78.7575C107.331 76.6061 109.141 75.1704 110.657 73.7727C110.174 74.5974 110.468 75.4054 111.261 75.8735C112.337 74.2944 114.282 73.3853 115.81 72.3256C116.231 72.0322 116.648 71.7321 117.06 71.4261C117.873 71.2086 118.175 70.7495 117.964 70.0488C118.364 69.7265 118.467 68.8252 119.184 69.5856C119.311 69.544 119.968 67.9059 120.135 67.6486L120.197 67.8682C120.724 69.644 120.966 68.1661 121.93 67.1775C122.513 66.5805 123.216 65.6912 124.024 65.3996C125.787 64.7646 125.387 65.5966 126.567 63.9838C127.85 62.2337 129.932 62.0301 131.883 61.1047C133.772 60.21 135.573 59.2412 137.522 58.4629C136.983 58.2863 136.5 58.0104 136.074 57.6351C137.873 56.047 139.658 58.5888 139.686 54.9632C141.655 55.224 145.286 54.871 147.071 53.845C149.544 52.425 152.08 51.123 154.604 49.8163C156.732 48.7138 159.31 48.153 161.646 47.211L162.11 47.0172C165.178 45.687 168.503 45.1002 171.481 43.5549C173.017 42.7578 174.173 42.4301 175.747 41.9493C176.736 41.6469 177.74 40.7468 178.776 40.692C179.648 40.6456 180.191 41.3107 181.167 41.1565C182.209 40.992 182.912 40.0672 184.005 39.9763C184.94 39.8979 185.468 40.3914 186.534 40.0733C187.617 39.7497 188.524 38.8587 189.698 38.8147C191.786 38.7364 195.303 40.4691 196.752 41.686C197.379 42.2138 197.74 42.9874 198.585 42.8325C200.144 42.5476 199.565 41.4222 198.319 41.6011C200.072 39.1491 196.289 38.4827 194.738 37.82C193.464 37.2754 192.061 36.5543 191.106 35.5192C190.773 35.1584 190.446 34.2342 190.077 33.9974L189.989 34.0257C189.739 34.1127 189.038 34.3684 188.956 34.3565C188.727 34.3233 188.761 33.7546 188.381 33.7811C187.638 33.8341 186.993 34.1944 186.235 34.1691C185.08 34.1299 184.031 33.6293 182.82 33.6691ZM101.95 5.92831C102.896 3.75462 105.21 4.71313 105.025 6.86694C104.88 8.55987 103.91 8.01705 103.176 8.76651C102.406 9.55333 102.585 10.3263 101.989 11.1155C101.068 12.3361 99.0745 12.8331 97.7423 13.9441C97.6098 14.3104 97.4568 14.6682 97.2838 15.0177C96.9434 15.1105 96.597 15.1719 96.2451 15.202C96.0595 15.4292 95.8354 16.313 95.8752 16.2648L95.3559 16.8821C95.1623 17.1162 94.9726 17.3508 94.9039 17.4528C94.396 18.2029 96.3216 18.1119 94.481 18.5891C94.064 18.6975 93.5097 17.9589 92.9319 18.0499L92.5597 18.1117C91.746 18.2594 92.5598 18.2638 92.4174 19.1289L92.3273 19.6656C92.0654 21.1796 91.8352 21.8828 90.4942 23.2443L90.3819 23.3521C89.6775 23.9998 87.875 25.2628 88.4275 26.2916C85.465 25.9825 87.6045 27.4435 86.4387 28.9099C86.4507 28.8942 83.628 28.6743 83.1303 29.1069C82.6615 29.5142 81.7771 31.774 81.2788 32.6187C80.7534 33.5103 80.5847 34.37 80.2358 35.3063C80.1027 35.9997 79.8219 36.6287 79.3941 37.1932C79.117 37.2257 78.8693 37.1474 78.6518 36.9582C78.1246 37.5613 78.2698 38.1095 77.8583 38.8451C77.246 39.9408 77.0577 39.5867 76.2379 39.8722L76.1442 39.9067C74.791 40.4296 74.1559 40.2657 73.3835 41.9008C72.6195 43.516 73.9137 43.6082 73.6811 45.3499C73.4178 47.3284 70.9409 49.4539 69.9257 51.1197L69.7511 51.4197C69.1385 52.5046 68.3331 54.1191 67.4283 52.1499C67.7121 55.0315 66.1739 57.2769 65.0014 59.7494C64.491 60.8248 64.1085 61.8478 63.7548 62.9847C63.3505 64.2836 62.7239 64.6957 62.1708 65.7608C61.5478 66.9603 60.5898 73.1862 58.6232 73.1205C59.2564 73.8507 60.3976 77.3733 58.3816 76.9329C58.4238 77.492 58.4382 78.0517 58.4262 78.612L57.8297 78.5969L57.3134 78.6788C56.4817 77.4035 58.4219 71.7945 58.758 70.3389L59.0826 68.798C59.8004 65.4165 60.5664 62.1316 61.731 58.8337C64.4911 51.0167 68.0224 43.5594 72.3249 36.472C76.401 29.758 81.2231 23.4982 86.175 17.4014L87.5009 15.7776C89.0806 13.9072 99.4343 2.8304 101.95 5.92831ZM363.657 74.6107L362.539 77.605C363.299 76.5006 364.365 75.9391 363.657 74.6107ZM152.823 75.7297C153.187 75.9346 153.494 76.2027 153.746 76.5352L153.571 76.6689C152.894 77.1673 152.854 76.9398 152.073 76.2888L152.823 75.7297ZM298.57 65.3146C299.34 66.9039 298.184 69.3102 300.429 69.9265C302.079 70.3795 303.856 68.1884 305.423 69.124C307.152 70.1572 305.874 72.2749 304.914 73.3425C303.18 75.2703 300.787 75.5499 298.345 75.0077C294.162 74.0787 295.741 66.9437 298.57 65.3146ZM178.427 68.7415C179.943 68.9234 180.414 66.019 178.648 67.0034C177.998 67.3661 177.023 68.5734 178.427 68.7415ZM199.699 44.0314C198.678 43.9634 199.496 42.5753 198.132 43.4934C197.257 44.0833 196.911 46.0985 196.594 47.0383L196.387 47.6436C195.463 50.3175 194.59 52.34 192.614 54.6246C190.225 57.3863 187.434 59.9907 184.886 62.5723C183.041 64.4423 179.504 64.4369 180.735 67.783C182.165 66.1828 182.813 66.8323 184.283 66.0919C185.118 65.6719 184.946 65.2231 185.701 64.4333C186.639 63.4525 187.718 63.7627 188.738 63.473C190.196 63.0591 191.241 62.2927 192.293 61.183C194.621 58.7261 195.912 55.512 198.146 52.9738C199.295 51.6689 202.702 49.2928 201.922 46.9932C201.696 46.3244 201.253 46.3365 201.068 46.0075C201.205 46.2521 200.16 45.3611 200.212 45.4183C199.759 44.9098 201.349 44.1405 199.699 44.0314ZM64.2 58.4577C64.0307 58.8909 63.8934 59.3349 63.7873 59.788C63.7096 60.4109 64.1326 60.6971 64.5507 60.1916C64.8791 59.7934 64.3151 58.8801 64.2 58.4577ZM277.582 42.4277C270.946 41.424 257.907 48.7957 266.88 55.2873C271.787 58.8364 274.873 52.7979 277.905 49.8735C278.969 48.8487 281.738 46.998 281.858 45.3376C282.003 43.3061 279.139 42.6626 277.582 42.4277ZM127.822 37.2302C124.589 36.9778 121.682 40.1666 119.211 41.8102C117.349 43.0494 113.08 44.4646 113.632 47.3793C113.236 46.9913 112.839 46.9666 112.443 47.3046C112.103 47.9673 111.649 48.5282 111.702 49.3217C112.971 48.0571 114.807 48.6764 114.954 46.3931C116.559 47.198 117.436 45.587 118.407 44.6923C119.387 43.7892 120.488 43.2374 121.591 42.497L121.671 42.4388C122.861 41.5315 126.488 36.8069 127.197 40.7119L128.527 38.7611L126.17 38.4556L127.822 37.2302ZM70.6457 46.7398C69.4557 46.2163 68.9327 46.6157 69.0177 47.9026C70.9295 48.0502 71.1898 48.4243 72.6683 47.1525C72.0983 46.9814 71.1048 46.9422 70.6457 46.7398ZM74.9314 41.0558C75.505 41.2787 75.2586 42.1252 75.1989 42.7192C75.2899 41.8149 73.5113 43.8398 74.9314 41.0558ZM158.094 22.5952C156.021 21.4433 152.698 23.7037 150.885 24.5779C147.309 26.3003 143.722 27.9583 140.205 29.8049C136.523 31.7376 133.121 34.4432 129.214 35.9066C128.271 36.2591 127.845 38.5906 128.907 39.0497C129.67 39.3792 131.387 37.7857 131.988 37.3748C134.321 35.7813 137.969 34.6017 139.17 31.9069L139.688 33.5419C140.495 31.2817 141.719 31.7154 143.562 31.1389L143.695 31.0959C144.078 30.9676 145.414 30.6634 145.543 30.5983C146.067 30.3332 145.86 30.2031 146.321 29.9778C148.358 28.9831 153.013 25.3767 155.148 26.2985C154.374 24.9659 155.67 22.7958 156.04 25.1912C157.04 24.6526 160.891 24.1507 158.094 22.5952Z" fill="black"/>
</svg>
