<svg width="388" height="562" viewBox="0 0 388 562" fill="none" xmlns="http://www.w3.org/2000/svg">
<path fill-rule="evenodd" clip-rule="evenodd" d="M207.908 279.501C209.602 279.828 212.409 284.668 213.559 286.044C217.264 290.48 220.971 294.916 224.678 299.353C226.161 301.128 228.3 302.992 229.357 305.047C230.17 306.628 230.449 308.808 230.934 310.502C236.961 331.549 242.855 352.732 247.245 374.189C248.19 378.807 249.087 383.458 249.612 388.146C249.871 390.463 250.553 393.868 249.543 396.108C248.404 398.632 244.739 399.681 242.357 400.463C237.725 401.986 232.876 402.893 228.077 403.707C216.515 405.667 204.809 406.806 193.124 407.727C189.554 408.008 185.879 408.003 182.332 408.483C180.638 408.712 181.146 408.257 180.612 409.394C179.868 410.975 180.361 414.273 180.273 415.996C180.065 420.05 179.858 424.104 179.65 428.158L177.949 461.33C177.374 472.54 176.8 483.75 176.225 494.961C176.007 499.208 175.789 503.456 175.572 507.704C175.456 509.974 175.802 512.906 175.193 515.104C174.732 516.766 175.49 516.276 173.449 516.375C168.723 516.603 163.827 516.031 159.1 515.862C153.739 515.671 148.377 515.479 143.014 515.288C141.483 515.233 139.772 515.667 139.155 514.57C138.403 513.234 138.975 509.563 138.922 508.071C138.774 503.916 138.625 499.76 138.476 495.604C138.068 484.196 137.659 472.788 137.251 461.38C136.694 445.823 136.136 430.264 135.578 414.705C129.616 415.904 123.653 417.102 117.691 418.301C108.88 420.072 100.069 421.843 91.2582 423.614C87.2173 424.427 82.4182 426.281 78.2455 425.682C74.1009 425.088 72.3877 423.32 72.1549 419.39C71.9053 415.177 72.0026 410.932 72.059 406.715C72.1521 399.818 72.3503 392.923 72.6113 386.031C84.3833 384.972 96.156 383.912 107.928 382.853C114.196 382.288 120.465 381.725 126.733 381.16C128.156 381.033 131.662 381.307 132.297 380.236C133.285 378.57 132.186 373.095 132.156 371.211L131.875 353.405L130.846 287.89C133.665 287.982 136.483 288.066 139.302 288.145C151.564 288.491 163.887 288.991 176.153 288.615C182.304 288.426 188.132 286.769 193.939 284.813C197.027 283.773 200.083 282.641 203.115 281.45C204.07 281.075 206.878 279.302 207.908 279.501ZM191.283 340.451L185.018 371.058L206.455 369.639L191.283 340.451Z" fill="white"/>
<path fill-rule="evenodd" clip-rule="evenodd" d="M276.353 9.94117C279.687 7.76267 280.185 9.57337 282.827 11.4586L282.976 11.5634C285.871 13.5695 288.18 15.589 290.476 18.2784C293.392 13.2046 300.626 15.5918 305.125 16.5984C310.984 17.9093 316.488 20.1357 322.45 20.8856L323.231 20.9748C326.372 21.2974 329.194 22.2293 332.217 23.0436C335.966 24.0516 339.82 24.6059 343.56 25.6456C349.98 27.4299 355.265 31.1272 359.965 35.7875C369.409 45.1496 373.503 57.1947 374.7 70.1964C375.362 77.3784 375.897 84.8105 375.437 92.02C375.362 93.2189 373.891 98.8054 374.74 99.5443C375.454 100.165 378.425 100.006 379.379 100.121C381.206 100.338 383.034 100.546 384.845 100.878C388.26 101.504 386.95 105.646 384.983 106.883C383.584 107.763 382.245 107.807 381.509 109.477C380.856 110.956 380.854 112.95 380.344 114.516C377.809 122.305 374.603 129.789 370.575 136.91L368.825 140.009C365.758 145.43 362.611 150.81 358.638 155.637C354.034 161.231 348.595 166.217 343.263 171.109C332.951 180.569 320.315 187.093 307.86 193.053C295.139 199.141 281.974 202.326 268.29 205.065L266.42 205.436C258.537 206.988 250.573 208.87 242.62 209.989C235.312 211.016 227.826 210.112 220.472 210.095C220.889 216.816 221.716 222.746 224.249 229.043L225.223 231.452C229.8 242.705 234.814 254.057 241.012 264.481C244.104 269.683 248.141 274.185 251.482 279.215L252.099 280.165C254.241 283.528 258.453 287.856 258.125 292.138C257.792 296.47 250.792 299.731 247.24 301.766L246.885 301.972C244.327 303.482 241.547 304.688 238.773 305.748C237.486 306.24 234.313 306.513 233.432 307.589C231.823 309.555 236.9 317.43 237.946 319.923L237.994 320.041C240.276 325.838 242.689 331.246 244.177 337.352C245.799 344.006 246.744 350.801 248.244 357.481L248.549 358.811C249.843 364.357 251.379 369.944 251.56 375.652L251.575 376.337C251.648 382.335 253.864 389.545 252.166 395.412C250.716 400.425 244.977 402.673 240.557 404.304L240.321 404.391C229.534 408.363 216.838 409.105 205.43 410.114C200.636 410.538 196.02 411.154 191.171 411.857C189.372 412.118 185.515 411.931 184.35 413.416C183.022 415.109 183.381 418.733 183.316 420.732C183.127 426.62 182.329 432.359 182.266 438.209C182.199 444.518 181.797 450.921 181.397 457.224C180.964 464.047 180.399 470.863 180.148 477.697C179.919 483.942 180.083 490.193 179.488 496.411L179.367 497.576C178.629 504.167 179.111 510.836 177.683 517.358C177.338 518.937 176.52 520.513 177.356 521.618C178.174 522.701 180.554 523.479 181.728 524.166C184.436 525.752 187.147 527.335 189.957 528.733C195.051 531.266 200.848 532.464 205.647 535.568L205.987 535.783C209.809 538.172 216.405 541.135 215.701 546.584C215.413 548.807 213.491 549.484 211.771 550.536L211.227 550.878C210.362 551.426 209.715 551.879 209.169 552.822C208.73 553.58 209.168 554.357 208.304 554.978C206.691 556.137 201.914 555.5 199.974 555.635C196.827 555.852 193.927 555.895 190.801 555.436C178.032 553.559 164.569 552.892 152.111 549.486C148.701 548.554 145.356 547.407 141.962 546.423L141.417 546.269C138.804 545.547 136.491 545.092 134.699 542.817C131.152 538.316 133.091 530.912 134.195 525.739C134.744 523.161 136.55 519.774 135.888 517.113C135.311 514.797 133.888 513.389 133.647 510.842C133.009 504.099 133.646 497.177 133.349 490.397C132.779 477.38 133.231 463.489 130.7 450.681L130.541 449.86C130.006 447.024 129.702 444.519 130.202 441.623L130.278 441.207C130.838 438.363 130.529 435.609 130.132 432.782C129.706 429.75 130.095 426.657 129.944 423.587L129.873 422.464C129.717 419.691 129.984 417.359 126.725 418.046C113.716 420.786 100.837 424.101 87.8837 427.176C86.8385 427.424 85.8137 428.239 84.9025 428.434C83.8729 428.655 83.4582 428.205 82.3375 428.129C81.5138 428.074 79.9191 428.271 79.1624 428.593C77.7949 429.175 78.0953 429.641 77.3252 430.645C74.1959 434.723 71.0688 430.128 69.2654 427.466C69.2472 434.977 70.5505 442.505 71.357 449.971L71.4637 450.988C71.6894 453.213 73.2995 458.271 71.6993 460.064C70.0836 461.875 64.3859 461.19 62.0666 461.155L61.9138 461.154C58.6195 461.149 53.9774 462.037 50.9589 460.571C48.621 459.435 47.3853 456.654 46.2407 454.474C42.8698 448.054 41.446 440.903 39.7347 433.904L39.1681 431.604C37.6687 425.477 36.3412 419.406 36.0338 413.08L35.8812 409.254C35.7336 405.2 35.7401 400.602 37.451 397.209C38.6556 394.819 40.442 393.841 42.8794 393.046C45.6603 392.14 48.2288 390.846 50.997 389.882C56.2017 388.07 61.2651 386.82 66.5573 385.725L67.5523 385.522C69.0002 385.229 68.5094 385.571 69.3917 384.269C69.8628 383.574 70.0116 382.829 70.676 382.204C72.5915 380.404 75.7257 380.581 78.1637 380.46L79.5421 380.39C82.0407 380.256 84.4007 380.079 86.9238 379.6C89.3013 379.149 91.764 379.266 94.0181 378.989C99.3844 378.329 105.226 378.441 110.824 378.196C113.686 378.072 116.548 377.945 119.409 377.801L122.601 377.634C124.936 377.536 126.406 377.746 126.723 375.136C127.112 371.948 126.485 368.362 126.366 365.142L126.173 359.661L125.741 347.103C125.702 345.924 125.664 344.744 125.629 343.565C125.565 341.417 126.385 337.879 125.571 335.935C124.081 332.374 114.04 334.04 110.702 333.175L110.106 333.019C108.097 332.485 105.939 331.777 105.206 329.888C104.169 327.214 104.653 324.12 104.748 321.322L104.757 320.988C104.898 314.561 105.153 308.163 105.168 301.729C105.182 295.132 106.931 288.84 106.663 282.229C106.396 275.615 106.402 269.003 106.678 262.385C106.979 255.167 108.054 248.006 108.071 240.778C103.397 246.36 99.4761 252.46 94.6486 257.965C89.7823 263.515 84.6917 268.591 79.0644 273.37C73.3673 278.208 68.0764 283.516 62.3482 288.302C56.6229 293.086 50.741 297.65 45.0756 302.515L42.9011 304.386C39.172 307.581 35.5726 310.479 30.8843 312.38L27.7777 313.66C23.3965 315.448 18.951 317.004 14.1054 316.066C1.05871 313.54 -0.105703 299.182 1.14402 288.387C2.66598 275.24 5.98989 263.04 10.4789 250.624C11.4183 248.026 13.0073 246.171 14.3289 243.824C15.7931 241.223 16.8347 238.299 18.1084 235.596C20.8787 229.72 24.3719 224.121 27.7656 218.585C30.9337 213.417 34.4529 208.837 38.6916 204.548C40.564 202.654 41.617 199.708 42.6319 197.245C43.5453 195.028 43.3798 193.109 43.039 190.958L42.7525 189.219C40.6402 176.1 37.1668 163.446 34.2992 150.492C32.93 144.303 31.054 138.385 29.2738 132.34L28.894 131.042C27.9821 127.906 26.0998 116.938 32.0854 117.396C34.3449 117.57 37.1774 120.694 38.8386 122.257L38.9821 122.391C41.1247 124.365 43.1009 126.518 44.8683 128.834C46.891 131.484 48.6661 134.346 50.0886 137.361C51.2227 139.766 52.0288 142.374 53.6636 144.51C52.3652 138.938 50.5477 133.462 49.7585 127.78L49.6657 127.09C49.1891 123.421 48.7486 117.634 51.289 114.814C54.7222 111.003 60.5794 117.654 62.4498 120.363C64.9824 124.029 66.2159 129.437 69.5511 132.44C68.4882 125.48 65.7159 116.946 67.8288 109.954C70.3346 101.663 76.2631 113.042 77.7074 115.827C84.1288 128.21 86.8396 142.284 91.6114 155.357L91.9643 156.311C92.9552 158.959 93.7296 160.697 96.8434 160.984C99.3169 161.212 101.955 160.529 104.458 160.356L105.349 160.309C109.172 160.065 107.97 158.622 106.694 155.735C106.249 154.729 106.203 153.723 105.421 152.899C104.703 152.141 103.668 152.051 103.026 151.116C102.17 149.867 102.562 148.565 101.276 147.71C100.602 147.262 99.2582 147.509 98.4669 147.058C96.534 145.954 96.4313 143.321 95.8881 141.307L95.8341 141.114C94.9132 137.952 95.4229 134.997 95.6817 131.781L95.7114 131.394C95.9427 128.239 96.0295 125.081 97.476 122.214L97.6529 121.863C98.2489 120.672 98.2682 120.485 97.9052 119.239L97.6 118.209C97.3227 117.261 97.1948 116.628 97.4132 115.393L97.5797 114.467C97.9719 112.377 98.5383 110.41 100.803 109.675C103.696 108.736 104.14 109.923 104.999 107.355L105.109 107.014C106.066 103.936 108.06 104.149 110.918 104.566L110.909 103.17C110.916 101.253 111.123 99.0748 113.05 98.4159C114.251 98.0052 115.489 99.352 116.418 99.0414C117.086 98.8177 117.027 98.4683 117.484 98.0004L117.599 97.8904C119.276 96.3844 119.685 92.1637 121.98 91.2564C124.167 90.3928 125.497 92.804 126.712 94.2191L127.329 93.3349C128.815 91.2406 131.554 87.6886 133.611 87.926C136.26 88.231 135.118 91.5804 138.09 90.7175C140.349 90.0618 142.492 87.1174 145.035 88.7178C146.842 89.854 146.816 93.2132 149.05 93.9542C151.664 94.8199 152.19 92.0756 154.657 94.7918C156.41 96.7218 157.107 100.072 159.088 101.662C160.34 102.667 162.019 102.263 163.25 103.254C163.953 103.82 164.7 105.332 165.21 106.087L165.506 106.528C166.168 107.536 166.633 108.406 166.801 109.697C166.884 110.34 166.637 110.906 166.796 111.566C166.897 111.98 167.371 112.195 167.482 112.571C167.909 114.02 167.195 114.613 167.265 115.805C167.326 116.83 168.887 117.804 169.856 118.821C171.672 120.725 173.193 122.882 174.846 124.922C178.264 129.133 182.816 132.649 184.818 137.835C186.82 143.024 186.348 147.757 183.059 152.188C179.768 156.623 175.605 161.01 170.426 163.189C168.887 163.836 164.736 164.276 166.36 166.548C167.637 168.333 167.653 166.727 168.569 165.77C170.4 163.857 171.721 165.916 174.026 165.784C175.099 165.723 175.941 165.247 177.078 165.347C178.497 165.473 179.972 166.131 181.366 166.435C194.103 169.212 207.783 168.438 220.676 167.404C226.977 166.898 233.138 165.139 239.305 163.799C245.705 162.409 252.142 161.4 258.344 159.229L263.143 157.548C273.668 153.849 283.946 150.04 293.62 144.285L295.611 143.095C305.332 137.251 314.809 131.014 322.399 122.509C324.328 120.348 326.09 118.092 327.401 115.509L327.835 114.627C328.578 113.142 330.192 110.03 329.748 108.782C329.202 107.244 326.082 106.892 327.354 104.21C328.243 102.332 330.606 102.722 332.354 102.591L330.617 97.6713C322.655 102.168 314.586 107.007 307.044 112.173C304.147 114.157 301.293 116.205 298.415 118.218L296.252 119.72C293.337 121.722 289.483 126.056 286.254 122.742C281.132 117.485 277.341 110.712 272.958 104.86C268.373 98.7371 263.755 92.6187 259.152 86.5081C251.803 76.7536 243.408 67.0253 237.964 55.6458L237.758 55.2066C235.019 49.2502 234.053 42.2038 240.057 38.0099C245.687 34.0777 250.913 29.6363 256.265 25.3368L257.413 24.4179C263.576 19.5125 269.756 14.2528 276.353 9.94117ZM141.905 517.545C141.892 523.189 140.291 528.901 140.477 534.477C140.558 536.955 141.575 536.929 143.835 537.417L144.006 537.454C146.512 538.009 149.01 538.584 151.502 539.197C161.977 541.773 172.726 542.606 183.094 545.562C188.286 547.042 193.598 547.046 198.92 547.691C200.383 547.869 202.751 548.806 204.187 548.593C205.32 548.426 207.049 546.838 206.871 545.421C206.539 542.766 196.104 540.283 193.467 539.103C188.782 537.006 184.154 534.591 179.975 531.601C177.006 529.478 174.189 526.799 172.532 523.502L172.099 522.621C170.917 520.19 170.657 519.6 167.38 519.294C158.883 518.499 150.379 518.512 141.905 517.545ZM142.985 487.316C142.111 487.37 143.012 505.392 143.059 507.176L143.077 507.655C143.186 509.917 143.66 510.178 146.214 509.958C149.194 509.7 152.12 510.012 155.099 509.952C157.059 509.912 158.904 509.437 160.857 509.79C161.881 509.976 162.821 510.421 163.866 510.582L164.953 510.763C166.726 511.041 169.447 511.283 169.006 509.314C168.691 507.908 162.261 507.586 161.127 507.162C158.107 506.033 155.392 504.138 152.977 502.034C148.249 497.917 145.582 492.912 142.985 487.316ZM148.768 465.32C147.627 465.04 143.404 462.698 142.36 463.456C141.25 464.262 141.928 466.941 141.971 468.02C142.207 473.929 141.343 479.792 143.739 485.38L144.013 486.011C148.493 496.196 155.587 505.994 167.647 507.164C171.579 507.546 171.003 477.848 171.204 474.174C171.32 472.05 172.387 468.316 171.737 466.29C170.929 463.774 169.506 464.895 166.964 465.498C161.097 466.891 154.623 466.753 148.768 465.32ZM171.67 457.565C170.431 457.037 166.978 458.164 165.693 458.257C159.407 458.711 153.04 459.084 146.741 458.639L145.476 458.542C143.222 458.392 140.236 458.625 143.068 461.217C145.09 463.068 148.966 463.675 151.685 464.096L151.953 464.137C155.362 464.666 158.814 464.901 162.248 464.591L162.891 464.527C165.15 464.277 169.427 464.487 171.393 463.255C172.769 462.393 173.254 458.239 171.67 457.565ZM169.78 437.815C164.219 429.382 155.413 422.939 144.876 426.341C139.344 428.126 140.976 434.146 141.245 438.894C141.472 442.917 141.798 446.917 141.79 450.93L141.775 452.404C141.757 455.71 142.379 456.308 145.999 456.522C151.777 456.864 157.533 456.506 163.312 456.236C165.321 456.142 169.54 456.752 171.397 455.93C173.216 455.124 172.926 453.802 173.088 451.864L173.105 451.681C173.659 445.986 172.95 442.624 169.78 437.815ZM68.8141 388.185C61.4525 392.455 53.7426 395.848 46.3049 399.923C42.8829 401.798 42.0317 403.449 42.2017 407.236L42.3308 410.116C42.4841 413.479 42.6581 416.847 42.9746 420.193C43.6645 427.474 45.6594 434.467 47.7954 441.423L49.4682 446.843C50.3396 449.716 50.9695 451.978 54.1544 452.917C57.8902 454.018 61.8743 453.974 65.7285 453.983C64.5705 444.859 62.3813 435.889 62.2304 426.654L62.2137 425.407C62.1806 421.765 62.3214 417.819 63.7764 414.498C64.5768 412.67 65.9669 411.149 66.6524 409.268C67.333 407.403 67.2159 405.421 67.3253 403.466C67.6116 398.355 68.0615 393.251 68.8141 388.185ZM173.542 400.776C170.891 400.786 168.016 401.998 165.471 402.629C159.623 404.081 153.708 405.302 147.781 406.397L146.003 406.721C142.992 407.265 141.634 407.107 141.438 410.294C141.261 413.187 141.4 416.151 141.424 419.062L141.428 420.03C141.427 420.16 140.979 425.298 141.355 425.576C141.91 425.987 146.276 423.906 147.148 423.73C150.02 423.152 152.984 423.291 155.801 424.09C160.897 425.534 165.489 428.965 168.579 433.231C170.088 435.313 170.914 438.267 172.604 440.12L172.793 440.323C174.254 441.855 173.81 440.429 173.801 438.529C173.775 432.672 173.947 426.746 174.275 420.895C174.554 415.926 175.417 411 175.876 406.016L175.991 404.655C176.176 402.194 176.324 400.766 173.542 400.776ZM80.1335 389.966C79.4805 389.54 76.603 389.406 75.8787 389.729C73.4606 390.809 74.911 394.919 74.9745 397.045L74.9766 397.175C74.9823 401.028 75.2785 404.881 75.2665 408.751C75.2595 411.229 74.9858 413.704 75.4774 416.144L75.5599 416.512C75.9027 417.966 77.1578 422.65 78.4134 421.509C79.3098 420.695 77.0515 414.766 76.9309 413.6C76.5808 410.226 77.2593 407.073 77.9917 403.817L78.0918 403.372C78.8754 399.889 79.6533 396.417 80.5532 392.963L80.6321 392.677C81.0163 391.349 81.4023 390.794 80.1335 389.966ZM92.6245 391.044C92.9799 387.574 89.2928 389.219 86.9541 389.415L86.3886 389.467C83.5755 389.749 82.9128 390.27 82.1044 393.308L81.8337 394.334C80.0076 401.136 77.2977 408.717 78.7837 415.731L78.9738 416.616C79.6171 419.528 80.3147 421.391 83.6662 420.692C85.557 420.296 87.433 419.824 89.3118 419.379C89.7851 419.268 91.8684 419.08 92.1315 418.716C92.3861 418.366 91.8007 416.124 91.7521 415.634C90.9466 407.427 91.788 399.21 92.6245 391.044ZM112.681 384.939C109.249 384.585 105.8 385.624 102.498 386.415C100.487 386.897 96.7221 387.037 95.1733 388.492C93.3763 390.179 93.858 394.225 93.6654 396.424L93.3746 399.669C93.1847 401.83 93.0196 403.989 92.9806 406.166C92.9263 409.194 92.6442 412.792 93.2112 415.791C93.8869 419.359 96.4195 417.263 98.9817 416.484C102.423 415.437 105.951 414.747 109.499 414.174C111.486 413.852 116.354 414.169 117.855 412.671C118.781 411.745 113.268 403.015 112.655 401.471C110.509 396.061 110.678 390.368 112.681 384.939ZM126.203 389.884C123.911 386.886 117.365 381.884 114.005 385.854C109.747 390.883 113.626 400.838 116.221 405.63L117.112 407.295C118.398 409.66 119.796 411.718 122.704 411.857L124.013 411.886C125.477 411.905 127.52 411.831 128.105 410.935C129.599 408.651 127.934 402.086 127.779 399.466C127.595 396.358 128.183 392.474 126.203 389.884ZM174.373 381.335C169.596 379.411 164.814 378.908 159.794 379.826C154.837 380.733 150.288 382.407 145.884 384.853C141.738 387.155 141.49 388.859 141.769 393.309C141.915 395.629 141.784 397.955 141.685 400.273C141.636 401.434 140.953 404.201 141.87 405.067C142.836 405.98 145.715 404.88 146.862 404.664C149.268 404.21 151.664 403.723 154.06 403.215C159.415 402.078 164.773 400.965 170.136 399.863C171.896 399.501 174.747 399.458 176.083 398.124C177.5 396.707 177.163 393.391 177.43 391.533C177.714 389.558 179.157 385.911 178.315 383.962C177.696 382.53 175.702 381.87 174.373 381.335ZM190.473 402.204C190.825 398.803 185.379 399.117 185.558 402.284C185.663 404.157 190.251 404.334 190.473 402.204ZM196.628 402.337C196.876 401.724 192.069 398.995 191.991 401.524C191.921 403.739 195.415 402.533 196.628 402.337ZM222.484 387.011C219.595 383.693 216.831 384.953 212.958 385.272L212.28 385.323C208.411 385.628 207.1 386.157 205.349 389.828L205.248 390.043C203.383 394.039 200.998 397.813 199.671 402.044C204.852 401.697 210.015 401.109 215.192 400.706C219.338 400.383 223.736 399.153 227.823 399.365C229.029 399.427 230.166 398.71 231.117 398.074L229.019 395.268C226.916 392.456 224.781 389.648 222.484 387.011ZM188.403 381.339C187.988 383.892 186.85 387.276 187.228 389.845C187.499 391.693 188.819 393.532 189.734 395.173L189.882 395.445C190.947 397.431 191.399 397.685 193.438 398.471C194.486 398.876 197.596 400.962 198.604 400.228C200.3 398.995 201.39 394.728 202.273 392.904L202.379 392.696C203.247 391.035 205.787 387.256 204.31 385.862C202.914 384.545 197.429 385.07 195.577 384.74L195.036 384.648C192.625 384.249 189.428 383.807 188.403 381.339ZM245.923 378.976L222.408 384.234C224.904 387.12 227.31 390.09 229.57 393.164L230.494 394.429C232.128 396.632 233.559 398.104 236.919 397.333C239.831 396.664 243.705 395.381 246.069 393.502C248.916 391.238 247.194 388.462 246.605 385.468C246.184 383.33 245.918 381.158 245.923 378.976ZM187.396 393.589C186.137 393.794 186.346 397.993 188.075 397.353C189.337 396.885 187.738 394.349 187.396 393.589ZM126.87 387.631L126.869 387.227C126.847 384.849 126.509 382.548 123.264 383.461C121.475 383.965 126.347 387.231 126.87 387.631ZM183.666 348.503C177.772 350.693 172.111 353.633 166.096 355.487C163.551 356.271 161.066 356.258 158.49 356.678C155.987 357.085 154.001 358.727 151.804 359.895C148.172 361.826 140.166 363.21 140.057 367.883C139.925 373.509 141.041 379.509 141.58 385.115L143.083 384.287C148.44 381.347 153.946 378.508 160.059 377.6C163.196 377.133 166.411 377.149 169.522 377.787C172.932 378.486 175.609 380.495 178.854 381.485C180.557 373.392 181.792 365.109 183.051 356.933L183.179 356.141C183.595 353.624 184.101 351.042 183.666 348.503ZM207.434 381.319C207.355 378.882 192.871 380.749 190.932 381.398L191.058 381.46C193.367 382.538 207.607 386.63 207.434 381.319ZM213.003 381.368L212.592 381.262C209.884 380.578 209.212 380.914 208.337 383.784C209.693 383.657 214.81 384.072 215.94 383.039C217.175 381.91 213.967 381.601 213.003 381.368ZM214.447 301.823L214.349 301.703C213.023 300.121 212.966 299.43 211.12 300.443C209.609 301.271 207.984 303.514 206.651 304.66C205.066 306.025 203.428 307.329 201.728 308.548C200.394 309.503 198.439 310.28 197.436 311.582C195.316 314.334 196.144 320.532 195.675 323.982L195.64 324.218C194.888 328.903 197.999 332.671 199.958 336.738L200.159 337.149C201.832 340.515 202.692 340.73 206.553 341.342C214.986 342.676 215.747 352.935 215.138 359.776C214.72 364.485 213.481 369.101 212.025 373.585C211.657 374.719 210.535 376.49 210.61 377.636C210.733 379.504 212.41 379.297 214.08 379.786C218.589 381.106 221.14 382.554 225.964 381.52L238.711 378.769C240.168 378.457 243.599 378.43 244.719 377.466C245.938 376.415 245.29 374.506 245.032 373.039L245.007 372.889C244.48 369.571 244.463 366.605 240.758 366.373L237.508 366.186C230.92 365.767 222.359 364.632 221.703 356.814C221.05 349.022 231.383 346.974 236.89 346.057C240.814 345.404 237.846 340.255 237.046 337.569C235.923 333.795 235.091 329.474 232.831 326.174L232.454 326.658C229.462 330.561 215.292 349.585 212.369 340.444C211.102 336.485 216.211 330.841 218.779 328.477C222.386 325.158 226.749 322.799 231.695 322.372C230.544 318.996 229.659 315.683 228.765 312.242C227.768 308.402 226.142 309.71 222.975 310.287C219.477 310.925 216.41 304.266 214.447 301.823ZM210.194 374.093C205.499 374.082 200.828 374.093 196.141 374.224L194.132 374.288C192.666 374.34 190.327 373.887 189.312 375.194C188.817 375.829 188.564 378.658 189.243 379.261C190.168 380.081 194.164 378.878 195.151 378.78C197.729 378.523 200.317 378.391 202.909 378.377C204.434 378.369 207.298 378.994 208.646 377.964C209.728 377.138 209.863 375.299 210.194 374.093ZM192.108 350.098C191.814 352.814 191.485 355.526 191.15 358.237L190.813 360.948C190.65 362.264 188.97 367.556 191.482 367.416C193.785 367.289 196.047 366.801 198.324 366.477L192.108 350.098ZM208.951 344.023L208.703 343.895C206.071 342.589 202.696 342.382 203.797 346.126C204.313 347.881 205.191 349.435 205.536 351.252L205.613 351.642C205.886 352.955 206.057 353.031 206.751 354.061C207.128 354.621 206.955 356.811 207.203 357.629C207.541 358.741 207.905 359.839 208.229 360.957C209.083 363.898 209.999 364.725 212.482 366.548L212.645 365.952C214.287 359.727 215.635 347.58 208.951 344.023ZM239.675 347.797C238.973 344.661 227.759 349.875 225.935 351.369C221.181 355.267 223.465 360.721 228.554 362.929L228.735 363.006C230.926 363.912 241.496 367.029 242.67 364.396C243.363 362.843 241.663 358.941 241.355 357.326C240.756 354.167 240.378 350.933 239.675 347.797ZM160.767 292.496L160.521 292.445C157.919 291.86 154.844 289.762 155.07 293.484C155.578 301.843 154.971 309.96 155.028 318.283C155.049 321.501 155.381 325.173 153.599 327.861C151.575 330.915 149.255 333.532 146.135 335.52C144.487 336.57 142.815 337.372 140.817 337.42C139.301 337.456 138.448 336.675 137.601 337.953C136.888 339.031 138.152 342.896 138.278 344.278C138.464 346.336 138.548 348.406 138.656 350.47C138.878 354.749 139.154 359.026 139.412 363.303C145.16 361.916 150.198 358.708 155.281 355.824C149.531 350.429 155.726 340.815 159.243 335.938C164.013 329.325 169.974 324.214 176.044 318.852L175.378 318.847C168.136 318.737 158.696 317.044 158.033 308.236C157.693 303.722 159.865 299.763 163.59 297.288C165.045 296.321 174.052 293.78 174.216 292.757C169.811 292.746 165.101 293.309 160.767 292.496ZM186.709 334.464C179.298 342.131 170.335 348.016 161.588 354.021C164.172 355.592 171.658 351.26 174.164 350.322C176.908 349.294 184.053 348.1 185.226 344.763C185.746 343.284 185.487 341.351 185.991 339.733L186.173 339.142C186.643 337.585 186.978 336.148 186.709 334.464ZM190.568 316.921C190.026 314.874 187.635 316.356 186.086 316.848C176.62 319.85 169.201 326.354 162.968 333.968C159.959 337.645 157.233 341.563 155.593 346.039L155.215 347.098C154.592 348.797 153.836 350.679 154.725 352.368C155.983 354.755 157.893 354.252 159.79 353.048C168.449 347.553 176.396 341.154 184.398 334.772C188.377 331.6 188.131 326.927 189.261 322.261C189.535 321.131 190.887 318.125 190.568 316.921ZM231.925 325.487C233.782 321.744 224.717 326.138 223.943 326.592C219.943 328.93 215.398 332.725 214.184 337.412C212.623 343.436 219.707 338.961 221.702 337.108C223.514 335.424 225.052 333.461 226.677 331.603C228.292 329.756 230.828 327.7 231.925 325.487ZM207.454 291.562L207.349 291.568C205.957 291.738 203.196 296.993 202.499 297.933C200.343 300.842 198.258 303.836 196.014 306.678L195.561 307.243C194.097 309.026 193.089 309.74 192.053 307.059C191 304.335 191.025 301.379 189.403 298.842C183.172 289.097 160.323 294.986 159.471 306.479C158.987 312.993 165.277 315.652 170.644 316.583C174.375 317.23 177.637 317.193 181.196 315.827C184.129 314.701 187.532 314.353 190.341 313.106C192.337 312.22 192.809 310.159 194.759 309.528C196.107 309.092 196.941 309.602 198.39 308.692C199.951 307.712 201.401 306.423 202.862 305.3C205.055 303.611 209.363 301.249 210.49 298.604C211.03 297.334 209.34 291.552 207.454 291.562ZM204.536 284.018C200.71 286.2 196.557 287.519 192.444 289.199C188.274 290.902 183.256 290.173 179.325 292.083C183.073 293.863 186.644 292.326 189.703 296.089C192.098 299.036 192.886 303.074 193.784 306.662C196.776 303.504 199.179 299.857 201.752 296.366C203.703 293.718 207.728 290.626 206.058 287.187L204.536 284.018ZM176.813 190.77C173.037 196.401 168.247 199.94 161.612 201.751C154.119 203.796 147.083 202.387 139.613 201.138C141.465 210.043 142.314 219.054 143.496 228.056C144.568 236.213 146.037 244.316 147.442 252.421L147.823 254.632C148.957 261.241 150.134 267.796 151.466 274.358L151.973 276.819C152.679 280.197 153.386 281.62 156.827 282.389C159.624 283.014 162.561 283.429 165.389 283.909C172.113 285.049 179.933 283.748 186.494 282.111C189.897 281.261 193.299 279.949 196.789 279.547C198.127 279.392 200.117 279.71 201.266 278.836L201.791 278.443C202.224 278.112 201.974 278.2 201.935 277.318C201.873 275.915 200.258 273.773 199.646 272.449C198.858 270.746 198.082 269.041 197.389 267.297C196.125 264.122 194.929 260.898 193.765 257.686C191.248 250.745 189.376 243.345 188.561 236.031C187.768 228.912 185.286 221.532 183.33 214.592L183.115 213.823C180.978 206.105 178.71 198.558 176.813 190.77ZM70.4566 232.896C66.5629 235.702 64.9062 241.419 62.5104 245.402C59.573 250.287 56.4494 255.062 53.397 259.874C50.561 264.347 47.9289 268.968 45.0509 273.416L44.0819 274.891C43.6312 275.568 40.9491 278.84 43.2532 278.388C44.2661 278.188 46.6869 274.785 47.5128 273.521L47.6921 273.24C49.9095 269.651 52.6466 266.489 55.4035 263.138C56.1821 262.192 56.7512 261.178 57.3021 260.29C58.4199 258.489 60.2804 257.186 61.406 255.375C62.3898 253.789 62.502 251.963 63.344 250.38C64.232 248.711 65.5882 247.241 66.5072 245.597C67.5756 243.688 68.2287 241.247 68.9967 239.203C69.3741 238.2 70.2126 236.805 70.36 235.751C70.4397 234.801 70.4714 233.85 70.4566 232.896ZM166.974 218.192C168.949 217.713 170.091 224.738 170.405 225.887L171.122 228.489C171.773 230.88 172.375 233.294 172.641 235.756L172.732 236.604C172.863 238 172.833 239.4 171.341 239.214C168.309 238.837 169.821 234.188 168.876 232.561C167.841 230.778 162.896 231.335 161.178 231.167C161.542 232.921 163.625 238.147 162.705 239.861C161.795 241.555 161.017 240.903 160.151 239.582C157.98 236.27 157.584 230.041 157.247 226.394L157.225 226.186C157.063 224.839 156.38 220.673 157.483 219.798C159.005 218.592 159.592 221.346 159.804 222.588L159.871 222.999C160.232 225.19 160.038 226.603 162.452 226.967L162.669 226.998C164.264 227.199 167.241 227.176 167.102 225.551C167.032 224.738 165.473 218.556 166.974 218.192ZM175.012 224.262C176.91 223.406 181.835 237.347 178.434 237.841C175.521 238.263 173.021 225.161 175.012 224.262ZM172.793 219.924C173.051 216.822 176.706 218.294 176.566 220.768C176.385 223.973 172.547 222.874 172.793 219.924ZM135.286 165.704L135.158 166.015C134.25 168.17 133.96 167.59 132.296 166.772C130.819 166.045 129.793 166.087 128.137 166.245C126.108 166.441 125.876 167.274 124.121 168.309C122.042 169.535 120.339 168.499 118.521 167.268C118.554 171.636 114.564 173.867 111.358 175.997C107.778 178.376 104.67 181.452 100.946 183.586C96.984 185.857 92.785 187.524 88.4837 188.998L87.7236 189.256C82.944 190.866 82.5434 193.1 81.6266 197.666C83.9695 197.613 85.4343 198.671 84.5492 200.953C84.2473 201.733 83.3771 202.257 83.059 203.049C82.7501 203.816 82.7945 204.579 82.4898 205.314L82.0978 206.244C81.904 206.703 81.7169 207.154 81.5518 207.61C81.4489 207.897 80.7711 208.773 80.7309 209.025C80.6082 209.802 80.9397 210.49 80.7499 211.301C80.4241 212.688 79.5059 213.746 79.3937 215.242C81.549 213.983 83.2515 211.501 84.9928 209.735C87.2024 207.496 89.3887 205.234 91.5637 202.961L101.159 192.918C102.759 191.245 104.361 189.574 105.967 187.906C110.242 183.462 114.666 179.365 119.998 176.182C122.818 174.499 124.904 174.571 128.082 174.379C130.046 174.26 133.796 171.543 135.35 172.361C136.486 172.959 136.426 174.134 137.973 173.806C139.063 173.574 139.197 173.177 139.249 172.298C139.347 170.703 136.437 166.672 135.286 165.704ZM74.6734 119.88L74.4855 119.436C73.8842 117.967 72.6043 114.647 71.6281 115.253C71.0631 115.604 71.7656 119.806 71.8142 120.346C72.794 131.334 77.4088 141.694 79.3786 152.468L79.5454 153.42C79.8261 155.097 80.075 159.23 77.1369 158.542C75.1156 158.07 74.0986 153.963 73.327 152.373C71.109 147.804 68.771 143.346 66.7667 138.668L66.2662 137.492C64.2724 132.777 62.3432 127.998 59.2789 123.853L59.0085 123.496C57.3364 121.34 54.4497 118.572 53.7948 123.007C53.0958 127.739 55.0706 133.162 56.2653 137.646C57.7421 143.195 59.6407 148.593 61.5555 154.002C62.3482 156.242 65.0346 160.963 64.1925 163.349C63.4075 165.572 61.9434 164.951 60.5702 163.634C59.379 162.49 58.6978 160.536 57.7626 159.18C56.1906 156.903 54.4746 154.758 53.0049 152.405C49.791 147.259 47.3734 141.738 44.6038 136.359C42.019 131.341 38.3841 127.783 33.852 124.48C32.1069 127.398 33.6366 130.966 34.6892 133.845L34.7618 134.045C36.0743 137.679 37.1414 141.342 38.128 145.077L40.1489 152.681C41.4954 157.752 42.8225 162.832 44.0234 167.934C45.8507 175.695 46.7894 183.543 47.5278 191.472C48.1132 197.752 47.1343 202.097 43.9881 207.129C49.7177 206.399 55.1693 204.824 60.7586 203.428C63.7418 202.682 66.7342 201.972 69.7253 201.256C71.2458 200.892 76.5663 200.514 77.4063 199.132C78.4035 197.492 77.0854 192.803 77.1242 190.903C77.1743 188.392 77.4437 185.551 79.1264 183.527C80.7147 181.617 83.87 181.2 86.0655 180.185C88.9655 178.844 91.8092 177.376 94.7078 176.035L94.9067 175.948C97.4678 174.868 107.227 172.224 106.445 168.962C105.315 164.244 94.1648 169.522 91.0489 167.302C88.8527 165.738 87.9979 161.68 87.1559 159.305L86.2254 156.685C85.6087 154.937 85.006 153.185 84.4568 151.413C82.9574 146.579 81.7493 141.661 80.4135 136.78C78.8429 131.041 77.1312 125.313 74.6734 119.88ZM146.653 105.959C144.63 104.873 143.442 107.197 141.602 108.346C138.892 110.039 136.003 111.263 133.365 113.117C131.035 114.755 128.77 116.704 126.034 117.588L125.668 117.71C123.118 118.581 122.143 119.492 122.097 122.603C122.061 125.16 123.071 127.883 123.504 130.4C123.985 133.21 123.742 136.437 124.856 139.092C125.436 140.475 126.61 141.578 127.119 142.991L127.222 143.286C127.804 145.003 127.387 144.943 125.712 145.13C123.357 145.393 120.913 145.141 118.844 146.77C116.158 148.885 115.047 155.415 118.506 157.214C120.881 158.45 123.098 157.309 124.911 155.81C125.485 155.335 127.173 153.185 127.868 153.169C128.923 153.144 128.786 154.007 129.424 154.619C131.05 156.173 132.824 155.656 134.578 157.16C136.396 158.718 137.711 161.046 139 163.078L139.227 163.433C142.227 168.076 144.616 173.212 144.096 178.886C143.815 181.945 143.08 181.81 140.862 183.181C139.288 184.153 138.417 186.03 136.348 184.702C137 187.577 137.105 192.018 138.524 194.597C139.757 196.833 141.901 196.244 144.154 195.913L144.32 195.889C150.922 194.964 157.361 194.793 163.568 192.08C166.438 190.825 169.249 189.273 171.938 187.67C174.629 186.066 175.372 184.806 174.777 181.785L174.733 181.571C174.144 178.782 173.583 177.334 170.996 176.12L170.782 176.022C168.069 174.814 165.815 173.357 164.094 170.871C161.118 166.57 159.961 159.542 165.53 157.059L167.136 156.342C172.408 153.972 177.853 151.256 180.73 145.872C183.219 141.216 179.007 137.983 175.872 135.068C171.524 131.027 168.325 124.634 163.14 121.626C162.66 126.835 157.936 121.12 155.845 120.446C152.702 119.432 153.683 123.247 155.667 124.443L155.85 124.549C159.016 126.324 170.507 130.039 164.158 134.693L163.891 134.882C161.947 136.218 157.918 138.104 157.37 134.454C157.242 133.593 157.832 133.105 157.893 132.36C158.007 130.978 158.596 132.057 157.691 130.833C156.915 129.782 155.048 129.052 154.047 128.141C151.521 125.841 150.792 122.918 150.405 119.639L150.369 119.331C149.957 115.617 150.653 114.787 153.645 112.89C151.6 110.982 149.058 107.248 146.653 105.959ZM124.301 147.01L124.418 147.014C125.63 147.082 127.098 148.345 126.353 149.695C125.902 150.51 124.234 150.705 123.458 150.774C119.461 151.127 121.6 146.981 124.301 147.01ZM151.727 141.708C150.493 137.109 156.541 140.873 158.571 141.204C161.708 141.717 166.202 137.804 167.278 142.208C169.426 151.004 153.479 148.23 151.727 141.708ZM138.056 123.692C140.829 122.731 148.472 126.583 147.722 130.074C146.648 135.074 140.902 126.949 138.702 130.176C137.538 131.884 138.706 133.811 139.064 135.313C139.289 136.257 140.343 135.999 139.378 136.944C138.767 137.542 137.519 136.792 137.111 136.478C134.017 134.088 133.999 125.098 138.056 123.692ZM279.43 17.5141C273.224 22.2645 267.175 27.215 260.963 31.9591C258.074 34.166 255.159 36.339 252.262 38.5346C249.89 40.333 245.882 42.3067 244.122 44.6826C242.228 47.2402 246.217 50.5537 247.773 52.7261C249.229 54.7582 250.618 56.8371 251.993 58.9253L253.64 61.4331C257.255 66.9389 260.839 72.4646 264.535 77.9165L266.127 80.2481C269.434 85.0573 272.611 89.9469 275.764 94.8552L278.463 99.0653C280.268 101.884 282.072 104.702 283.86 107.531C284.83 109.065 285.735 110.669 286.771 112.159L287.191 112.762C287.858 113.7 287.987 113.622 289.44 113.263C292.148 112.594 295.137 110.193 297.597 108.889L300.567 107.311C302.546 106.256 304.519 105.191 306.471 104.089L307.932 103.256C313.871 99.8282 320.323 96.6788 325.857 92.649C328.027 91.0683 323.434 84.7887 321.178 85.2064C319.245 85.5642 317.079 87.2435 315.27 88.0725C313.45 88.906 311.614 89.7043 309.768 90.4789L307.946 91.2383C304.768 92.591 300.365 94.8091 296.965 93.5316C292.689 91.9256 294.29 87.2153 295.831 84.2625C290.777 83.0925 282.869 88.7776 278.191 84.8816C271.646 79.4317 283.787 73.2155 287.133 71.0826C285.328 70.0662 281.728 71.4336 279.628 71.8077L279.436 71.8398C276.576 72.2807 273.667 73.0528 270.749 73.0063C265.87 72.9281 263.182 68.0185 265.919 63.7632C268.698 59.4417 275.427 56.3636 279.826 54.0855C285.782 51.001 291.492 47.5762 297.144 43.9733L295.515 41.7332C289.823 33.8848 284.239 25.9399 279.43 17.5141ZM296.827 23.3627C298.107 25.9239 299.297 28.5442 300.771 31.0025C302.033 33.1073 304.182 35.1606 305.163 37.3822C306.855 41.2149 302.842 47.2677 300.411 50.0395C297.19 53.7129 293.279 56.465 289.044 58.8409C287.055 59.9568 285.053 61.0609 283.026 62.1101L281.806 62.7327C281.246 63.0151 277.821 64.214 279.754 64.6155C281.658 65.0107 285.142 63.4096 287.097 62.9588C289.883 62.3164 292.661 61.6366 295.432 60.9301C298.062 60.2596 300.693 59.5735 303.213 58.55C304.8 57.9055 307.151 56.2015 308.911 57.1067C316.721 61.1231 293.45 74.6637 290.878 76.3817C298.576 75.2045 306.708 72.723 313.836 69.5388L314.545 69.218C317.51 67.8621 319.869 68.9694 319.013 72.678C318.286 75.8337 314.182 77.8969 311.811 79.741C313.113 82.131 327.127 70.0055 330 74.4397C330.842 75.7393 330.47 77.8426 331.252 79.3888C332.114 81.0969 332.87 82.7642 333.502 84.5766C334.863 88.4762 336.5 92.4666 337.525 96.4647L337.624 96.862C338.608 100.962 338.073 102.798 343.047 102.306C347.118 101.903 351.185 101.455 355.265 101.128C358.895 100.837 362.801 101.07 366.361 100.239C370.138 99.3578 369.907 95.764 370.311 92.4116L370.335 92.2256C371.039 86.7586 370.684 81.1477 370.474 75.6455L370.445 74.8602C370.254 69.404 369.857 63.9323 368.228 58.6881C365.447 49.7359 359.95 42.4968 352.025 37.4576C348.282 35.0789 344.361 33.8425 340.025 33.2362L339.541 33.1714C334.339 32.5029 329.004 31.2096 323.884 30.053C319.36 29.031 314.809 28.807 310.245 27.5468C307.97 26.9185 305.749 26.2345 303.562 25.3892C301.375 24.5447 298.97 24.3038 296.827 23.3627ZM231.919 87.4875L232.432 86.1042C233.231 83.994 234.673 80.6399 236.185 81.2162C238.408 82.0626 236.286 84.0569 236.165 85.0884C236.101 85.6298 236.632 86.1934 236.513 86.9288C236.21 88.806 234.575 92.4446 233.075 93.7013C232.062 94.5491 230.806 93.5482 230.455 92.5174C230.031 91.2745 231.412 88.772 231.919 87.4875ZM223.377 62.2255C223.895 64.8897 223.25 66.7909 221.844 68.9635C220.676 70.7707 218.149 71.4573 217.199 73.3248C216.484 74.7323 215.096 75.4588 213.522 75.2302L213.66 77.3656C208.41 77.353 211.267 72.3528 213.279 69.96C215.686 67.0967 219.779 63.4352 223.377 62.2255ZM253.475 42.9755C255.176 41.6085 257.153 43.8017 258.096 45.1645C259.943 47.8323 260.758 51.0354 262.203 53.9282C258.042 56.2342 254.365 52.6686 252.808 48.6661C252.23 47.1795 251.967 44.1876 253.475 42.9755ZM200.145 38.4418C201.816 37.578 204.374 38.2044 206.113 38.476L207.387 38.6634C208.875 38.889 209.882 39.1514 211.005 40.4817C211.401 40.9525 211.89 40.7619 212.147 41.3435C212.453 42.041 210.89 42.0806 212.127 42.796C210.733 43.8601 208.384 42.916 206.664 42.8777L204.669 42.8467C203.133 42.8153 201.698 42.7241 200.061 42.254C197.705 41.5775 198.386 39.351 200.145 38.4418ZM212.665 13.8037C214.767 13.4068 220.188 17.5901 221.876 19.1125L222.098 19.3168C223.482 20.6178 227.685 24.9765 224.888 26.4544C222.547 27.6902 215.301 22.608 213.62 21.1653C212.107 19.8667 208.382 14.6132 212.665 13.8037ZM250.811 5.45318C251.961 5.31499 252.983 10.0142 253.094 11.3772C253.235 13.1074 252.376 14.5344 251.019 15.7927C248.709 17.9354 246.993 5.91357 250.811 5.45318Z" fill="black"/>
<path d="M127.89 123.277C127.89 125.413 127.609 127.459 127.609 129.583C127.609 130.232 127.822 130.935 128.512 131.133C128.885 131.239 130.119 131.776 130.521 131.374C131.02 130.875 130.992 129.828 131.323 129.233C131.671 128.607 131.27 127.285 131.082 126.672C130.836 125.872 130.884 125.052 130.482 124.328C130.298 123.998 130.073 123.765 129.851 123.488C129.662 123.251 129.266 123.227 129.151 122.997" stroke="black" stroke-width="2" stroke-linecap="round"/>
</svg>
