<svg width="400" height="400" viewBox="0 0 400 400" fill="none" xmlns="http://www.w3.org/2000/svg">
<path fill-rule="evenodd" clip-rule="evenodd" d="M337.349 299.24C339.337 300.231 341.196 300.23 343.152 301.002C345.093 301.768 345.599 304.944 347.258 305.323C339.564 306.107 331.985 307.77 324.197 306.943C324.871 304.28 323.66 301.554 325.283 299.055C329.62 295.078 332.44 296.791 337.349 299.24ZM304.856 116.189C304.956 118.062 305.099 118.806 306.47 120.014C307.545 120.961 308.15 119.55 308.252 121.398C308.311 122.464 307.167 123 306.725 123.862C304.519 128.155 306.042 133.701 307.125 137.979C309.324 146.652 314.693 156.082 310.909 164.897C310.528 165.786 310.222 167.713 309.485 168.394C308.513 167.896 307.804 168.114 307.357 169.046C307.088 169.339 306.82 169.631 306.552 169.923C304.851 171.447 303.042 172.013 300.785 171.203C296.235 169.571 295.483 164.449 295.459 160.417C295.432 155.974 296.409 151.32 297.453 146.99C297.956 144.906 298.73 142.486 297.289 140.52C295.928 138.662 294.246 139.709 292.906 138.88C291.479 137.997 293.534 131.511 292.128 129.791C289.674 126.788 288.819 134.135 288.78 135.635C288.737 137.279 288.829 139.196 289.628 140.686C290.256 141.857 292.3 142.884 292.65 144.066C292.978 145.17 291.54 148.039 291.318 149.224C290.976 151.05 290.857 152.915 290.759 154.766C290.427 161.018 291.439 167.598 295.88 172.45C297.826 174.577 301.126 176.993 304.213 176.606C306.938 176.264 309.677 174.838 312.218 173.869C313.927 180.232 316.494 186.395 319.23 192.404C321.607 197.628 323.842 202.978 326.339 208.138C331.603 219.014 340.146 228.278 346.822 238.334C353.267 248.043 356.881 259.183 357.747 270.644C357.952 273.354 357.135 277.063 357.787 279.597C358.398 281.973 358.934 283.005 358.534 285.596C358.089 288.475 357.228 291.13 357.598 294.059C357.927 296.658 359.204 300.531 357.808 302.939C356.13 301.206 354.456 300.39 353.438 298.079C352.404 295.734 352.811 293.806 350.469 292.776C348.468 291.895 347.032 292.087 345.267 290.645C343.122 288.894 341.66 286.754 340.603 284.247C338.799 279.969 338.538 275.331 340.063 270.938C341.286 267.415 344.858 260.821 349.865 263.181C349.121 261.701 348.626 260.091 347.207 259.129C345.971 258.292 344.124 258.019 342.744 257.066C341.201 256.001 339.455 254.864 337.733 254.086C337.064 253.783 336.432 253.632 335.741 253.425C334.913 253.177 333.342 253.355 333.239 253.34C330.282 252.907 326.984 251.527 325.178 249.448C323.819 247.882 322.617 246.421 321.579 244.63C320.232 242.306 319.714 242.447 317.129 241.894C313.372 241.093 310.989 240.546 307.984 237.845C304.652 234.849 302.213 231.116 299.774 227.441C298.346 225.287 297.09 225.155 294.762 224.295C293.408 223.796 291.533 221.558 290.301 221.392C289.945 221.344 288.241 222.095 287.665 222.185C286.635 222.347 285.74 222.318 284.708 222.213C282.34 221.972 280.247 221.364 278.655 219.568C273.752 214.038 272.257 201.002 278.97 196.298C280.249 195.401 282.031 194.989 282.785 193.5C283.651 191.792 283.257 188.574 283.188 186.772C283.109 184.717 283.009 182.48 282.692 180.453C282.547 179.522 282.438 179.13 282.046 178.198C281.268 176.349 281.04 176.618 279.438 176.173C277.152 175.539 276.119 175.788 274.718 173.686C273.6 172.009 273.077 169.896 272.976 167.913C272.881 166.063 273.742 164.353 273.023 162.678C271.97 160.225 270.019 158.369 269.163 155.686C268.442 153.426 266.579 148.381 268.415 146.296C269.238 145.361 270.699 145.225 271.514 143.974C272.935 141.797 273.509 140.606 275.618 138.89C277.174 137.624 278.668 135.737 280.544 134.962C282.388 134.201 284.129 135.427 285.627 135.091C287.259 134.724 286.83 131.055 287.283 129.403C287.893 127.175 289.203 124.852 290.79 123.114C291.319 122.533 291.98 122.422 292.392 121.65C292.951 120.604 292.729 119.115 293.165 117.972C293.685 116.606 294.947 114.254 296.359 113.506C300.481 111.318 301.72 116.955 304.856 116.189ZM295.208 277.952C295.79 279.471 295.468 281.912 296.138 283.22C296.671 284.261 298.812 284.922 299.862 286.164C302.11 288.824 302.966 293.097 302.15 296.381C299.399 295.723 297.56 295.302 294.763 295.649C294.481 289.696 294.745 283.902 295.208 277.952ZM261.21 282.438C263.082 284.461 264.01 286.845 263.74 289.549C263.643 290.511 263.34 291.861 263.047 292.785C262.726 293.8 261.128 295.7 261.748 296.244C260.002 296.143 257.95 296.339 256.692 295.245C255.563 294.263 254.773 291.732 254.315 290.39C255.196 288.685 256.078 286.98 256.96 285.275C257.534 286.157 259.219 288.462 260.611 287.725C261.66 287.169 260.813 283.56 261.21 282.438ZM326.899 266.671C329.041 268.6 329.773 272.078 329.664 274.778C329.699 278.498 328.37 285.946 323.379 286.195C319.368 286.396 315.09 280.829 314.639 277.388C314.145 273.615 315.432 264.594 320.535 263.818C322.413 263.533 325.545 265.452 326.899 266.671ZM291.048 271.482C291.134 273.921 291.176 276.268 290.976 278.698C290.81 280.731 291.365 283.131 290.896 285.076C287.928 281.859 284.02 278.356 284.138 273.626C284.25 269.156 288.072 269.536 291.048 271.482ZM261.144 217.731L263.627 220.37C263.698 224.077 263.623 227.743 264.787 231.317C266.013 235.078 268.066 238.703 270.099 242.104C274.051 248.714 274.993 254.948 275.469 262.508C268.037 259.281 263.984 248.254 261.532 241.356C260.234 237.704 258.887 234.049 257.663 230.375C256.455 226.751 254.32 222.016 255.725 218.199C258.425 220.123 259.593 221.114 261.144 217.731ZM307.456 243.751C311.085 246.548 311.359 250.828 312.662 254.74C311.911 255.321 311.086 255.833 310.407 256.496C309.988 256.906 309.001 258.582 308.679 258.755C307.393 259.444 306.27 258.559 305.014 257.448C302.541 255.259 300.998 250.614 301.114 247.402C301.249 243.65 303.986 241.076 307.456 243.751ZM358.231 227.314C362.948 229.933 361.718 237.179 361.129 241.266C360.76 243.828 361.578 246.434 361.521 248.871C361.458 251.622 359.985 251.052 359.043 252.759C358.225 250.688 356.725 248.196 356.384 246.025L355.842 244.652C356.301 244.473 356.545 244.163 356.573 243.72C356.766 242.668 356.763 241.596 356.824 240.523C357.074 236.09 357.42 231.685 358.231 227.314ZM286.364 232.207C285.842 234.136 285.459 237.767 282.526 236.648C280.212 235.765 279.653 232.2 279.648 230.212C279.644 228.581 279.921 225.584 282.275 225.486C285.165 225.366 286.197 230.323 286.364 232.207ZM264.037 178.494C262.086 181.523 260.732 185.997 261.654 189.583C262.621 193.349 265.631 194.26 268.308 191.49C270.517 194.861 265.988 200.864 261.939 197.659C261.063 196.967 260.476 195.641 259.393 195.209C258.506 194.855 257.72 195.336 256.814 195.137C254.027 194.523 252.975 191.87 251.88 189.643C252.18 187.828 252.499 186.029 252.904 184.232C253.12 183.277 253.344 182.323 253.563 181.368C253.934 179.745 253.818 179.948 255.032 179.143C258.233 177.023 260.435 176.918 264.037 178.494ZM265.69 180.129L268.032 185.176C266.756 184.878 265.366 188.589 264.532 189.312C264.143 186.224 265.076 183.132 265.69 180.129ZM264.392 162.891C266.51 163.755 266.931 167.502 267.006 169.314C266.424 171.222 265.88 173.663 263.419 172.319C261.777 171.422 261.073 168.468 261.017 166.854C260.947 164.831 261.731 161.804 264.392 162.891Z" fill="#567BFF"/>
<path fill-rule="evenodd" clip-rule="evenodd" d="M137.496 59.1275L137.455 59.0959L139.373 59.2853C139.195 59.2798 139.014 59.3007 138.833 59.3233C141.384 59.7909 143.791 60.7967 145.806 62.5335C147.945 64.3768 149.249 67.3066 149.978 69.9238L150.039 70.1532C150.663 72.6699 150.446 76.5332 147.885 72.7856L147.046 71.5437C145.688 69.5399 144.294 67.6585 141.955 66.6583C139.437 65.5814 136.362 64.9999 133.618 65.2285C127.151 65.7667 121.911 67.6069 117.435 72.2455C112.486 77.3742 112.234 85.5624 113.301 92.084C114.241 90.1551 114.878 87.1008 117.513 86.7325C119.71 86.4254 123.173 89.1436 121.994 91.4838C116.645 90.1622 115.08 98.002 119.706 98.4741C121.106 98.6169 122.88 96.2009 124.169 96.7636C126.581 97.8152 123.349 101.439 122.712 102.633L121.696 103.239C122.03 103.99 122.366 104.739 122.706 105.488C123.118 106.442 123.511 107.399 123.873 108.372L124.341 109.633C125.065 111.604 125.763 113.619 126.2 115.652L126.27 115.989C126.762 118.421 126.964 121.196 125.744 123.449C124.341 126.04 123.02 125.721 121.942 123.256L120.731 123.998C118.301 125.481 115.811 126.914 112.969 127.497L113.213 127.89C116.657 133.376 121.105 138.054 127.717 139.791C133.454 141.299 140.675 141.244 146.149 138.75C151.773 136.188 154.893 130.234 154.298 124.277L154.279 124.096C154.131 122.782 153.551 119.276 154.042 118.633C153.846 118.564 153.689 118.436 153.605 118.225C153.288 118.128 153.002 117.996 152.764 117.82C150.119 115.867 153.07 114.717 154.826 114.451L154.883 114.443C162.131 113.41 169.359 112.788 176.654 112.336L175.139 112.367L175.362 112.282C175.909 112.081 176.458 111.949 177.017 112.313L178.114 112.247C178.479 112.226 179.817 111.962 180.262 112.098C181.277 112.409 180.868 112.769 181.476 113.089C182.602 113.682 183.887 114.119 185.316 114.487C189.211 115.49 193.132 117.141 197.04 118.493L198.161 118.876C205.41 121.373 213.952 125.13 221.132 124.449L221.697 124.394C223.27 124.235 224.646 124.075 226.346 124.235C228.572 124.445 229.871 125.551 231.582 125.873C233.873 126.304 237.15 125.98 239.562 126.063C241.862 126.142 244.163 126.245 246.464 126.245C244.511 122.439 243.296 118.857 242.191 114.803L242.078 114.381C241.458 112.075 240.526 109.98 240.93 107.552C241.121 106.405 241.594 105.328 242.109 104.293C242.887 102.729 243.108 103.056 243.384 101.325C243.764 98.9424 243.219 96.4302 243.518 94.0404C243.824 91.5879 245.737 89.4019 245.95 87.0572C246.063 85.8097 245.343 84.7915 245.559 83.4459C245.751 82.2424 246.487 80.9806 247.147 79.9673C248.685 77.6061 250.558 76.2673 253.157 75.3054L253.406 75.2149C255.455 74.4796 257.996 73.8721 260.024 75.075C262.178 76.3522 262.023 78.9227 263.055 80.7983C265.274 84.8313 270.394 88.4355 274.475 90.4953C278.225 92.3874 282.264 93.5826 286.284 94.8166C288.731 95.5676 291.246 96.1032 293.651 96.9613L293.855 97.0363C295.597 97.6909 298.272 99.0427 299.967 98.1674C301.503 97.374 303.295 94.9526 304.815 93.8284L305.004 93.6902C306.76 92.4262 309.045 91.2699 311.206 92.3753C313.445 93.5206 313.261 97.7423 315.003 98.5361C315.61 98.8128 317.413 98.0024 318.241 98.1302C319.577 98.3362 320.497 99.1379 321.298 100.125C324.29 103.812 325.217 109.659 325.348 114.205L325.343 113.272C325.682 113.89 325.692 114.509 325.365 115.13C325.375 117.207 325.169 119.559 323.926 121.234C322.257 123.483 319.098 123.539 316.955 125.122C315.241 126.388 314.027 128.457 312.288 129.806C311.91 130.099 311.614 130.21 311.37 130.286L311.396 130.288C311.798 133.656 311.881 137.153 312.597 140.472C312.51 140.358 312.404 140.159 312.287 139.893C313.312 142.98 314.567 145.988 315.78 149.057C316.672 151.315 317.428 153.573 317.836 155.966C318.102 157.536 317.795 158.909 317.924 160.419C318.015 161.495 318.487 162.423 318.383 163.526C318.163 165.861 316.855 167.924 316.023 169.978C315.074 172.32 316.377 176.375 317.333 178.797C319.622 184.599 322.842 190.46 325.703 196.035C328.513 201.511 330.604 207.342 333.878 212.603C337.057 217.712 340.799 222.714 344.416 227.546C346.295 230.054 348.28 232.449 350.019 235.049L350.388 235.609C350.683 236.066 352.253 238.99 353.335 240.403C353.266 239.428 353.804 237.873 353.871 237.624L354.214 241.161C353.349 232.24 354.224 222.961 354.611 214.046C355.087 203.066 353.676 193.104 350.545 182.64L350.389 182.125C349.695 179.842 349.07 177.51 348.56 175.177L348.424 174.541C348.051 172.759 346.997 171.295 349.583 172.074C353.816 173.349 357.547 181.021 359.735 184.489L359.809 184.606C364.683 192.242 368.755 202.426 369.301 211.383C369.838 220.174 369.375 228.586 368.241 237.248C367.682 241.521 366.778 246.285 365.397 250.372C364.686 252.474 363.833 254.651 362.887 256.666C362.487 257.516 361.611 258.477 361.459 259.411C361.219 260.893 362.34 262.892 362.62 264.356C363.536 269.145 363.747 274.108 363.435 278.968C363.274 281.466 362.926 283.711 362.125 286.051L362.018 286.357C361.124 288.855 361.277 290.882 361.613 293.241L361.885 295.085L361.931 295.413C362.408 299.004 362.747 306.421 359.164 308.319L358.38 308.24C357.719 307.503 357.133 307.546 356.621 308.372C355.665 308.674 354.731 309.452 353.724 309.787C351.388 310.565 348.867 310.612 346.43 310.954C341.66 311.623 336.906 312.804 332.22 312.947C326.671 313.116 320.882 312.905 315.457 311.963C314.335 311.767 313.024 311.252 311.903 311.153C310.381 311.019 309.312 312 307.741 311.769C305.305 311.412 303.766 308.914 303.607 306.867C303.1 300.344 306.834 297.353 312.936 296.195L312.615 295.753C308.75 290.479 304.425 286.046 303.404 279.21C302.372 272.297 304.611 264.296 308.679 258.758C312.583 253.441 319.246 249.887 326.117 251.235L326.322 251.277C329.901 252.034 344.292 256.264 341.442 261.05C340.797 258.816 336.831 259.248 334.915 258.926C331.736 258.39 328.557 257.583 325.332 257.75C318.988 258.077 312.856 261.713 309.785 267.219C306.279 273.503 307.827 279.773 311.996 285.156L313.297 286.811C316.837 291.299 320.564 295.838 325.282 299.058L325.175 299.227C324.293 300.655 324.561 301.099 322.622 300.83C321.24 300.638 319.947 299.594 318.55 299.333C315.654 298.794 311.095 301.095 309.305 303.395L309.198 303.536C308.252 304.802 308.355 305.455 310.236 306.263C311.675 306.88 313.941 306.561 315.486 306.695C319.331 307.028 323.249 307.139 327.106 307.126C333.782 307.102 339.991 306.064 346.598 305.392C349.527 305.094 352.589 305.437 355.454 304.393C359.335 302.979 358.384 298.824 357.881 295.459C357.474 292.731 357.739 290.504 358.145 287.977L358.431 286.238C358.665 284.804 359.103 283.149 358.793 281.706C358.425 279.991 357.765 279.232 357.85 277.32C358.149 270.514 357.268 263.347 355.407 256.778C351.406 242.657 341.695 231.482 333.514 219.497L333.262 219.126C330.937 215.701 328.492 212.456 326.641 208.747C324.888 205.233 323.68 201.516 321.939 197.992L321.405 196.907C317.766 189.481 314.357 181.837 312.218 173.872C309.676 174.841 306.938 176.267 304.213 176.609C301.126 176.996 297.826 174.58 295.879 172.453C291.439 167.601 290.427 161.021 290.759 154.769C290.857 152.918 290.976 151.053 291.318 149.227C291.54 148.042 292.978 145.173 292.651 144.069C292.3 142.887 290.256 141.86 289.628 140.689C288.829 139.199 288.737 137.282 288.779 135.638L288.785 135.488C288.872 133.706 289.747 126.881 292.128 129.794C293.534 131.514 291.479 138 292.906 138.883C294.19 139.677 295.958 138.707 297.289 140.523C298.727 142.485 297.957 144.904 297.453 146.993L297.258 147.808C296.292 151.898 295.434 156.259 295.459 160.42L295.464 160.819C295.535 164.792 296.377 169.625 300.785 171.206C303.087 172.032 304.835 171.464 306.551 169.926C306.945 169.487 307.346 169.055 307.756 168.63C308.131 168.004 308.708 167.926 309.485 168.397C310.06 167.954 310.912 164.895 311.2 164.211C314.694 155.913 309.276 146.398 307.188 138.229L307.125 137.982C305.878 132.951 304.79 127.906 307.315 123.051C307.724 122.265 308.85 121.582 308.175 120.455C307.997 120.158 306.297 120.019 305.894 119.674C304.582 118.552 304.856 116.461 304.856 114.963C301.823 115.87 300.949 113.582 301.343 110.779L301.139 110.812C298.986 111.165 297.484 111.721 296.671 109.26C295.929 107.01 297.05 104.716 297.795 102.62L295.902 102.419C285.98 101.345 275.52 99.7188 267.678 93.138C265.621 91.4116 263.91 89.2387 262.484 86.9877C262.227 86.5806 261.014 83.715 260.612 83.5654C259.417 83.1208 258.414 85.3865 257.352 85.9477C256.408 86.4461 255.067 86.7208 254.018 87.0245C253.031 87.3105 249.552 87.3677 248.935 87.8642C247.631 88.9137 247.516 94.2034 247.505 96.8228L247.502 97.9517C247.46 103.69 248.782 109.409 251.226 114.634L251.553 115.327C253.856 120.172 257.263 126.471 261.655 129.542C262.819 130.357 263.866 130.779 265.341 130.711C266.394 130.664 267.438 129.949 268.535 130.32C271.311 131.262 270.318 133.132 268.184 134.016C262.085 136.544 256.945 130.986 253.418 127.103C252.386 131.71 257.174 137.161 259.708 140.92C261.092 142.973 262.463 145.028 263.793 147.112L264.853 148.789C265.979 150.597 267.335 153.06 263.869 151.839C261.99 161.395 256.835 169.751 254.202 179.037L253.928 180.011C251.342 189.306 249.143 199.789 249.143 209.38C251.201 207.991 252.239 201.663 255.007 206.506C255.306 207.03 255.212 207.897 255.607 208.355C256.153 208.989 256.81 208.813 257.647 209.264C258.973 209.979 259.829 211.405 258.643 212.642L258.813 212.606C260.287 212.313 261.782 212.538 262.099 214.224C262.283 215.206 260.799 219.758 259.691 220.129C256.315 221.262 252.571 214.729 251.656 212.651L251.521 212.781C249.444 214.767 247.075 216.21 245.172 212.962C243.723 210.489 244.564 206.747 244.769 204.055C245.18 198.631 245.718 193.341 246.525 187.969C248.039 177.897 251.882 168.939 256.602 159.872C257.902 157.377 259.342 154.823 260.503 152.269C262.218 148.494 259.622 149.292 256.997 149.851L256.837 149.885C251.591 150.982 246.098 151.832 240.798 152.221L240.194 152.263C237.53 152.444 234.299 152.599 231.83 153.319L231.553 153.398C230.02 153.823 230.233 153.598 229.569 155.328L229.394 155.778C229.09 156.539 228.737 157.319 228.224 157.963C225.203 161.756 217.38 161.121 213.06 160.839C213.322 159.239 213.581 157.639 213.852 156.04C210.526 156.798 206.576 157.325 203.151 157.286C201.307 157.266 199.345 156.994 197.506 156.845C196.15 156.736 193.579 155.804 192.302 156.166C190.822 156.587 188.584 161.773 187.738 163.445C186.149 166.585 183.31 170.074 182.308 173.381C181.419 176.312 183.232 181.37 183.802 184.288L184.229 186.488C184.87 189.788 185.541 193.077 186.579 196.287L187.214 198.195C188.138 200.936 189.363 204.092 191.981 205.353L192.393 205.55C195.176 206.868 197.289 207.607 200.33 207.375L200.554 207.356C206.252 206.84 212.305 207.656 217.95 208.718L218.353 208.795C224.283 209.926 229.714 210.436 235.345 212.453C248.118 217.028 256.252 231.123 251.436 244.034C248.666 251.461 244.103 256.98 237.409 261.574C233.999 263.915 229.969 265.815 226.23 267.619C224.656 268.378 223.106 269.286 221.511 269.999L221.075 270.188C219.796 270.726 217.599 271.964 216.21 272.1C217.751 272.811 219.116 272.145 220.72 271.924C222.99 271.611 225.308 271.544 227.586 271.271C230.541 270.917 233.46 270.635 236.403 270.304L238.173 270.098C241.201 269.734 244.617 269.605 247.626 270.024C249.08 270.227 251.267 270.627 252.562 271.306C253.58 271.839 254.513 273.069 255.608 273.678C256.812 268.886 256.249 262.978 256.305 258.053C256.351 254.033 256.536 250.101 256.927 246.1C257.356 241.704 254.639 236.716 253.554 232.387L253.496 232.151C252.52 228.049 249.919 222.849 250.876 218.567C252.072 213.223 255.18 222.674 255.664 224.209L255.677 224.253C256.924 228.229 258.355 232.119 259.745 236.041L260.495 238.165C262.169 242.892 263.903 247.482 266.334 251.931L266.842 252.859C268.903 256.609 271.347 260.721 275.47 262.511L275.406 261.522C275.048 256.05 274.55 250.944 272.184 245.858C269.805 240.745 266.178 236.199 264.592 230.72C263.835 228.103 263.699 225.428 263.655 222.726L263.647 222.078C263.64 220.239 263.831 218.082 265.806 220.007C267.467 221.624 267.789 226.784 268.516 228.961C268.822 229.878 269.232 230.73 269.588 231.611L269.738 231.991L269.94 232.442L270.563 233.731C270.825 234.28 271.053 234.782 271.081 234.956L271.084 234.983C271.084 234.984 271.085 234.986 271.086 234.988C273.917 237.21 276.131 241.753 276.843 245.165C278.128 248.03 279.589 250.853 280.36 253.9C281.146 257.01 280.845 259.914 280.941 263.049L280.953 263.374C281.156 268.465 280.772 273.528 280.791 278.622L280.8 279.577C280.866 284.194 280.684 288.695 280.731 293.263C280.758 295.792 280.636 298.312 280.612 300.837L280.609 301.937C280.62 302.165 280.717 304.519 280.522 304.644C279.602 305.236 278.596 304.395 278.314 303.585L275.586 306.576C277.016 306.228 278.775 305.501 280.244 305.437C280.807 305.236 281.367 305.23 281.926 305.42C282.48 305.745 282.891 306.197 283.158 306.778C287.009 307.573 289.321 304.251 290.013 301.28C291.513 294.835 290.972 288.472 290.864 281.966C290.628 267.83 292.945 253.779 292.726 239.643L292.697 238.005C292.662 235.825 292.661 233.657 293 231.473C293.779 226.452 294.927 230.952 295.131 233.365L295.136 233.438C295.682 240.437 296.621 247.653 296.177 254.704L296.137 255.291C295.76 260.376 295.704 265.497 295.539 270.607L295.502 271.703C295.463 272.782 295.418 273.859 295.363 274.936C295.007 281.888 294.433 288.693 294.763 295.651L295.058 295.618C297.254 295.386 302.915 295.179 303.531 297.68C304.093 299.967 301.829 299.121 300.653 299.024C298.745 298.867 296.882 299.301 294.798 298.939L294.871 300.333C295.009 303.169 294.978 306.443 292.552 308.219C291.268 309.159 289.21 310.015 287.619 310.616L287.215 310.766C285.618 311.357 282.911 312.666 281.247 312.594C280.069 312.543 279.615 311.929 278.323 312.027C276.406 312.173 274.746 313.416 272.713 312.389C268.859 310.442 270.753 304.778 273.187 302.508L273.412 302.3C273.983 301.777 274.619 301.249 275.362 300.997C275.762 300.861 277.437 301.025 277.63 300.822C278.343 300.072 277.453 295.686 277.358 294.853L277.056 292.223C276.654 288.705 276.273 285.149 276.109 281.64L275.897 277.2C275.771 274.552 275.649 271.904 275.555 269.259C275.535 268.706 275.683 267.795 275.71 266.993C275.286 268.234 272.077 266.498 271.175 266.113L271.35 267.752C272.281 276.626 272.927 285.829 269.7 294.152L269.423 294.855C268.671 296.786 267.778 299.305 265.912 300.328C264.071 301.337 259.788 301.219 257.493 301.329L257.346 301.336C254.922 301.468 252.55 300.919 251.214 298.713C250.163 296.978 250.793 294.895 252.951 294.138C254.243 293.685 254.494 293.977 255.626 294.515C255.871 294.902 256.044 295.317 256.143 295.761H257.013C258.192 296.271 262.904 296.841 264.2 296.028C265.666 295.109 266.012 292.66 266.623 291.137L266.668 291.027C267.857 288.216 268.172 285.935 268.604 282.93C269.279 278.227 268.595 272.774 268.608 267.874L268.614 265.804L268.621 263.485C268.635 261.649 268.759 261.601 267.583 260.163C265.734 257.901 263.625 255.591 261.646 253.423C262.718 259.756 262.279 266.424 261.853 272.733C261.615 276.278 261.12 279.888 260.893 283.385C260.825 284.436 261.604 287.334 260.344 287.799C259.067 288.27 257.476 286.071 256.96 285.278L256.727 285.725C253.957 291.012 250.621 296.058 244.968 298.799C241.98 300.249 238.868 300.902 235.606 301.471C232.585 301.998 229.793 302.958 226.814 303.412C220.648 304.349 214.97 304.482 208.765 304.277C202.912 304.084 197.307 305.132 191.473 303.813C189.196 303.298 186.895 302.353 185.338 300.663C184.489 299.741 184.113 298.29 183.256 297.44C183.063 296.34 182.396 296.001 181.253 296.422C180.536 296.454 179.821 296.431 179.109 296.353C173.257 296.056 166.753 296.387 161.082 294.767L160.82 294.691C158.741 294.068 156.571 293.034 157.601 290.529C158.525 288.282 161.05 288.919 163.155 289.13L163.253 289.139C164.468 289.253 165.68 289.386 166.89 289.53C166.803 289.495 166.715 289.454 166.628 289.406L168.814 289.411C168.548 289.541 168.282 289.628 168.016 289.667C172.569 290.229 177.11 290.912 181.752 291.307C181.551 288.138 181.724 284.905 183.006 281.941C178.665 281.413 174.164 280.616 170.034 279.273C168.758 278.858 167.488 278.427 166.223 277.983L165.909 277.871C164.179 277.236 164.506 277.131 163.363 278.339C161.845 279.941 160.916 283.286 159.816 285.222C158.578 287.401 157.391 289.556 156.348 291.83C155.361 293.983 154.625 296.867 153.121 298.722C149.847 302.761 142.33 303.149 137.816 301.603L136.683 301.205C135.231 300.691 134.494 300.344 133.427 298.849L133.125 298.422C131.885 296.689 131.413 296.51 129.095 296.258L128.824 296.229C123.959 295.715 119.367 294.532 114.81 292.898C109.994 291.171 105.05 289.825 100.249 287.961L97.4262 286.861C93.9121 285.494 90.4317 284.174 86.7605 283.099C86.2086 286.498 88.4952 290.331 88.4952 293.836L89.8344 293.707C91.8252 293.513 93.7453 293.318 95.7388 293.027L96.4062 292.926C97.3625 292.778 103.388 291.467 103.976 292.241C106.402 295.432 95.4977 296.95 93.5883 297.393L93.5333 297.406C87.9483 298.772 82.2533 300.041 76.6331 301.097L74.9161 301.419C69.7757 302.38 64.7219 303.267 59.4808 303.441C49.6268 303.769 36.0351 303.217 36.5055 290.669C36.6901 285.753 38.78 280.417 42.7792 277.21C45.2674 275.215 48.3703 274.119 51.4123 273.216C52.2484 272.967 55.7393 272.472 57.5464 272.058C57.5002 272.04 57.4526 272.019 57.4037 271.996L58.6369 271.673C57.0241 270.553 54.3057 270.233 52.3383 269.406L52.1375 269.319C50.2504 268.467 48.259 268.15 46.3273 267.292C42.4674 265.577 38.7393 263.48 35.1702 261.359C32.3318 259.673 29.462 257.81 26.8489 255.805L26.1964 255.303C24.3573 253.886 22.6079 252.488 21.1228 250.859C20.2541 249.906 18.7164 249.063 18.0207 248.242C15.5774 245.36 18.1541 239.626 19.1946 236.271C20.7144 231.367 22.7427 226.149 25.7339 221.901C28.4847 217.994 31.5515 215.363 36.4857 214.447C41.0398 213.603 45.6191 213.335 50.2768 213.098C49.4942 210.212 48.3924 208.176 48.672 205.011C48.9277 202.117 50.3978 199.24 51.5995 196.589L52.8402 193.825C54.7207 189.647 56.6384 185.566 59.2244 181.689C60.9301 179.132 62.8459 176.704 64.7078 174.254L64.7658 174.183C65.1942 173.677 66.8704 172.026 66.8027 171.543C66.7318 171.037 64.8578 169.497 64.5709 169.144L64.418 168.954C62.5753 166.637 61.372 164.152 63.5746 161.683L63.6711 161.577C64.9333 160.224 68.2663 157.732 69.8925 159.369C71.6977 155.833 74.8553 153.423 77.3137 150.415C80.3786 146.665 83.305 142.857 86.1741 138.929C89.0307 135.018 91.3642 130.816 95.1508 127.664C99.3706 124.152 103.343 124.455 108.526 125.957L108.559 125.754C108.854 124.037 109.303 124.254 111.167 123.63C112.63 123.141 114.053 122.56 115.492 122.007C116.894 121.467 118.312 121.142 119.743 120.735L120.597 120.489C122.266 120.021 122.556 120 122.868 117.586C123.268 114.492 121.943 111.225 121.04 108.294L120.977 108.085C120.531 106.613 120.222 104.78 119.22 103.79C118.314 102.894 116.707 102.486 115.716 101.496C107.175 92.9632 107.041 74.745 116.138 66.815C117.906 65.2736 119.364 63.1999 121.565 62.1592C123.982 61.0161 127.169 60.0919 129.831 59.5533C132.326 59.0486 134.959 58.8464 137.496 59.1275ZM196.685 279.622C194.059 279.876 191.14 279.857 188.668 280.774L188.488 280.839C186.959 281.382 186.918 281.095 186.265 282.97C185.863 284.121 185.575 285.435 185.567 286.646C185.551 289.092 186.356 291.95 187.396 294.152C188.386 296.248 189.951 298.496 192.103 299.622C194.583 300.92 198.077 300.147 200.985 300C202.253 299.842 203.458 299.794 204.738 299.794C201.855 295.263 199.677 290.197 199.653 284.799C199.65 284.093 200.526 280.035 200.236 279.698C199.671 279.041 197.327 279.56 196.685 279.622ZM237.28 276.2C234.108 276.454 231.024 277.109 227.894 277.483L227.222 277.558C223.957 277.9 219.574 278.956 216.402 278.165C216.319 279.43 217.41 281.13 217.79 282.418C218.217 283.865 218.605 285.323 218.962 286.788L219.138 287.521C219.571 289.353 222.252 295.939 219.814 297.255C216.951 298.801 215.585 292.183 215.229 290.569L215.116 290.057C214.317 286.381 213.688 282.708 214.538 279.013C210.884 278.374 206.478 279.322 202.71 279.574C204.114 284.366 205.02 289.385 206.253 294.235C206.471 296.318 207.302 297.825 205.889 299.699L208.067 299.545C210.058 299.407 212.039 299.295 214.045 299.344C216.185 299.397 219.358 299.86 221.415 299.04L221.575 298.973C222.41 298.602 222.694 299.241 223.123 298.531C223.531 297.857 222.573 295.619 222.458 295.064C221.906 292.4 221.637 289.667 221.135 286.986L221.093 286.77C220.717 284.873 219.826 281.454 221.051 279.779C222.571 277.698 223.4 279.69 223.919 281.369L224.234 282.429C225.84 287.708 225.747 292.721 225.747 298.145C228.166 298.145 231.344 297.121 233.676 296.504L234.892 296.183C237.748 295.429 240.72 294.637 243.448 293.664C246.388 292.614 248.978 291.084 250.837 288.619L251.036 288.352C252.5 286.368 255.276 282.136 254.545 280.191C253.606 277.692 249.128 275.974 246.737 275.699C243.634 275.342 240.455 275.946 237.28 276.2ZM299.545 299.417L297.306 299.375L297.502 299.344C298.187 299.227 298.873 299.05 299.545 299.417ZM156.323 267.447C155.474 267.99 154.779 270.434 154.233 271.322C153.366 272.733 152.381 274.075 151.44 275.44C147.038 281.827 142.603 288.046 137.877 294.209C137.776 296.099 142.574 297.258 144.032 297.372C147.916 297.674 150.457 296.051 151.828 292.843L151.888 292.7C154.654 285.966 159.048 280.016 161.003 272.98L161.362 271.648C161.765 270.129 161.865 269.287 160.268 268.379L160.17 268.325C159.35 267.877 157.214 266.877 156.323 267.447ZM64.5366 275.22L64.3568 275.263C59.6778 276.416 52.3058 277.234 48.8163 280.342C45.3593 283.422 44.1012 293.809 48.8876 296.319C50.1581 296.866 51.904 296.572 53.2851 296.678C55.4432 296.842 57.6235 297.22 59.7961 297.153C63.1111 297.05 66.5863 296.644 69.9041 296.277C68.0601 293.053 66.9226 289.997 66.647 286.335L66.5577 285.008C66.3935 282.348 66.1853 276.291 68.3893 276.598C69.6404 276.773 69.3747 283.985 69.6175 285.313C69.9704 287.241 70.4257 289.214 70.9799 291.101C71.3821 292.469 72.7503 294.519 72.3997 295.999L77.4184 295.211C76.1177 292.698 75.1675 290.445 74.6804 287.641C74.445 286.288 74.5951 284.604 74.1386 283.319C73.8509 282.509 73.1947 281.747 73.1071 281.068C73.0058 280.285 73.8916 278.359 73.5639 277.663C73.2512 276.998 71.1273 276.382 70.2863 276.001L69.8973 275.818C67.9734 274.929 66.7281 274.707 64.5366 275.22ZM76.5012 278.961C77.2076 281.641 77.8663 284.313 78.4338 287.02L78.6195 287.923C79.0301 289.964 80.4104 292.848 79.6902 294.844L85.2875 294.115C83.9034 291.063 83.1751 287.805 82.764 284.507L82.7364 284.272C82.5351 282.442 82.7722 281.868 81.2659 280.79C80.0509 279.92 77.9117 279.502 76.5012 278.961ZM40.8172 288.511C40.2374 290.952 40.7226 292.592 42.7388 294.171C41.9042 290.682 42.904 287.207 43.7518 283.823C42.5852 283.322 41.0251 287.635 40.8172 288.511ZM66.3998 218.502C57.0577 218.945 46.5921 218.312 37.6045 220.837L36.3395 221.194C32.7969 222.209 30.374 223.134 28.2439 226.632C25.4977 231.142 23.1515 235.829 21.1538 240.7C20.8622 241.412 20.2029 242.438 20.2267 243.215C20.2762 244.7 20.8242 244.358 22.2928 245.204C23.8798 246.118 25.4353 247.204 26.9513 248.234C29.5508 250 32.7782 251.843 35.4751 253.22C38.3143 254.67 41.1719 255.989 44.0532 257.414L45.2895 258.031C47.381 259.089 49.5457 259.953 51.5973 261.115C53.8245 262.377 56.3182 262.736 58.7191 263.721C65.8303 266.64 72.7225 269.346 79.6932 272.622L80.6442 273.072C87.4092 276.299 94.2481 279.052 101.162 281.888L102.254 282.337C111.671 286.209 120.994 289.791 130.815 292.469C131.534 292.666 133.045 293.357 133.755 293.326C135.235 293.26 135.599 292.237 136.461 291.064L136.53 290.971C138.322 288.589 140.049 286.162 141.763 283.728C145.482 278.448 149.119 273.109 153.123 268.024C141.777 264.956 131.257 259.295 121.284 253.485L121.23 253.64C120.828 254.856 120.463 257.22 119.16 257.591C117.477 258.069 116.254 255.809 115.499 254.77L115.446 254.905C114.725 256.776 113.507 262.302 111.279 262.178C108.122 262.002 108.679 257.185 108.286 255.275L107.869 255.808C106.225 257.885 104.342 259.823 102.163 256.647C100.524 254.257 100.706 250.062 101.198 247.397C101.461 244.937 101.8 242.579 102.371 240.166C102.722 238.683 104.204 235.638 103.716 234.241C103.358 233.215 101.228 232.322 100.399 231.764C97.9989 230.148 95.6554 228.448 93.2796 226.799C91.1963 225.353 89.0819 223.942 87.0377 222.444C85.1444 221.057 83.7153 219.332 81.4241 218.737C79.4195 218.216 76.8758 218.556 74.7995 218.489C72.013 218.4 69.1835 218.37 66.3998 218.502ZM198.282 212.601C197.971 212.941 198.506 217.055 198.431 217.788L198.405 218.051C198.285 219.365 198.175 221.309 197.378 222.324C197.051 222.741 195.807 223.202 195.357 223.527C193.895 224.58 192.544 225.889 191.09 226.982C187.916 229.367 184.824 231.841 181.584 234.148C179.295 235.778 176.675 236.585 174.132 237.769C175.901 238.076 179.325 236.47 181.183 235.909L181.307 235.872C183.673 235.194 185.994 234.441 188.413 233.82C193.373 232.547 198.455 231.11 203.496 229.754L204.743 229.419C207.459 228.687 210.263 227.908 212.864 226.953C214.195 226.464 215.24 225.327 216.12 226.484C216.822 227.408 215.973 228.623 215.433 229.308C212.286 233.299 203.739 234.27 199.165 235.927L197.876 236.395C193.152 238.118 188.466 239.872 183.593 241.075C177.532 242.572 170.967 243.726 165.276 246.285L164.861 246.474C160.195 248.646 154.926 249.524 149.947 250.776L149.521 250.884C144.729 252.115 139.046 252.362 134.517 254.452C136.473 255.949 139.368 256.73 141.648 257.737C144.44 258.97 147.26 260.094 150.021 261.4C151.196 261.956 152.426 262.782 153.615 263.244C155.081 263.814 154.941 263.538 156.361 263.413L157.617 263.312C159.858 263.139 162.482 263.048 164.162 264.507C166.539 266.572 165.033 268.835 165.382 271.362L165.419 271.619C165.635 273.04 165.84 272.839 167.625 273.068L167.728 273.081C169.555 273.324 171.38 273.608 173.182 273.987C175.259 274.423 177.381 275.135 179.417 275.778L179.852 275.914C183.159 276.946 183.565 278.157 186.916 276.905L187.08 276.843C197.056 272.989 207.374 269.822 217.413 266.176C221.905 264.544 226.416 261.441 230.66 259.034L231.62 258.493C236.971 255.461 241.801 252.14 245.449 247.124C247.173 244.754 248.97 240.751 248.608 237.81C248.292 235.246 246.378 232.404 245.082 230.168L244.981 229.992C243.475 227.361 242.133 226.197 239.993 224.559L239.343 224.065C237.585 222.731 234.868 219.914 232.651 219.932C231.188 219.489 229.735 219.095 228.304 218.598C227.927 217.825 227.303 217.59 226.43 217.895C225.715 217.957 225.019 217.871 224.343 217.637C221.354 217.142 218.043 216.499 215.187 215.664C212.875 214.988 210.683 214.383 208.362 213.859L207.528 213.675C205.767 213.275 199.265 211.528 198.282 212.601ZM68.6429 173.416C64.453 182.252 58.5807 190.448 53.9692 199.113C52.1476 202.536 51.1847 207.713 53.9548 211.029C56.87 214.52 62.306 213.161 66.4211 213.346C70.7643 213.541 74.7262 214.018 79.01 215.212C80.9479 215.753 82.7121 215.593 84.5747 216.46C86.7593 217.478 88.9078 218.784 90.9861 219.99C94.8875 222.253 98.544 225.06 102.225 227.664L102.912 228.149C104.836 229.532 112.715 235.692 106.129 234.706C106.129 240.862 105.016 247.166 104.432 253.292C106.042 251.428 107.191 249.534 108.165 247.295C108.744 245.963 108.751 242.564 110.682 243.37C113.587 244.582 111.325 253.487 111.325 255.896C112.044 254.548 112.549 253.096 113.067 251.668C113.459 250.586 113.95 247.518 114.769 246.792C117.483 244.387 117.887 250.856 117.895 252.327L117.895 252.369L117.991 252.098C118.795 249.735 118.95 247.226 119.036 244.741C119.07 243.723 118.811 242.14 119.076 241.155L119.192 240.728C119.524 239.527 119.636 239.554 121.239 238.927L121.552 242.288C121.707 243.74 120.832 249.727 121.699 250.648C123.182 252.223 126.821 250.385 128.229 249.915C132.802 248.392 138.117 248.725 142.774 247.519C147.292 246.348 151.711 244.831 156.253 243.639C158.69 242.999 161.003 241.996 163.4 241.234C166.069 240.386 169.048 239.921 171.522 238.645C171.219 237.915 160.722 239.647 159.331 239.775L159.292 239.778C155.065 240.111 151.085 239.479 146.919 238.736C137.731 237.098 129.073 233.214 120.002 230.694C120.427 234.749 132.199 235.556 130.797 240.261C130.406 241.572 125.139 243.716 123.398 242.893C119.859 241.221 124.188 238.867 125.951 238.281C123.267 236.789 120.697 235.17 118.247 233.332C115.623 231.364 114.494 228.603 113.088 225.754C110.149 219.797 103.193 216.332 97.7899 212.624C92.2912 208.85 86.4571 205.608 80.9218 201.905L79.8876 201.204C78.8456 200.49 78.3588 200.818 77.9927 199.514C77.6102 198.15 78.9743 196.426 79.6888 195.354L79.7387 195.279C81.5746 192.478 83.713 189.828 86.1384 187.484C83.0107 185.421 79.632 183.718 76.699 181.383C73.726 179.016 71.2657 176.126 68.6429 173.416ZM358.668 193.395C360.213 203.149 359.732 212.397 358.691 222.185C358.138 227.382 357.357 232.54 356.999 237.76C356.905 239.138 356.874 240.533 356.751 241.91C356.678 242.72 355.849 244.256 355.842 244.654C355.801 246.864 358.242 250.733 359.043 252.762L359.05 252.959C359.082 253.743 359.202 254.484 359.869 255.042C361.471 250.126 361.971 245.208 362.634 240.096L362.981 237.418C363.526 233.164 364.023 228.854 364.11 224.634C364.224 219.099 363.706 213.094 362.809 207.59L362.633 206.536C361.922 202.207 361.289 197.022 358.668 193.395ZM170.642 116.834C166.742 117.476 162.973 118.041 159.036 118.286L158.378 118.324C157.66 118.362 156.628 118.476 155.603 118.471C155.322 118.581 154.931 118.689 154.564 118.701C154.834 118.937 155.195 119.434 155.674 120.275C157.2 122.96 157.313 127.317 156.964 130.261C155.299 144.348 140.566 149.618 127.861 146.227C121.344 144.487 116.648 139.83 113.151 134.348C112.336 133.07 111.59 131.751 110.861 130.424C110.57 129.894 110.313 129.154 109.925 128.689L109.782 128.516C108.498 126.934 109.844 127.875 108.281 127.654C105.779 127.302 101.841 129.159 99.9834 130.631C94.9422 134.623 92.1499 141.009 88.2807 146.04C84.1613 151.396 78.9297 156.163 73.6818 160.437L91.4903 178.115L91.6526 177.938C92.9113 176.546 95.0616 173.718 95.3738 172.034C95.565 171.003 94.7068 167.609 97.3463 169.119C99.1283 170.14 99.8042 174.504 100.36 176.29C101.219 179.048 102.664 181.646 103.599 184.375C105.199 189.05 107.142 193.687 108.828 198.384L109.244 199.56C109.966 201.634 112.025 204.208 110.047 205.964C107.04 208.632 106.146 203.379 105.35 201.372C104.241 202.866 104.385 205.289 103.813 207.031C103.464 208.096 102.401 209.752 102.437 210.801C102.497 212.594 104.176 213.128 105.69 214.13L106.631 214.75C109.144 216.403 111.682 218.056 113.975 219.986C115.051 220.892 116.041 221.808 116.827 222.973C117.512 223.991 117.719 226.284 118.476 226.992C119.468 227.918 123.132 227.273 125.066 227.474C128.163 227.797 131.299 228.833 134.316 229.623L134.708 229.725C140.259 231.14 145.967 233.179 151.78 233.935C157.35 234.659 162.584 234.326 168.12 233.391L168.535 233.32C171.643 232.779 174.981 232.133 177.817 230.685C181.084 229.017 183.981 226.348 187.032 224.333C187.942 223.731 188.867 223.152 189.795 222.579L191.556 221.498C192.99 220.605 192.578 220.698 192.691 219.012L192.709 218.775C192.894 216.621 193.684 212.83 192.288 211.027C191.683 210.247 189.828 209.676 188.954 209.108C187.684 208.281 186.545 207.321 185.184 206.656L185.015 206.577C183.693 205.972 183.627 206.435 182.964 204.725C182.337 203.108 181.924 201.414 181.349 199.78C178.717 192.307 178.037 184.717 176.947 176.914L176.89 176.521C176.355 172.939 175.247 168.231 176.605 164.826C178.562 159.916 180.201 166.783 180.614 168.544C182.482 165.441 183.556 161.991 185.5 158.928L185.846 158.382C186.754 156.935 187.257 156.02 187.827 154.273C188.086 153.48 188.19 152.822 188.736 152.164C189.893 150.772 190.064 151.565 191.267 151.531C194.78 151.431 198.238 151.506 201.747 151.653L202.557 151.688C204.65 151.782 206.744 151.832 208.852 151.824C209.878 151.82 210.918 151.772 211.944 151.829C212.497 151.823 213.047 151.863 213.595 151.949C214.725 152.46 215.156 152.019 214.889 150.627C215.873 148.632 215.807 145.449 216.156 143.273C216.436 141.521 216.7 139.766 216.945 138.008L217.124 136.689C217.281 135.514 218.595 131.079 217.898 130.114C217.206 129.156 213.603 129.371 212.537 129.199C205.449 128.057 198.856 125.227 192.227 122.908C188.963 121.766 185.865 120.225 182.735 118.824C181.105 118.095 179.565 116.593 177.848 116.126C175.68 115.536 172.803 116.479 170.642 116.834ZM96.9049 179.318C95.4859 180.633 93.852 181.552 93.8346 183.266C93.8249 184.245 94.4985 184.856 94.108 185.966C93.8448 186.713 92.7599 187.696 92.1753 188.285L91.6521 188.822C90.4523 190.048 90.336 189.971 88.7833 188.551L80.9297 199.528L99.3524 209.738C100.121 207.167 100.474 204.487 101.194 201.896C101.707 200.055 103.026 197.454 102.942 195.837C102.818 193.424 100.889 190.22 100.049 187.92L96.9049 179.318ZM265.69 180.132C265.963 181.058 265.05 183.118 264.885 184.024L264.794 184.53C264.515 186.127 264.325 187.678 264.532 189.315C266.662 187.468 267.715 182.814 269.854 187.487L269.92 187.631C270.711 189.412 270.798 192.345 272.905 189.64C274.03 188.195 274.102 185.528 274.629 183.826C278.221 184.658 277.567 189.807 276.368 192.315C274.458 196.31 271.86 195.024 269.102 192.704L268.308 191.493L268.159 191.644C266.364 193.432 264.392 194.107 262.587 191.76C260.775 189.402 261.329 185.927 262.025 183.26L262.162 182.751C262.597 181.227 264.477 176.023 265.69 180.132ZM66.1815 164.991C69.7687 168.471 72.9062 172.438 76.7184 175.68C78.4163 177.124 80.1508 178.534 81.8919 179.931L82.7629 180.628C84.4867 182.006 87.2282 185.044 89.4717 185.465L89.539 185.208C89.8416 184.09 90.3917 182.452 90.2291 181.398C90.8837 180.742 90.6805 180.263 89.6194 179.96C88.9702 179.476 88.3284 178.984 87.6928 178.484C85.1991 176.467 82.8393 174.275 80.4763 172.117C78.1273 169.973 75.9544 167.729 73.9153 165.306L73.7401 165.093C72.7677 163.89 72.1149 162.729 70.4509 162.375C68.3579 161.93 67.6614 163.511 66.1815 164.991ZM220.896 130.319C220.645 130.568 220.741 134.243 220.708 134.663C220.595 136.105 220.429 137.542 220.267 138.979C219.61 144.813 218.362 150.46 217.427 156.245C219.738 154.855 223.078 156.75 225.052 155.246C226.613 154.057 226.379 150.252 226.495 148.574C226.885 142.955 227.018 137.323 227.202 131.695L227.006 130.985C226.724 130.005 226.652 130.262 225.261 130.074L225.2 130.069C224.601 130.033 221.105 130.112 220.896 130.319ZM231.287 129.814C232.669 132.559 231.608 136.8 231.619 139.805L231.621 139.98C231.676 142.976 231.292 145.872 230.748 148.826C234.039 148.826 238.159 147.725 241.481 147.233C245.107 146.696 248.801 146.636 252.495 146.277L253.234 146.201C254.53 146.06 255.812 145.972 257.114 145.907C255.211 143.313 253.484 140.601 251.906 137.81C251.133 136.443 250.404 135.054 249.705 133.649C248.902 132.038 248.924 130.986 247.182 130.666C244.768 130.223 241.54 131.108 239.058 131.008C237.14 130.929 232.832 129.18 231.287 129.814ZM275.449 134.869C273.699 137.193 271.536 135.864 270.988 133.818C270.708 132.775 270.956 131.517 270.591 130.354C270.141 128.921 269.538 127.525 269.056 126.102C272.817 125.087 277.888 131.629 275.449 134.869ZM310.842 130.5L310.818 130.518C310.651 130.646 310.507 130.863 310.359 131.295C310.143 131.923 310.414 132.998 310.636 133.842C310.416 132.364 310.401 131.081 310.803 130.547L310.842 130.5ZM248.531 119.065C247.691 119.431 249.204 122.077 249.548 122.738L249.582 122.805C250.258 124.165 251.082 126.975 252.683 126.202L248.531 119.065ZM314.054 102.814C309.851 103.445 307.322 106.795 305.2 109.988C307.355 109.731 314.951 106.37 315.833 108.188C317.115 110.829 309.137 113.19 308.349 115.507C309.982 116.066 313.584 113.898 312.57 117.505C312.397 118.01 312.096 118.428 311.666 118.759C310.92 119.015 310.744 119.497 311.136 120.206C310.802 121.619 310.87 123.407 310.657 124.883L310.034 125.854C310.831 126.349 315.447 121.381 316.574 120.378L316.616 120.342C318.015 119.127 320.229 117.504 320.86 115.727C321.594 113.663 320.872 110.403 320.695 108.268C320.568 106.741 320.837 104.627 319.552 103.56C318.369 102.578 315.455 102.604 314.054 102.814ZM224.6 124.075L222.684 124.059C223.326 123.699 223.964 123.802 224.6 124.075ZM152.559 82.5407C154.105 84.4764 156.797 84.8992 157.034 87.8272C157.18 89.6299 157.04 90.468 157.807 92.2384C158.512 93.8681 159.35 95.431 159.942 97.1081L160.07 97.4766C160.955 100.061 162.125 104.348 160.466 106.681C158.997 108.744 155.432 110.318 153.114 111.2C151.953 111.642 150.343 111.911 149.404 112.772C148.178 113.894 148.559 114.584 148.647 116.292L148.664 116.463C148.824 117.936 149.541 121.253 148.532 122.294C147.141 123.731 146.482 121.882 145.88 120.424C144.623 117.377 143.998 111.477 146.483 108.938C149.076 106.287 154.201 106.216 156.969 103.575L157.396 103.169C158.048 102.538 157.959 102.484 157.876 101.078C157.822 100.141 157.197 98.8972 156.895 98.0556C156.109 95.8688 155.248 93.7084 154.427 91.5344C152.991 92.1685 150.926 94.1245 149.512 92.4849C148.205 90.9691 150.379 88.4854 151.894 88.0422C151.103 86.367 147.378 86.6767 146.668 84.2159C146.052 82.0772 147.823 82.9271 148.211 82.0847C148.667 81.0936 147.733 79.7536 148.214 78.8403C149.882 75.6691 151.729 81.4999 152.559 82.5407ZM281.68 103.101C282.958 105.167 280.54 108.944 280.103 111.064C282.243 110.824 287.54 105.82 289.031 106.645C292.135 108.362 285.579 114.351 284.319 115.228C274.252 122.241 276.067 101.955 281.68 103.101ZM306.558 95.7081C305.401 96.417 304.51 98.6891 303.796 99.799L303.35 100.493C302.39 101.992 301.476 103.469 300.737 105.095C302.186 104.518 303.04 103.262 304.336 102.576C305.221 102.107 306.029 102.062 306.881 101.72C308.767 100.966 311.35 100.226 313.036 99.1281L312.884 98.934C311.44 97.0754 309.388 93.976 306.558 95.7081ZM153.374 97.9014C156.234 100.231 150.39 105.912 147.46 101.464L147.36 101.308C146.644 100.147 146.558 99.1045 147.702 98.672C148.305 98.4442 149.728 99.1903 150.58 99.0584C151.513 98.9137 152.528 98.2773 153.374 97.9014ZM143.182 80.827C145.123 81.7501 146.727 88.8062 143.545 88.5845C142.435 87.2426 139.316 78.9886 143.182 80.827ZM351.126 305.114C350.482 305.507 349.837 305.497 349.19 305.122L351.126 305.114ZM48.8876 296.319L52.1958 296.509C51.0882 296.523 49.9657 296.784 48.8876 296.319ZM92.8726 293.598L91.2193 293.572C91.777 293.202 92.3265 293.281 92.8726 293.598ZM243.014 269.884L241.092 269.842C241.744 269.393 242.378 269.689 243.014 269.884ZM261.646 253.423C263.091 255.006 264.306 256.772 265.752 258.354C266.327 258.982 267.031 259.523 267.583 260.163L267.733 260.338C268.823 261.631 268.62 261.772 268.62 263.735C265.258 261.217 262.328 257.453 261.646 253.423ZM254.079 234.776C255.192 238.383 257.774 242.915 256.812 246.719C255.198 243.118 253.798 238.749 254.079 234.776ZM213.683 157.037C213.654 156.528 213.375 156.272 212.844 156.268C213.91 155.71 214.19 155.966 213.683 157.037ZM310.657 124.883C311.071 125.27 310.527 126.161 310.034 125.854L310.657 124.883ZM157.021 87.1675C157.304 87.6032 157.395 88.0407 157.048 88.4864L157.021 87.1675ZM210.508 283.567L210.536 283.633C211.982 286.939 212.82 290.774 212.656 294.359C212.976 295.267 212.858 297.381 211.952 298.021C210.07 299.35 209.877 296.923 209.504 295.612C208.468 291.975 206.8 287.915 206.375 284.176L206.353 283.968C206.242 282.787 206.264 280.859 207.739 280.494C209.222 280.128 209.987 282.358 210.508 283.567ZM64.3066 296.764L62.677 296.787C63.2141 296.361 63.7594 296.492 64.3066 296.764ZM121.455 227.29L123.189 227.314C122.605 227.703 122.03 227.458 121.455 227.29ZM68.9394 213.425L70.6555 213.442C70.08 213.755 69.5079 213.763 68.9394 213.425ZM204.842 207.3C204.27 207.626 203.697 207.565 203.122 207.31L204.842 207.3Z" fill="black"/>
</svg>
