<svg width="400" height="400" viewBox="0 0 400 400" fill="none" xmlns="http://www.w3.org/2000/svg">
<path fill-rule="evenodd" clip-rule="evenodd" d="M225.325 132.847C221.254 134.632 218.52 138.796 217.576 143.461C217.139 145.618 217.553 148.91 216.274 150.648C214.742 152.729 212.362 150.928 210.597 152.232C206.571 155.207 210.882 160.578 213.882 161.462C216.275 162.167 218.708 162.599 221.114 163.114C223.373 163.597 224.476 165.802 225.831 167.8C223.959 167.455 222.121 166.934 220.238 166.605C219.428 166.464 218.252 166.019 217.408 166.076C216.39 166.146 215.74 166.929 214.773 167.115C213.109 167.434 211.966 166.255 211.31 168.563C210.828 170.265 211.595 172.298 212.974 173.137C211.756 174.455 208.944 174.809 207.351 175.355C205.041 176.147 202.693 176.661 200.551 177.996C200.551 173.839 200.598 170.547 198.759 166.744C197.867 164.898 196.165 159.712 194.34 158.94C193.792 158.708 193.017 158.836 192.445 158.648C191.851 158.452 191.522 157.881 190.856 157.861C189.645 157.826 188.337 159.388 187.618 160.409C185.8 162.992 185.871 167.124 185.983 170.235C186.099 173.451 186.393 177.488 187.583 180.463C187.859 181.154 188.143 181.93 188.746 182.346C189.184 182.647 190.001 182.409 190.338 182.752C191.562 183.998 189.862 184.712 188.918 185.475C186.505 187.424 184.421 189.312 182.655 191.928C181.165 194.137 178.84 196.817 178.459 199.648C176.818 197.195 175.665 194.427 174.407 191.728C173.692 190.195 173.677 190.505 174.437 189.344C175.029 188.439 176.071 187.498 176.916 186.865C178.646 185.572 180.434 184.18 180.942 181.718C181.326 179.857 180.408 176.418 179.882 174.535C179.21 172.129 177.452 170.283 175.199 171.688C173.53 172.73 172.726 176.453 171.108 176.974C169.282 177.562 169.533 172.672 169.365 171.315C169.051 168.784 167.84 164.527 168.597 162.04C169.187 160.105 172.03 159.073 173.507 157.895C175.701 156.146 177.864 153.919 179.406 151.446C180.988 148.911 180.848 146.329 180.565 143.373C180.4 141.65 180.143 136.958 177.539 137.953C176.04 138.526 169.341 148.599 168.155 145.024C167.821 144.016 168.543 141.475 168.67 140.313C168.762 139.466 168.747 135.427 169.265 134.864C169.464 134.647 171.813 134.298 172.327 133.949C173.558 133.111 174.483 132.012 175.223 130.646C177.677 126.12 174.887 119.046 170.276 117.911C167.27 117.17 165.645 118.335 163.962 121.009C162.334 123.597 159.138 122.479 156.42 123.102C155.909 121.566 157.708 118.542 158.184 117.061C158.884 114.88 159.658 112.614 159.937 110.313C160.481 105.822 159.543 100.977 158.253 96.7441C159.801 97.0062 162.001 96.9022 163.066 98.1808C164.133 99.4615 164.608 102.091 165.509 103.63C167.249 106.6 169.248 109.841 171.643 112.203C174.769 115.287 176.006 113.847 178.402 110.983C180.831 108.08 179.558 103.984 178.695 100.4C180.66 100.074 182.931 100.685 184.863 101.029C186.614 101.34 189.899 101.41 191.385 102.578C192.496 103.452 192.101 104.404 192.21 106.122C192.355 108.445 192.686 110.794 193.326 113.019C194.628 117.546 197.568 119.1 201.103 116.187C202.331 118.007 203.665 120.415 205.561 121.447C207.422 122.461 210.882 123.295 212.966 123.462C215.588 123.672 217.682 122.383 219.851 120.92C220.912 120.204 221.21 119.617 222.137 120.179C222.821 120.595 223.726 122.56 224.421 123.239C225.2 123.998 226.056 124.698 226.891 125.381C227.28 125.734 227.684 126.066 228.104 126.375C229.026 126.618 229.336 127.223 229.034 128.188C229.617 130.048 229.729 132.018 230.222 133.897C230.804 136.118 232.186 137.327 234.044 138.146C234.689 138.349 235.322 138.589 235.943 138.867C237.051 138.891 237.302 139.385 236.697 140.35C236.697 141.647 235.505 143.619 234.866 144.64C234.24 142.717 231.818 140.576 229.94 141.391C227.756 142.339 227.671 145.112 227.826 147.28C226.461 146.571 225.289 145.547 224.122 144.509C223.555 144.005 222.617 143.421 222.2 142.747C221.477 141.581 221.541 142.186 222.049 140.603C222.61 138.854 226.769 134.549 225.325 132.847Z" fill="#567BFF"/>
<path fill-rule="evenodd" clip-rule="evenodd" d="M211.176 63.0013C213.061 63.5453 213.21 64.3945 214.639 65.3307C216.093 66.2843 218.872 65.5066 220.727 66.1347C221.639 66.4438 222.223 66.9873 222.978 67.529L223.131 67.6373C223.635 67.9869 223.573 68.1728 224.101 68.4154C224.377 68.5414 224.997 68.3897 225.323 68.4679C227.577 69.0127 227.779 71.9448 229.215 72.5197C230.321 72.9626 230.841 72.1046 232.054 73.048C232.74 73.581 233.417 74.5764 233.78 75.404C233.958 75.8102 234.13 77.1767 234.285 77.38L234.39 77.5161C234.731 77.9514 234.624 77.7243 234.996 77.994L235.05 78.0339C236.027 78.7753 237.175 78.7702 238.247 80.0188C239.701 81.7129 241.433 83.0554 241.779 85.5014C241.838 85.9164 241.85 86.2983 241.835 86.6654L241.823 86.4486L241.834 86.6662C241.806 87.3965 241.674 88.0682 241.598 88.8251L241.555 89.3201C241.491 89.9828 241.418 90.0344 241.568 90.6002C241.679 91.0174 242.328 91.5795 242.485 92.195C243.717 97.0207 236.631 102.456 232.987 99.7419C231.498 103.218 230.425 106.875 228.995 110.369C228.212 112.284 224.088 116.763 224.386 118.125C224.632 119.246 226.978 120.001 227.796 120.542C229.28 121.522 230.717 122.705 232.14 123.789C233.377 124.73 234.562 125.733 235.767 126.702L235.726 126.69C236.415 126.866 236.927 127.301 237.32 127.912C238.144 128.53 238.991 129.115 239.88 129.64L240.458 129.982C241.369 130.532 241.706 130.858 242.199 132.213C242.799 133.861 242.05 133.285 243.358 134.338C245.823 136.323 249.54 137.219 252.387 138.541L252.643 138.663C259.025 141.746 265.276 143.364 272.292 142.023C278.452 140.846 284.216 137.628 289.98 135.049L290.373 134.874C296.21 132.294 302.025 129.47 307.558 126.193C312.59 123.212 317.573 120.065 322.241 116.375L322.8 115.93C325.506 113.754 328.366 111.816 330.966 109.49C333.521 107.206 335.903 104.671 338.497 102.458C343.581 98.1209 348.943 93.9689 354.31 90.0393C355.839 88.9196 357.34 87.753 358.835 86.578C359.735 85.8708 361.539 83.8115 362.729 84.0664C366.444 84.8602 362.723 90.1619 362.096 91.7131C363.823 90.6939 365.25 89.2168 367.004 88.2145L367.465 87.9637C368.531 87.3787 371.056 85.7468 372.045 86.4765C374.468 88.2623 368.748 94.1498 367.828 95.5164L368.156 95.3042C369.99 94.0998 374.6 90.9226 375.774 93.8565C377.071 97.0959 372.423 100.929 370.639 102.78L370.579 102.842C365.454 108.227 359.534 112.467 354.32 117.694L354.219 117.791C353.404 118.549 351.251 120.058 351.421 121.302C351.582 122.484 353.644 123.845 354.467 124.66L354.781 124.986C356.519 126.815 360.741 131.589 357.813 134.058C356.725 134.975 353.624 134.216 352.323 134.064C350.417 133.842 348.54 133.671 346.649 133.322C343.87 132.809 341.146 130.402 338.363 130.311C335.294 130.211 331.992 133.153 329.327 134.657L329.177 134.74C326.016 136.472 322.979 138.39 319.833 140.158C313.827 143.535 308.094 147.319 301.897 150.362C295.345 153.579 288.335 155.702 281.825 159.028L281.104 159.403C274.274 163.011 267.69 164.157 260.209 163.902C252.908 163.654 245.103 158.311 239.323 153.736L238.322 152.936C237.702 151.891 237.162 151.864 236.701 152.854L236.446 152.902C235.682 153.052 235.268 153.176 234.256 153.098C232.503 152.962 231.592 152.538 230.039 151.899L228.829 151.402C225.525 150.027 222.932 148.728 220.492 145.437C218.751 150.438 223.074 155.71 225.466 159.653L225.543 159.779C226.851 161.959 228.34 164.038 229.468 166.342C230.383 168.213 230.714 171.121 232.467 171.943C233.513 172.434 234.161 171.621 234.866 172.787C235.311 173.521 234.858 174.36 234.744 174.996L234.732 175.065C234.502 176.7 233.788 174.396 234.3 176.807C234.462 177.568 235.431 179.02 235.754 179.719C237.953 184.484 239.746 189.47 241.626 194.399C243.498 199.303 245.352 204.16 247.185 209.072C247.976 211.193 249.086 213.147 249.841 215.29C250.683 217.685 251.229 220.177 251.988 222.603L252.201 223.264C253.561 227.351 253.822 232.757 252.699 236.982C251.601 241.12 246.829 245.374 243.025 245.109C244.786 249.003 246.784 252.504 248.619 256.328C250.338 259.911 251.54 263.738 253.324 267.192C255.354 271.123 257.129 275.319 259.166 279.17C260.886 282.423 261.966 286.128 263.582 289.434C267.267 296.969 270.819 304.804 274.77 312.281C277.067 316.63 279.139 321.106 281.47 325.441C282.717 327.759 283.991 330.057 285.261 332.36C285.994 333.689 286.823 336.61 288.199 337.252C287.803 337.709 286.534 338.757 286.489 339.423C286.368 341.194 287.99 340.704 288.899 340.46C291.206 339.839 293.429 339.189 295.66 338.304C299.718 336.696 303.59 334.451 307.671 332.928L308.317 332.694C312.653 331.168 316.746 328.544 321.219 327.311L321.816 327.153C324.077 326.526 330.78 323.428 331.382 326.125C331.498 326.646 331.194 327.897 331.199 328.528C331.208 329.644 331.472 330.64 331.328 331.8C331.052 334.022 329.947 336.241 328.871 338.096C326.294 342.535 323.406 346.887 320.009 350.599C314.276 356.863 309.086 365.231 302.071 369.825L301.735 370.041C300.309 370.943 298.958 372.541 297.346 373.015C295.555 373.541 294.034 372.879 292.433 372.805C291.553 372.765 291.505 373.306 290.444 372.864C289.61 372.518 288.549 371.43 287.836 370.794L287.741 370.71C285.945 369.145 284.429 367.163 282.947 365.244C281.636 363.547 280.248 360.308 278.474 359.224C277.489 358.622 277.542 359.588 276.658 358.249C276.169 357.509 276.125 356.754 275.521 356.012C274.878 355.221 274.471 355.109 274.045 354.153C273.748 353.486 273.736 352.836 273.351 352.15C272.071 349.87 270.136 347.914 268.763 345.658C266.713 342.287 264.078 339.373 261.92 336.099C259.338 332.181 256.466 328.279 253.664 324.556C248.491 317.683 243.718 310.132 238.831 302.845L238.193 301.896C232.664 293.7 227.5 284.95 222.89 276.076C220.419 271.32 217.43 266.717 214.835 262.015C212.299 257.419 209.963 252.604 206.996 248.339C206.424 248.839 207.391 250.653 206.688 251.397C205.953 252.175 202.511 252.206 201.572 252.385L200.116 252.663C197.506 253.159 194.799 253.639 192.179 253.791L191.689 253.815C184.976 254.096 178.356 255.603 171.59 255.928C170.167 255.996 169.021 255.766 167.675 255.459L166.518 255.189C165.13 254.877 164.766 254.975 164.395 256.874L163.822 259.88C163.303 262.617 162.807 265.426 162.585 268.124C162.274 271.908 162.218 275.695 162.17 279.494C162.147 281.305 162.103 283.117 162.111 284.928C162.122 287.56 162.77 290.129 162.647 292.757L162.632 293.051C162.456 296.276 161.865 299.047 158.833 299.963L158.6 300.031C157.081 300.464 156.994 300.172 155.817 299.161C154.519 298.046 152.805 297.039 151.712 295.718C147.649 290.808 144.429 283.931 143.203 277.366C141.814 269.928 143.684 261.908 144.366 254.512L144.396 254.165C144.663 251.043 144.834 246.317 146.743 243.938C148.859 241.299 153.18 241.387 156.024 241.352C156.673 241.344 157.175 241.271 157.609 241.144C157.51 241.134 157.412 241.129 157.315 241.131L157.868 241.059C158.645 240.776 159.237 240.307 160.195 239.723C161.468 238.947 163.282 238.534 164.705 237.968L164.938 237.872C168.69 236.277 172.63 235.432 176.445 234.074L177.046 233.855C180.281 232.649 183.495 231.941 186.779 231.062C189.183 230.419 191.691 230.297 194.101 229.843C193.825 229.808 193.55 229.772 193.281 229.813C193.852 229.401 194.472 229.625 195.076 229.638C195.662 229.5 196.239 229.336 196.806 229.132C193.029 221.548 189.578 213.816 185.391 206.485C184.477 208.331 182.925 208.364 181.109 207.733C180.093 207.38 179.67 206.271 178.718 205.876C178.125 205.629 177.771 206.377 177.15 205.844C176.788 205.534 176.566 204.441 176.355 203.505C172.866 199.614 171.214 195.202 169.6 190.064C170.786 192.498 171.869 195.005 173.096 197.413C173.374 197.959 173.729 198.513 174.109 199.073L173.999 198.894C173.494 198.067 173.003 197.227 172.572 196.331C168.762 188.418 166.73 180.655 165.488 171.826C164.409 164.159 164.163 156.078 164.372 148.308L164.393 147.581C164.405 147.209 164.419 146.84 164.436 146.472L164.465 145.922C164.655 142.513 165.106 139.24 165.823 135.868C166.104 134.55 166.69 132.61 166.715 131.301L166.715 131.122C166.705 130.043 166.509 126.604 166.289 126.4C165.422 125.597 162.159 126.16 161.006 126.31L160.862 126.328C159.051 126.536 157.25 126.85 155.438 127.06L154.346 127.176C153.646 126.978 153.136 127.197 152.815 127.833C151.862 128.018 153.066 128.891 151.739 128.037C150.197 127.046 150.236 123.357 150.23 121.684C150.228 121.052 150.651 118.375 150.257 117.909C149.953 117.549 147.866 117.693 147.345 117.646C145.363 117.467 143.368 117.202 141.381 117.114C137.457 116.94 133.475 117.048 129.552 117.068C122.579 117.1 115.976 120.607 110.152 124.566C107.463 126.394 104.495 127.667 101.839 129.533C99.2267 131.37 96.9322 133.625 94.3652 135.554C90.9256 138.139 87.3276 140.322 84.1042 143.216L83.6859 143.598C82.092 145.075 79.9758 146.553 78.8083 148.509C77.6354 150.474 78.4252 152.696 78.3763 154.949C78.3227 157.39 78.4624 159.979 78.0835 162.372L78.0554 162.56C77.9327 163.422 77.7865 164.821 77.1441 165.325C76.1151 166.132 76.3428 165.576 75.5148 165.036L75.4507 164.996C71.5386 162.606 70.8437 158.133 69.7156 153.868C63.4038 163.228 59.1579 174.003 53.2717 183.731L52.7174 184.639C51.7651 186.218 50.188 189.11 48.3041 187.617C47.1516 186.704 46.933 184.947 47.0488 183.228L47.059 183.09C47.145 181.981 47.3638 180.899 47.554 180.079L47.7684 179.165C48.4427 176.274 49.091 173.348 50.3208 170.678C50.8951 169.431 51.5656 168.24 52.1735 167.013L52.4714 166.396C52.8193 165.656 53.898 164.184 53.8506 163.352L52.8778 164.717C51.3517 165.53 50.188 168.163 48.9275 169.473C47.7806 170.664 46.478 171.85 45.2396 172.988C43.0873 174.963 41.2028 177.101 39.3731 179.48L38.9757 180C37.8223 181.494 36.3916 182.812 35.3777 180.061C34.5817 177.902 35.83 175.964 36.7427 174.119C37.9359 171.708 39.1356 169.525 40.7202 167.409C42.0627 165.617 43.9477 163.706 44.4739 161.448C41.7986 163.498 39.3992 165.889 36.5066 167.6L36.3668 167.68C34.0581 168.958 30.5155 168.806 31.9057 164.804C32.9358 161.84 36.1105 158.238 38.2076 156.079C40.3869 153.834 42.8892 151.747 45.2297 149.691C50.4694 145.086 56.2897 141.272 61.8383 137.118L62.4773 136.638C67.7176 132.672 73.0762 128.93 78.2821 125.048L79.1268 124.416C90.5249 115.865 101.743 106.465 114.962 101.584C121.028 99.3434 127.396 97.5801 133.692 96.3382L134.391 96.2024C137.757 95.5586 141.355 94.6389 144.76 94.4728C146.015 94.4115 147.227 94.6731 148.469 94.5903C149.759 94.5045 151.355 94.8802 152.625 94.5552C153.962 94.2137 155.14 92.6362 156.469 92.7326C156.874 92.7623 157.25 93.1978 157.654 93.3025L157.756 93.3212C158.286 93.2586 158.805 92.8021 159.307 93.2282L159.367 93.2838C161.21 93.3428 163.05 93.3706 164.885 93.4722L164.804 93.5105C165.464 93.1825 166.124 93.2366 166.784 93.5152L165.545 93.5123C166.971 93.6062 168.393 93.7525 169.81 94.0006C175.952 95.0768 183.119 95.6423 188.981 98.3483C188.954 98.3161 188.928 98.2823 188.903 98.2476C189.425 98.125 189.821 98.3507 190.137 98.7962C190.081 98.8143 190.027 98.8274 189.975 98.836C190.641 99.1806 191.287 99.5572 191.91 99.9693C192.856 97.7232 191.088 98.4003 189.444 97.5617C187.628 96.6356 186.197 95.4783 184.839 93.9009C183.678 92.5525 182.685 90.8699 183.09 88.8609C183.3 87.8219 184.348 87.409 184.534 86.6477C184.598 86.3886 183.955 85.5251 183.929 85.1531C183.87 84.3314 183.863 83.6869 184.009 82.9035L184.107 82.4162C184.976 78.0174 184.683 72.5167 189.149 70.6514C190.137 70.2393 190.116 70.6979 190.85 69.8395C191.56 69.0093 191.824 67.631 192.637 66.7353C194.19 65.0226 196.13 63.6878 198.281 63.1611C200.535 62.6087 202.445 63.4655 204.612 63.3813C206.963 63.29 208.718 62.2912 211.176 63.0013ZM324.363 333.649C322.754 335.098 321.09 336.524 319.422 337.889C315.606 341.013 312.052 344.432 308.437 347.834C305.165 350.911 301.663 353.668 298.258 356.556C295.021 359.301 292.14 362.537 289.112 365.562L289.349 365.718C291.256 366.981 293.325 368.687 295.613 368.107C297.547 367.615 299.831 365.757 301.5 364.55C305.263 361.828 308.429 358.107 311.574 354.583L311.878 354.242C315.06 350.691 318.099 347.222 321.102 343.537C324.479 339.394 326.867 335.446 329.128 330.481C327.407 329.219 325.517 332.61 324.363 333.649ZM295.496 343.652C293.226 344.464 290.874 344.82 288.612 345.589C286.644 346.257 284.959 348.366 283.718 350.118C282.904 351.268 282.37 352.621 281.642 353.86C281.229 354.561 279.655 356.21 279.674 356.896C279.7 357.78 282.015 359.999 282.56 360.679C283.569 361.937 284.607 363.168 285.663 364.378C287.215 360.774 290.926 357.749 293.697 355.277C296.572 352.712 299.587 350.172 302.564 347.633C309.137 342.023 315.325 336.486 322.423 331.633C321.996 330.5 298.135 342.706 295.496 343.652ZM284.51 341.537L284.26 341.875C282.099 344.762 279.027 348.009 278.349 351.756C279.715 350.017 280.922 348.105 282.243 346.322C282.746 345.644 283.267 345.03 283.821 344.415L284.061 344.151C285.244 342.861 285.619 342.976 284.51 341.537ZM228.698 177.003C224.564 177.345 220.388 178.128 216.305 179.099L215.721 179.24C214.69 179.49 213.666 179.751 212.651 180.02C202.645 182.666 192.702 187.936 185.479 196.139L185.236 196.416C184.899 197.007 184.115 197.832 184.271 198.627C183.782 198.287 183.627 197.994 183.676 197.73C183.607 197.839 183.547 197.958 183.495 198.088C185.542 199.509 186.85 202.772 188.202 204.975C189.727 207.459 191.434 209.794 192.894 212.331C196.067 217.844 199.109 223.539 201.961 229.265C206.895 239.174 212.971 248.579 218.399 258.169C223.817 267.744 228.987 277.179 234.403 286.741C240.17 296.919 246.784 306.508 252.74 316.431C256.292 322.347 260.348 327.897 263.987 333.757C267.43 339.304 270.824 344.85 274.331 350.347C276.181 344.608 279.788 339.681 284.771 336.778C277.985 326.139 271.491 315.359 265.517 304.13C260.628 294.939 256.287 285.721 251.767 276.426L251.052 274.958C246.344 265.311 241.698 255.655 236.94 246.016C234.564 241.202 232.562 236.143 230.523 231.114C228.354 225.762 227.443 219.802 225.094 214.551L224.848 214.006C223.788 211.682 222.52 209.055 222.656 206.418C222.793 203.736 224.481 200.998 225.778 198.837L225.865 198.688C226.656 197.299 228.083 193.987 229.61 193.97C232.442 193.939 229.148 200.263 228.648 201.622L228.633 201.661C226.572 207.51 229.442 212.568 231.6 217.807C233.707 222.924 235.383 228.293 237.625 233.349C238.567 235.472 239.523 237.544 240.38 239.698L240.527 240.083C240.894 241.061 241.59 242.917 242.241 243.126C242.672 243.264 244.807 241.738 245.136 241.506C246.807 240.329 249.085 238.283 250.088 236.376C251.081 234.489 250.678 231.269 250.223 229.251C248.939 223.557 246.276 218.134 244.119 212.788L242.297 208.23C240.524 203.79 238.758 199.308 237.245 194.785C236.175 191.589 235.212 188.365 234.043 185.209C233.489 183.714 232.914 182.228 232.31 180.757L231.8 179.529C230.992 177.556 230.815 176.828 228.698 177.003ZM152.033 246.721L151.735 246.882C149.835 247.92 149.307 248.555 148.898 250.96C148.481 253.412 148.632 255.834 148.446 258.293L148.409 258.728C148.031 262.784 147.565 266.839 147.34 270.848C147.051 275.992 148.721 280.8 150.732 285.299L150.847 285.554C151.754 287.567 152.679 289.522 154.055 291.208C154.689 291.984 155.399 292.672 156.123 293.341L156.851 294.005C158.079 295.122 158.266 295.812 159.067 294.298C160.052 292.437 159.267 289.416 158.987 287.408C158.547 284.241 158.319 281.22 158.355 278.004C158.443 276.844 158.511 275.682 158.572 274.52L158.618 273.645C158.798 270.095 158.952 266.544 159.481 263.022C159.671 261.756 159.9 260.495 160.185 259.25C160.444 258.115 161.499 256.054 161.415 254.94C161.329 253.816 159.745 251.719 159.446 249.85C159.292 248.887 159.276 247.87 159.234 246.888L159.22 246.562C159.141 244.993 159.481 244.613 158.251 244.176C156.809 243.664 153.352 245.998 152.033 246.721ZM130.432 234.478C129.873 236.351 127.603 238.215 126.43 239.61C123.226 243.42 120.746 247.293 118.232 251.654C114.198 258.651 110.521 266.805 108.837 274.994C104.585 276.292 106.007 266.738 106.608 264.714L106.626 264.655C108.074 260.019 109.761 255.463 111.957 251.2C113.971 247.291 116.721 243.054 119.534 239.796L120.845 238.272C121.571 237.431 122.329 236.575 123.061 235.829L124.258 234.627C125.512 233.374 127.272 231.703 128.36 231.506C129.995 231.208 130.999 232.576 130.432 234.478ZM283.599 205.324L283.866 205.877C286.317 210.898 287.54 217.073 288.437 222.684L288.497 223.065C289.316 228.24 289.964 233.892 289.84 239.146C289.962 240.048 290.011 240.954 290.022 241.862L290.048 240.679C290.294 241.343 290.324 241.999 290.023 242.647C290.01 243.971 289.938 245.298 289.912 246.623C289.874 248.538 290.243 252.452 289.06 254.099C287.256 256.612 286.718 252.107 286.605 250.875C286.325 247.793 286.285 244.674 286.064 241.585L285.95 240.031C285.177 229.797 283.888 218.691 280.431 209.191L280.254 208.709C279.896 207.752 279.333 205.702 278.646 205.024C278.159 204.544 277.785 205.071 277.225 204.232C276.64 203.358 275.812 198.268 276.82 197.281C278.766 195.378 282.361 202.748 283.599 205.324ZM112.222 231.1C115.222 233.41 104.21 239.046 102.734 240.081C100.094 241.932 97.4637 243.727 94.8841 245.683C92.1744 247.738 89.61 250.2 86.8242 252.075C83.4374 247.671 92.5861 241.318 95.7414 239.395L96.0164 239.23C98.7436 237.61 101.347 235.78 104.154 234.354L104.682 234.091C106.122 233.394 110.7 229.928 112.222 231.1ZM197.605 232.77C197.014 232.871 195.873 233.66 195.301 233.882C189.672 236.07 183.177 237.106 177.99 240.211C174.487 240.249 170.792 242.56 167.433 243.627C166.099 244.05 163.427 244.47 162.306 245.313C161.05 246.257 161.65 250.157 161.65 251.88C163.835 249.618 166.399 250.081 169.29 249.945C173.358 249.754 177.399 249.311 181.445 249.054C185.521 248.795 189.509 248.118 193.593 248.067L194.239 248.064C198.485 248.083 202.639 247.103 206.82 248.006C206.091 244.844 203.468 241.457 201.873 238.752C200.891 237.086 200.17 234.965 199.053 233.421C198.205 232.248 198.803 232.563 197.605 232.77ZM169.049 249.939L167.603 249.965C168.079 249.539 168.563 249.638 169.049 249.939ZM297.161 211.528L297.428 212.369C299.395 218.6 301.156 224.716 301.278 231.407L301.292 232.26C301.323 234.652 301.28 237.885 300.456 239.864C298.914 243.57 297.526 240.291 297.588 237.748C297.08 231.353 296.39 224.916 295.14 218.638C294.558 215.718 293.274 212.029 293.738 209.002C294.414 204.597 296.67 210.015 297.161 211.528ZM310.505 223.78L310.616 224.115C311.293 226.218 312.269 230.473 311.217 232.287C309.735 234.844 308.626 231.978 308.193 230.142C307.511 227.251 307.56 224.247 306.573 221.451C308.079 217.909 309.655 221.314 310.505 223.78ZM99.3329 221.06C99.3329 223.105 96.5091 223.731 94.983 224.578C93.8591 225.201 92.5415 227.02 91.8229 225.569C90.6155 223.13 97.8481 221.06 99.3329 221.06ZM158.253 96.7447C159.542 100.974 160.481 105.826 159.937 110.314C159.658 112.62 158.884 114.876 158.184 117.062C157.752 118.411 155.933 121.638 156.421 123.103C158.429 122.642 161.73 123.411 163.356 122.176C165.205 120.772 165.037 117.839 167.951 117.643C172.423 117.342 176.026 121.728 176.338 126.64C176.5 129.183 174.805 131.871 173.083 133.373C172.209 134.135 171.377 134.408 170.431 134.86L170.253 134.947C169.575 135.284 169.376 135.27 169.332 135.252L169.34 135.268C169.367 135.333 169.387 135.556 169.115 136.244C168.747 137.173 168.852 138.646 168.744 139.639C168.584 141.096 168.055 142.914 168.229 144.348L168.294 144.89C168.427 145.925 168.555 145.985 169.871 145.507C171.177 145.032 172.761 143.417 174.023 142.034L175.156 140.78C176.439 139.375 177.709 136.361 179.553 138.773C180.967 140.623 180.964 145.265 180.748 147.558C180.257 152.767 174.997 157.034 171.169 159.588L170.905 159.763C168.193 161.548 168.582 162.717 168.753 166.085C168.88 168.608 169.221 171.148 169.532 173.656L169.608 174.283C170.006 177.558 170.958 177.608 172.413 175.179L172.73 174.655C173.858 172.808 175.564 170.37 177.743 171.341C180.078 172.382 179.92 175.689 180.419 177.915L180.445 178.027C181.19 181.141 180.951 183.484 178.553 185.76C177.464 186.794 173.955 188.475 173.657 190.151C173.512 190.965 175.213 193.514 175.619 194.384C176.467 196.204 177.356 197.999 178.459 199.648C178.823 196.945 180.922 194.643 182.299 192.481L182.401 192.319C184.002 189.743 185.947 187.904 188.22 186.039L188.465 185.839C189.336 185.131 191.533 184.179 190.504 182.95C189.611 181.882 188.681 182.671 187.796 180.958C186.414 178.285 186.135 174.09 186.009 170.915L185.971 169.869C185.875 167.013 185.849 163.193 187.338 160.794C189.229 157.745 191.122 157.629 193.956 158.928C196.127 159.923 197.285 163.74 198.445 166.105L198.511 166.238C200.512 170.216 200.552 173.595 200.552 177.997C202.604 176.717 204.846 176.191 207.062 175.453L207.351 175.356C208.945 174.809 211.756 174.455 212.974 173.138C211.667 172.342 210.969 170.613 211.24 168.98C211.686 166.305 212.929 167.469 214.773 167.115C215.6 166.957 216.198 166.267 217.03 166.135C217.828 166.009 218.682 166.331 219.483 166.491L219.642 166.52C221.728 166.876 223.76 167.42 225.832 167.8C224.678 166.101 223.514 163.787 221.658 163.147C219.42 162.374 216.73 162.249 214.393 161.604C211.379 160.773 206.184 155.493 210.597 152.233C212.265 151 214.457 152.563 216.036 150.911C217.533 149.344 217.091 146.088 217.493 143.979C218.418 139.117 221.047 134.724 225.326 132.848C226.774 134.555 222.722 138.735 222.073 140.535L222.049 140.604C221.712 141.653 221.453 141.537 221.802 142.407C222.043 143.012 223.227 143.697 223.74 144.16L224.169 144.547C225.314 145.577 226.48 146.581 227.826 147.281L227.811 147.054C227.679 144.92 227.822 142.311 229.94 141.392C231.825 140.574 234.242 142.722 234.867 144.641L235.129 144.216C235.784 143.137 236.697 141.486 236.698 140.351C237.302 139.386 237.051 138.891 235.944 138.867C235.476 138.652 234.999 138.466 234.513 138.309L234.253 138.194C232.321 137.327 230.858 136.307 230.222 133.898C229.726 132.018 229.616 130.046 229.034 128.189C229.336 127.223 229.026 126.619 228.104 126.375L227.241 125.69C226.289 124.916 225.308 124.104 224.421 123.239C223.724 122.558 223.073 121.145 222.37 120.621C222.212 120.257 221.998 119.937 221.728 119.662C221.104 120.086 220.479 120.505 219.851 120.921L219.397 121.225C217.385 122.563 215.419 123.675 212.966 123.463C210.907 123.284 207.856 122.506 205.937 121.659C203.839 120.735 202.397 118.105 201.103 116.188C197.568 119.101 194.634 117.539 193.326 113.02C192.743 111.003 192.415 108.866 192.249 106.761C192.114 105.04 192.578 103.516 191.385 102.579C189.895 101.408 186.623 101.341 184.863 101.029L184.429 100.949C182.599 100.602 180.513 100.099 178.695 100.4L178.844 101.009C179.689 104.435 180.702 108.256 178.402 110.983L177.786 111.71C175.763 114.063 174.503 115.024 171.643 112.203C169.242 109.835 167.263 106.6 165.51 103.631C164.59 102.074 164.181 100.044 163.251 98.5681C162.181 96.8698 160.053 97.0494 158.253 96.7447ZM155.219 97.4689C154.489 97.4537 152.842 97.7812 151.964 97.9701L151.745 98.0178C149.598 98.492 147.465 98.8775 145.216 99.274C140.632 100.081 136.069 101.106 131.506 102.032L130.138 102.307C125.533 103.22 120.424 104.466 116.046 106.402L114.802 106.953C110.455 108.88 106.222 110.808 102.063 113.257C97.4947 115.948 93.5723 119.454 89.2056 122.422C81.0198 127.987 72.7352 133.709 64.7067 139.617C59.6007 143.374 54.1529 146.627 49.2011 150.596C46.9049 152.436 44.6636 154.35 42.4666 156.33L41.7359 156.993C39.9472 158.623 36.701 160.87 36.2253 163.593C38.6224 163.593 41.8656 158.966 43.8199 157.518C45.2431 156.464 46.8362 155.612 48.3152 154.651C49.164 154.1 51.8764 151.23 52.7994 151.215C54.1307 151.193 54.3255 153.294 53.9937 154.244C53.5636 155.475 52.2958 156.486 51.4535 157.367C48.7078 160.242 46.4305 164.025 44.6048 167.68C47.9009 166.34 50.6449 162.002 53.0031 159.129L53.218 158.871C54.6534 157.195 60.8379 151.036 60.3886 157.107C60.2191 159.399 58.7217 161.151 57.6777 163.047L56.998 164.281C56.0906 165.932 55.1877 167.604 54.3932 169.31C52.3761 173.641 50.8519 178.096 49.6477 182.79C51.7363 181.882 52.2824 179.34 53.2571 177.351C54.2493 175.326 55.41 173.369 56.5243 171.424C58.7411 167.556 60.6851 163.5 62.9882 159.69L63.5174 158.828C64.6215 157.008 68.9112 148.956 70.6558 150.118C71.8547 150.916 72.2095 154.672 72.5692 155.99C73.1386 158.075 74.0157 160.261 75.9126 161.205C75.9995 156.946 75.8671 152.691 75.9287 148.443C75.9759 145.218 77.5005 144.216 79.4622 142.055L79.682 141.81C84.4734 136.398 90.6001 132.907 96.287 128.824C98.818 127.008 101.161 124.644 103.957 123.131C107.1 121.43 110.154 119.467 113.224 117.562C119.67 113.562 126.901 112.047 134.234 112.781L134.569 112.816C141.628 111.723 149.542 113.234 156.039 116.263C157.435 110.948 157.972 105.36 156.931 99.8994L156.722 98.8306C156.515 97.8042 156.356 97.4954 155.219 97.4689ZM360.65 88.6723C358.598 90.7249 355.912 92.4274 353.645 94.1384C351.564 95.7095 349.627 97.4975 347.572 99.0677C342.231 103.147 337.352 107.972 332.177 112.351C322.457 120.575 312.328 127.997 301.208 133.731C296.273 136.276 291.204 138.51 286.133 140.695L285.182 141.104C279.933 143.361 274.984 146.449 269.182 146.472L267.034 146.484C264.723 146.493 262.364 146.454 260.112 146.077C256.926 145.542 253.602 143.435 250.698 141.952C249.332 141.255 247.939 140.591 246.625 139.78C245.418 139.035 243.789 137.128 242.513 136.882C239.63 136.325 239.335 142.865 238.589 145.149C238.336 145.925 237.478 147.278 237.469 148.041L237.461 148.368C237.427 149.312 237.359 148.87 238.266 149.557L238.41 149.668C239.592 150.615 241.203 151.395 242.552 152.143L242.802 152.283C245.442 153.781 248.259 155.116 250.979 156.36C253.893 157.693 256.709 158.573 259.862 158.95C261.224 159.113 262.509 159.157 263.797 159.168L263.882 159.128C264.408 158.888 264.935 158.749 265.471 159.163L265.038 159.171L265.987 159.17C266.625 159.17 267.274 159.175 267.943 159.193L266.44 159.152C266.947 158.887 267.45 158.831 267.943 159.193C275.184 158.312 281.557 153.779 288.342 151.254L288.705 151.121C295.76 148.578 303.084 144.924 309.785 141.09L314.56 138.354C318.945 135.846 323.353 133.357 327.833 131.033L329.056 130.403C332.806 128.489 336.792 124.525 341.081 126.023C343.058 126.714 344.825 128.062 346.875 128.531C349.234 129.069 351.522 129.161 353.856 129.935C353.709 128.736 350.633 126.937 349.921 125.694C349.446 124.864 349.379 123.922 348.984 123.103C348.624 122.354 348.066 122.291 347.926 121.408C347.397 118.092 352.206 114.619 354.218 112.692L354.361 112.552C360.467 106.507 367.643 101.68 373.726 95.4686C370.061 95.4686 365.635 100.641 362.892 103.002L361.887 103.868C360.547 105.02 359.203 106.158 357.804 107.224L357.194 107.682C356.528 108.194 354.243 110.093 353.595 109.869C351.691 109.213 353.504 105.546 354.193 104.725C355.542 103.117 357.36 101.825 358.909 100.467C362.169 97.6082 365.148 94.5594 367.912 91.0503C365.184 91.2308 361.425 96.2117 359.496 98.189L358.504 99.2046C356.552 101.189 354.187 103.451 351.858 104.415L351.7 104.478C350.39 104.985 349.736 104.768 349.634 102.944C349.516 100.829 350.972 99.693 352.268 98.4456L352.658 98.0689C355.294 95.539 359.246 92.1039 360.65 88.6723ZM205 144.316C205.364 147.878 202.986 152.286 199.419 152.433C195.719 152.585 195.394 147.945 195.501 144.92L195.524 144.352C195.569 142.903 195.467 141.998 196.416 140.948C196.834 140.485 197.848 140.287 198.345 139.841C198.985 139.267 199.415 138.43 200.043 137.832C203.281 134.749 205.385 141.459 205 144.316ZM190.598 119.711C191.831 120.559 193.178 122.732 193.768 124.135C194.816 126.624 195.641 129.005 196.164 131.682L196.127 131.86C195.487 134.857 192.995 142.071 189.069 140.318C185.05 138.523 184.818 133.015 184.791 129.089L184.788 128.689C184.776 125.819 186.209 116.696 190.598 119.711ZM217.842 132.956C217.904 135.574 214.842 138.428 212.963 139.535C209.936 141.319 209.3 136.912 209.485 134.453L209.491 134.377C209.719 131.646 210.712 130.135 212.988 128.973C216.369 127.248 217.137 129.789 217.842 132.956ZM211.097 91.1869C210.023 91.5627 208.436 93.737 207.534 94.7852L207.386 94.9534C206.849 95.5481 205.929 97.3723 205.164 97.4776C204.027 97.6344 204.131 97.041 203.357 96.0181C200.444 92.1628 197.363 92.1768 195.69 96.8554C196.665 97.3893 197.697 97.4869 198.764 97.4459C199.126 97.4324 200.517 96.9729 200.785 97.1686C202.3 98.2773 200.081 99.2355 199.777 99.8036C199.545 100.235 199.433 100.618 199.342 100.962L199.326 100.575L199.342 100.964L199.251 101.308C199.071 101.969 198.841 102.468 197.688 102.875C196.369 103.34 195.262 102.933 193.95 102.477L193.976 102.963C194.122 105.876 194.209 110.539 195.918 112.753L196.018 112.878L197.549 113.651C197.479 113.657 197.41 113.661 197.342 113.662C198.219 113.681 199.263 113.248 199.886 113.102L199.853 112.937C199.514 111.347 198.174 106.844 198.813 105.854C200.067 103.912 200.616 106.806 200.928 108.114C201.663 111.195 203.264 115.241 205.784 117.177C205.759 117.134 205.735 117.087 205.714 117.035L206.062 117.099C206.549 117.191 207.015 117.327 207.257 117.934C207.149 117.884 207.035 117.848 206.919 117.816L206.686 117.754L207.047 117.939C209.508 119.182 213.676 120.981 215.957 119.665C219.272 117.753 221.947 114.586 224.745 111.932C222.816 110.879 222.553 109.247 224.052 107.537C227.23 111.3 229.174 103.225 230.196 100.762C228.24 100.571 226.487 101.871 224.486 101.428C222.857 101.068 220.891 100.434 219.494 99.4219C217.628 98.0689 215.993 96.1157 214.39 94.4242C213.43 93.4114 212.127 90.8255 211.097 91.1869ZM152.391 118.136L152.659 119.352L152.803 119.05C153.185 118.236 153.113 118.227 152.391 118.136ZM213.919 117.463L213.818 117.45C212.893 117.319 210.062 116.708 212.007 115.746C213.039 115.235 214.017 116.416 213.919 117.463ZM223.366 104.956C223.806 106.098 222.052 108.145 221.56 109.127C220.789 110.666 219.445 117.101 217.269 116.449C214.877 116.443 215.273 113.926 216.588 112.701C217.047 112.273 217.549 112.253 218.003 111.708C218.398 111.235 218.643 110.286 218.906 109.706L219.081 109.314C219.66 107.993 220.225 106.539 221.152 105.499L221.479 105.136C222.195 104.358 222.906 103.763 223.366 104.956ZM211.803 103.421C212.964 103.571 212.207 104.183 212.802 104.729C213.201 105.094 213.263 105.274 213.229 105.357L213.225 105.366L213.254 105.364C213.391 105.356 213.627 105.359 214.015 105.394L214.205 105.413C215.31 105.527 218.708 104.433 216.549 106.846C216.079 107.371 213.252 108.839 212.622 108.504C211.218 107.757 211.814 104.716 211.803 103.421Z" fill="black"/>
</svg>
