<svg width="400" height="400" viewBox="0 0 400 400" fill="none" xmlns="http://www.w3.org/2000/svg">
<path fill-rule="evenodd" clip-rule="evenodd" d="M142.968 123.045C142.681 127.74 142.394 132.434 142.106 137.129C143.954 136.597 155.709 133.138 154.983 136.645C154.462 139.16 151.157 141.881 149.474 143.632C147.924 145.245 146.328 146.815 144.692 148.339C147.699 147.188 150.732 146.098 153.787 145.078C156.098 144.306 158.426 143.552 160.794 142.974C161.673 142.759 164.047 141.883 164.878 142.48C167.06 144.051 155.219 155.619 153.597 157.249C155.891 156.183 158.239 155.214 160.628 154.383C162.352 153.782 167.68 151.488 169.206 153.447C170.839 155.543 166.793 160.356 165.671 161.882C164.063 164.069 162.32 166.166 160.492 168.172C168.091 174.998 177.021 181.073 186.525 184.849C193.493 187.618 200.338 188.322 207.691 186.803C215.245 185.242 222.49 182.248 229.377 178.825C233.421 176.815 237.413 174.64 241.215 172.196C239.647 170.289 238.125 168.343 236.647 166.367C234.536 163.545 231.943 160.462 230.739 157.103C229.562 153.816 233.98 154.458 236.099 154.636C239.168 154.895 242.229 155.444 245.236 156.1C243.11 154.621 241.022 153.082 238.976 151.494C236.309 149.424 232.752 147.084 231.007 144.106C229.472 141.488 232.84 142.149 234.398 142.492C238.112 143.31 241.726 144.705 245.268 146.064C247.862 147.06 250.44 148.103 252.993 149.201C251.408 147.824 249.877 146.38 248.405 144.883C246.426 142.872 243.758 140.415 242.871 137.644C241.064 132.003 253.216 136.258 255.291 137.129C254.908 131.285 254.525 125.44 254.142 119.596C238.051 123.877 221.96 128.159 205.869 132.441C204.13 132.904 201.953 133.912 200.14 133.966C198.497 134.015 196.513 133.275 194.911 132.969L165.793 127.406C158.185 125.952 150.576 124.498 142.968 123.045Z" fill="#FF5678"/>
<path fill-rule="evenodd" clip-rule="evenodd" d="M188.742 60.7264C189.939 59.4909 190.563 59.9492 191.34 61.2176C191.829 62.0135 192.255 63.4326 193.029 63.8553C194.744 64.7924 195.227 63.0594 196.138 62.3545C197.419 61.3627 198.58 62.6545 199.842 63.0074C201.102 63.3598 202.749 62.7438 203.889 63.4643C205.449 64.4506 205.013 66.297 205.446 67.7373C205.859 69.1098 206.798 68.5027 207.815 69.0561C208.875 69.6315 208.662 70.4227 208.666 71.5528C208.669 72.1054 208.742 72.7282 208.683 73.2715C208.573 74.2819 208.23 74.2125 207.84 74.9093C206.849 76.6804 208.794 76.7439 209.557 78.2959C209.947 79.0892 209.756 78.8907 209.696 79.5364C209.72 79.283 209.228 80.4952 209.298 80.3801C209.019 80.8362 209.558 80.7452 208.972 81.1311C208.819 81.2322 208.424 81.052 208.248 81.1104C207.6 81.3253 207.428 81.5132 206.868 81.9392C205.542 82.9483 205.198 82.4808 204.011 81.4252C203.769 81.9997 203.653 82.8476 203.857 83.4599C203.951 83.7442 204.614 84.3721 204.591 84.5925C204.572 84.7808 203.783 85.0639 203.616 85.2657C203.283 85.6672 203.213 86.0027 203.127 86.5223C201.949 86.0082 201.328 86.6332 202.585 87.2335C203.967 87.8923 206.225 87.688 207.737 87.9067C209.43 88.1513 211.233 88.4538 212.761 89.2623C214.269 90.0607 215.367 91.432 216.576 92.6061C217.725 93.7214 218.736 94.7551 219.185 96.3329C219.533 97.5603 219.406 99.1249 220.799 99.6229C222.043 100.068 224.22 99.4325 225.533 99.4651C227.651 99.5172 229.755 99.7964 231.832 100.199C245.617 102.87 258.039 110.65 269.535 118.442C275.106 122.218 280.431 126.79 284.248 132.339C286.281 135.295 288.932 137.811 291.029 140.739C293.042 143.551 295.008 146.439 296.834 149.377C298.688 152.359 299.874 155.652 301.305 158.846C302.794 162.168 304.36 165.453 305.698 168.839C306.388 170.587 306.996 172.359 307.609 174.134C307.872 174.894 308.226 175.655 308.437 176.428C308.598 177.017 308.446 177.495 308.544 178.027C308.781 179.308 309.443 180.599 309.72 181.976C310.057 183.651 310.485 185.293 310.742 186.986C311.277 190.525 311.638 194.205 311.52 197.786C311.461 199.61 311.279 201.429 311.242 203.254C311.216 204.57 311.572 206.187 311.095 207.454C310.852 208.098 310.271 208.417 310.012 209.008C309.725 209.66 309.904 210.269 309.835 210.961C309.717 212.159 309.212 212.935 308.716 213.929C307.552 216.26 305.8 217.835 305.663 220.712C305.097 220.418 304.531 220.124 303.965 219.83C303.965 220.801 304.256 221.185 303.555 221.907C303.218 221.916 302.897 221.994 302.594 222.14C302.497 222.292 302.433 222.457 302.4 222.633C302.469 222.584 301.931 223.042 301.98 222.999L301.913 223.057C301.331 223.57 301.324 223.79 301.169 224.743C300.272 224.722 300.534 223.794 300.002 223.352C299.945 223.64 299.92 223.931 299.925 224.225C299.908 224.257 299.383 224.824 299.354 224.865C299.261 224.996 299.425 225.159 299.278 225.346C298.813 225.942 298.158 226.177 297.451 226.393C295.915 226.864 294.269 226.741 292.747 227.006C291.373 227.245 289.931 226.553 288.612 226.687C287.882 226.76 287.808 226.632 287.467 227.536C287.17 228.322 287.225 229.391 287.082 230.216C286.352 234.432 285.238 238.714 283.761 242.73C283.259 244.097 280.213 248.328 282.287 249.155C283.355 249.58 285.074 248.693 286.215 248.691C288.153 248.686 290.167 249.257 292.059 249.63C296.145 250.436 300.338 251.531 304.229 253.032C305.907 253.679 307.376 254.691 308.576 256.042C309.101 256.634 309.469 257.351 310.124 257.765C310.786 258.184 311.257 258.052 311.813 258.717C313.881 261.188 311.288 264.88 308.542 265.361C307.941 265.467 307.25 264.876 306.77 265.259C306.424 265.534 306.294 266.241 305.973 266.609C305.549 267.097 304.168 268.331 303.773 267.368C303.544 266.813 304.609 266.635 304.088 266.077C303.744 265.708 302.989 266.471 302.82 266.716C302.091 267.782 302.499 268.789 300.761 267.888C301.41 267.656 301.496 267.469 301.018 267.324C300.93 267.139 300.796 266.999 300.615 266.907C299.731 267.304 300.49 267.804 300.009 268.266C299.569 268.688 298.831 268.36 298.302 268.415C297.407 268.509 297.221 268.938 296.226 268.609C296.72 267.523 296.074 267.696 295.084 267.321C294.793 267.812 295.297 268.108 295.598 268.377C295.087 268.722 294.5 268.878 293.911 269.017L293.616 269.086C293.409 268.156 293.404 267.443 292.234 267.953C292.103 268.01 291.759 267.932 291.653 268.043C291.413 268.294 291.914 268.771 291.759 268.945C291.093 269.695 291.334 269.139 290.534 269.033C289.624 268.913 288.842 269.121 287.927 269.187C285.425 269.365 282.902 269.06 280.389 269.259C279.337 269.342 278.669 269.583 277.746 269.916C276.818 270.25 276.829 270.564 276.444 269.428C276.033 270.252 275.816 269.636 275.215 270.033C274.877 270.257 274.581 270.688 274.232 270.876C273.085 271.491 272.299 270.912 271.154 270.941C271.506 271.57 272.131 271.525 271.542 272.028C271.327 272.213 269.904 272.047 269.521 272.195C268.982 272.404 268.619 272.948 268.085 273.136C267.737 273.26 267.328 273.119 266.983 273.209C266.15 273.427 266.034 273.442 265.04 273.466C265.415 274.795 262.675 274.071 262.238 274.119C260.91 274.267 260.064 275.71 258.577 275.953C258.932 277.217 260.851 278.471 261.745 279.335C262.707 280.265 263.647 281.303 264.712 282.115C267.135 283.962 269.955 285.553 272.532 287.199C277.818 290.573 283.928 292.563 289.529 295.417C292.483 296.922 295.161 298.848 297.799 300.845C300.131 302.612 302.676 303.936 304.984 305.702C310.082 309.601 315.475 313.634 319.292 318.823C324.235 325.544 317.463 330.408 311.516 332.427C305.591 334.438 299.695 335.128 293.57 335.175C290.069 335.202 286.615 335.769 283.107 335.663C280.916 335.597 278.073 337.158 276.909 334.522C276.202 332.92 276.608 332.659 274.688 332.169C273.463 331.855 272.443 331.683 271.192 331.547C268.275 331.23 265.594 329.722 262.699 329.167C256.17 327.916 250.089 325.148 243.874 322.891C242.306 322.322 240.675 321.883 239.128 321.262C237.692 320.685 236.42 319.778 234.998 319.176C232.232 318.005 229.168 317.594 226.328 316.628C223.726 315.743 221.173 314.421 218.716 313.199C216.234 311.967 213.511 311.977 211.39 309.989C209.111 307.853 207.114 304.666 205.726 301.882C205.153 300.733 204.956 299.394 204.35 298.275C203.599 296.891 202.357 296.801 201.18 295.908C199.239 294.437 198.113 291.574 196.045 290.406C193.424 288.927 191.34 290.875 189.445 292.417C188.245 293.393 186.808 294.188 185.863 295.444C184.983 296.615 185.13 297.575 184.982 298.914C184.828 300.294 184.494 304.079 182.785 302.52C182.634 303.773 182.498 303.646 181.948 304.55C181.351 305.531 181.131 306.568 181.363 307.694C181.026 307.471 180.689 307.249 180.352 307.027C180.454 307.609 180.607 308.065 180.209 308.577C179.738 308.036 179.523 305.702 178.272 307.163C177.541 308.015 178.186 309.061 178.889 309.467C178.069 309.467 177.742 309.354 177.01 309.628C176.721 309.737 176.397 310.098 176.062 310.212C175.628 310.36 175.427 309.865 174.678 310.353C174.238 310.641 173.947 311.168 173.557 311.517C170.938 313.862 167.594 315.164 164.346 316.304C157.365 318.755 151.064 322.633 144.696 326.292C139.61 329.215 135.196 333.008 130.032 335.842C127.162 337.418 124.3 339.597 120.961 339.944C118.134 340.239 115.013 340.423 112.205 340.078C105.619 339.267 98.8584 339.848 92.2907 338.406C87.0686 337.261 80.5516 334.818 79.7014 328.816C78.8508 322.809 84.3692 318.375 87.836 314.231C91.9474 309.316 97.0807 306.305 102.384 302.823C108.224 298.989 113.801 294.623 119.248 290.251C124.297 286.198 128.955 281.57 132.818 276.333C132.285 276.251 131.336 275.783 130.813 275.98C130.454 276.114 129.989 277.033 129.722 277.009C129.489 276.988 129.499 276.661 129.012 276.625C128.408 276.582 127.777 276.67 127.073 276.539C126.575 276.448 125.691 276.445 125.244 276.255C124.95 276.129 124.639 275.744 124.409 275.654C123.769 275.404 123.15 275.899 122.477 275.639C122.027 275.464 121.853 274.886 121.333 274.867C120.874 274.85 120.768 275.432 120.374 275.461C119.878 275.498 119.308 274.952 118.842 274.781C117.672 274.353 116.234 274.049 115.045 273.709C114.057 273.427 112.998 273.199 112.006 272.982C110.061 272.555 108.135 273.32 106.207 273.357C104.815 273.384 100.424 273.496 100.234 271.599C99.5624 271.914 98.5773 272.536 97.8273 272.038C97.2354 271.645 97.5859 271.284 97.369 270.713C96.8135 271.096 96.8841 271.705 96.8351 272.292C96.1028 271.827 95.546 271.26 94.6447 271.166C94.3936 271.299 94.1386 271.426 93.8807 271.546C93.4871 271.45 93.121 271.29 92.7824 271.067C92.155 270.953 91.6916 271.224 91.0727 271.119C90.5573 271.032 89.8982 270.725 89.3943 270.597C87.7924 270.189 86.9963 268.737 85.3758 268.154C84.7121 267.916 84.2158 267.928 83.6095 267.591C82.9157 267.205 82.9449 266.762 81.9949 266.566C82.1159 266.736 82.7762 267.348 82.5479 267.637C81.4179 266.874 80.109 266.54 79.3826 265.227C78.2862 263.244 79.7461 261.816 81.24 260.597L81.4001 260.467C84.6994 257.806 88.6642 256.337 92.7862 255.551C97.1923 254.711 101.425 254.137 105.612 252.447C109.785 250.761 113.604 249.93 118.057 249.387C117.096 245.105 115.471 241.035 114.718 236.678C114.36 234.606 114.165 232.499 113.9 230.414C113.727 229.061 114.022 226.41 112.268 226.219C111.705 226.158 110.624 226.412 110.105 226.476C109.741 226.52 109.538 226.331 109.159 226.446C108.548 226.633 108.184 227.193 107.414 227.367C105.811 227.729 104.777 227.317 103.262 227.202C101.878 227.097 100.654 227.301 99.3362 226.642C96.4656 225.207 94.2244 223.575 92.5993 220.774C90.734 217.559 89.5427 214.043 88.9855 210.376C88.3703 206.328 88.1467 202.237 88.0829 198.145C88.0228 194.272 87.8482 189.954 88.9542 186.197C89.7786 183.397 90.3958 180.283 92.0002 177.829C92.3714 177.261 92.4847 176.55 92.8369 176.021C93.1663 175.526 93.488 175.605 93.7522 175.01C93.9628 174.537 93.9298 173.768 94.1395 173.227C94.468 172.379 94.9267 171.564 95.3059 170.736C95.5152 171.055 95.724 171.376 95.9333 171.696C96.1337 170.384 96.0897 169.284 96.8346 168.145C97.416 167.256 98.0708 166.457 98.6217 165.526C99.9644 163.256 101.096 160.947 102.292 158.599C103.228 156.763 104.63 155.046 105.436 153.296C106.431 151.138 107.948 149.336 109.533 147.503C112.431 144.154 114.73 140.168 117.855 137.011C120.502 134.337 122.834 131.449 125.492 128.774C128.779 125.465 131.957 122.099 135.741 119.363C139.568 116.596 143.425 113.833 147.39 111.185C151.181 108.654 154.973 106.506 159.055 104.414C161.586 103.117 164.126 101.846 166.703 100.643C168.813 99.6576 170.635 99.499 172.898 99.1042C174.711 98.7877 175.628 98.0794 176.573 96.5546C177.408 95.2074 177.975 92.9159 179.338 91.9909C180.126 91.4553 181.186 91.5357 182.056 91.1896C183.015 90.8079 183.881 90.1767 184.823 89.7498C186.368 89.0499 189.29 88.7918 190.354 87.4113C189.878 87.052 188.707 85.6152 187.974 85.792C187.285 85.9575 187.744 86.3302 187.41 86.6289C186.899 87.085 186.876 86.9869 186.227 87.096C185.263 87.2589 183.707 87.0728 183.157 86.1762C182.549 85.1861 183.263 84.5697 183.783 83.608C182.224 82.9479 179.653 82.2735 178.772 80.6517C177.986 79.2047 179.333 77.8871 179.319 76.3618C179.298 74.138 180.085 73.4255 181.565 71.775C182.748 70.4544 181.958 69.692 182.979 68.3118C184.009 66.9207 184.721 67.4233 185.989 66.7379C187.265 66.0491 186.249 65.5625 186.353 64.3981C186.449 63.3433 188.004 61.4884 188.742 60.7264ZM148.771 263.858C147.772 263.139 145.826 262.52 144.757 263.546C144.295 263.99 144.398 264.596 144.095 265.097C143.774 265.63 143.266 266.009 142.905 266.519C141.862 267.996 141.505 269.937 140.733 271.561C139.91 273.29 138.957 274.957 137.946 276.581C133.623 283.525 128.403 290.092 122.543 295.801C119.609 298.66 116.279 301.075 113.092 303.635C109.762 306.309 106.384 308.915 102.757 311.179C99.373 313.291 96.4867 315.291 93.5933 318.045C90.444 321.041 87.7675 324.464 85.0719 327.862C86.4822 328.293 89.199 329.688 90.6609 329.589C91.7791 329.514 91.9605 328.503 92.538 327.594C94.2874 324.839 96.8249 322.46 99.4643 320.573C100.068 320.141 101.627 318.54 102.41 318.635C104.31 318.865 103.497 321.366 102.873 322.315C100.948 325.244 98.2243 327.956 95.787 330.459C97.1669 330.624 98.5385 330.854 99.9079 331.091L101.277 331.329C102.999 331.625 103.43 331.739 104.366 330.255C106.125 327.465 107.891 324.922 110.57 322.917C111.58 322.162 113.121 320.894 114.484 321.495C115.703 322.033 115.727 323.453 115.223 324.489C114.516 325.937 112.741 327.071 111.581 328.118C110.207 329.36 108.842 330.61 107.465 331.85C109.478 332.363 111.557 333.591 113.202 331.766C114.61 330.205 115.632 328.791 117.481 327.619C118.702 326.846 120.81 325.954 120.596 328.376C120.431 330.235 118.269 331.532 117.213 332.881C120.906 334.557 125.047 331.611 128.117 329.886C129.615 329.045 131.035 328.347 132.391 327.274C133.674 326.259 135.106 325.758 136.238 324.615C137.445 323.397 138.93 322.649 140.333 321.681C141.927 320.581 143.403 319.194 145.195 318.416C146.692 317.765 147.845 316.874 149.302 316.143C150.711 315.436 152.239 315.043 153.655 314.38C155.237 313.639 156.579 312.694 158.243 312.07C160.092 311.377 161.987 310.811 163.86 310.187C166.41 309.338 169.695 308.679 171.385 306.385C172.457 304.931 172.353 303.259 172.556 301.556C172.795 299.543 173.156 297.6 173.216 295.563C173.346 291.146 173.707 286.743 173.84 282.327C173.9 280.34 174.51 277.887 174.034 275.936C173.642 274.328 172.459 274.047 172.941 272.26C168.258 271.581 163.702 270.664 159.106 269.546C157.14 269.068 155.219 268.36 153.443 267.386C151.677 266.418 150.378 265.015 148.771 263.858ZM239.983 263.332C238.445 265.086 237.415 267.114 235.825 268.826C234.261 270.509 232.553 272.058 230.588 273.26C228.417 274.589 226.067 275.882 223.696 276.807C221.638 277.61 219.083 278.842 216.893 279.139C215.064 279.387 214.221 279.352 215.162 281.532C215.971 283.403 216.996 285.207 217.615 287.155C218.318 289.367 218.512 291.903 218.265 294.208C218.054 296.167 216.621 298.276 217.014 300.237C217.759 303.949 222.656 306.063 225.771 307.123C230.047 308.578 234.066 310.439 238.169 312.298C246.781 316.2 255.537 320.071 264.473 323.149C266.75 323.933 269.114 324.244 271.372 325.138C273.382 325.935 275.42 326.518 277.464 327.209C279.665 327.953 281.657 329.264 284.047 329.067C286.023 328.904 287.998 328.625 289.979 328.463C288.605 326.874 287.096 325.461 285.446 324.163C284.209 323.189 282.536 322.121 281.948 320.58C281.559 319.56 281.506 317.999 282.728 317.587C284.018 317.153 286.122 318.878 287.111 319.501C289.826 321.207 293.128 322.831 294.756 325.734C295.452 326.976 295.606 328.061 297.131 328.422C298.13 328.657 301.726 328.777 302.381 327.77C299.805 325 295.862 321.796 294.56 318.121C294.15 316.966 294.111 314.706 295.744 314.55C297.054 314.424 298.412 316.334 299.155 317.152C300.724 318.879 302.223 320.649 303.664 322.484C304.258 323.241 304.893 323.981 305.339 324.838C305.621 325.379 305.731 326.313 306.209 326.724C307.204 327.581 309.077 326.647 310.211 326.344C312.141 325.829 314.175 325.061 315.913 324.067C318.619 322.519 310.651 317.597 309.678 316.752C306.553 314.039 303.574 311.56 300.025 309.397C292.689 304.927 285.185 301.139 277.321 297.674C275.27 296.771 273.04 296.156 271.044 295.166C269.449 294.375 267.996 293.232 266.531 292.23C263.024 289.834 259.929 287.228 257.083 284.075C251.052 277.398 245.658 270.312 239.983 263.332ZM149.646 167.434C149.862 165.739 142.826 165.133 141.805 166.137C141.044 166.886 141.122 168.484 140.689 169.429C140.048 170.824 138.743 172.237 137.353 172.904C135.821 173.638 133.836 173.498 132.705 172.111C131.711 170.892 131.81 169.14 131.665 167.668C127.463 167.98 124.875 173.77 123.705 177.064C124.979 177.502 126.462 177.201 127.607 178.029C127.253 178.085 126.899 178.142 126.544 178.198C127.544 182.032 125.158 184.738 122.23 186.963C121.005 187.894 119.943 188.375 119.611 189.954C119.202 191.9 119.246 194.039 119.025 196.02C118.793 198.116 118.616 200.144 118.552 202.254C118.524 203.156 118.023 206.206 118.805 206.868C119.455 207.42 122.258 207.284 123.232 207.493C124.767 207.823 126.633 207.281 127.816 208.393C127.089 208.513 126.361 208.632 125.634 208.752C128.027 211.446 127.023 214.896 125.285 217.63C124.547 218.791 123.683 219.911 122.674 220.849C121.786 221.674 120.502 222.338 120.047 223.527C119.106 225.989 121.215 230.255 121.77 232.645C122.583 236.156 123.225 239.707 124.557 243.074C126.506 240.91 130.43 238.29 132.728 241.474C131.384 241.098 129.803 240.357 128.528 241.341C132.665 241.572 135.324 244.733 133.774 248.801C133.225 250.242 130.451 252.838 130.73 254.235C130.893 255.047 132.367 256.037 132.953 256.617C133.731 257.386 134.465 258.259 135.423 258.811C136.965 259.701 139.833 260.039 141.536 259.413C142.373 259.106 142.197 259.407 142.532 258.412C142.901 257.322 142.726 256.52 143.449 255.504C144.41 254.155 146.649 252.79 146.9 251.058C147.032 250.14 146.411 249.22 146.287 248.337C146.118 247.133 146.382 245.876 146.382 244.665C145.814 244.966 140.83 248.245 140.726 248.16C139.811 247.413 142.822 245.226 143.375 244.889C144.938 243.935 146.524 243.585 147.74 242.135C148.581 241.132 149.618 239.322 150.914 240.905C149.674 240.779 149.068 241.426 148.564 242.465C150.825 242.465 152.583 242.946 153.998 241.014C155.591 238.84 156.961 236.576 158.797 234.586C160.202 233.064 161.83 231.841 160.657 229.72C159.707 228.002 158.011 226.595 156.851 225.012C154.231 221.438 152.008 217.577 149.451 213.955C148.359 212.409 147.645 210.459 145.614 210.383C143.965 210.321 142.661 210.204 142.25 208.276C141.974 206.976 142.922 204.977 141.825 203.931C141.02 203.163 137.852 203.126 136.829 203.453C135.391 203.911 134.414 205.811 132.708 205.447C131.159 205.116 131.176 203.217 129.962 202.446C129.097 201.896 127.56 202.092 126.905 201.164C125.987 199.866 127.415 199.379 128.486 199.151C130.161 198.796 130.917 198.925 131.841 197.346C132.561 196.116 134.045 194.603 133.667 193.102C133.291 191.611 131.575 190.782 131.154 189.323C130.572 187.315 132.083 187.827 133.284 188.161C134.227 188.424 134.484 188.069 135.41 188.151C136.214 188.222 137.389 188.999 137.986 189.5C138.807 190.188 138.621 190.647 139.1 191.439C139.305 191.777 139.038 192.752 139.706 191.846C140.096 192.36 140.673 192.666 141.039 193.054C141.333 193.365 141.035 192.362 141.578 193.239C141.829 193.645 141.228 195.643 142.367 193.815C143.767 195.021 143.827 196.239 144.673 197.797C145.666 196.455 149.923 189.898 151.776 192.598C150.122 191.542 146.556 195.623 146.171 197.187C145.456 200.086 148.948 195.54 149.538 195.069C152.439 192.755 157.059 194.502 157.044 198.4C157.036 200.431 155.681 202.444 154.368 203.894C153.25 205.128 152.441 205.382 152.996 207.071C151.627 206.867 153.144 208.427 153.448 208.729C154.255 209.529 154.597 210.077 155.156 211.059C155.457 211.589 155.876 212.129 156.31 212.557C156.679 212.922 157.676 213.384 157.924 213.785C158.443 214.625 157.67 216.454 159.498 215.722C160.515 215.315 161.282 213.189 162.11 212.394C163.309 211.245 164.833 210.276 166.439 209.82C170.145 208.771 172.891 211.441 176.234 212.434C185.24 215.11 179.861 223.87 174.186 227.172C172.959 227.887 171.75 228.276 170.426 228.696C168.957 229.16 168.509 229.379 169.354 230.677C170.158 231.913 171.383 232.996 172.293 234.167C172.769 234.78 172.843 235.461 173.22 236.041C173.265 236.415 173.422 236.732 173.691 236.993C174.049 237.092 174.407 237.193 174.764 237.295C175.443 237.949 175.167 239.21 175.579 239.931C176.04 240.74 176.935 240.642 177.472 241.296C177.863 241.772 177.832 242.587 178.147 243.137C178.836 244.339 179.719 245.315 180.687 246.333C181.308 246.986 181.029 247.167 181.319 247.704C181.087 247.975 181.154 248.2 181.519 248.381C181.819 248.557 182.091 248.769 182.335 249.017C182.617 249.454 182.528 250.249 182.801 250.598C183.177 251.079 183.722 250.447 184.171 250.985C184.489 251.368 184.135 252.231 184.303 252.717C184.569 253.485 185.355 254.058 185.863 254.652C186.86 255.817 186.756 257.009 187.552 258.189C188.485 259.57 189.14 260.475 190.073 258.849C190.996 257.241 191.557 255.817 192.981 254.514C194.227 253.374 195.725 252.443 197.236 251.695C200.431 250.113 205.222 250.935 206.612 254.723C207.845 258.083 205.744 261.983 203.785 264.587C201.321 267.86 198.133 269.866 194.395 271.42C194.872 272.09 196.074 274.667 196.905 274.944C197.743 275.224 200.061 273.972 200.921 273.797C203.033 273.366 204.985 273.422 207.093 272.789C208.951 272.232 210.763 272.16 212.611 271.592C214.086 271.139 216.018 270.679 217.362 269.898C218.98 268.957 219.331 266.623 219.966 265.011C219.41 265.358 216.277 267.735 216.857 265.758C217.278 264.324 221.068 262.583 222.218 262.107C223.241 261.683 224.634 261.198 225.734 261.58C226.942 262 226.744 262.935 227.498 263.65C228.998 265.073 231.248 262.128 232.385 261.043C233.464 260.014 234.775 259.109 235.734 258.035C236.552 257.119 237.163 256.31 238.175 255.554C238.412 255.377 240.055 254.464 239.818 253.93C239.535 253.29 238.016 254.417 237.596 254.365C234.845 254.017 236.319 249.85 236 248.147C235.502 245.481 232.809 242.465 231.086 240.469C229.712 242.126 227.734 243.88 225.512 244.171C223.431 244.444 221.95 243.269 222.135 241.113C222.209 240.246 223.149 238.53 221.906 239.405C221.574 239.639 220.247 242.373 219.793 242.171C218.203 241.463 222.94 237.007 223.387 236.614C224.238 235.867 226.289 234.625 226.108 233.32C225.982 232.413 224.429 231.073 223.907 230.387C219.188 224.195 213.891 218.482 208.88 212.533C207.752 211.193 206.141 207.391 204.128 207.91C203.045 208.19 202.012 209.316 200.976 209.773C199.642 210.362 198.271 210.623 196.831 210.296C194.258 209.712 192.562 207.46 192.715 204.819C192.804 203.288 193.574 202.116 194.132 200.738C194.919 198.797 194.603 198.514 196.373 197.426C193.452 193.806 189.734 190.817 186.128 187.911C182.543 185.022 178.836 182.113 174.782 179.917C172.784 178.834 170.932 177.599 169.07 176.299C167.927 175.5 166.604 173.919 165.253 174.851C164.682 175.245 164.311 176.095 163.846 176.621C163.217 177.335 162.5 177.981 161.787 178.608C160.447 179.787 159.026 180.91 157.56 181.927C154.889 183.779 150.92 185.923 147.664 184.237C144.8 182.754 144.489 179.032 145.026 176.212C145.379 174.355 146.15 172.607 147.112 170.99C147.638 170.106 149.519 168.431 149.646 167.434ZM135.86 271.004C135.372 272.195 134.603 272.97 134.331 274.281C135.101 273.3 136.426 272.448 135.86 271.004ZM203.413 253.508C199.612 252.933 195.456 256.362 193.094 258.871C192.344 259.668 190.934 260.896 190.719 262.002C190.534 262.944 191.161 263.565 191.474 264.415C192.02 265.895 191.936 268.426 193.499 269.297C196.509 270.975 201.919 264.88 203.324 262.973C204.971 260.736 208.251 254.241 203.413 253.508ZM225.195 263.103C222.397 262.715 220.215 266.243 219.831 268.581C221.186 268.212 222.398 267.464 223.669 266.888C224.574 266.479 226.174 266.266 226.601 265.226C227.071 264.082 226.264 263.251 225.195 263.103ZM167.19 255.977C166.719 255.852 164.635 260.203 164.289 260.898C163.242 263.001 164.775 262.951 166.605 263.292C171.766 264.252 176.98 264.72 182.212 265.069C182.749 263.974 180.73 262.2 180.15 261.437C178.937 259.841 178.063 258.038 176.856 256.415C175.349 258.401 173.505 262.101 170.643 262.261C168.894 262.359 167.856 260.924 167.487 259.384C167.405 259.042 167.469 256.051 167.19 255.977ZM165.031 236.467C163.224 235.424 162.681 239.067 162.215 240.174C160.999 243.062 158.981 244.749 158.659 247.965C158.405 250.503 157.035 252.596 154.548 253.471C153.482 253.847 152.283 253.749 151.306 254.383C150.276 255.05 149.735 256.29 149.136 257.305C150.701 258.171 154 261.229 155.859 260.581C157.822 259.897 159.367 256.824 161.654 259.101C159.744 258.792 158.045 259.721 157.073 261.362C157.917 260.901 159.085 259.788 160.112 260.373C160.926 260.836 160.788 262.188 162.024 262.198C163.586 262.211 164.191 259.645 164.703 258.561C165.971 255.875 167.488 253.344 168.643 250.597C169.132 249.434 169.968 248.12 170.227 246.887C170.525 245.472 169.514 244.29 168.839 243.115C168.01 241.672 167.122 240.247 166.341 238.777C166.018 238.169 165.65 236.824 165.031 236.467ZM174.163 252.179C172.649 249.615 169.506 251.842 168.626 253.948C168.01 255.422 167.549 259.023 168.874 260.333C170.459 261.901 172.883 259.635 173.977 258.454C174.639 257.74 175.564 256.69 175.69 255.666C175.857 254.314 174.798 253.256 174.163 252.179ZM261.736 170.607C257.643 171.598 253.786 173.121 249.96 174.99C248.095 175.901 248.523 177.149 248.134 178.943C247.701 180.94 246.52 182.797 245.29 184.393C243.474 186.751 240.541 190.311 237.27 190.332C235.551 190.343 234.351 189.232 233.937 187.608C233.798 187.064 233.657 183.251 233.829 183.227C232.932 183.356 232.557 186.347 232.32 187.019C231.812 185.851 232.569 184.646 232.656 183.482C227.599 186.183 222.789 189.148 218.034 192.31C215.467 194.017 212.969 195.764 210.216 197.162C209.541 197.504 207.671 198.161 207.405 198.997C207.207 199.62 207.947 200.4 208.104 201.051C208.461 202.521 208.297 203.579 209.205 204.896C209.867 205.858 210.683 206.718 211.406 207.634C213.337 210.078 215.268 212.516 217.241 214.926C221.191 219.753 225.272 224.478 229.018 229.468C230.327 227.957 230.609 226.179 231.936 224.635C233.145 223.229 234.59 222.002 235.705 220.516C237.965 217.501 238.817 213.631 241.298 210.739C242.395 209.46 243.898 208.185 245.667 208.134C247.477 208.081 248.056 209.697 249.536 209.947C250.78 210.158 252.541 207.876 253.591 207.283C255.083 206.438 256.108 205.47 257.434 204.4C258.994 203.14 264.654 198.951 266.394 201.136C268.415 203.672 264.656 206.754 262.958 208.107C261.858 208.983 260.401 209.66 260.5 211.174C260.591 212.59 261.415 214.031 261.518 215.515C261.591 216.555 261.635 218.285 260.173 217.954C258.919 217.67 257.823 213.998 257.256 212.972C255.072 214.803 253.167 216.938 250.966 218.75C248.794 220.54 246.647 222.279 244.562 224.172C242.561 225.99 240.305 227.318 238.348 229.172C237.053 230.399 235.298 231.045 233.919 232.211C233.552 232.523 232.419 233.239 232.302 233.744C232.166 234.34 232.684 234.676 233.079 235.199C234.516 237.099 235.904 239.12 237.119 241.167C237.538 241.874 238.048 243.159 239.025 243.193C239.736 243.218 240.783 242.236 241.444 241.986C242.759 241.489 245.381 240.809 246.154 242.487C245.59 242.338 245.026 242.189 244.462 242.04C245.21 243.805 245.221 245.071 244.329 246.779C243.676 248.026 242.571 249.247 242.893 250.741C243.201 252.173 244.558 253.244 244.802 254.75C244.968 255.769 244.603 256.052 244.156 256.87C243.868 257.399 243.542 258.524 243.072 258.893C242.903 258.58 242.735 258.267 242.567 257.954C242.299 259.114 242.242 259.243 243.423 259.578C244.592 259.909 245.766 259.502 246.943 259.555C248.201 259.612 249.362 260.183 250.603 260.329C252.125 260.509 252.726 259.714 254.065 259.442C255.302 259.191 256.626 259.572 257.902 259.363C259.374 259.121 260.785 258.636 262.203 258.189C263.77 257.694 266.374 257.685 266.699 255.767C266.9 254.576 266.687 253.297 266.885 252.075C267.107 250.703 267.482 249.373 267.951 248.067C268.904 245.407 270.059 242.584 271.71 240.273C272.045 239.803 273.17 238.08 273.953 238.611C274.848 239.219 273.277 239.736 273.021 239.999C271.912 241.134 271.502 242.84 270.84 244.24C272.746 243.254 274.242 241.415 276.407 240.955C278.565 240.495 279.278 241.107 279.966 238.736C281.291 234.174 282.619 229.596 283.3 224.885C281.4 225.713 279.269 227.199 277.124 226.34C275.26 225.593 274.861 223.638 274.465 221.876C273.804 222.725 273.568 223.87 272.774 224.623C272.022 223.394 273.251 221.864 273.834 220.82C274.706 219.257 275.429 217.62 276.235 216.024C277.744 213.038 279.811 210.773 282.287 208.568C284.764 206.361 283.596 203.39 283.47 200.371C283.297 196.25 283.202 192.16 282.774 188.052C281.562 189.006 279.269 191.519 277.571 190.198C277.306 189.991 276.326 188.546 276.239 188.303C275.974 187.555 276.332 187.079 276.708 186.349C277.686 184.451 278.48 182.745 279.701 180.997C280.79 179.438 279.766 178.428 278.826 177.029C277.759 175.442 276.433 173.051 274.526 172.331C272.588 171.599 270.044 174.119 268.394 175.036C266.728 175.963 264.413 177.21 262.644 175.81C261.041 174.542 261.552 172.371 261.736 170.607ZM202.555 251.704C198.546 249.776 192.203 255.94 191.127 259.397C194.175 255.88 197.882 252.683 202.555 251.704ZM277.774 244.151C278.339 242.942 278.822 242.106 277.145 242.359C275.587 242.593 274.036 243.808 272.828 244.759C269.908 247.056 268.656 249.321 267.931 252.921C267.789 253.63 267.338 255.286 268.157 255.568C269.122 255.901 271.658 253.915 272.255 253.407C274.973 251.09 276.302 247.297 277.774 244.151ZM215.752 247.039C221.557 244.67 219.572 253.121 216.423 254.964C213.666 256.577 212.453 248.384 215.752 247.039ZM218.782 248.78C218.606 247.284 217.371 247.178 216.179 247.908C214.931 248.671 214.65 250.07 214.482 251.435L214.452 251.683C214.653 253.136 214.949 254.453 216.483 253.397C217.584 252.639 218.946 250.17 218.782 248.78ZM237.055 249.489C236.899 250.459 236.096 252.883 237.705 252.792C239.492 252.691 237.444 250.165 237.055 249.489ZM131.512 243.225C129.793 242.372 126.625 242.721 125.727 244.678C125.194 245.838 125.967 246.857 126.591 247.806C127.615 249.365 128.545 250.983 129.587 252.532C131.789 250.71 135.42 245.165 131.512 243.225ZM157.779 246.808C156.185 248.637 154.125 250.413 152.921 252.505C155.722 251.872 157.877 249.814 157.779 246.808ZM256.102 234.582C257.121 233.037 258.773 230.89 260.891 231.76C262.569 232.449 263.573 234.815 263.938 236.445C262.224 233.716 260.406 231.087 257.666 234.559C257.333 234.981 254.101 239.798 254.546 240.245C254.593 240.292 259.717 236.694 260.331 236.549C263.179 235.875 265.86 238.544 265.877 241.27C265.892 243.88 263.951 246.204 262.147 247.899C260.435 249.508 257.671 251.877 255.11 251.461C253.736 251.237 252.848 250.22 252.523 248.92C252.393 248.402 252.612 246.369 251.975 246.111C251.404 246.924 250.922 247.911 250.015 248.415C249.85 247.093 250.966 245.941 251.604 244.896C252.25 243.837 252.685 242.772 253.067 241.597C253.867 239.134 254.661 236.764 256.102 234.582ZM170.492 248.229C170.193 248.984 169.925 249.754 169.684 250.529C171.265 249.888 171.004 249.84 170.492 248.229ZM151.537 244.531C152.093 243.257 148.754 243.946 148.131 244.356C146.484 245.443 146.972 248.816 147.667 250.286C148.894 248.461 150.66 246.545 151.537 244.531ZM171.365 247.245C170.691 247.467 171.345 249.593 171.103 249.934L171.083 249.956L171.14 249.92C172.517 249.041 171.993 248.645 171.4 247.325L171.365 247.245ZM262.021 238.049C260.172 237.707 258.478 238.812 257.121 239.938C254.929 241.757 252.119 245.179 253.415 248.322C255.601 253.619 264.281 244.147 264.813 241.428C265.15 239.7 263.591 238.338 262.021 238.049ZM243.535 243.338C242.618 242.815 240.429 244.04 240.187 244.951C239.87 246.142 241.272 247.521 241.792 248.447C242.987 248.601 244.752 244.032 243.535 243.338ZM189.799 228.716C190.799 228.812 191.415 229.563 190.634 230.468C190.269 228.182 187.55 231.115 186.936 231.799C189.012 232.028 191.917 232.29 192.507 234.787C192.988 236.821 191.314 238.857 190.049 240.243C188.073 242.411 183.478 246.614 180.321 244.338C177.4 242.233 180.737 237.437 182.046 235.315C183.233 233.39 184.612 231.984 186.404 230.611C187.274 229.944 188.593 228.601 189.799 228.716ZM187.1 232.985C184.404 232.966 182.633 236.49 181.601 238.538C180.434 240.854 179.336 244.082 183.243 243.07C186.26 242.287 188.87 239.903 190.581 237.369C191.482 236.035 192.103 234.888 190.522 233.923C189.72 233.434 188.015 232.991 187.1 232.985ZM229.967 239.512C230.722 237.706 227.994 236.96 226.762 237.04C224.625 237.179 224.091 238.566 223.525 240.398C222.247 244.534 229.109 241.564 229.967 239.512ZM204.393 221.722C207.179 220.246 210.5 221.107 212.904 222.966C216.078 225.422 217.22 228.752 215.192 232.415C213.673 235.158 210.89 237.598 207.706 238.02C204.229 238.481 201.983 235.876 201.759 232.522C201.633 230.638 202.054 228.676 202.823 226.961C203.48 225.493 205.348 224.138 205.675 222.63C203.731 223.016 202.439 224.625 200.943 225.784C199.833 224.34 203.48 222.205 204.393 221.722ZM144.199 221.4C145.704 221.224 145.115 222.268 145.863 223.077C146.432 223.692 147.443 223.872 148.055 224.519C149.774 226.335 148.931 228.634 147.714 230.488C145.975 233.139 139.021 240.728 136.303 235.414C135.374 233.595 135.753 231.292 136.435 229.468C136.708 228.739 139.19 225.541 138.814 224.959C137.962 225.576 136.669 227.387 135.54 227.285C134.146 227.16 137.294 224.556 137.534 224.386C138.595 223.629 139.689 223.206 140.905 222.798C141.915 222.459 143.161 221.522 144.199 221.4ZM209.068 222.744C205.739 222.227 203.405 226.918 202.834 229.618C202.165 232.784 203.393 236.756 207.184 236.611C210.991 236.466 214.609 232.72 215.318 229.069C215.926 225.939 211.686 223.149 209.068 222.744ZM148.043 226.46C147.615 224.049 141.956 223.777 140.626 225.124C138.732 227.044 137.066 229.634 136.746 232.415C136.324 236.098 139.231 235.823 141.613 234.357C143.463 233.217 148.52 229.152 148.043 226.46ZM173.042 211.944C170.769 209.656 167.282 210.263 164.743 211.724C163.54 212.417 162.428 213.332 161.585 214.442C161.161 214.998 160.604 215.749 160.476 216.451C160.281 217.523 160.822 217.487 161.058 218.354C161.182 218.809 160.829 219.133 161.106 219.578C161.291 219.874 161.978 219.862 162.229 220.166C162.751 220.797 163.026 221.731 163.591 222.429C164.155 223.125 164.369 223.868 164.829 224.631C165.118 225.111 166.023 226.786 166.448 227.046C166.934 227.344 166.763 226.681 167.354 226.877C167.591 226.955 167.823 227.323 168.021 227.363C169.08 227.574 169.741 227.528 170.817 227.107C173.144 226.197 175.273 224.879 177.048 223.113C180.039 220.138 182.242 215.559 176.943 213.784C175.008 213.136 172.898 213.093 170.952 213.707C168.582 214.455 166.723 216.829 164.36 217.284C164.402 214.377 170.917 212.279 173.042 211.944ZM284.009 212.461C282.759 212.032 280.782 214.7 279.974 215.446C278.228 217.061 276.193 218.575 275.713 221.042C274.735 226.077 281.946 225.688 283.586 222.285C284.167 221.081 283.844 219.508 283.842 218.227C283.837 216.307 283.95 214.38 284.009 212.461ZM145.299 222.35C145.127 221.601 143.685 222.326 143.85 222.665C144.2 222.842 145.472 223.095 145.299 222.35ZM152.643 137.026C149.863 137.677 147.085 138.323 144.326 139.06C142.066 139.664 139.841 140.755 137.588 141.261C136.864 141.424 135.905 141.14 135.246 141.45C134.285 141.901 133.999 143.01 132.822 143.344C132.168 143.529 131.804 143.465 131.285 143.764C130.597 144.161 129.935 144.938 129.234 145.408C128.265 146.06 127.493 146.092 126.502 146.548C125.785 146.878 125.204 147.765 124.591 148.265C123.652 149.033 122.737 149.525 121.704 150.104C120.832 150.593 120.825 151.193 120.128 151.761C119.772 152.05 119.171 152.104 118.805 152.384C118.377 152.711 118.405 153.085 117.868 153.432C117.218 153.852 116.252 153.701 115.661 154.289C115.307 154.643 115.363 155.086 115.117 155.52C114.994 155.738 114.561 155.786 114.419 156.001C113.781 156.962 114.113 157.478 112.782 156.729C112.948 157.313 112.17 158.901 111.655 159.189C110.98 159.566 110.336 158.804 109.906 159.051C109.377 159.356 109.896 160.468 109.545 160.937C109.239 161.346 108.361 161.129 108.015 161.483C107.467 162.043 107.688 162.578 107.897 163.239C106.431 163.54 107.511 164.069 106.788 165.134C106.234 165.952 105.37 166.503 104.828 167.45C104.216 168.522 103.637 169.292 102.777 170.16C102.487 170.452 102.034 170.696 101.881 171.108C101.598 171.868 102.126 171.97 102.108 172.629C102.073 173.98 101.699 173.637 100.839 174.456C100.156 175.107 100.09 175.923 99.8258 176.772C99.7298 177.081 99.3806 177.216 99.3421 177.633C99.3138 177.94 99.9492 177.893 99.8849 178.302C99.7877 178.918 98.8999 179.444 98.538 179.91C98.0159 180.584 97.2781 181.582 96.9129 182.354C96.507 183.213 96.6139 184.171 96.3768 185.076C96.2838 185.43 95.9265 185.598 95.9346 185.981C95.9401 186.243 96.3535 186.333 96.343 186.605C96.3057 187.571 95.7714 188.422 95.5727 189.362C95.3275 190.522 95.4784 191.485 95.7515 192.599C95.9143 193.263 96.4668 194.488 96.3928 195.112C96.315 195.765 96.1798 195.432 95.9443 195.958C95.8365 196.199 95.7156 196.626 95.5887 196.911C95.141 197.921 94.8738 198.374 96.1147 198.925C95.8238 199.145 94.7174 199.219 95.1863 199.771C95.4247 200.053 96.3844 199.661 96.7002 199.605C96.603 199.919 96.4021 200.143 96.0973 200.276C97.0862 200.955 97.5939 200.851 97.963 202.126C98.2809 203.223 98.3473 204.473 98.3934 205.607C98.434 206.612 98.2835 207.631 98.3604 208.632C98.4492 209.78 98.9519 209.91 99.4723 210.74C100.484 212.356 100.971 214.757 102.856 215.883C103.071 215.564 103.275 215.535 103.468 215.799C103.638 215.919 103.794 216.054 103.936 216.207C104.404 216.501 104.696 217.061 105.145 217.391C106.073 218.071 106.628 217.768 106.387 219.151C108.06 218.419 111.912 223.409 112.782 221.592C113.004 221.13 112.645 220.078 112.583 219.584C112.431 218.361 112.356 217.125 112.289 215.894C112.155 213.421 112.131 210.942 112.076 208.466C111.97 203.605 111.972 198.765 112.225 193.907C112.342 191.673 112.656 189.469 113.034 187.266C113.35 185.429 114.001 183.445 114.128 181.602C113.605 181.974 113.099 182.36 112.451 182.485C112.431 181.555 113.046 181.407 113.562 180.819C114.18 180.115 114.569 179.505 114.901 178.617C115.649 176.612 116.261 174.557 117.024 172.555C118.224 169.404 120.178 166.98 122.198 164.394C122.764 163.669 122.928 163.305 123.648 162.755C124.189 162.342 124.933 161.868 125.535 161.535C126.781 160.848 128.277 160.815 129.63 160.402C131.341 159.879 133.018 159.283 134.799 159.031C136.436 158.801 138.082 158.999 139.727 158.893C143.399 158.658 146.572 159.72 150.104 160.619C148.918 156.718 152.707 154.484 155.221 152.101C157.958 149.508 160.944 147.152 163.337 144.217C159.406 144.007 154.801 146.616 151.264 148.082C149.077 148.99 146.914 149.887 144.826 151.009C143.789 151.566 140.999 153.844 139.715 153.139C136.515 151.381 142.451 147.266 143.534 146.363C146.835 143.613 150.089 140.489 152.643 137.026ZM244.14 137.012C244.638 138.408 246.323 139.073 247.396 140.02C248.985 141.423 250.402 142.954 251.849 144.501C252.78 145.496 259.231 150.366 256.422 152.042C255.13 152.814 252.962 151.203 251.889 150.608C249.979 149.548 247.969 148.705 245.935 147.908C241.489 146.165 236.915 144.617 232.336 143.265C233.904 145.849 237.126 147.636 239.562 149.314C241.856 150.893 244.357 152.212 246.509 153.989C247.772 155.032 251.219 158.137 248.95 159.943C247.464 161.126 244.559 159.152 243.072 158.664C240.086 157.683 237.156 157.105 234.04 156.74C232.829 156.598 232.321 156.183 232.499 157.452C232.601 158.182 233.405 159.062 233.799 159.631C234.921 161.252 235.968 162.998 237.233 164.505C238.223 165.684 240.519 168.315 242.069 168.711C243.671 169.118 246.67 166.853 248.114 166.174C250.236 165.178 252.611 164.719 254.655 163.606C256.708 162.489 259.231 161.756 261.523 161.113C263.984 160.423 266.264 160.722 268.716 161.076C270.43 161.324 271.771 161.203 273.347 162.072C274.371 162.636 275.29 163.399 276.209 164.114C277.981 165.49 279.66 166.961 281.025 168.757C284.383 173.179 286.205 179.258 287.129 184.663C288.167 190.732 288.101 196.87 288.157 203.005C288.213 209.126 287.696 215.483 288.404 221.567C289.465 220.148 290.687 220.939 291.974 220.576C293.137 220.247 294.386 219.359 295.584 218.959C298.241 218.069 301.057 216.248 303.026 214.132C305.107 211.895 306.137 208.788 306.007 205.737C305.947 204.343 305.389 203.061 305.205 201.684C304.962 199.873 305.071 198.033 304.932 196.215C304.639 192.347 302.091 189.188 300.134 186.01C298.215 182.891 296.735 179.464 294.952 176.293C294.134 174.839 292.758 173.669 291.812 172.259C290.505 170.312 289.226 168.315 287.67 166.553C284.918 163.437 281.559 160.643 278.322 158.044C275.51 155.786 272.403 153.914 269.475 151.845C266.379 149.658 262.687 147.79 259.926 145.179C259.546 144.819 259.314 144.339 258.923 143.99C258.662 143.887 258.398 143.796 258.129 143.716C257.888 143.406 257.656 143.09 257.43 142.768C256.989 142.482 256.108 142.456 255.604 142.301C254.896 142.085 254.248 141.659 253.618 141.34C252.808 140.932 252.686 140.768 251.659 140.621C250.695 140.484 249.899 140.225 249.026 139.776C247.359 138.918 245.92 137.656 244.14 137.012ZM105.64 220.134C105.766 220.645 105.866 221.053 105.977 221.501C106.764 220.826 106.764 220.826 105.64 220.134ZM190.254 217.411C191.888 215.771 192.329 215.715 194.22 216.914C192.516 217.214 191.608 220.422 189.978 221.155C189.201 221.505 188.344 221.569 188.135 220.447C187.906 219.218 189.541 218.127 190.254 217.411ZM126.033 212.84C126.299 210.779 124.728 209.233 122.777 210.364C120.04 211.951 118.883 214.098 119.242 217.124C119.401 218.453 119.543 219.785 119.71 221.113C122.272 219.474 125.627 215.981 126.033 212.84ZM191.599 218.118C190.592 218.564 190.024 218.901 189.527 219.919C190.242 219.338 190.928 218.752 191.599 218.118ZM245.271 213.341C242.37 212.838 240.633 215.253 239.12 217.416C239.87 218.018 244.503 214.119 245.271 213.341ZM284.09 208.871C282.167 209.841 279.158 212.41 278.625 214.61C280.539 212.903 283.121 211.268 284.09 208.871ZM122.731 208.698C121.795 208.642 119.633 207.825 118.825 208.466C118.08 209.057 118.786 211.3 118.87 212.071C120.157 210.947 121.444 209.822 122.731 208.698ZM248.73 210.293C247.137 207.839 243.406 210.064 242.276 211.709C243.081 211.852 243.907 211.189 244.752 211.224C245.409 211.251 245.904 211.612 246.508 211.776C247.635 212.08 249.497 211.474 248.73 210.293ZM227.207 195.325C229.095 195.41 228.315 197.244 228.698 198.413C229.246 200.087 230.531 200.861 230.452 202.789C230.401 204.045 229.84 205.219 229.156 206.245C227.805 208.272 225.592 210.28 223.137 210.717C220.465 211.194 218.563 209.424 218.652 206.737C218.671 206.149 220.947 200.28 220.83 200.201C219.876 201.214 219.429 200.892 220.055 199.672C220.731 198.355 221.949 197.42 223.244 196.807C224.178 196.365 226.137 195.277 227.207 195.325ZM142.908 205.434C142.845 206.772 142.611 209.412 144.721 209.055C146.367 208.776 143.353 205.978 142.908 205.434ZM226.282 198.684C224.996 198.042 224.37 198.555 223.448 199.547C221.948 201.158 218.798 205.401 219.777 207.819C220.482 209.561 223.257 208.773 224.517 208.194C226.489 207.287 230.057 204.175 229.212 201.772C228.818 200.652 227.309 199.196 226.282 198.684ZM198.316 199.54C197.505 198.687 197.739 198.749 196.896 199.26C196.594 199.443 196.217 200.009 196.005 200.281C195.37 201.098 194.82 202.001 194.428 202.96C191.844 209.275 199.521 209.585 203.335 206.715C204.484 206.287 199.016 200.276 198.316 199.54ZM97.0228 206.157C96.934 206.327 96.3806 207.127 96.5911 207.333C96.7602 207.498 97.3424 207.437 97.4811 207.245C97.747 206.876 97.2422 206.325 97.0228 206.157ZM95.552 202.807C95.6932 204.118 95.4716 205.613 97.0152 206.124C96.9767 204.658 96.8418 203.656 95.552 202.807ZM156.027 197.481C155.57 195.707 153.428 195.373 151.89 195.618C150.303 195.871 148.309 196.827 147.903 198.54C147.442 200.484 149.142 204.928 151.714 204.494C153.429 204.205 156.431 199.049 156.027 197.481ZM135.216 203.459C135.057 202.506 132.214 202.885 131.589 203.01C132.433 204.718 133.776 204.254 135.216 203.459ZM179.318 192.664C180.613 192.226 180.262 192.607 181.375 193.165C185.735 195.35 179.055 200.925 176.799 201.884C175.125 202.596 173.419 202.366 173.969 200.191C174.116 199.607 176.596 196.058 176.111 195.663C175.828 196.026 174.752 197.915 174.431 196.683C174.255 196.004 175.698 194.671 176.162 194.295C177.011 193.606 178.298 193.008 179.318 192.664ZM95.5211 200.418C95.3723 200.964 95.223 201.511 95.0742 202.057C95.237 202.128 96.5573 202.287 96.5459 201.967C96.5277 201.484 95.7037 200.924 95.5211 200.418ZM205.443 200.04C205.724 200.409 206.858 202.391 207.252 201.598C207.651 200.798 205.966 200.038 205.443 200.04ZM263.648 185.605C265.261 185.353 267.793 185.994 268.358 187.774C266.071 186.9 264.012 185.815 261.839 187.563C260.243 188.847 259.109 190.993 258.608 192.965C260.827 191.248 263.228 189.096 266.203 189.209C271.198 189.398 267.551 195.329 265.699 196.976C264.264 198.25 262.026 199.918 260.064 200.068C257.608 200.255 257.169 198.064 256.772 196.14C255.238 197.768 253.704 199.395 252.171 201.024C251.241 199.704 255.347 196.475 256.01 195.612C257.458 193.727 257.879 191.359 259.109 189.349C260.141 187.664 261.608 185.923 263.648 185.605ZM181.505 195.716C181.587 194.59 180.46 194.258 179.472 194.511C177.327 195.061 175.518 199.011 174.708 200.818C176.623 200.436 178.301 199.316 179.645 197.943C180.175 197.401 181.447 196.53 181.505 195.716ZM138.048 199.098C137.318 198.121 136.137 195.111 134.61 195.92C134.264 196.103 133.276 197.216 132.978 197.533C132.595 197.94 131.704 198.295 132.818 198.633C134.501 199.143 136.319 198.944 138.048 199.098ZM267.272 192.845C269.283 189.769 263.734 191.129 262.544 191.714C261.043 192.45 258.754 193.507 258.082 195.181C257.287 197.162 258.593 198.63 260.573 198.251C263.27 197.734 265.819 195.069 267.272 192.845ZM243.99 193.057C248.465 195.102 241.835 200.043 240.476 197.427C239.44 195.432 241.84 192.075 243.99 193.057ZM227.41 196.577C226.093 196.28 226.316 197.236 227.278 197.611C228.562 198.112 228.436 196.808 227.41 196.577ZM244.496 194.823C244.016 194.842 240.98 196.015 241.426 196.81C242.04 197.901 244.256 195.262 244.496 194.823ZM168.383 185.508C170.395 184.371 171.208 184.644 173.277 185.359C180.94 188.008 169.827 197.595 165.155 196.918C160.896 196.301 162.569 191.369 164.228 189.176C165.336 187.711 166.768 186.421 168.383 185.508ZM204.361 195.249C204.025 194.776 202.553 195.63 202.204 195.743C201.814 197.381 204.7 195.727 204.361 195.249ZM174.272 187.248C173.344 186.341 171.791 186.317 170.593 186.368C167.818 186.489 165.897 188.556 164.463 190.758C163.509 192.222 162.456 195.25 165.153 195.565C168.11 195.911 171.698 192.974 173.465 190.959C174.398 189.894 175.54 188.487 174.272 187.248ZM213.739 187.466C210.561 188.157 207.555 189.52 204.331 189.989C201.511 190.399 199.315 189.875 196.752 188.828C193.941 187.679 196.147 189.675 197.041 190.502C197.917 191.313 198.68 192.25 199.456 193.152C200.605 194.487 201.197 194.817 202.937 194.451C205.281 193.957 206.676 193.659 208.521 192.052C210.267 190.531 211.997 188.991 213.739 187.466ZM95.6928 192.066C95.6816 191.519 97.5863 190.285 97.7063 191.135C97.9563 192.906 96.0077 191.436 95.6928 192.066ZM281.502 183.068C280.792 183.74 275.767 187.834 278.403 188.774C279.224 189.067 281.039 187.747 281.596 187.144C282.83 185.807 282.167 184.562 281.502 183.068ZM247.45 176.192C244.277 177.476 240.767 178.99 237.812 180.714C236.799 181.305 235.857 181.537 235.358 182.656C234.972 183.524 234.756 185.051 234.72 186C234.624 188.598 236.796 189.005 238.783 188.079C240.62 187.223 242.255 185.68 243.61 184.192C245.287 182.352 248.008 178.881 247.45 176.192ZM120.296 186.478C122.183 185.383 129.678 178.395 123.167 179.242C121.357 179.478 120.603 184.991 120.296 186.478ZM251.955 122.583C244.161 125.627 235.69 127.188 227.547 129.014C220.491 130.596 213.446 132.265 206.399 133.895C203.252 134.623 199.946 136.06 196.723 135.404C193.416 134.731 190.217 133.854 186.877 133.328C183.217 132.75 179.628 131.823 175.974 131.217C172.352 130.617 168.989 129.282 165.416 128.507C158.357 126.975 151.221 125.993 144.207 124.199C144.483 125.038 144.297 125.927 144.574 126.766C144.711 126.412 144.875 126.071 145.067 125.744C145.907 127.185 144.878 129.174 144.864 130.724C144.857 131.492 144.919 131.754 144.718 132.506C144.604 132.931 144.067 133.537 144.399 134.014C145.305 135.317 150.129 133.398 151.209 133.175C154.018 132.594 157.268 131.637 157.407 135.595C157.521 138.847 154.036 141.288 152.019 143.435C154.842 142.544 157.514 141.265 160.387 140.525C162.007 140.109 164.301 139.332 165.915 140.127C171.53 142.893 162.037 150.68 160.148 152.537C163.72 152.27 170.827 149.076 170.739 155.479C170.679 159.83 166.605 163.191 164.082 166.305C171.557 171.454 179.418 175.93 186.661 181.385C188.344 182.653 189.541 182.759 191.588 182.647C193.537 182.541 195.033 183.045 196.871 183.612C200.901 184.855 204.12 183.931 208.062 182.968C212.017 182.003 215.876 181.281 219.884 180.589C223.777 179.917 226.656 177.963 229.951 175.86C231.389 174.941 232.74 173.789 234.313 173.102C235.573 172.553 237.193 172.46 236.39 170.938C235.991 170.184 234.918 169.45 234.349 168.749C233.782 168.05 233.254 167.319 232.715 166.599C231.694 165.238 230.613 163.915 229.653 162.51C227.881 159.916 226.15 156.495 227.587 153.35C229.249 149.713 233.04 151.976 235.871 152.53C233.02 149.854 227.19 146.782 228.385 142.027C230.078 135.294 239.585 141.955 243.27 142.899C242.059 141.498 240.224 140.633 239.625 138.771C239.074 137.06 239.503 135.049 240.896 133.884C244.376 130.972 249.484 133.094 252.926 134.721C252.431 130.691 252.106 126.641 251.955 122.583ZM157.39 169.785C156.121 169.279 153.123 167.334 151.729 167.914C150.517 168.417 150.032 170.4 149.396 171.418C149.33 170.98 149.263 170.542 149.197 170.103C147.204 172.665 143.82 178.757 146.635 181.747C148.876 184.126 152.88 182.623 155.255 181.313C158.866 179.321 161.904 176.486 164.587 173.386C162.39 171.817 159.883 170.779 157.39 169.785ZM268.708 169.722C268.128 169.643 268.062 169.754 267.438 169.792C266.81 169.831 266.194 169.737 265.559 169.771C262.302 169.951 261.251 175.163 265.054 174.412C267.461 173.937 269.85 172.291 271.812 170.876C271.085 170.465 270.591 170.352 269.83 170.183C269.283 170.649 268.97 170.585 268.891 169.988C268.83 169.899 268.769 169.811 268.708 169.722ZM140.501 167.009C141 164.961 136.774 166.293 135.752 166.412C133.96 166.622 132.732 166.445 132.758 168.631C132.829 174.497 139.626 170.59 140.501 167.009ZM192.139 136.696C194.626 136.617 194.085 152.692 194.093 154.609C194.108 158.329 194.163 162.054 194.12 165.773C194.107 166.876 194.745 171.354 192.959 170.857C192.448 170.715 191.01 168.519 190.851 168.012C190.49 166.862 190.777 165.151 190.75 163.95C190.675 160.534 190.595 157.118 190.504 153.701C190.41 150.143 190.225 146.58 190.192 143.022C190.18 141.788 189.996 140.073 190.496 138.916C190.655 138.547 191.71 136.709 192.139 136.696ZM300.418 168.593C299.176 167.224 299.175 167.224 298.233 167.803C299.031 167.858 299.308 169.123 300.418 168.593ZM206.442 139.55C207.83 139.41 207.919 142.423 208.009 143.172C208.213 144.878 207.948 146.516 208.075 148.147C208.366 151.864 208.786 155.579 208.815 159.31C208.83 161.193 209.117 163.976 208.321 165.797C207.975 166.588 207.621 167.095 206.696 166.669C205.632 166.18 205.706 164.604 205.566 163.66C204.564 156.9 204.662 150.42 205.232 143.648C205.3 142.834 205.187 139.677 206.442 139.55ZM227.591 103.934C228.98 106.936 230.316 110.033 228.989 113.32C228.478 114.584 227.667 115.723 226.473 116.414C225.499 116.977 224.079 117.118 223.488 118.207C229.078 116.262 234.491 115.591 240.393 115.819C242.596 115.904 247.566 115.183 249.195 117.076C250.372 118.443 249.25 119.632 247.776 119.618C245.216 119.595 242.71 119.514 240.121 119.642C234.273 119.929 229.014 120.993 223.395 122.571C218.776 123.867 214.237 125.497 209.718 127.096C208.895 127.387 206.436 127.732 206.071 128.659C205.277 130.668 209.162 129.779 209.858 129.58C219.001 126.978 228.188 124.048 237.536 122.252C242.227 121.351 246.84 120.375 251.51 119.348C253.867 118.831 254.646 119.979 255.236 122.177C255.734 124.036 255.93 125.995 256.095 127.907C256.25 129.709 255.743 132.844 256.546 134.451C257.004 135.369 257.491 135.24 258.357 135.49C259.266 135.753 259.099 135.895 259.665 136.317C260.704 137.093 261.502 136.896 262.771 137.283C264.223 137.726 265.744 139.245 267.001 140.086C268.468 141.068 269.811 142.072 271.332 142.887C271.957 143.223 272.66 143.636 273.249 144.03C273.462 144.172 273.464 144.604 273.705 144.726C273.824 144.786 274.408 144.645 274.407 144.644C274.788 144.969 274.815 145.491 275.193 145.762C275.541 146.012 275.946 145.861 276.294 146.027C277.099 146.413 278.692 147.413 278.625 148.476C280.316 146.851 282.487 151.071 283.829 151.51C285.091 151.922 285.01 151.301 286.015 152.439C287.018 153.576 288.339 154.401 289.295 155.576C290.159 156.638 290.391 157.058 291.437 157.946C292.363 158.733 292.703 159.993 293.489 160.801C293.898 161.222 294.445 161.251 294.843 161.628C295.218 161.982 295.291 162.727 295.502 163.18C296.008 164.263 296.634 165.381 298.002 165.273C297.826 164.435 297.645 163.945 297.316 163.189C296.895 162.225 296.769 163.079 296.72 161.975C296.679 161.064 297.361 161.291 296.584 160.391C296.116 159.851 295.578 159.455 295.443 160.483C294.854 159.582 294.93 158.624 294.816 157.628C294.793 157.426 294.595 156.33 294.737 156.183C292.315 156.09 291.873 152.553 290.574 150.946C289.759 149.937 288.824 149.053 288.12 147.95C287.38 146.792 286.901 145.564 286.016 144.497C285.218 143.535 284.814 142.496 283.982 141.673C283.212 140.911 282.67 140.106 281.939 139.169C281.669 138.823 281.398 138.25 281.067 137.998C280.776 137.777 280.549 138.103 280.374 137.966C280.135 137.78 278.719 136.759 279.632 136.629C279.598 136.57 279.12 136.273 279.127 136.303C278.807 134.962 278.653 135.02 277.716 134.222C276.711 133.366 275.831 132.977 275.644 131.775C274.761 132.898 273.064 129.593 275.643 131.769C275.512 131.021 274.139 131.007 273.808 130.69C273.369 130.271 273.316 129.563 273.152 129.016C272.268 129.756 272.262 129.318 271.65 128.608C271.025 127.884 270.669 127.931 269.988 127.513C269.294 127.089 269.584 127.325 269.365 126.319C269.212 125.613 269.158 125.238 268.533 124.755C268.462 125.325 268.39 125.895 268.318 126.465C268.003 125.887 267.337 125.792 266.952 125.31C266.747 125.053 266.656 124.344 266.471 124.195C266.261 124.026 265.823 123.903 265.582 123.734C265.459 123.648 265.076 123.126 264.917 122.994C264.733 122.844 264.354 123.138 264.12 122.879C263.784 122.51 263.963 121.992 263.963 121.558C261.979 122.014 260.171 119.496 259.333 117.909C259.211 118.369 259.09 118.83 258.968 119.291C258.685 118.972 258.434 118.309 258.058 118.093C257.511 117.778 257.581 118.036 256.979 117.895C255.815 117.623 255.455 115.153 254.517 116.628C254.036 115.06 254.076 115.609 252.756 115.15C251.993 114.884 251.147 114.25 250.603 113.648C250.307 113.321 249.997 112.421 249.412 112.288C249.421 112.29 248.814 112.143 248.907 112.181C249.045 112.238 248.467 112.479 248.567 112.58C247.552 112.092 246.519 111.264 245.764 110.514C245.53 110.281 244.98 109.899 244.715 109.876C244.278 109.837 244.149 110.379 243.635 110.203C242.948 109.968 243.27 109.396 243.043 108.966C242.831 108.563 242.887 107.742 242.251 107.594C241.901 107.513 241.953 107.791 241.725 107.81C241.545 107.824 241.176 108.352 240.835 108.408C240.066 108.536 240.1 108.187 239.681 107.916C239.153 107.574 239.813 107.511 238.978 107.275C238.767 107.216 238.318 107.638 238.131 107.591C237.744 107.494 237.646 107.05 237.334 106.922C236.825 106.712 236.457 106.767 235.882 106.682C233.14 106.274 230.319 104.668 227.591 103.934ZM168.181 155.081C165.561 154.643 161.927 155.807 159.533 156.806C156.642 158.013 153.824 159.424 151.025 160.829C152.184 162.081 154.279 162.347 155.802 162.917C157.187 163.437 158.821 164.677 160.226 163.894C161.773 163.032 163.37 161.167 164.649 159.932C166.094 158.534 167.442 156.978 168.181 155.081ZM117.983 144.969C117.714 145.07 116.766 145.405 116.896 145.651C117.301 146.419 117.853 145.321 117.983 144.969ZM142.572 121.447C141.836 121.362 141.672 122.133 141.1 122.397C140.648 122.606 139.959 122.214 139.604 122.698C139.291 123.125 139.663 123.572 139.233 124.075C138.979 124.372 138.301 124.457 137.969 124.659C136.489 125.555 135.254 127.021 133.822 128.023C132.459 128.977 131.864 130.161 131.049 131.595C130.843 131.316 130.636 131.036 130.429 130.757C130.321 130.882 130.231 131.563 130.115 131.733C130.025 131.867 129.544 131.867 129.395 132.024C129.049 132.387 128.858 132.89 128.484 133.25C128.171 133.55 127.785 133.596 127.517 133.969C126.974 134.724 127.023 135.219 126.362 135.91C125.788 136.51 125.241 136.942 124.536 137.295C123.514 137.807 123.312 137.936 122.677 139.054C122.146 139.991 121.669 140.911 120.824 141.612C120.522 141.862 119.98 142.035 119.731 142.313C119.59 142.47 119.247 143.166 119.223 143.185C119.104 143.282 119.188 143.447 118.935 143.61C118.574 143.842 117.932 143.485 117.613 143.772C117.076 144.257 117.588 144.67 118 144.922C118.658 145.323 119.512 144.836 120.063 144.5C121.546 143.596 122.653 142.555 124.275 141.823C126.113 140.993 127.65 139.737 129.56 139.02C131.407 138.327 133.343 137.904 135.154 137.108C136.595 136.475 138.315 136.761 139.534 135.798C140.968 134.667 139.997 133.889 140.052 132.348C140.181 128.769 140.151 124.312 142.572 121.447ZM203.059 131.756C203.085 131.161 198.307 131.779 197.867 131.805C198.347 132.139 202.984 133.542 203.059 131.756ZM166.699 122.205C161.89 122.14 156.961 121.528 152.173 122.149C152.115 122.944 159.717 123.641 160.678 123.83C163.971 124.474 167.091 125.399 170.292 126.376C173.412 127.328 176.646 127.826 179.813 128.585C183.054 129.363 186.267 130.189 189.549 130.786C191.645 131.166 194.038 131.596 195.048 129.107C195.409 128.219 195.257 128.266 194.243 127.812C193.178 127.335 191.988 127.185 190.902 126.763C187.91 125.599 184.82 124.707 181.708 123.863C176.86 122.549 171.697 122.272 166.699 122.205ZM209.731 107.076C207.927 105.598 207.984 104.359 206.038 106.492C204.696 107.962 203.422 109.337 201.285 108.869C200.379 108.671 199.185 108.316 198.408 107.804C197.789 107.396 197.34 106.286 196.727 106.011C195.441 105.433 193.474 108.239 192.25 108.926C190.243 110.052 188.456 110.111 186.567 108.825C184.387 107.342 184.004 108.164 182.285 109.741C180.489 111.389 179.204 110.863 177.779 109.105C177.567 110.806 177.543 112.523 177.483 114.235C177.41 116.322 178.376 118.625 180.416 119.322C183.056 120.224 186.087 120.934 188.824 121.42C187.486 120.158 186.07 116.116 188.503 115.081C190.139 114.385 190.822 116.861 191.066 118.048C191.388 119.612 189.865 121.941 191.159 122.829C191.855 123.307 193.129 123.213 193.924 123.473C195.282 123.918 196.458 124.824 197.619 125.622C198.69 126.358 199.984 127.473 201.315 127.647C202.712 127.83 203.603 126.847 204.626 126.044C207.249 123.984 210.264 122.375 213.401 121.241C214.279 120.923 215.826 120.901 216.555 120.327C217.589 119.513 217.193 117.878 217.088 116.727C216.774 113.317 216.359 109.765 215.249 106.512C213.426 107.92 211.744 108.726 209.731 107.076ZM199.445 115.592C201.212 114.51 204.302 126.744 201.877 126.922C199.652 127.086 197.529 116.765 199.445 115.592ZM163.32 107.195C163.08 107.444 162.549 107.151 162.31 107.413C162.116 107.626 162.732 107.907 162.637 108.015C162.218 108.49 161.619 108.787 160.947 109.16C160.911 109 160.87 108.842 160.824 108.685C160.789 108.671 159.904 110.133 159.806 110.217C159.166 110.767 158.506 110.547 157.841 110.95C157.46 111.181 157.353 111.542 157.028 111.789C155.918 112.634 153.981 113.602 152.852 113.88C151.835 114.131 150.683 115.446 150.388 116.628C149.536 116.119 148.406 117.401 147.643 117.925C147.135 118.274 145.068 119.344 144.962 119.751C144.391 120.292 143.662 120.688 143.183 121.325C144.388 122.39 145.936 120.197 147.147 119.585C149.122 118.586 151.33 117.936 153.502 117.539C158.039 116.712 162.416 118.059 166.898 117.575C163.129 115.692 162.572 110.91 163.32 107.195ZM206.406 121.21C203.648 120.815 204.839 113.661 207.094 115.385C208.316 116.318 208.678 121.535 206.406 121.21ZM219.777 117.365V119.263L221.824 118.482C221.142 118.109 220.459 117.737 219.777 117.365ZM173.487 106.937C170.927 106.203 168.385 107.014 166.709 109.064C164.802 111.397 166.743 113.076 169.071 113.926C171.375 114.769 173.845 114.914 173.284 117.902C173.953 118.001 174.622 118.1 175.291 118.2C175.152 116.919 175.482 115.144 174.622 114.058C173.738 112.943 171.62 112.772 170.385 112.158C169.027 111.483 168.172 109.598 170.434 109.652C172.029 109.69 173.903 110.948 174.768 112.216C175.221 109.891 176.485 107.796 173.487 106.937ZM224.212 106.858C223.25 106.775 222.152 107.122 221.291 107.525C220.787 107.762 219.58 108.929 218.987 108.444C218.537 108.077 218.918 107.246 218.052 107.389C218.411 108.473 218.769 109.557 219.128 110.641C220.038 108.945 224.109 109.139 222.607 111.272C222.01 112.121 220.756 112.063 220.109 112.861C219.364 113.78 219.708 115.057 219.783 116.119C222.139 114.947 226.41 113.53 226.961 110.531C227.286 108.759 225.987 107.012 224.212 106.858ZM174.216 101.706L171.42 102.885C172.352 103.416 173.284 103.947 174.216 104.479V101.706ZM223.189 102.575C221.658 102.073 220.226 102.322 220.646 104.219C221.493 103.671 222.341 103.123 223.189 102.575Z" fill="black"/>
</svg>
