<svg width="400" height="400" viewBox="0 0 400 400" fill="none" xmlns="http://www.w3.org/2000/svg">
<path fill-rule="evenodd" clip-rule="evenodd" d="M125.491 226.083C127.016 224.907 130.133 220.698 131.767 219.725C135.398 217.563 151.578 213.311 152.104 213.06C152.905 212.677 158.11 211.341 161.143 210.496C168.264 208.513 193.783 195.703 200.509 192.418C201.368 194.975 208.456 206.263 207.24 207.42C203.236 211.228 196.06 215.971 191.422 218.7C187.671 220.907 183.698 222.734 179.687 224.226C175.134 225.919 172.008 227.735 167.47 229.468C163.005 231.172 168.341 236.503 170.634 237.604C173.206 238.84 177.19 239.467 179.818 240.538C175.191 248.676 171.305 258.554 170.527 268.302C170.34 270.649 168.76 272.8 166.189 272.097C164.863 271.735 152.624 269.89 150.628 269.375C137.306 265.937 113.389 247.931 119.548 229.468C120.959 230.205 124.18 227.094 125.491 226.083Z" fill="#FF5678"/>
<path fill-rule="evenodd" clip-rule="evenodd" d="M178.193 71.4832L179.69 71.9456C185.735 73.8252 192.386 76.1104 197.365 80.4367C199.65 82.4217 201.82 84.6786 203.847 86.9946C206.838 90.4116 208.494 94.8865 210.076 99.3034C214.088 97.0788 217.925 94.6546 222.316 93.5515C226.493 92.5023 230.773 91.0801 234.975 90.2874L235.257 90.2355C238.438 89.6633 242.886 89.3497 245.497 91.8286C248.417 94.6017 249.938 98.9171 251.682 102.613C260.054 93.6228 269.392 87.0644 281.328 87.5005C293.008 87.9273 300.689 99.3419 302.105 111.711C303.664 125.341 298.3 139.583 291.027 150.137L290.592 150.768C287.465 155.275 284.197 159.599 280.003 162.974L278.747 163.987C276.949 165.435 275.076 166.902 273.144 168.009C271.954 168.69 270.653 169.306 269.403 169.83C268.84 170.067 268.259 170.304 267.673 170.465L267.504 170.509C266.02 170.884 266.302 170.369 265.701 171.97C265.196 173.316 265.258 175.633 265.042 177.112C264.794 178.801 264.647 180.514 264.286 182.18C263.661 185.069 263.01 187.886 262.226 190.707C260.743 196.046 258.748 201.426 256.303 206.295C258.203 207.229 260.799 207.393 262.925 207.652C262.803 207.587 262.682 207.492 262.561 207.366L264.194 207.391C263.989 207.568 263.785 207.687 263.582 207.739L263.495 207.726C265.76 208.041 268.027 208.685 270.37 209.419L273.088 210.277C277.176 211.571 280.976 212.831 284.98 214.826C289.748 217.201 294.014 220.71 298.584 223.578L299.042 223.862C303.404 226.544 307.814 229.904 311.865 233.124C312.775 233.847 313.358 234.481 314.066 235.367L314.193 235.526C314.978 236.517 315.228 236.711 316.166 237.57C316.589 237.957 317.819 239.91 318.302 239.981C319.167 240.111 319.034 239.381 319.713 238.361C321.13 236.231 323.108 234.582 324.516 232.399C325.69 230.579 326.914 228.735 328.169 227.17C331.108 223.504 333.56 219.453 335.672 215.079L335.882 214.641C336.894 212.513 337.953 210.478 339.045 208.465L339.41 207.795C340.43 205.929 342.117 203.562 344.065 202.93C344.002 202.893 343.935 202.85 343.863 202.802L344.779 202.394C344.818 202.544 344.839 202.672 344.842 202.776C344.962 202.767 345.083 202.766 345.204 202.773C345.01 201.641 344.392 201.453 345.458 200.762C345.491 200.74 345.526 200.721 345.562 200.705L345.169 200.708C345.712 200.249 346.257 200.307 346.802 200.698L346.523 200.7C347.101 200.857 347.699 201.218 348.012 201.487C349.414 202.685 349.476 205.01 349.388 206.757C349.16 211.258 348.328 215.701 347.168 219.957C345.885 224.664 344.303 228.861 342.574 233.304L341.671 235.619C340.222 239.315 338.353 243.674 334.937 245.279C337.417 249.285 336.309 252.567 334.675 256.777L334.56 257.072C333.321 260.254 331.683 263.543 329.19 265.648C326.413 267.994 323.404 266.056 320.497 264.496L320.28 264.381C318.401 263.402 313.208 261.197 314.29 258.338C312.933 258.133 312.08 257.019 310.846 256.675C309.539 256.312 309.763 256.913 308.381 257.138C307.32 257.311 305.734 256.236 304.736 255.851C303.068 255.21 301.406 254.551 299.74 253.902L297.265 252.939C293.423 251.451 289.61 250.018 285.712 248.813C276.905 246.089 267.989 244.545 259.213 242.113C257.454 241.625 255.704 241.155 253.873 240.764L253.79 240.75C253.269 240.668 251.518 240.533 251.293 240.102C250.876 239.299 252.16 234.806 252.27 233.89C252.993 227.879 252.757 221.298 251.738 215.356C251.315 212.885 249.424 209.686 249.441 207.275C249.452 205.657 250.719 203.891 251.463 202.425L251.924 201.514C253.619 198.151 255.343 194.573 256.592 191.117C258.622 185.505 259.887 179.19 260.803 173.162L261.171 170.7C261.564 168.053 261.943 165.297 262.047 162.691C262.147 160.208 261.967 157.603 262.285 155.06C261.071 155.19 259.353 155.902 258.259 155.14C256.877 154.178 256.506 151.431 256.683 149.791C251.953 150.725 252.11 145.649 252.403 141.68C243.94 141.68 254.585 127.59 256.126 124.313L256.17 124.217C256.798 122.798 256.78 124.392 256.502 122.197C256.38 121.232 255.797 120.163 255.468 119.276C254.749 117.339 253.972 115.432 253.143 113.553C251.39 109.585 249.405 105.75 247.238 102.053C245.287 103.591 243.529 105.412 241.9 107.366C242.945 104.273 246.137 100.441 244.772 96.9295C243.506 93.6741 239.279 93.8999 236.782 94.495C229.998 96.1137 223.492 98.4712 217.029 101.201C218.996 102.477 221.989 101.531 223.98 100.555L224.68 100.207C226.972 99.0702 229.409 97.9296 231.851 97.3302L231.995 97.296C234.29 96.7711 237.193 97.0284 236.538 100.484C236.018 103.225 233.727 105.868 232.102 107.965L231.894 108.235C228.301 112.946 223.796 116.592 219.371 120.235C214.615 124.152 210.032 128.407 205.215 132.21C196.508 139.085 187.145 145.06 178.149 151.478C173.625 154.704 168.518 157.321 163.599 159.727L163.108 159.967C157.531 162.685 152.184 165.596 146.398 167.743C143.399 168.856 140.425 169.786 137.474 171.008L136.843 171.274C134.863 172.125 131.417 173.828 130.11 171.304C127.454 166.176 137.064 159.431 139.698 156.296C141.515 158.293 132.555 165.734 133.257 168.641C133.808 170.926 135.939 167.976 136.968 167.353C138.631 166.347 140.6 165.841 142.272 164.692L143.29 163.991C146.462 161.786 149.841 159.146 150.547 154.752C150.002 154.101 150.009 153.501 150.568 152.951C150.816 152.616 151.013 152.249 151.158 151.848C151.402 151.083 151.5 150.125 151.631 149.313C152.017 146.915 151.048 144.67 151.953 142.324C147.13 146.46 142.477 151.086 137.887 155.592L136.577 156.875C132.138 161.217 127.508 166.883 125.798 173.34L125.731 173.599C125.519 174.44 125.168 175.394 125.206 176.281L125.22 176.557C125.302 177.984 125.505 177.68 126.676 178.208C127.867 178.746 129.579 178.723 130.895 178.773L131.057 178.78C131.818 178.813 135.214 177.902 134.539 179.791C134.15 180.879 131.795 180.838 130.952 180.939L130.638 180.974C128.725 181.173 127.739 181.064 128.691 183.528C129.14 184.691 130.051 185.479 130.765 186.379C132.752 188.884 133.832 192.726 135.395 195.669C137.065 198.812 138.89 201.81 140.826 204.746L141.215 205.332C142.073 206.62 143.22 209.041 144.41 209.961C145.522 210.819 144.214 210.748 146.06 210.399C146.864 210.248 147.594 209.655 148.363 209.444C152.658 208.259 157.065 206.935 161.502 205.49L162.453 205.179C168.54 203.176 174.928 201.468 180.735 198.584C185.938 195.999 191.102 192.922 196.358 190.304C197.893 189.54 199.427 189.034 200.62 187.628C202.06 185.931 203.253 183.709 204.581 181.886C206.84 178.783 208.922 175.627 211.354 172.687L212.273 171.573C214.127 169.333 216.761 166.299 218.926 165.559C223.778 163.9 221.18 172.264 220.553 174.378C221.694 174.671 222.293 173.015 223.632 173.491C225.235 174.062 225.401 176.474 225.601 177.986C225.654 178.389 225.173 179.141 225.319 179.5C225.369 179.623 226.415 180.323 226.617 180.647C227.349 181.826 227.205 183.259 226.927 184.529C225.492 191.112 220.388 195.919 216.634 200.774C218.313 200.415 219.558 199.332 221.143 198.795C222.631 198.291 224.127 198.317 225.627 198.173C227.197 198.022 228.705 197.357 230.312 197.323C231.997 197.288 233.612 197.831 235.283 198.046C239.469 199.705 243.306 201.921 246.387 205.681C249.05 208.933 250.302 214.663 250.951 218.925C252.56 229.473 249.456 239.25 247.409 249.341C246.371 254.46 244.821 259.386 243.37 264.372C242.103 268.727 241.016 273.287 239.267 277.427C237.784 280.938 235.889 284.399 234.584 288.041L234.542 288.165C233.836 290.267 232.691 296.685 230.079 294.615L229.998 294.853C229.34 296.755 229.205 296.641 229.953 298.078C230.499 299.127 232.31 300.571 233.24 301.461L233.325 301.543C235.725 303.892 238.765 305.827 241.58 307.471C246.737 310.484 252.265 312.737 257.576 315.483L258.021 315.715C260.233 316.887 262.437 318.352 261.943 321.609C261.502 324.522 260.012 326.732 257.688 328.029C255.507 329.246 252.386 330.186 249.986 330.568C248.562 330.795 248.235 330.124 247.074 329.892C245.782 329.635 244.274 330.133 242.941 330.12C236.958 330.061 231.719 328.357 226.883 324.43C225.155 323.027 222.611 319.22 220.35 319.22C219.194 319.22 219.438 320.015 218.421 320.482C217.595 320.86 216.377 320.519 215.289 320.169L214.592 319.944C214.291 319.848 214.013 319.766 213.771 319.716L213.197 319.597C210.759 319.082 208.343 318.435 206.72 316.06C204.828 313.292 205.5 309.862 206.314 306.788C207.23 303.322 208.772 299.806 209.427 296.288C209.587 295.432 209.734 293.837 209.572 292.967C209.32 291.616 208.115 290.81 208.079 289.347C208.067 288.902 208.63 288.315 208.729 287.856C208.946 286.847 208.912 285.801 209.002 284.774C209.147 283.109 209.465 281.508 209.713 279.871L209.785 279.379C210.341 275.419 211.418 271.87 212.482 268.076L212.609 267.619C213.654 263.864 214.65 261.046 216.62 257.817L216.962 257.259C218.209 255.205 221.342 249.595 219.682 247.917C217.337 253.13 214.603 257.221 211.052 261.368L210.808 261.651C208.001 264.897 205.256 269.261 201.743 271.573C197.88 274.115 193.159 275.611 188.893 276.955C186.864 277.594 185.181 279.011 182.993 279.274C180.623 279.557 178.21 279.223 175.889 278.625C175.235 278.456 173.35 277.32 172.759 277.392C171.888 277.499 170.635 279.257 169.678 279.579C167.393 280.351 165.819 278.917 164.092 277.552L163.631 277.191C161.997 275.923 161.355 275.586 159.291 275.417C156.692 275.204 154.162 274.2 151.607 273.535L151.288 273.454C146.606 272.291 142.626 269.935 138.37 267.469C133.491 264.643 129.319 260.744 125.641 256.14C120.236 249.37 112.708 230.611 121.538 224.043C116.34 223.244 111.579 220.675 110.945 214.016C110.614 210.532 111.237 206.673 112.011 203.315C112.365 201.781 112.786 200.257 113.19 198.74C113.493 198.227 113.654 197.666 113.671 197.057C113.858 196.267 113.589 195.874 112.864 195.877L112.656 195.6C111.392 193.899 110.452 192.334 110.189 189.894L110.171 189.713C110.094 188.903 110.061 187.779 110.536 187.136C110.774 186.857 111.06 186.671 111.394 186.577C112.196 186.629 112.423 186.182 112.074 185.236C112.464 183.895 111.886 182.851 113.354 182.291C113.825 182.404 114.293 182.528 114.76 182.662C115.356 182.97 115.743 182.747 115.923 181.996C117.306 181.384 116.668 180.478 118.547 181.266C119.685 181.743 120.767 182.565 121.595 183.565C122.634 182.811 120.271 178.145 120.192 176.657C120.006 173.149 121.287 170.248 122.955 167.366C126.196 161.766 130.72 156.95 135.182 152.618C143.727 144.32 152.705 136.42 162.354 129.809C158.374 126.681 153.723 125.833 148.987 127.287C144.62 128.627 141.081 131.062 137.061 133.192L136.838 133.308C133.181 135.194 129.362 135.866 128.198 130.592C126.868 124.563 131.112 122.325 134.919 119.622C134.009 118.854 131.101 119.347 129.817 119.474L129.655 119.488C127.019 119.699 124.498 120.373 121.936 120.968C120.707 121.254 119.578 121.19 118.361 121.469C116.552 121.885 114.662 122.351 112.831 122.943C108.476 124.353 104.152 126.492 100.388 129.375C97.1353 131.865 94.8786 135.382 92.2577 138.621L91.5475 139.498C88.8041 142.876 86.0529 146.055 81.9732 147.299L81.6696 147.39C79.665 147.982 77.3931 148.405 75.993 146.41C74.6243 144.459 74.5481 142.109 74.593 139.724C74.6919 134.457 76.9404 128.765 79.5559 124.461C82.395 119.789 86.1973 117.114 89.7901 113.353C84.5973 113.773 79.5786 116.871 74.803 119.012C73.798 119.463 72.7835 119.969 71.773 120.387C70.6954 120.831 69.9816 120.559 68.9494 120.763C66.5933 121.228 64.5697 122.352 62.2781 120.56C57.9424 117.171 62.2862 110.277 65.2713 108.162C69.4292 105.216 73.6592 102.735 78.2398 100.634C75.7599 97.5898 77.8779 93.2457 80.1636 91.0862C82.918 88.4838 86.3894 86.9396 89.7241 85.5349L90.2232 85.3251C92.9793 84.1681 95.6859 83.0574 98.549 82.3611C101.467 81.6517 104.865 80.579 107.853 80.6124L108.132 80.6188C110.996 80.7193 113.536 80.1483 116.436 80.057C118.85 79.9811 121.269 80.0467 123.682 79.9759C129.091 79.8178 134.517 80.1353 139.846 80.5512L141.098 80.549C141.025 80.5797 140.952 80.6083 140.879 80.6333C141.601 80.6911 142.321 80.7504 143.038 80.8102C138.01 64.1716 171.128 69.3099 178.193 71.4832ZM211.463 299.575C211.265 300.775 211.205 301.77 211.254 302.99C211.123 304.827 210.793 306.636 210.425 308.429C210.293 309.072 209.551 311.104 209.681 311.828L209.735 312.152C209.848 312.873 209.71 312.323 210.536 312.879C211.502 313.53 212.626 313.491 213.684 313.689C214.336 313.811 216.728 315.085 217.13 314.884C217.833 314.532 217.811 313.292 218.583 312.8C219.634 312.13 221.183 312.704 222.175 313.228C224.827 314.628 226.648 317.525 229.214 319.111C233.677 321.87 238.956 323.422 243.948 324.089L244.26 324.129C246.937 324.468 249.675 325.056 252.324 324.417L252.763 324.305C254.874 323.784 257.516 323.751 258.643 321.235L257.376 320.844C247.047 317.683 232.329 313.534 228.401 300.629C226.209 302.877 222.568 301.718 219.89 301.382L219.769 301.367C216.811 301.02 214.168 301.101 211.463 299.575ZM212.279 293.293L212.278 294.102C212.283 295.632 212.427 295.7 214.309 296.132C215.822 296.479 217.358 296.675 218.887 296.917C221.581 297.343 224.571 298.54 227.297 297.925L227.286 297.842C227.209 297.241 227.007 294.781 226.74 294.525C226.581 294.374 225.11 294.577 224.879 294.574C222.588 294.891 220.388 294.772 218.095 294.455C216.165 294.188 214.2 293.293 212.279 293.293ZM113.47 283.44L114.333 283.765C114.787 283.935 115.185 284.073 115.453 284.107L115.814 284.294C116.848 284.846 118.462 285.865 117.731 287.354C116.897 289.055 114.549 287.505 113.564 286.71L113.388 286.564C112.813 286.078 110.638 284.173 110.735 283.509C110.868 282.587 112.204 282.974 113.47 283.44ZM85.3391 280.323C85.8304 280.741 87.5173 281.109 87.178 281.996C86.2865 284.327 81.9126 279.003 81.9997 277.436C83.7783 277.113 84.1932 279.349 85.3391 280.323ZM200.586 193.525C193.819 196.81 187.381 201.281 180.713 204.792C174.001 208.325 166.431 210.818 159.252 212.806C156.196 213.652 152.683 213.92 149.88 215.592C148.689 216.302 147.512 217.124 146.237 217.535C145.86 218.352 145.49 218.513 145.124 218.015C144.895 217.725 144.599 217.602 144.236 217.647C143.516 217.785 142.783 218.151 142.101 218.458L141.931 218.534C138.608 219.992 135.412 221.781 132.25 223.633L129.946 224.988C128.691 225.725 127.434 226.479 126.241 227.318C125.389 227.919 124.625 228.524 123.928 229.349C123.092 230.337 123.291 231.15 121.938 230.447C115.747 248.892 137.502 264.423 150.894 267.858C152.749 268.334 154.559 268.957 156.406 269.468C158.419 270.024 160.207 269.914 162.216 270.147C163.815 270.332 164.577 271.73 166.084 272.115C168.601 272.759 168.447 270.618 168.627 268.324C169.392 258.596 173.778 249.211 178.421 241.094C176.3 240.236 174.199 239.299 172.105 238.358C170.314 237.554 167.571 235.292 165.645 235.172C164.22 235.084 162.05 236.46 160.666 237.064C158.516 238.003 156.36 238.813 154.13 239.474L153.001 239.801C149.082 240.945 144.795 242.375 140.769 242.56L140.434 242.573C139.181 242.609 135.745 243.269 134.844 242.393C133.125 240.722 135.511 239.33 136.95 238.733C145.525 235.179 154.631 233.669 163.231 230.025C167.657 228.149 172.036 226.056 176.49 224.208C180.329 222.616 184.35 221.206 188.059 219.247C192.959 216.662 197.879 213.44 202.121 209.645C202.97 208.886 204.75 207.758 205.332 206.657C205.844 205.688 205.78 206.655 205.674 205.48C205.597 204.636 204.685 203.492 204.31 202.695C202.912 199.723 201.648 196.67 200.586 193.525ZM122.786 269.639C121.895 269.739 118.134 268.402 119.527 266.611C120.506 265.353 123.106 268.5 122.786 269.639ZM105.834 269.59C104.54 269.799 104.141 269.451 103.875 267.811C104.909 267.689 105.656 268.395 105.834 269.59ZM57.353 257.292C59.3153 257.996 66.8799 266.641 61.4737 266.31C59.1165 266.107 57.0996 264.091 56.0639 261.703L56.0103 261.577C55.1533 259.523 54.3422 256.213 57.353 257.292ZM345.496 206.458C343.699 207.386 342.563 210.868 341.656 212.792L341.603 212.903C340.371 215.454 339.287 218.131 337.918 220.603L337.466 221.422C335.132 225.668 332.798 230.111 329.865 233.814L329.58 234.171C328.103 235.987 326.852 238.031 325.149 239.668C324.37 240.416 322.881 241.03 322.307 241.965C321.766 242.848 322.371 243.412 322.166 244.467C321.955 245.548 320.988 246.702 320.573 247.744C320.028 249.112 319.52 250.484 318.912 251.822C318.248 253.281 318.067 254.044 317.888 255.47C317.693 257.029 318.292 257.191 317.089 258.628L325.837 262.993L326.303 262.006C326.902 261.348 327.453 259.723 327.796 258.853C329.228 255.223 330.846 251.579 332.486 247.974C329.872 243.798 332.572 241.978 334.697 238.512C336.397 235.74 337.961 232.684 339.038 229.589L339.586 228.012C342.06 220.86 344.256 214.09 345.496 206.458ZM77.7538 261.046C76.8691 261.446 73.6784 260.622 74.6816 259.054C75.6372 257.561 77.7551 259.806 77.7538 261.046ZM87.6782 247.409L87.6994 247.437C88.6464 248.653 91.7428 250.981 90.5413 252.921C88.6879 253.398 86.8543 252.017 85.7144 250.459C85.0053 249.489 83.3546 246.087 84.1863 244.687C85.3322 242.757 87.0556 246.57 87.6782 247.409ZM315.843 242.301L311.538 251.508C312.56 252 313.626 252.478 314.74 252.647C315.292 250.556 315.845 248.477 316.49 246.418L316.623 246.003C317.25 244.081 317.462 243.81 315.843 242.301ZM180.07 228.163L180.018 228.186C178.573 228.804 177.21 229.427 175.796 230.166C174.465 230.861 171.838 231.483 170.81 232.587C172.884 233.742 175.002 234.625 177.169 235.529C178.132 235.929 179.632 236.98 180.695 236.716C181.565 236.499 181.844 235 182.301 233.996C183.972 230.324 185.968 227.362 188.442 224.334C187.306 223.397 181.596 227.472 180.07 228.163ZM100.756 228.511C99.2415 230.521 97.1044 225.735 97.0181 224.635C98.2405 224.056 101.769 227.167 100.756 228.511ZM60.2283 218.166C61.5738 219.551 64.2796 223.49 64.0229 225.638C63.6858 228.455 60.9444 227.655 59.5232 226.183C58.0665 224.673 57.4235 221.919 57.1831 219.824L57.2073 219.657C57.5483 217.402 58.317 216.198 60.2283 218.166ZM59.6214 223.975C60.1474 224.735 60.6965 223.305 60.7748 222.996C60.1622 221.39 59.0652 223.173 59.6214 223.975ZM117.789 194.529L117.595 194.629C115.995 195.465 115.61 195.938 115.329 197.868L115.313 197.983C115.015 200.123 114.739 202.263 114.409 204.397C115.487 203.761 115.684 202.388 116.386 201.399L117.177 203.027C117.548 202.792 117.895 202.804 118.216 203.065C118.736 203.97 118.409 205.312 118.249 206.261C119.983 206.077 120.716 208.267 118.968 209.154C117.156 210.073 116.34 207.568 116.278 205.946C115.602 206.859 114.908 206.371 114.437 206.84C113.985 207.29 113.796 208.21 113.634 209.23L113.614 209.358C113.338 211.118 112.634 213.658 113.286 215.423C114.253 218.046 117.338 219.41 119.608 219.732C124.48 220.065 129.1 217.456 132.098 213.053L132.345 212.69C133.001 211.72 133.643 210.719 134.037 209.577L134.324 208.6C134.79 207.701 134.586 207.277 133.714 207.327C133.222 206.565 131.977 206.308 132.331 204.926C132.598 203.883 133.583 203.866 134.439 203.538L134.302 203.282C133.952 202.633 133.69 202.24 133.147 201.599L132.526 202.233C130.896 203.876 128.549 205.938 127.569 202.674C127.033 200.893 127.976 199.191 127.742 197.473C127.646 196.763 126.85 194.948 126.389 194.524C123.933 192.261 120.395 193.197 117.789 194.529ZM121.558 211.262C123.293 211.264 122.971 213.535 122.133 214.753C119.865 218.05 114.798 214.475 116.702 211.273C117.418 211.548 118.859 212.379 119.694 212.269C120.362 212.18 120.913 211.261 121.558 211.262ZM73.776 194.66C75.0426 195.05 75.2519 198.441 75.7679 199.622C77.6894 204.017 82.0996 206.754 83.6205 211.29C85.318 216.356 80.1857 216.514 77.4623 214.462C74.2377 212.033 72.3718 206.085 72.2761 201.846C72.086 200.789 72.1635 194.164 73.776 194.66ZM136.612 207.936C137.109 210.573 135.989 212.919 135.22 215.326L140.771 212.513C139.769 210.631 137.967 209.542 136.612 207.936ZM78.7827 210.523L78.7581 210.592C78.4902 211.381 77.96 214.002 79.1534 213.386C80.2406 212.824 79.5362 210.962 78.7827 210.523ZM123.785 199.437C126.152 200.129 124.973 206.02 122.983 206.425C120.641 206.902 120.233 202.112 120.695 200.381C121.901 201.191 121.155 204.083 122.674 203.284C123.64 202.775 123.493 200.423 123.785 199.437ZM206.823 184.508C206.03 185.545 204.156 186.926 203.709 188.136C203.442 188.856 203.404 191.142 203.533 191.804C203.801 193.19 205.159 194.849 205.764 196.139C206.529 197.772 207.196 199.469 207.531 201.285C210.554 199.737 213.419 196.992 215.898 194.535C218.744 191.713 221.295 188.756 223.379 185.104C222.125 185.177 219.357 189.741 219.326 184.772C219.31 182.237 222.38 179.74 223.332 177.389C220.962 175.875 218.79 184.923 216.071 182.73C213.451 180.616 217.585 173.351 218.381 171.058C216.844 169.901 208.09 182.851 206.823 184.508ZM89.7911 191.678C91.6997 191.697 96.0705 199.458 92.2107 199.807L91.9881 199.688C90.6215 198.947 89.379 198.032 88.8247 196.303C88.4531 195.142 88.141 191.662 89.7911 191.678ZM53.0452 174.498L53.0841 174.614C53.72 176.581 54.353 182.566 51.0126 179.231C49.9724 178.193 49.8154 176.896 50.1738 175.47C50.692 173.403 51.4461 173.813 53.0452 174.498ZM71.0369 160.27C72.6235 160.241 72.1875 162.27 72.0164 163.026C71.4966 165.32 71.2794 167.251 71.3946 169.752L71.4088 170.032C71.5644 172.855 72.7456 179.557 68.8293 179.464C65.181 179.926 64.9984 172.317 65.6232 169.705C66.1036 167.696 67.1173 165.542 68.1778 163.87L68.3246 163.643C68.6708 163.123 70.639 160.277 71.0369 160.27ZM68.6946 172.094C68.1846 172.721 68.2752 173.618 68.3229 174.68C69.0228 173.611 69.0935 173.04 68.6946 172.094ZM84.6711 166.33L84.7227 166.65C84.9448 167.977 85.7432 171.747 84.8501 172.541C83.5278 173.718 81.4242 171.022 80.999 169.964C80.1225 167.785 81.3344 165.642 82.0243 163.596C83.9002 163.557 84.3955 164.685 84.6711 166.33ZM275.759 93.3586C270.747 94.1642 266.272 96.6967 261.786 99.2676C259.525 100.564 257.617 102.245 255.546 103.873C254.471 104.718 253.49 104.827 253.42 106.305C253.367 107.418 255.068 109.936 255.527 110.945L255.866 110.556C261.403 104.23 267.399 99.0571 275.734 98.7314C285.853 98.3361 291.837 109.194 291.792 119.591C291.749 129.788 287.863 139.596 281.668 146.924C278.935 150.156 276.326 152.769 273.014 155.142L272.711 155.357C270.988 156.569 269.716 157.657 267.79 158.461L267.56 158.555C266.442 159.001 266.548 158.816 266.221 160.159C265.926 161.37 266.227 163.198 266.236 164.456L265.92 165.068C268.056 165.184 270.048 163.099 271.875 162.013L271.994 161.944C274.309 160.619 276.375 158.832 278.407 157.01L278.671 156.772C282.404 153.413 286.186 149.629 288.964 145.22L289.337 144.623C295.417 134.835 300.817 122.555 299.151 110.275C297.319 96.7694 286.881 91.5708 275.759 93.3586ZM109.752 142.117L109.52 142.351C107.416 144.466 105.809 145.763 105.396 149.111C105.073 151.74 105.395 154.344 105.408 156.991C105.432 161.43 102.264 166.096 98.8561 161.008C96.3701 157.297 97.2618 151.462 99.2889 147.732C100.353 145.775 101.872 143.84 103.626 142.62L103.731 142.549C105.132 141.614 108.685 139.953 109.752 142.117ZM98.9804 157.735C98.9804 160.56 101.007 158.648 100.934 156.638C100.828 153.68 98.8859 155.501 98.9804 157.735ZM274.451 102.814C269.868 103.578 265.714 105.775 261.982 108.603C261.139 109.242 260.351 109.927 259.564 110.632L258.887 111.241C257.552 112.447 256.752 112.478 257.086 114.368C257.334 115.773 258.01 117.228 258.446 118.576L258.544 118.887C259.241 121.154 259.06 121.72 261.248 120.927C262.813 120.956 264.239 119.997 265.87 120.05C268.436 120.134 270.467 122.386 271.956 124.556C274.902 128.852 274.151 134.033 272.671 138.84C271.962 141.138 270.99 143.343 269.775 145.354C268.7 147.134 266.777 148.818 266.027 150.8C265.024 153.448 266.472 153.039 267.871 152.417L268.815 151.981C270.738 151.102 272.541 150.01 274.173 148.539C281.446 141.983 286.98 132.871 288.833 122.406C289.737 117.3 289.668 111.331 286.525 107.163C283.652 103.352 278.691 102.107 274.451 102.814ZM64.2898 126.657C66.9109 127.257 63.8828 131.198 63.4393 132.235C62.1548 135.238 62.1521 137.9 62.1907 141.065L62.199 141.735C62.2302 144.368 62.7137 148.808 61.5405 151.192C60.3047 153.7 57.6411 152.12 56.1174 150.633L56.0634 150.579C54.1525 148.683 52.7093 145.663 52.9686 142.774C53.3999 137.711 55.0366 132.564 58.8869 129.409C59.839 128.629 60.9162 128.657 61.9597 128.165C62.5869 127.869 63.5778 126.494 64.2898 126.657ZM240.062 142.542C241.905 143.005 234.583 150.253 233.677 151.032C232.935 149.316 234.723 148.199 235.73 147.093L235.781 147.036C236.432 146.301 239.165 142.317 240.062 142.542ZM261.979 125.675L261.216 125.877C260.617 126.038 259.935 126.244 259.482 126.552C258.722 127.068 258.618 128.277 257.903 127.271L255.051 133.353C255.997 132.965 257.927 131.316 258.961 131.487C260.175 131.687 260.613 133.33 260.749 134.634L260.766 134.809C260.787 135.062 260.798 135.298 260.801 135.503C259.189 138.04 256.44 141.362 255.865 144.427C257.641 143.248 261.396 137.573 262.363 142.094C262.918 144.688 260.07 147.78 259.371 150.292C262.068 149.288 264.017 146.223 265.718 143.747L265.914 143.464C268.142 140.25 270.416 136.014 270.985 131.927C271.445 128.621 269.418 125.539 266.406 125.215C264.938 125.056 263.408 125.301 261.979 125.675ZM234.586 131.447C236.932 133.719 231.063 139.94 229.724 141.35C228.638 142.494 227.468 143.543 226.286 144.566L225.223 145.482C224.682 145.946 221.734 149.051 220.985 148.8C219.598 148.335 221.225 146.529 221.845 145.877L221.951 145.765C223.378 144.277 224.831 142.827 226.24 141.317L226.841 140.667C228.279 139.092 229.836 137.634 231.226 136.009C232.352 134.693 233.298 132.462 234.586 131.447ZM157.424 144.278C157.388 145.716 159.956 148.482 160.913 146.823C161.718 145.429 157.489 141.415 157.424 144.278ZM57.7503 138.838C56.8247 139.522 56.5638 140.194 56.5318 141.774L56.5303 142.023C56.535 142.889 56.6401 144.829 57.3586 144.747C58.1094 144.662 57.7503 139.669 57.7503 138.838ZM165.586 140.316C164.7 140.905 163.603 141.184 162.974 142.134L165.241 143.272L165.515 141.43L165.586 140.316ZM160.759 135.092C158.299 136.876 155.902 138.794 153.505 140.685C154.423 140.685 155.256 140.315 156.168 140.307C157.252 140.297 158.03 140.801 159.087 140.513C161.357 139.896 163.993 137.049 165.913 135.591C165.682 134.973 165.222 132.741 164.54 132.565C163.875 132.393 161.252 134.735 160.759 135.092ZM79.4156 137.077L79.3947 137.501C79.3582 138.434 79.3717 140.433 80.8438 139.837C81.7362 139.476 81.1825 137.369 81.099 136.751C81.3592 136.699 81.2456 135.088 80.836 134.882C79.6746 134.298 79.4684 136.209 79.4156 137.077ZM234.481 113.57C229.264 118.521 224.312 123.881 218.639 128.212C215.863 130.331 212.962 132.206 210.192 134.36C208.781 135.457 207.342 136.439 205.777 137.246L205.656 137.307C204.343 137.962 203.524 138.001 204.638 136.36C205.404 135.23 207.123 134.443 208.167 133.64C209.775 132.403 211.292 131.032 212.983 129.935C215.964 127.999 218.926 126.437 221.673 124.064C224.112 121.958 226.628 119.902 228.955 117.664L229.031 117.59C230.11 116.498 233.292 112.329 234.481 113.57ZM132.945 128.122C133.94 128.027 136.514 125.777 135.163 124.639C133.801 123.491 132.822 127.338 132.945 128.122ZM185.939 120.269C185.347 120.592 184.104 122.201 184.666 122.911C184.967 123.29 187.066 122.462 187.851 122.46C188.492 122.922 189.964 124.764 190.728 124.796L190.707 124.653C190.363 122.503 188.3 118.98 185.939 120.269ZM187.789 122.39L186.157 122.396C186.7 121.872 187.244 121.929 187.789 122.39ZM102.141 116.411C100.116 117.485 98.2901 118.708 97.3445 121.101C99.0576 120.942 101.312 118.477 102.964 117.556C104.082 116.933 107.124 116.19 107.455 114.775C107.743 113.546 102.581 116.177 102.141 116.411ZM66.6523 111.843C67.3962 113.99 71.0749 111.064 71.2116 109.488C71.4923 106.263 66.6139 109.696 66.6523 111.843ZM156.538 104.055C156.922 105.923 159.111 103.939 160.482 103.504C161.843 103.071 165.697 103.014 166.239 101.282C164.339 98.8589 155.436 98.7068 156.538 104.055ZM224.685 102.278L225.958 104.104C227.323 102.909 228.983 102.138 230.734 102.188L230.828 102.193C231.732 102.254 233.434 102.773 233.5 101.122C233.612 98.3398 225.892 101.733 224.685 102.278ZM274.316 98.3864C273.689 99.0139 273.012 98.5963 272.357 98.6325L274.316 98.3864ZM109.844 85.8661C105.738 86.0031 101.451 86.9682 97.5415 88.4113L96.3942 88.8361C94.8544 89.4197 92.1713 90.6053 92.8945 92.195C93.478 93.4774 96.6241 91.6652 97.5752 91.363C101.651 90.0676 105.848 89.2133 110.023 88.4336L110.131 88.4157C111.256 88.2445 114.47 88.2144 114.641 86.764C114.858 84.9341 111.037 85.864 109.844 85.8661ZM280.193 87.3646L278.56 87.3628C279.105 87.1322 279.649 87.2079 280.193 87.3646ZM167.779 76.4075L167.352 76.4306C166.229 76.5054 161.336 76.9519 163.535 79.3476C164.333 80.2161 167.192 79.9423 168.373 80.2961C168.585 79.1987 179.497 82.4489 181.013 83.1052L181.103 83.1464C181.933 83.5419 185.529 85.6012 184.737 82.3337C184.277 80.4347 179.932 78.9871 178.539 78.4667C175.087 77.1773 171.453 76.2508 167.779 76.4075Z" fill="black"/>
</svg>
